<?xml version="1.0" encoding="utf-8" standalone="no"?>
<!DOCTYPE svg PUBLIC "-//W3C//DTD SVG 1.1//EN"
  "http://www.w3.org/Graphics/SVG/1.1/DTD/svg11.dtd">
<!-- Created with matplotlib (https://matplotlib.org/) -->
<svg height="381.407375pt" version="1.1" viewBox="0 0 459.203125 381.407375" width="459.203125pt" xmlns="http://www.w3.org/2000/svg" xmlns:xlink="http://www.w3.org/1999/xlink">
 <metadata>
  <rdf:RDF xmlns:cc="http://creativecommons.org/ns#" xmlns:dc="http://purl.org/dc/elements/1.1/" xmlns:rdf="http://www.w3.org/1999/02/22-rdf-syntax-ns#">
   <cc:Work>
    <dc:type rdf:resource="http://purl.org/dc/dcmitype/StillImage"/>
    <dc:date>2021-04-07T14:06:47.047987</dc:date>
    <dc:format>image/svg+xml</dc:format>
    <dc:creator>
     <cc:Agent>
      <dc:title>Matplotlib v3.3.2, https://matplotlib.org/</dc:title>
     </cc:Agent>
    </dc:creator>
   </cc:Work>
  </rdf:RDF>
 </metadata>
 <defs>
  <style type="text/css">*{stroke-linecap:butt;stroke-linejoin:round;}</style>
 </defs>
 <g id="figure_1">
  <g id="patch_1">
   <path d="M 0 381.407375 
L 459.203125 381.407375 
L 459.203125 0 
L 0 0 
z
" style="fill:none;"/>
  </g>
  <g id="axes_1">
   <g id="patch_2">
    <path d="M 61.403125 326.84175 
L 452.003125 326.84175 
L 452.003125 55.04175 
L 61.403125 55.04175 
z
" style="fill:#ffffff;"/>
   </g>
   <g id="matplotlib.axis_1">
    <g id="xtick_1">
     <g id="line2d_1">
      <defs>
       <path d="M 0 0 
L 0 3.5 
" id="m89e97587cb" style="stroke:#000000;stroke-width:0.8;"/>
      </defs>
      <g>
       <use style="stroke:#000000;stroke-width:0.8;" x="138.843445" xlink:href="#m89e97587cb" y="326.84175"/>
      </g>
     </g>
     <g id="text_1">
      <!-- −2 -->
      <g transform="translate(128.204383 347.72925)scale(0.2 -0.2)">
       <defs>
        <path d="M 54.4375 31.25 
L 1.8125 31.25 
L 1.8125 35.25 
L 54.4375 35.25 
z
" id="TimesNewRomanPSMT-8722"/>
        <path d="M 45.84375 12.75 
L 41.21875 0 
L 2.15625 0 
L 2.15625 1.8125 
Q 19.390625 17.53125 26.421875 27.484375 
Q 33.453125 37.453125 33.453125 45.703125 
Q 33.453125 52 29.59375 56.046875 
Q 25.734375 60.109375 20.359375 60.109375 
Q 15.484375 60.109375 11.59375 57.25 
Q 7.71875 54.390625 5.859375 48.875 
L 4.046875 48.875 
Q 5.28125 57.90625 10.328125 62.734375 
Q 15.375 67.578125 22.953125 67.578125 
Q 31 67.578125 36.390625 62.40625 
Q 41.796875 57.234375 41.796875 50.203125 
Q 41.796875 45.171875 39.453125 40.140625 
Q 35.84375 32.234375 27.734375 23.390625 
Q 15.578125 10.109375 12.546875 7.375 
L 29.828125 7.375 
Q 35.109375 7.375 37.234375 7.765625 
Q 39.359375 8.15625 41.0625 9.34375 
Q 42.78125 10.546875 44.046875 12.75 
z
" id="TimesNewRomanPSMT-50"/>
       </defs>
       <use xlink:href="#TimesNewRomanPSMT-8722"/>
       <use x="56.396484" xlink:href="#TimesNewRomanPSMT-50"/>
      </g>
     </g>
    </g>
    <g id="xtick_2">
     <g id="line2d_2">
      <g>
       <use style="stroke:#000000;stroke-width:0.8;" x="256.703125" xlink:href="#m89e97587cb" y="326.84175"/>
      </g>
     </g>
     <g id="text_2">
      <!-- 0 -->
      <g transform="translate(251.703125 347.72925)scale(0.2 -0.2)">
       <defs>
        <path d="M 3.609375 32.71875 
Q 3.609375 44.046875 7.03125 52.21875 
Q 10.453125 60.40625 16.109375 64.40625 
Q 20.515625 67.578125 25.203125 67.578125 
Q 32.8125 67.578125 38.875 59.8125 
Q 46.4375 50.203125 46.4375 33.734375 
Q 46.4375 22.21875 43.109375 14.15625 
Q 39.796875 6.109375 34.640625 2.46875 
Q 29.5 -1.171875 24.703125 -1.171875 
Q 15.234375 -1.171875 8.9375 10.015625 
Q 3.609375 19.4375 3.609375 32.71875 
z
M 13.1875 31.5 
Q 13.1875 17.828125 16.546875 9.1875 
Q 19.34375 1.90625 24.859375 1.90625 
Q 27.484375 1.90625 30.3125 4.265625 
Q 33.15625 6.640625 34.625 12.203125 
Q 36.859375 20.609375 36.859375 35.890625 
Q 36.859375 47.21875 34.515625 54.78125 
Q 32.765625 60.40625 29.984375 62.75 
Q 27.984375 64.359375 25.140625 64.359375 
Q 21.828125 64.359375 19.234375 61.375 
Q 15.71875 57.328125 14.453125 48.625 
Q 13.1875 39.9375 13.1875 31.5 
z
" id="TimesNewRomanPSMT-48"/>
       </defs>
       <use xlink:href="#TimesNewRomanPSMT-48"/>
      </g>
     </g>
    </g>
    <g id="xtick_3">
     <g id="line2d_3">
      <g>
       <use style="stroke:#000000;stroke-width:0.8;" x="374.562805" xlink:href="#m89e97587cb" y="326.84175"/>
      </g>
     </g>
     <g id="text_3">
      <!-- 2 -->
      <g transform="translate(369.562805 347.72925)scale(0.2 -0.2)">
       <use xlink:href="#TimesNewRomanPSMT-50"/>
      </g>
     </g>
    </g>
    <g id="text_4">
     <!-- $\mathrm{Tangential\ Velocity}\ V_t [-]$ -->
     <g transform="translate(152.403125 369.807375)scale(0.2 -0.2)">
      <defs>
       <path d="M 59.296875 49.203125 
L 56.90625 49.203125 
Q 55.296875 57.40625 52.390625 59.703125 
Q 49.5 62 41.5 62 
L 35.59375 62 
L 35.59375 11.09375 
Q 35.59375 5.40625 37.296875 3.796875 
Q 39 2.203125 45.203125 1.90625 
L 45.203125 0 
L 16 0 
L 16 1.90625 
Q 22.296875 2.296875 23.84375 4 
Q 25.40625 5.703125 25.40625 12.296875 
L 25.40625 62 
L 19.40625 62 
Q 11.296875 62 8.4375 59.640625 
Q 5.59375 57.296875 4.09375 49.203125 
L 1.703125 49.203125 
L 2.40625 66.203125 
L 58.59375 66.203125 
z
" id="STIXGeneral-Regular-84"/>
       <path d="M 44.203125 6.59375 
L 44.203125 3.796875 
Q 40.40625 -1 35.203125 -1 
Q 29.5 -1 28.796875 6.296875 
L 28.703125 6.296875 
Q 22.296875 -1 14.203125 -1 
Q 9.5 -1 6.59375 1.75 
Q 3.703125 4.5 3.703125 9.40625 
Q 3.703125 16.40625 10.703125 21.09375 
Q 15.5 24.296875 28.703125 29.203125 
L 28.703125 34.59375 
Q 28.703125 39.09375 26.546875 41.34375 
Q 24.40625 43.59375 20.90625 43.59375 
Q 17.90625 43.59375 15.90625 42.140625 
Q 13.90625 40.703125 13.90625 38.703125 
Q 13.90625 37.796875 14.203125 36.6875 
Q 14.5 35.59375 14.5 34.5 
Q 14.5 33 13.140625 31.703125 
Q 11.796875 30.40625 9.90625 30.40625 
Q 8.203125 30.40625 6.890625 31.703125 
Q 5.59375 33 5.59375 35 
Q 5.59375 39.796875 10.703125 43 
Q 15.40625 46 22.203125 46 
Q 30.296875 46 34 41.5 
Q 35.796875 39.40625 36.296875 37.25 
Q 36.796875 35.09375 36.796875 30.40625 
L 36.796875 11.296875 
Q 36.796875 4.703125 39.90625 4.703125 
Q 41.90625 4.703125 44.203125 6.59375 
z
M 28.703125 12.703125 
L 28.703125 26.796875 
Q 19.5 23.59375 15.90625 20.203125 
Q 12.5 17.09375 12.5 12.5 
Q 12.5 8.703125 14.390625 6.75 
Q 16.296875 4.796875 19.40625 4.796875 
Q 22.703125 4.796875 25.203125 6.40625 
Q 27.296875 7.90625 28 9.203125 
Q 28.703125 10.5 28.703125 12.703125 
z
" id="STIXGeneral-Regular-97"/>
       <path d="M 48.5 0 
L 27.703125 0 
L 27.796875 1.5 
Q 31.5 1.796875 32.75 3.640625 
Q 34 5.5 34 10.5 
L 34 30.40625 
Q 34 40.5 26.703125 40.5 
Q 24.203125 40.5 22 39.296875 
Q 19.796875 38.09375 16.40625 34.796875 
L 16.40625 7.203125 
Q 16.40625 4.203125 17.75 3 
Q 19.09375 1.796875 22.90625 1.5 
L 22.90625 0 
L 1.796875 0 
L 1.796875 1.5 
Q 5.59375 1.796875 6.796875 3.34375 
Q 8 4.90625 8 9.40625 
L 8 33.703125 
Q 8 37.40625 7.296875 38.796875 
Q 6.59375 40.203125 4.5 40.203125 
Q 2.5 40.203125 1.59375 39.796875 
L 1.59375 41.5 
Q 8.59375 43.5 15.296875 46 
L 16.09375 45.703125 
L 16.09375 37.90625 
L 16.203125 37.90625 
Q 23.296875 46 30.59375 46 
Q 36.296875 46 39.34375 42 
Q 42.40625 38 42.40625 30.59375 
L 42.40625 8.5 
Q 42.40625 4.5 43.59375 3.203125 
Q 44.796875 1.90625 48.5 1.5 
z
" id="STIXGeneral-Regular-110"/>
       <path d="M 47 38.796875 
L 38.703125 38.796875 
Q 40.59375 34.5 40.59375 30.40625 
Q 40.59375 22.703125 35.390625 18.796875 
Q 30.203125 14.90625 25 14.90625 
Q 23.90625 14.90625 21.203125 15.203125 
L 19.296875 15.40625 
Q 17.296875 14.796875 15.296875 12.6875 
Q 13.296875 10.59375 13.296875 9.09375 
Q 13.296875 6.796875 21.09375 6.40625 
L 34 5.796875 
Q 39.5 5.59375 42.796875 2.6875 
Q 46.09375 -0.203125 46.09375 -4.90625 
Q 46.09375 -10.703125 40.09375 -15.40625 
Q 31.796875 -21.796875 20.09375 -21.796875 
Q 12.90625 -21.796875 7.84375 -18.9375 
Q 2.796875 -16.09375 2.796875 -12.09375 
Q 2.796875 -9.296875 5 -6.546875 
Q 7.203125 -3.796875 12.59375 0.09375 
Q 9.40625 1.59375 8.34375 2.6875 
Q 7.296875 3.796875 7.296875 5.40625 
Q 7.296875 8.296875 11.90625 12.296875 
Q 14.203125 14.296875 16.203125 16.296875 
Q 11.203125 18.796875 9.046875 21.890625 
Q 6.90625 25 6.90625 29.703125 
Q 6.90625 36.5 11.75 41.25 
Q 16.59375 46 23.59375 46 
Q 27.59375 46 31.59375 44.5 
L 33.796875 43.703125 
Q 36.703125 42.703125 39.296875 42.703125 
L 47 42.703125 
z
M 15.203125 33.796875 
L 15.203125 33.5 
Q 15.203125 26.296875 18.046875 21.84375 
Q 20.90625 17.40625 25.5 17.40625 
Q 28.90625 17.40625 30.90625 19.84375 
Q 32.90625 22.296875 32.90625 26.40625 
Q 32.90625 33 29.90625 38.5 
Q 27.40625 43.203125 22.59375 43.203125 
Q 19.09375 43.203125 17.140625 40.703125 
Q 15.203125 38.203125 15.203125 33.796875 
z
M 43.296875 -6.40625 
Q 43.296875 -3.59375 40.546875 -2.546875 
Q 37.796875 -1.5 30.90625 -1.5 
Q 21 -1.5 14.703125 -0.203125 
Q 11.703125 -3.796875 10.75 -5.4375 
Q 9.796875 -7.09375 9.796875 -8.796875 
Q 9.796875 -12.09375 13.75 -14.09375 
Q 17.703125 -16.09375 24.296875 -16.09375 
Q 32.796875 -16.09375 38.046875 -13.4375 
Q 43.296875 -10.796875 43.296875 -6.40625 
z
" id="STIXGeneral-Regular-103"/>
       <path d="M 40.796875 16.40625 
L 42.40625 15.703125 
Q 36.40625 -1 21.5 -1 
Q 12.703125 -1 7.59375 5.140625 
Q 2.5 11.296875 2.5 21.703125 
Q 2.5 32.40625 8.203125 39.203125 
Q 13.90625 46 23.203125 46 
Q 32.203125 46 37.09375 39.09375 
Q 40 35.09375 40.5 27.703125 
L 9.703125 27.703125 
Q 10.09375 21.40625 10.9375 18.09375 
Q 11.796875 14.796875 14.296875 11.40625 
Q 18.5 5.90625 25.40625 5.90625 
Q 30.296875 5.90625 33.640625 8.296875 
Q 37 10.703125 40.796875 16.40625 
z
M 9.90625 30.90625 
L 30.296875 30.90625 
Q 29.40625 37.203125 27.34375 39.796875 
Q 25.296875 42.40625 20.5 42.40625 
Q 16.296875 42.40625 13.5 39.453125 
Q 10.703125 36.5 9.90625 30.90625 
z
" id="STIXGeneral-Regular-101"/>
       <path d="M 26.59375 7.703125 
L 27.90625 6.59375 
Q 23.09375 -1 15.796875 -1 
Q 7 -1 7 11.703125 
L 7 41.796875 
L 1.703125 41.796875 
Q 1.296875 42.09375 1.296875 42.5 
Q 1.296875 43.296875 3 44.40625 
Q 6.796875 46.59375 12.703125 55.09375 
Q 12.90625 55.40625 13.65625 56.34375 
Q 14.40625 57.296875 14.703125 57.90625 
Q 15.40625 57.90625 15.40625 56.59375 
L 15.40625 45 
L 25.5 45 
L 25.5 41.796875 
L 15.40625 41.796875 
L 15.40625 13.203125 
Q 15.40625 8.40625 16.59375 6.296875 
Q 17.796875 4.203125 20.59375 4.203125 
Q 23.59375 4.203125 26.59375 7.703125 
z
" id="STIXGeneral-Regular-116"/>
       <path d="M 18 63.203125 
Q 18 61 16.5 59.546875 
Q 15 58.09375 12.796875 58.09375 
Q 10.703125 58.09375 9.25 59.546875 
Q 7.796875 61 7.796875 63.203125 
Q 7.796875 65.296875 9.296875 66.796875 
Q 10.796875 68.296875 12.90625 68.296875 
Q 15.09375 68.296875 16.546875 66.796875 
Q 18 65.296875 18 63.203125 
z
M 25.296875 0 
L 1.59375 0 
L 1.59375 1.5 
Q 6.796875 1.796875 8.140625 3.296875 
Q 9.5 4.796875 9.5 10.40625 
L 9.5 33.09375 
Q 9.5 36.59375 8.796875 38 
Q 8.09375 39.40625 6.203125 39.40625 
Q 3.796875 39.40625 2 38.90625 
L 2 40.5 
L 17.5 46 
L 17.90625 45.59375 
L 17.90625 10.5 
Q 17.90625 4.90625 19.15625 3.40625 
Q 20.40625 1.90625 25.296875 1.5 
z
" id="STIXGeneral-Regular-105"/>
       <path d="M 25.703125 0 
L 2.09375 0 
L 2.09375 1.5 
Q 6.796875 1.90625 8.296875 3.453125 
Q 9.796875 5 9.796875 9.203125 
L 9.796875 56.09375 
Q 9.796875 59.703125 8.890625 61.09375 
Q 8 62.5 5.59375 62.5 
Q 3.5 62.5 1.90625 62.296875 
L 1.90625 63.90625 
Q 11.40625 66.203125 17.703125 68.296875 
L 18.203125 67.90625 
L 18.203125 8.703125 
Q 18.203125 4.5 19.59375 3.140625 
Q 21 1.796875 25.703125 1.5 
z
" id="STIXGeneral-Regular-108"/>
       <path d="M 69.703125 66.203125 
L 69.703125 64.296875 
Q 66.59375 64.203125 64.59375 62.34375 
Q 62.59375 60.5 60.5 55.203125 
L 38.296875 -1.09375 
L 36.796875 -1.09375 
L 12.40625 53.296875 
Q 9.203125 60.40625 7.296875 62.296875 
Q 5.40625 64.203125 1.59375 64.296875 
L 1.59375 66.203125 
L 28.09375 66.203125 
L 28.09375 64.296875 
L 25.296875 64.09375 
Q 20.796875 63.796875 20.796875 61 
Q 20.796875 59 24.703125 50.296875 
L 39.90625 16.09375 
L 54.59375 53 
Q 56.5 57.796875 56.5 60.203125 
Q 56.5 60.90625 56.34375 61.453125 
Q 56.203125 62 56 62.390625 
Q 55.796875 62.796875 55.25 63.09375 
Q 54.703125 63.40625 54.390625 63.546875 
Q 54.09375 63.703125 53.296875 63.84375 
Q 52.5 64 52.140625 64.046875 
Q 51.796875 64.09375 50.75 64.1875 
Q 49.703125 64.296875 49.296875 64.296875 
L 49.296875 66.203125 
z
" id="STIXGeneral-Regular-86"/>
       <path d="M 47 23.09375 
Q 47 12.59375 40.75 5.796875 
Q 34.5 -1 24.5 -1 
Q 15.296875 -1 9.09375 5.75 
Q 2.90625 12.5 2.90625 22.796875 
Q 2.90625 33.203125 9.09375 39.59375 
Q 15.296875 46 25.40625 46 
Q 34.703125 46 40.84375 39.640625 
Q 47 33.296875 47 23.09375 
z
M 38 20.40625 
Q 38 31.796875 33 38.203125 
Q 29 43.203125 23.5 43.203125 
Q 18.296875 43.203125 15.09375 38.953125 
Q 11.90625 34.703125 11.90625 27.296875 
Q 11.90625 14.5 17.203125 6.796875 
Q 20.59375 1.796875 26.203125 1.796875 
Q 31.703125 1.796875 34.84375 6.75 
Q 38 11.703125 38 20.40625 
z
" id="STIXGeneral-Regular-111"/>
       <path d="M 39.796875 15.59375 
L 41.203125 14.703125 
Q 36.90625 6.296875 33 3.203125 
Q 27.90625 -1 21.5 -1 
Q 13.203125 -1 7.84375 5.25 
Q 2.5 11.5 2.5 21.203125 
Q 2.5 33.90625 10.90625 40.90625 
Q 17.09375 46 24.40625 46 
Q 30.703125 46 35.25 42.953125 
Q 39.796875 39.90625 39.796875 35.703125 
Q 39.796875 34 38.390625 32.75 
Q 37 31.5 35.09375 31.5 
Q 31.59375 31.5 30.296875 36.09375 
L 29.703125 38.296875 
Q 28.90625 41.09375 27.703125 42.09375 
Q 26.5 43.09375 23.796875 43.09375 
Q 17.703125 43.09375 13.953125 38.296875 
Q 10.203125 33.5 10.203125 25.703125 
Q 10.203125 17.09375 14.5 11.640625 
Q 18.796875 6.203125 25.703125 6.203125 
Q 30 6.203125 33.09375 8.25 
Q 36.203125 10.296875 39.796875 15.59375 
z
" id="STIXGeneral-Regular-99"/>
       <path d="M 47.5 45 
L 47.5 43.5 
Q 45.703125 43.296875 44.59375 42.1875 
Q 43.5 41.09375 42.5 38.40625 
L 27.5 -2.5 
Q 23.59375 -13.09375 19.640625 -17.4375 
Q 15.703125 -21.796875 10 -21.796875 
Q 6.796875 -21.796875 4.890625 -20.140625 
Q 3 -18.5 3 -16 
Q 3 -14.09375 4.25 -12.75 
Q 5.5 -11.40625 7.296875 -11.40625 
Q 10.203125 -11.40625 12.5 -12.703125 
Q 13.796875 -13.40625 15.09375 -13.40625 
Q 17.203125 -13.40625 20.09375 -9 
Q 21.5 -7 22.796875 -3.296875 
Q 24.09375 0.40625 24.09375 1.796875 
Q 24.09375 3.09375 19.90625 11.90625 
L 6.703125 40.09375 
Q 5.40625 43 1.40625 43.59375 
L 1.40625 45 
L 21.90625 45 
L 21.90625 43.5 
Q 18.703125 43.40625 17.453125 42.796875 
Q 16.203125 42.203125 16.203125 40.796875 
Q 16.203125 39.703125 17.5 36.703125 
L 28.703125 11.703125 
L 38.40625 39.296875 
Q 38.796875 40.203125 38.796875 41.09375 
Q 38.796875 43.5 34.203125 43.5 
L 34.203125 45 
z
" id="STIXGeneral-Regular-121"/>
       <path d="M 68.796875 65.296875 
L 68.796875 63.703125 
Q 65.59375 63.59375 63.203125 59.703125 
L 25.90625 -1.796875 
L 24 -1.796875 
L 15.796875 48.5 
Q 14.09375 59 12.9375 61.09375 
Q 11.796875 63.203125 7.59375 63.703125 
L 7.59375 65.296875 
L 31.59375 65.296875 
L 31.59375 63.703125 
Q 26.90625 63.203125 25.453125 62.203125 
Q 24 61.203125 24 58.59375 
Q 24 57.59375 24.09375 57.09375 
L 30.59375 12.796875 
L 51.59375 48.796875 
Q 56.5 57.203125 56.5 60.296875 
Q 56.5 63 50.296875 63.703125 
L 50.296875 65.296875 
z
" id="STIXGeneral-Italic-86"/>
       <path d="M 29.59375 42.796875 
L 29.09375 39.59375 
L 20.703125 39.59375 
L 12 6.796875 
Q 11.796875 6 11.796875 5.40625 
Q 11.796875 3.796875 13.296875 3.796875 
Q 14.5 3.796875 16.09375 5.34375 
Q 17.703125 6.90625 21.40625 11.703125 
L 22.703125 11 
Q 18.09375 4 15.140625 1.453125 
Q 12.203125 -1.09375 8.40625 -1.09375 
Q 3.796875 -1.09375 3.796875 2.59375 
Q 3.796875 3.59375 5.40625 10 
L 13.203125 39.59375 
L 5.703125 39.59375 
L 5.59375 40.203125 
Q 5.59375 42 8.90625 42.703125 
Q 11.40625 43.296875 15.5 46.546875 
Q 19.59375 49.796875 22.203125 53.703125 
Q 22.796875 54.59375 23.59375 54.59375 
Q 24.5 54.59375 24.5 53.796875 
Q 24.5 53.296875 24.40625 53.09375 
L 21.59375 42.796875 
z
" id="STIXGeneral-Italic-116"/>
       <path d="M 29.90625 -15.59375 
L 8.796875 -15.59375 
L 8.796875 66.203125 
L 29.90625 66.203125 
L 29.90625 63.703125 
L 21.59375 63.703125 
Q 19 63.703125 17.703125 62.59375 
Q 16.40625 61.5 16.40625 58.90625 
L 16.40625 -7.703125 
Q 16.40625 -13.09375 21.59375 -13.09375 
L 29.90625 -13.09375 
z
" id="STIXGeneral-Regular-91"/>
       <path d="M 62.09375 22 
L 6.40625 22 
L 6.40625 28.59375 
L 62.09375 28.59375 
z
" id="STIXGeneral-Regular-8722"/>
       <path d="M 24.5 -15.59375 
L 3.40625 -15.59375 
L 3.40625 -13.09375 
L 12.203125 -13.09375 
Q 14.796875 -13.09375 15.84375 -12 
Q 16.90625 -10.90625 16.90625 -8.5 
L 16.90625 58.296875 
Q 16.90625 63.703125 11.796875 63.703125 
L 3.40625 63.703125 
L 3.40625 66.203125 
L 24.5 66.203125 
z
" id="STIXGeneral-Regular-93"/>
      </defs>
      <use transform="translate(0 0.703125)" xlink:href="#STIXGeneral-Regular-84"/>
      <use transform="translate(61.099991 0.703125)" xlink:href="#STIXGeneral-Regular-97"/>
      <use transform="translate(105.499985 0.703125)" xlink:href="#STIXGeneral-Regular-110"/>
      <use transform="translate(155.499969 0.703125)" xlink:href="#STIXGeneral-Regular-103"/>
      <use transform="translate(205.499954 0.703125)" xlink:href="#STIXGeneral-Regular-101"/>
      <use transform="translate(249.899948 0.703125)" xlink:href="#STIXGeneral-Regular-110"/>
      <use transform="translate(299.899933 0.703125)" xlink:href="#STIXGeneral-Regular-116"/>
      <use transform="translate(327.699921 0.703125)" xlink:href="#STIXGeneral-Regular-105"/>
      <use transform="translate(355.499908 0.703125)" xlink:href="#STIXGeneral-Regular-97"/>
      <use transform="translate(399.899902 0.703125)" xlink:href="#STIXGeneral-Regular-108"/>
      <use transform="translate(453.63296 0.703125)" xlink:href="#STIXGeneral-Regular-86"/>
      <use transform="translate(525.832942 0.703125)" xlink:href="#STIXGeneral-Regular-101"/>
      <use transform="translate(570.232936 0.703125)" xlink:href="#STIXGeneral-Regular-108"/>
      <use transform="translate(598.032923 0.703125)" xlink:href="#STIXGeneral-Regular-111"/>
      <use transform="translate(648.032908 0.703125)" xlink:href="#STIXGeneral-Regular-99"/>
      <use transform="translate(692.432902 0.703125)" xlink:href="#STIXGeneral-Regular-105"/>
      <use transform="translate(720.23289 0.703125)" xlink:href="#STIXGeneral-Regular-116"/>
      <use transform="translate(748.032878 0.703125)" xlink:href="#STIXGeneral-Regular-121"/>
      <use transform="translate(822.099282 0.703125)" xlink:href="#STIXGeneral-Italic-86"/>
      <use transform="translate(883.199273 -12.525)scale(0.7)" xlink:href="#STIXGeneral-Italic-116"/>
      <use transform="translate(907.06864 0.703125)" xlink:href="#STIXGeneral-Regular-91"/>
      <use transform="translate(940.368627 0.703125)" xlink:href="#STIXGeneral-Regular-8722"/>
      <use transform="translate(1008.868612 0.703125)" xlink:href="#STIXGeneral-Regular-93"/>
     </g>
    </g>
   </g>
   <g id="matplotlib.axis_2">
    <g id="ytick_1">
     <g id="line2d_4">
      <defs>
       <path d="M 0 0 
L -3.5 0 
" id="mfcf74db499" style="stroke:#000000;stroke-width:0.8;"/>
      </defs>
      <g>
       <use style="stroke:#000000;stroke-width:0.8;" x="61.403125" xlink:href="#mfcf74db499" y="314.487205"/>
      </g>
     </g>
     <g id="text_5">
      <!-- 0.0 -->
      <g transform="translate(29.403125 321.430955)scale(0.2 -0.2)">
       <defs>
        <path d="M 12.5 9.46875 
Q 14.796875 9.46875 16.359375 7.875 
Q 17.921875 6.296875 17.921875 4.046875 
Q 17.921875 1.8125 16.328125 0.21875 
Q 14.75 -1.375 12.5 -1.375 
Q 10.25 -1.375 8.65625 0.21875 
Q 7.078125 1.8125 7.078125 4.046875 
Q 7.078125 6.34375 8.65625 7.90625 
Q 10.25 9.46875 12.5 9.46875 
z
" id="TimesNewRomanPSMT-46"/>
       </defs>
       <use xlink:href="#TimesNewRomanPSMT-48"/>
       <use x="50" xlink:href="#TimesNewRomanPSMT-46"/>
       <use x="75" xlink:href="#TimesNewRomanPSMT-48"/>
      </g>
     </g>
    </g>
    <g id="ytick_2">
     <g id="line2d_5">
      <g>
       <use style="stroke:#000000;stroke-width:0.8;" x="61.403125" xlink:href="#mfcf74db499" y="249.756333"/>
      </g>
     </g>
     <g id="text_6">
      <!-- 0.2 -->
      <g transform="translate(29.403125 256.700083)scale(0.2 -0.2)">
       <use xlink:href="#TimesNewRomanPSMT-48"/>
       <use x="50" xlink:href="#TimesNewRomanPSMT-46"/>
       <use x="75" xlink:href="#TimesNewRomanPSMT-50"/>
      </g>
     </g>
    </g>
    <g id="ytick_3">
     <g id="line2d_6">
      <g>
       <use style="stroke:#000000;stroke-width:0.8;" x="61.403125" xlink:href="#mfcf74db499" y="185.025462"/>
      </g>
     </g>
     <g id="text_7">
      <!-- 0.4 -->
      <g transform="translate(29.403125 191.969212)scale(0.2 -0.2)">
       <defs>
        <path d="M 46.53125 24.421875 
L 46.53125 17.484375 
L 37.640625 17.484375 
L 37.640625 0 
L 29.59375 0 
L 29.59375 17.484375 
L 1.5625 17.484375 
L 1.5625 23.734375 
L 32.28125 67.578125 
L 37.640625 67.578125 
L 37.640625 24.421875 
z
M 29.59375 24.421875 
L 29.59375 57.28125 
L 6.34375 24.421875 
z
" id="TimesNewRomanPSMT-52"/>
       </defs>
       <use xlink:href="#TimesNewRomanPSMT-48"/>
       <use x="50" xlink:href="#TimesNewRomanPSMT-46"/>
       <use x="75" xlink:href="#TimesNewRomanPSMT-52"/>
      </g>
     </g>
    </g>
    <g id="ytick_4">
     <g id="line2d_7">
      <g>
       <use style="stroke:#000000;stroke-width:0.8;" x="61.403125" xlink:href="#mfcf74db499" y="120.294591"/>
      </g>
     </g>
     <g id="text_8">
      <!-- 0.6 -->
      <g transform="translate(29.403125 127.238341)scale(0.2 -0.2)">
       <defs>
        <path d="M 44.828125 67.578125 
L 44.828125 65.765625 
Q 38.375 65.140625 34.296875 63.203125 
Q 30.21875 61.28125 26.234375 57.328125 
Q 22.265625 53.375 19.65625 48.515625 
Q 17.046875 43.65625 15.28125 36.96875 
Q 22.3125 41.796875 29.390625 41.796875 
Q 36.1875 41.796875 41.15625 36.328125 
Q 46.140625 30.859375 46.140625 22.265625 
Q 46.140625 13.96875 41.109375 7.125 
Q 35.0625 -1.171875 25.09375 -1.171875 
Q 18.3125 -1.171875 13.578125 3.328125 
Q 4.296875 12.0625 4.296875 25.984375 
Q 4.296875 34.859375 7.859375 42.859375 
Q 11.421875 50.875 18.03125 57.078125 
Q 24.65625 63.28125 30.703125 65.421875 
Q 36.765625 67.578125 42 67.578125 
z
M 14.453125 33.40625 
Q 13.578125 26.8125 13.578125 22.75 
Q 13.578125 18.0625 15.3125 12.5625 
Q 17.046875 7.078125 20.453125 3.859375 
Q 22.953125 1.5625 26.515625 1.5625 
Q 30.765625 1.5625 34.109375 5.5625 
Q 37.453125 9.578125 37.453125 17 
Q 37.453125 25.34375 34.125 31.4375 
Q 30.8125 37.546875 24.703125 37.546875 
Q 22.859375 37.546875 20.734375 36.765625 
Q 18.609375 35.984375 14.453125 33.40625 
z
" id="TimesNewRomanPSMT-54"/>
       </defs>
       <use xlink:href="#TimesNewRomanPSMT-48"/>
       <use x="50" xlink:href="#TimesNewRomanPSMT-46"/>
       <use x="75" xlink:href="#TimesNewRomanPSMT-54"/>
      </g>
     </g>
    </g>
    <g id="ytick_5">
     <g id="line2d_8">
      <g>
       <use style="stroke:#000000;stroke-width:0.8;" x="61.403125" xlink:href="#mfcf74db499" y="55.56372"/>
      </g>
     </g>
     <g id="text_9">
      <!-- 0.8 -->
      <g transform="translate(29.403125 62.50747)scale(0.2 -0.2)">
       <defs>
        <path d="M 19.1875 33.34375 
Q 11.328125 39.796875 9.046875 43.703125 
Q 6.78125 47.609375 6.78125 51.8125 
Q 6.78125 58.25 11.765625 62.90625 
Q 16.75 67.578125 25 67.578125 
Q 33.015625 67.578125 37.890625 63.234375 
Q 42.78125 58.890625 42.78125 53.328125 
Q 42.78125 49.609375 40.140625 45.75 
Q 37.5 41.890625 29.15625 36.671875 
Q 37.75 30.03125 40.53125 26.21875 
Q 44.234375 21.234375 44.234375 15.71875 
Q 44.234375 8.734375 38.90625 3.78125 
Q 33.59375 -1.171875 24.953125 -1.171875 
Q 15.53125 -1.171875 10.25 4.734375 
Q 6.0625 9.46875 6.0625 15.09375 
Q 6.0625 19.484375 9.015625 23.796875 
Q 11.96875 28.125 19.1875 33.34375 
z
M 26.859375 38.578125 
Q 32.71875 43.84375 34.28125 46.890625 
Q 35.84375 49.953125 35.84375 53.8125 
Q 35.84375 58.9375 32.953125 61.84375 
Q 30.078125 64.75 25.09375 64.75 
Q 20.125 64.75 17 61.859375 
Q 13.875 58.984375 13.875 55.125 
Q 13.875 52.59375 15.15625 50.046875 
Q 16.453125 47.515625 18.84375 45.21875 
z
M 21.484375 31.5 
Q 17.4375 28.078125 15.484375 24.046875 
Q 13.53125 20.015625 13.53125 15.328125 
Q 13.53125 9.03125 16.96875 5.25 
Q 20.40625 1.46875 25.734375 1.46875 
Q 31 1.46875 34.171875 4.4375 
Q 37.359375 7.421875 37.359375 11.671875 
Q 37.359375 15.1875 35.5 17.96875 
Q 32.03125 23.140625 21.484375 31.5 
z
" id="TimesNewRomanPSMT-56"/>
       </defs>
       <use xlink:href="#TimesNewRomanPSMT-48"/>
       <use x="50" xlink:href="#TimesNewRomanPSMT-46"/>
       <use x="75" xlink:href="#TimesNewRomanPSMT-56"/>
      </g>
     </g>
    </g>
    <g id="text_10">
     <!-- Probability -->
     <g transform="translate(21.0875 235.383937)rotate(-90)scale(0.2 -0.2)">
      <defs>
       <path d="M 20.515625 31 
L 20.515625 11.71875 
Q 20.515625 5.46875 21.875 3.953125 
Q 23.734375 1.8125 27.484375 1.8125 
L 30.03125 1.8125 
L 30.03125 0 
L 1.65625 0 
L 1.65625 1.8125 
L 4.15625 1.8125 
Q 8.34375 1.8125 10.15625 4.546875 
Q 11.140625 6.0625 11.140625 11.71875 
L 11.140625 54.5 
Q 11.140625 60.75 9.8125 62.25 
Q 7.90625 64.40625 4.15625 64.40625 
L 1.65625 64.40625 
L 1.65625 66.21875 
L 25.921875 66.21875 
Q 34.8125 66.21875 39.9375 64.375 
Q 45.0625 62.546875 48.578125 58.203125 
Q 52.09375 53.859375 52.09375 47.90625 
Q 52.09375 39.796875 46.75 34.71875 
Q 41.40625 29.640625 31.640625 29.640625 
Q 29.25 29.640625 26.46875 29.984375 
Q 23.6875 30.328125 20.515625 31 
z
M 20.515625 33.796875 
Q 23.09375 33.296875 25.09375 33.046875 
Q 27.09375 32.8125 28.515625 32.8125 
Q 33.59375 32.8125 37.28125 36.734375 
Q 40.96875 40.671875 40.96875 46.921875 
Q 40.96875 51.21875 39.203125 54.90625 
Q 37.453125 58.59375 34.21875 60.421875 
Q 31 62.25 26.90625 62.25 
Q 24.421875 62.25 20.515625 61.328125 
z
" id="TimesNewRomanPSMT-80"/>
       <path d="M 16.21875 46.046875 
L 16.21875 35.984375 
Q 21.828125 46.046875 27.734375 46.046875 
Q 30.421875 46.046875 32.171875 44.40625 
Q 33.9375 42.78125 33.9375 40.625 
Q 33.9375 38.71875 32.65625 37.390625 
Q 31.390625 36.078125 29.640625 36.078125 
Q 27.9375 36.078125 25.8125 37.765625 
Q 23.6875 39.453125 22.65625 39.453125 
Q 21.78125 39.453125 20.75 38.484375 
Q 18.5625 36.46875 16.21875 31.890625 
L 16.21875 10.453125 
Q 16.21875 6.734375 17.140625 4.828125 
Q 17.78125 3.515625 19.390625 2.640625 
Q 21 1.765625 24.03125 1.765625 
L 24.03125 0 
L 1.125 0 
L 1.125 1.765625 
Q 4.546875 1.765625 6.203125 2.828125 
Q 7.421875 3.609375 7.90625 5.328125 
Q 8.15625 6.15625 8.15625 10.0625 
L 8.15625 27.390625 
Q 8.15625 35.203125 7.828125 36.6875 
Q 7.515625 38.1875 6.65625 38.859375 
Q 5.8125 39.546875 4.546875 39.546875 
Q 3.03125 39.546875 1.125 38.8125 
L 0.640625 40.578125 
L 14.15625 46.046875 
z
" id="TimesNewRomanPSMT-114"/>
       <path d="M 25 46.046875 
Q 35.15625 46.046875 41.3125 38.328125 
Q 46.53125 31.734375 46.53125 23.1875 
Q 46.53125 17.1875 43.640625 11.03125 
Q 40.765625 4.890625 35.71875 1.75 
Q 30.671875 -1.375 24.46875 -1.375 
Q 14.359375 -1.375 8.40625 6.6875 
Q 3.375 13.484375 3.375 21.921875 
Q 3.375 28.078125 6.421875 34.15625 
Q 9.46875 40.234375 14.453125 43.140625 
Q 19.4375 46.046875 25 46.046875 
z
M 23.484375 42.875 
Q 20.90625 42.875 18.28125 41.328125 
Q 15.671875 39.796875 14.0625 35.9375 
Q 12.453125 32.078125 12.453125 26.03125 
Q 12.453125 16.265625 16.328125 9.171875 
Q 20.21875 2.09375 26.5625 2.09375 
Q 31.296875 2.09375 34.375 6 
Q 37.453125 9.90625 37.453125 19.4375 
Q 37.453125 31.34375 32.328125 38.1875 
Q 28.859375 42.875 23.484375 42.875 
z
" id="TimesNewRomanPSMT-111"/>
       <path d="M 15.375 37.015625 
Q 21.875 46.046875 29.390625 46.046875 
Q 36.28125 46.046875 41.40625 40.15625 
Q 46.53125 34.28125 46.53125 24.078125 
Q 46.53125 12.15625 38.625 4.890625 
Q 31.84375 -1.375 23.484375 -1.375 
Q 19.578125 -1.375 15.546875 0.046875 
Q 11.53125 1.46875 7.328125 4.296875 
L 7.328125 50.640625 
Q 7.328125 58.25 6.953125 60 
Q 6.59375 61.765625 5.8125 62.390625 
Q 5.03125 63.03125 3.859375 63.03125 
Q 2.484375 63.03125 0.4375 62.25 
L -0.25 63.96875 
L 13.1875 69.4375 
L 15.375 69.4375 
z
M 15.375 33.890625 
L 15.375 7.125 
Q 17.875 4.6875 20.53125 3.4375 
Q 23.1875 2.203125 25.984375 2.203125 
Q 30.421875 2.203125 34.25 7.078125 
Q 38.09375 11.96875 38.09375 21.296875 
Q 38.09375 29.890625 34.25 34.5 
Q 30.421875 39.109375 25.53125 39.109375 
Q 22.953125 39.109375 20.359375 37.796875 
Q 18.40625 36.8125 15.375 33.890625 
z
" id="TimesNewRomanPSMT-98"/>
       <path d="M 28.46875 6.453125 
Q 21.578125 1.125 19.828125 0.296875 
Q 17.1875 -0.921875 14.203125 -0.921875 
Q 9.578125 -0.921875 6.5625 2.25 
Q 3.5625 5.421875 3.5625 10.59375 
Q 3.5625 13.875 5.03125 16.265625 
Q 7.03125 19.578125 11.984375 22.5 
Q 16.9375 25.4375 28.46875 29.640625 
L 28.46875 31.390625 
Q 28.46875 38.09375 26.34375 40.578125 
Q 24.21875 43.0625 20.171875 43.0625 
Q 17.09375 43.0625 15.28125 41.40625 
Q 13.421875 39.75 13.421875 37.59375 
L 13.53125 34.765625 
Q 13.53125 32.515625 12.375 31.296875 
Q 11.234375 30.078125 9.375 30.078125 
Q 7.5625 30.078125 6.421875 31.34375 
Q 5.28125 32.625 5.28125 34.8125 
Q 5.28125 39.015625 9.578125 42.53125 
Q 13.875 46.046875 21.625 46.046875 
Q 27.59375 46.046875 31.390625 44.046875 
Q 34.28125 42.53125 35.640625 39.3125 
Q 36.53125 37.203125 36.53125 30.71875 
L 36.53125 15.53125 
Q 36.53125 9.125 36.765625 7.6875 
Q 37.015625 6.25 37.578125 5.765625 
Q 38.140625 5.28125 38.875 5.28125 
Q 39.65625 5.28125 40.234375 5.609375 
Q 41.265625 6.25 44.1875 9.1875 
L 44.1875 6.453125 
Q 38.71875 -0.875 33.734375 -0.875 
Q 31.34375 -0.875 29.921875 0.78125 
Q 28.515625 2.4375 28.46875 6.453125 
z
M 28.46875 9.625 
L 28.46875 26.65625 
Q 21.09375 23.734375 18.953125 22.515625 
Q 15.09375 20.359375 13.421875 18.015625 
Q 11.765625 15.671875 11.765625 12.890625 
Q 11.765625 9.375 13.859375 7.046875 
Q 15.96875 4.734375 18.703125 4.734375 
Q 22.40625 4.734375 28.46875 9.625 
z
" id="TimesNewRomanPSMT-97"/>
       <path d="M 14.5 69.4375 
Q 16.546875 69.4375 17.984375 67.984375 
Q 19.4375 66.546875 19.4375 64.5 
Q 19.4375 62.453125 17.984375 60.984375 
Q 16.546875 59.515625 14.5 59.515625 
Q 12.453125 59.515625 10.984375 60.984375 
Q 9.515625 62.453125 9.515625 64.5 
Q 9.515625 66.546875 10.953125 67.984375 
Q 12.40625 69.4375 14.5 69.4375 
z
M 18.5625 46.046875 
L 18.5625 10.109375 
Q 18.5625 5.90625 19.171875 4.515625 
Q 19.78125 3.125 20.96875 2.4375 
Q 22.171875 1.765625 25.34375 1.765625 
L 25.34375 0 
L 3.609375 0 
L 3.609375 1.765625 
Q 6.890625 1.765625 8 2.390625 
Q 9.125 3.03125 9.78125 4.484375 
Q 10.453125 5.953125 10.453125 10.109375 
L 10.453125 27.34375 
Q 10.453125 34.625 10.015625 36.765625 
Q 9.671875 38.328125 8.9375 38.9375 
Q 8.203125 39.546875 6.9375 39.546875 
Q 5.5625 39.546875 3.609375 38.8125 
L 2.9375 40.578125 
L 16.40625 46.046875 
z
" id="TimesNewRomanPSMT-105"/>
       <path d="M 18.5 69.4375 
L 18.5 10.109375 
Q 18.5 5.90625 19.109375 4.53125 
Q 19.734375 3.171875 21 2.46875 
Q 22.265625 1.765625 25.734375 1.765625 
L 25.734375 0 
L 3.8125 0 
L 3.8125 1.765625 
Q 6.890625 1.765625 8 2.390625 
Q 9.125 3.03125 9.765625 4.484375 
Q 10.40625 5.953125 10.40625 10.109375 
L 10.40625 50.734375 
Q 10.40625 58.296875 10.0625 60.03125 
Q 9.71875 61.765625 8.953125 62.390625 
Q 8.203125 63.03125 7.03125 63.03125 
Q 5.765625 63.03125 3.8125 62.25 
L 2.984375 63.96875 
L 16.3125 69.4375 
z
" id="TimesNewRomanPSMT-108"/>
       <path d="M 16.109375 59.421875 
L 16.109375 44.734375 
L 26.5625 44.734375 
L 26.5625 41.3125 
L 16.109375 41.3125 
L 16.109375 12.3125 
Q 16.109375 7.953125 17.359375 6.4375 
Q 18.609375 4.9375 20.5625 4.9375 
Q 22.171875 4.9375 23.6875 5.9375 
Q 25.203125 6.9375 26.03125 8.890625 
L 27.9375 8.890625 
Q 26.21875 4.109375 23.09375 1.6875 
Q 19.96875 -0.734375 16.65625 -0.734375 
Q 14.40625 -0.734375 12.25 0.515625 
Q 10.109375 1.765625 9.078125 4.078125 
Q 8.0625 6.390625 8.0625 11.234375 
L 8.0625 41.3125 
L 0.984375 41.3125 
L 0.984375 42.921875 
Q 3.65625 44 6.46875 46.5625 
Q 9.28125 49.125 11.46875 52.640625 
Q 12.59375 54.5 14.59375 59.421875 
z
" id="TimesNewRomanPSMT-116"/>
       <path d="M 0.59375 44.734375 
L 21.4375 44.734375 
L 21.4375 42.921875 
L 20.40625 42.921875 
Q 18.21875 42.921875 17.109375 41.96875 
Q 16.015625 41.015625 16.015625 39.59375 
Q 16.015625 37.703125 17.625 34.328125 
L 28.515625 11.765625 
L 38.53125 36.46875 
Q 39.359375 38.484375 39.359375 40.4375 
Q 39.359375 41.3125 39.015625 41.75 
Q 38.625 42.28125 37.796875 42.59375 
Q 36.96875 42.921875 34.859375 42.921875 
L 34.859375 44.734375 
L 49.421875 44.734375 
L 49.421875 42.921875 
Q 47.609375 42.71875 46.625 42.125 
Q 45.65625 41.546875 44.484375 39.9375 
Q 44.046875 39.265625 42.828125 36.1875 
L 24.609375 -8.453125 
Q 21.96875 -14.9375 17.6875 -18.25 
Q 13.421875 -21.578125 9.46875 -21.578125 
Q 6.59375 -21.578125 4.734375 -19.921875 
Q 2.875 -18.265625 2.875 -16.109375 
Q 2.875 -14.0625 4.21875 -12.8125 
Q 5.5625 -11.578125 7.90625 -11.578125 
Q 9.515625 -11.578125 12.3125 -12.640625 
Q 14.265625 -13.375 14.75 -13.375 
Q 16.21875 -13.375 17.9375 -11.859375 
Q 19.671875 -10.359375 21.4375 -6 
L 24.609375 1.765625 
L 8.546875 35.5 
Q 7.8125 37.015625 6.203125 39.265625 
Q 4.984375 40.96875 4.203125 41.546875 
Q 3.078125 42.328125 0.59375 42.921875 
z
" id="TimesNewRomanPSMT-121"/>
      </defs>
      <use xlink:href="#TimesNewRomanPSMT-80"/>
      <use x="55.615234" xlink:href="#TimesNewRomanPSMT-114"/>
      <use x="88.916016" xlink:href="#TimesNewRomanPSMT-111"/>
      <use x="138.916016" xlink:href="#TimesNewRomanPSMT-98"/>
      <use x="188.916016" xlink:href="#TimesNewRomanPSMT-97"/>
      <use x="233.300781" xlink:href="#TimesNewRomanPSMT-98"/>
      <use x="283.300781" xlink:href="#TimesNewRomanPSMT-105"/>
      <use x="311.083984" xlink:href="#TimesNewRomanPSMT-108"/>
      <use x="338.867188" xlink:href="#TimesNewRomanPSMT-105"/>
      <use x="366.650391" xlink:href="#TimesNewRomanPSMT-116"/>
      <use x="394.433594" xlink:href="#TimesNewRomanPSMT-121"/>
     </g>
    </g>
   </g>
   <g id="line2d_9">
    <path clip-path="url(#p073439ca01)" d="M 79.15767 314.487205 
L 84.497383 314.487205 
L 85.387336 310.724391 
L 86.277288 314.487205 
L 103.186379 314.487205 
L 104.076331 310.724391 
L 104.966283 314.487205 
L 105.856235 314.487205 
L 106.746187 310.724391 
L 107.636139 314.487205 
L 108.526092 314.487205 
L 109.416044 310.724391 
L 110.305996 314.487205 
L 116.535661 314.487205 
L 117.425613 306.961598 
L 118.315565 314.487205 
L 121.875374 314.487205 
L 122.765326 310.724391 
L 123.655278 309.470119 
L 124.54523 306.961598 
L 125.435182 314.487205 
L 126.325135 314.487205 
L 127.215087 306.961598 
L 128.105039 314.487205 
L 130.774895 314.487205 
L 131.664847 306.961598 
L 132.5548 314.487205 
L 133.444752 306.961598 
L 134.334704 314.487205 
L 135.224656 310.724391 
L 136.114608 310.724391 
L 137.00456 306.961598 
L 137.894513 314.487205 
L 139.674417 306.961598 
L 140.564369 306.961598 
L 141.454321 314.487205 
L 142.344273 300.690242 
L 143.234225 310.724391 
L 144.124178 314.487205 
L 145.01413 303.198784 
L 147.683986 314.487205 
L 148.573938 303.198784 
L 149.463891 303.198784 
L 150.353843 310.724391 
L 151.243795 303.198784 
L 152.133747 314.487205 
L 153.023699 310.724391 
L 153.913651 310.724391 
L 154.803603 314.487205 
L 155.693556 303.198784 
L 156.583508 306.961598 
L 157.47346 300.690242 
L 158.363412 295.673178 
L 159.253364 307.588723 
L 160.143316 306.961598 
L 161.033269 310.724391 
L 161.923221 288.147615 
L 163.703125 303.198784 
L 164.593077 306.334452 
L 165.483029 303.198784 
L 166.372981 303.198784 
L 167.262934 276.859066 
L 168.152886 288.147615 
L 169.042838 295.673178 
L 169.93279 281.876151 
L 170.822742 302.571659 
L 171.712694 295.046032 
L 172.602647 280.621987 
L 173.492599 299.43597 
L 174.382551 303.825931 
L 175.272503 276.859066 
L 176.162455 295.046032 
L 177.052407 287.520532 
L 177.942359 286.893236 
L 178.832312 275.604902 
L 179.722264 273.096359 
L 180.612216 290.656157 
L 181.502168 279.367608 
L 182.39212 269.960734 
L 183.282072 296.927449 
L 184.172025 276.231984 
L 185.061977 263.689271 
L 185.951929 269.960734 
L 186.841881 284.384693 
L 187.731833 263.689271 
L 188.621785 254.282397 
L 189.511737 265.570731 
L 190.40169 261.808025 
L 191.291642 276.859066 
L 192.181594 258.045103 
L 193.071546 268.706356 
L 193.961498 270.587816 
L 194.85145 271.214898 
L 195.741403 237.349681 
L 197.521307 248.638015 
L 198.411259 246.756769 
L 199.301211 202.230084 
L 200.191163 254.909479 
L 201.081115 252.400936 
L 201.971068 239.231141 
L 202.86102 268.079274 
L 203.750972 243.62093 
L 204.640924 236.095302 
L 205.530876 192.195914 
L 206.420828 226.061346 
L 207.310781 194.077375 
L 208.200733 232.959678 
L 209.090685 192.823211 
L 209.980637 261.808025 
L 211.760541 194.077375 
L 212.650493 209.755712 
L 213.540446 201.603002 
L 214.430398 220.416965 
L 215.32035 182.78904 
L 216.210302 216.027176 
L 217.100254 198.467378 
L 217.990206 198.467378 
L 218.880158 195.331753 
L 219.770111 187.178829 
L 220.660063 211.010091 
L 221.550015 209.755712 
L 222.439967 167.737785 
L 223.329919 170.246327 
L 224.219871 217.908422 
L 225.109824 198.467378 
L 225.999776 161.466321 
L 226.889728 144.533819 
L 227.77968 160.839239 
L 228.669632 142.025277 
L 229.559584 143.279441 
L 230.449536 185.924665 
L 231.339489 156.44945 
L 232.229441 154.56799 
L 233.119393 67.396295 
L 234.009345 135.753813 
L 234.899297 154.56799 
L 235.789249 166.483406 
L 236.679202 146.41528 
L 237.569154 122.584018 
L 238.459106 131.364024 
L 239.349058 144.533819 
L 240.23901 137.635274 
L 241.128962 154.56799 
L 242.018914 118.821311 
L 242.908867 154.56799 
L 243.798819 179.026119 
L 244.688771 118.821311 
L 245.578723 136.381109 
L 246.468675 157.703614 
L 247.358627 167.110703 
L 248.24858 122.584018 
L 249.138532 171.500491 
L 250.028484 131.991106 
L 250.918436 110.668602 
L 251.808388 125.719857 
L 252.69834 179.653416 
L 253.588292 170.246327 
L 254.478245 126.346939 
L 255.368197 75.548791 
L 256.258149 153.313611 
L 257.148101 158.957778 
L 258.038053 181.534662 
L 258.928005 110.041305 
L 259.817958 131.364024 
L 260.70791 146.41528 
L 261.597862 148.923822 
L 262.487814 153.313611 
L 264.267718 116.312769 
L 265.15767 113.804226 
L 266.047623 137.635274 
L 266.937575 175.263412 
L 268.717479 96.245071 
L 269.607431 147.669444 
L 270.497383 147.042362 
L 271.387336 128.2284 
L 272.277288 202.857381 
L 273.16724 143.279441 
L 274.057192 170.246327 
L 274.947144 173.381952 
L 275.837096 122.584018 
L 276.727048 134.499649 
L 277.617001 148.923822 
L 278.506953 129.482564 
L 279.396905 97.498807 
L 280.286857 176.517577 
L 281.176809 178.399037 
L 282.066761 144.533819 
L 282.956714 179.026119 
L 283.846666 153.313611 
L 284.736618 204.738627 
L 285.62657 154.56799 
L 286.516522 219.162801 
L 287.406474 167.110703 
L 288.296426 192.823211 
L 289.186379 207.24717 
L 290.076331 202.230084 
L 290.966283 170.246327 
L 291.856235 197.212999 
L 292.746187 152.686529 
L 293.636139 187.178829 
L 294.526092 160.839239 
L 295.416044 199.721542 
L 296.305996 167.737785 
L 297.195948 211.637173 
L 298.0859 233.586974 
L 298.975852 165.229242 
L 299.865804 209.755712 
L 300.755757 212.891337 
L 301.645709 202.857381 
L 302.535661 210.382794 
L 303.425613 189.060289 
L 304.315565 217.28134 
L 305.205517 235.46822 
L 306.095469 227.942592 
L 306.985422 207.24717 
L 307.875374 216.654258 
L 308.765326 216.654258 
L 309.655278 222.298425 
L 310.54523 254.909479 
L 311.435182 276.859066 
L 312.325135 246.129473 
L 313.215087 232.959678 
L 314.105039 248.638015 
L 314.994991 202.857381 
L 315.884943 231.705513 
L 316.774895 246.129473 
L 317.664847 239.231141 
L 318.5548 269.333438 
L 319.444752 269.960734 
L 320.334704 271.214898 
L 321.224656 264.943649 
L 322.114608 254.909479 
L 323.00456 256.790939 
L 323.894513 278.740526 
L 324.784465 222.925507 
L 325.674417 265.570731 
L 326.564369 253.6551 
L 327.454321 250.519476 
L 328.344273 274.350523 
L 329.234225 271.841981 
L 330.124178 264.943649 
L 331.01413 276.859066 
L 331.904082 274.350523 
L 332.794034 258.672186 
L 333.683986 283.130529 
L 334.573938 299.43597 
L 335.463891 289.401779 
L 336.353843 288.147615 
L 337.243795 295.046032 
L 338.133747 284.384693 
L 339.023699 293.164635 
L 339.913651 299.43597 
L 340.803603 292.537403 
L 341.693556 291.910321 
L 342.583508 285.639072 
L 343.47346 283.757611 
L 344.363412 281.249069 
L 345.253364 303.825931 
L 346.143316 291.910321 
L 347.033269 288.147615 
L 348.813173 303.198784 
L 349.703125 300.063117 
L 350.593077 306.961598 
L 351.483029 295.673178 
L 352.372981 303.198784 
L 353.262934 295.673178 
L 354.152886 310.724391 
L 355.042838 297.554574 
L 355.93279 286.266154 
L 356.822742 306.961598 
L 357.712694 303.198784 
L 359.492599 303.198784 
L 360.382551 301.944513 
L 361.272503 306.961598 
L 362.162455 306.334452 
L 363.052407 311.351537 
L 363.942359 303.198784 
L 364.832312 314.487205 
L 365.722264 310.724391 
L 366.612216 310.724391 
L 367.502168 306.961598 
L 368.39212 314.487205 
L 369.282072 310.724391 
L 370.172025 304.453056 
L 371.061977 310.724391 
L 372.841881 310.724391 
L 373.731833 307.588723 
L 374.621785 310.724391 
L 375.511737 314.487205 
L 376.40169 306.961598 
L 378.181594 314.487205 
L 379.961498 314.487205 
L 380.85145 310.724391 
L 381.741403 314.487205 
L 382.631355 310.724391 
L 385.301211 310.724391 
L 386.191163 314.487205 
L 387.081115 314.487205 
L 387.971068 310.724391 
L 388.86102 314.487205 
L 395.980637 314.487205 
L 396.870589 310.724391 
L 397.760541 314.487205 
L 405.770111 314.487205 
L 406.660063 310.724391 
L 407.550015 314.487205 
L 409.329919 314.487205 
L 410.219871 310.724391 
L 411.109824 314.487205 
L 434.24858 314.487205 
L 434.24858 314.487205 
" style="fill:none;stroke:#0e72cc;stroke-linecap:square;stroke-width:1.5;"/>
   </g>
   <g id="line2d_10">
    <path clip-path="url(#p073439ca01)" d="M 79.15767 314.466342 
L 101.406474 314.311226 
L 112.0859 314.044604 
L 120.095469 313.640552 
L 126.325135 313.120399 
L 131.664847 312.462937 
L 136.114608 311.714174 
L 140.564369 310.731522 
L 144.124178 309.739206 
L 147.683986 308.528351 
L 151.243795 307.063079 
L 154.803603 305.30476 
L 157.47346 303.769221 
L 160.143316 302.028154 
L 162.813173 300.063594 
L 165.483029 297.857669 
L 168.152886 295.392919 
L 170.822742 292.652676 
L 173.492599 289.621466 
L 176.162455 286.285456 
L 178.832312 282.632921 
L 181.502168 278.654733 
L 184.172025 274.344851 
L 186.841881 269.700818 
L 190.40169 262.992379 
L 193.961498 255.709636 
L 197.521307 247.884771 
L 201.081115 239.566987 
L 205.530876 228.58031 
L 210.870589 214.761843 
L 225.109824 177.499724 
L 228.669632 168.865595 
L 232.229441 160.812909 
L 234.899297 155.246985 
L 237.569154 150.155471 
L 240.23901 145.595922 
L 242.908867 141.620974 
L 244.688771 139.319127 
L 246.468675 137.31019 
L 248.24858 135.604888 
L 250.028484 134.212392 
L 251.808388 133.140232 
L 253.588292 132.394235 
L 255.368197 131.978467 
L 257.148101 131.895199 
L 258.928005 132.144888 
L 260.70791 132.726167 
L 262.487814 133.635865 
L 264.267718 134.86903 
L 266.047623 136.418974 
L 267.827527 138.277339 
L 269.607431 140.434165 
L 271.387336 142.877985 
L 274.057192 147.053303 
L 276.727048 151.796287 
L 279.396905 157.052544 
L 282.066761 162.763121 
L 285.62657 170.975694 
L 289.186379 179.730805 
L 294.526092 193.538702 
L 308.765326 230.823245 
L 313.215087 241.68929 
L 316.774895 249.88942 
L 320.334704 257.582685 
L 323.894513 264.724228 
L 327.454321 271.285947 
L 331.01413 277.25516 
L 333.683986 281.343409 
L 336.353843 285.103623 
L 339.023699 288.543956 
L 341.693556 291.675323 
L 344.363412 294.510908 
L 347.033269 297.065687 
L 349.703125 299.355978 
L 352.372981 301.39902 
L 355.042838 303.212588 
L 357.712694 304.814647 
L 361.272503 306.652535 
L 364.832312 308.18735 
L 368.39212 309.458331 
L 371.951929 310.502084 
L 376.40169 311.538049 
L 380.85145 312.329453 
L 386.191163 313.026276 
L 392.420828 313.579355 
L 399.540446 313.974347 
L 409.329919 314.264221 
L 423.569154 314.42704 
L 434.24858 314.466342 
L 434.24858 314.466342 
" style="fill:none;stroke:#ff0000;stroke-dasharray:6.4,1.6,1,1.6;stroke-dashoffset:0;"/>
    <defs>
     <path d="M 0 -3 
L -0.673542 -0.927051 
L -2.85317 -0.927051 
L -1.089814 0.354102 
L -1.763356 2.427051 
L -0 1.145898 
L 1.763356 2.427051 
L 1.089814 0.354102 
L 2.85317 -0.927051 
L 0.673542 -0.927051 
z
" id="ma354e0421f" style="stroke:#ff0000;stroke-linejoin:bevel;"/>
    </defs>
    <g clip-path="url(#p073439ca01)">
     <use style="fill:#ff0000;stroke:#ff0000;stroke-linejoin:bevel;" x="79.15767" xlink:href="#ma354e0421f" y="314.466342"/>
     <use style="fill:#ff0000;stroke:#ff0000;stroke-linejoin:bevel;" x="96.956714" xlink:href="#ma354e0421f" y="314.369676"/>
     <use style="fill:#ff0000;stroke:#ff0000;stroke-linejoin:bevel;" x="114.755757" xlink:href="#ma354e0421f" y="313.935518"/>
     <use style="fill:#ff0000;stroke:#ff0000;stroke-linejoin:bevel;" x="132.5548" xlink:href="#ma354e0421f" y="312.329453"/>
     <use style="fill:#ff0000;stroke:#ff0000;stroke-linejoin:bevel;" x="150.353843" xlink:href="#ma354e0421f" y="307.455319"/>
     <use style="fill:#ff0000;stroke:#ff0000;stroke-linejoin:bevel;" x="168.152886" xlink:href="#ma354e0421f" y="295.392919"/>
     <use style="fill:#ff0000;stroke:#ff0000;stroke-linejoin:bevel;" x="185.951929" xlink:href="#ma354e0421f" y="271.285947"/>
     <use style="fill:#ff0000;stroke:#ff0000;stroke-linejoin:bevel;" x="203.750972" xlink:href="#ma354e0421f" y="233.044776"/>
     <use style="fill:#ff0000;stroke:#ff0000;stroke-linejoin:bevel;" x="221.550015" xlink:href="#ma354e0421f" y="186.558977"/>
     <use style="fill:#ff0000;stroke:#ff0000;stroke-linejoin:bevel;" x="239.349058" xlink:href="#ma354e0421f" y="147.053303"/>
     <use style="fill:#ff0000;stroke:#ff0000;stroke-linejoin:bevel;" x="257.148101" xlink:href="#ma354e0421f" y="131.895199"/>
     <use style="fill:#ff0000;stroke:#ff0000;stroke-linejoin:bevel;" x="274.947144" xlink:href="#ma354e0421f" y="148.573804"/>
     <use style="fill:#ff0000;stroke:#ff0000;stroke-linejoin:bevel;" x="292.746187" xlink:href="#ma354e0421f" y="188.871911"/>
     <use style="fill:#ff0000;stroke:#ff0000;stroke-linejoin:bevel;" x="310.54523" xlink:href="#ma354e0421f" y="235.243474"/>
     <use style="fill:#ff0000;stroke:#ff0000;stroke-linejoin:bevel;" x="328.344273" xlink:href="#ma354e0421f" y="272.833977"/>
     <use style="fill:#ff0000;stroke:#ff0000;stroke-linejoin:bevel;" x="346.143316" xlink:href="#ma354e0421f" y="296.24431"/>
     <use style="fill:#ff0000;stroke:#ff0000;stroke-linejoin:bevel;" x="363.942359" xlink:href="#ma354e0421f" y="307.829873"/>
     <use style="fill:#ff0000;stroke:#ff0000;stroke-linejoin:bevel;" x="381.741403" xlink:href="#ma354e0421f" y="312.462937"/>
     <use style="fill:#ff0000;stroke:#ff0000;stroke-linejoin:bevel;" x="399.540446" xlink:href="#ma354e0421f" y="313.974347"/>
     <use style="fill:#ff0000;stroke:#ff0000;stroke-linejoin:bevel;" x="417.339489" xlink:href="#ma354e0421f" y="314.37894"/>
    </g>
   </g>
   <g id="line2d_11">
    <path clip-path="url(#p073439ca01)" d="M 79.15767 314.465214 
L 100.516522 314.315942 
L 112.0859 314.020674 
L 120.095469 313.594776 
L 126.325135 313.0465 
L 131.664847 312.353491 
L 136.114608 311.564244 
L 140.564369 310.528463 
L 144.124178 309.482496 
L 147.683986 308.206174 
L 151.243795 306.661679 
L 154.803603 304.808292 
L 157.47346 303.189732 
L 160.143316 301.35453 
L 162.813173 299.283752 
L 165.483029 296.958559 
L 168.152886 294.360547 
L 170.822742 291.472147 
L 173.492599 288.277049 
L 176.162455 284.760671 
L 178.832312 280.910654 
L 181.502168 276.717377 
L 184.172025 272.174472 
L 186.841881 267.27935 
L 190.40169 260.208205 
L 193.961498 252.531706 
L 197.521307 244.283774 
L 201.081115 235.516272 
L 205.530876 223.935578 
L 210.870589 209.369987 
L 225.109824 170.093216 
L 228.669632 160.992265 
L 232.229441 152.504194 
L 234.899297 146.637337 
L 237.569154 141.27054 
L 240.23901 136.464469 
L 242.908867 132.274607 
L 244.688771 129.848306 
L 246.468675 127.730752 
L 248.24858 125.93325 
L 250.028484 124.465465 
L 251.808388 123.335337 
L 253.588292 122.549006 
L 255.368197 122.110758 
L 257.148101 122.022989 
L 258.928005 122.286177 
L 260.70791 122.898885 
L 262.487814 123.857767 
L 264.267718 125.157605 
L 266.047623 126.79135 
L 267.827527 128.750191 
L 269.607431 131.023631 
L 271.387336 133.599581 
L 273.16724 136.464469 
L 275.837096 141.27054 
L 278.506953 146.637337 
L 281.176809 152.504194 
L 284.736618 160.992265 
L 288.296426 170.093216 
L 292.746187 182.080263 
L 310.54523 230.958999 
L 314.994991 242.138175 
L 318.5548 250.521584 
L 322.114608 258.344804 
L 325.674417 265.569531 
L 329.234225 272.174472 
L 331.904082 276.717377 
L 334.573938 280.910654 
L 337.243795 284.760671 
L 339.913651 288.277049 
L 342.583508 291.472147 
L 345.253364 294.360547 
L 347.923221 296.958559 
L 350.593077 299.283752 
L 353.262934 301.35453 
L 355.93279 303.189732 
L 358.602647 304.808292 
L 362.162455 306.661679 
L 365.722264 308.206174 
L 369.282072 309.482496 
L 372.841881 310.528463 
L 377.291642 311.564244 
L 381.741403 312.353491 
L 387.081115 313.0465 
L 393.310781 313.594776 
L 400.430398 313.984895 
L 410.219871 314.2699 
L 424.459106 314.428999 
L 434.24858 314.465214 
L 434.24858 314.465214 
" style="fill:none;stroke:#f59311;stroke-linecap:square;stroke-width:1.5;"/>
   </g>
   <g id="patch_3">
    <path d="M 61.403125 326.84175 
L 61.403125 55.04175 
" style="fill:none;stroke:#000000;stroke-linecap:square;stroke-linejoin:miter;stroke-width:0.8;"/>
   </g>
   <g id="patch_4">
    <path d="M 452.003125 326.84175 
L 452.003125 55.04175 
" style="fill:none;stroke:#000000;stroke-linecap:square;stroke-linejoin:miter;stroke-width:0.8;"/>
   </g>
   <g id="patch_5">
    <path d="M 61.403125 326.84175 
L 452.003125 326.84175 
" style="fill:none;stroke:#000000;stroke-linecap:square;stroke-linejoin:miter;stroke-width:0.8;"/>
   </g>
   <g id="patch_6">
    <path d="M 61.403125 55.04175 
L 452.003125 55.04175 
" style="fill:none;stroke:#000000;stroke-linecap:square;stroke-linejoin:miter;stroke-width:0.8;"/>
   </g>
   <g id="text_11">
    <!-- Velocity distribution of normal velocity  -->
    <g transform="translate(63.74125 23.865)scale(0.24 -0.24)">
     <defs>
      <path d="M 71 66.21875 
L 71 64.40625 
Q 67.484375 63.765625 65.671875 62.15625 
Q 63.09375 59.765625 61.078125 54.828125 
L 37.984375 -1.515625 
L 36.1875 -1.515625 
L 11.375 55.5625 
Q 9.46875 59.96875 8.6875 60.9375 
Q 7.46875 62.453125 5.6875 63.296875 
Q 3.90625 64.15625 0.875 64.40625 
L 0.875 66.21875 
L 27.9375 66.21875 
L 27.9375 64.40625 
Q 23.34375 63.96875 21.96875 62.84375 
Q 20.609375 61.71875 20.609375 59.96875 
Q 20.609375 57.515625 22.859375 52.34375 
L 39.703125 13.53125 
L 55.328125 51.859375 
Q 57.625 57.515625 57.625 59.71875 
Q 57.625 61.140625 56.203125 62.421875 
Q 54.78125 63.71875 51.421875 64.265625 
Q 51.171875 64.3125 50.59375 64.40625 
L 50.59375 66.21875 
z
" id="TimesNewRomanPSMT-86"/>
      <path d="M 10.640625 27.875 
Q 10.59375 17.921875 15.484375 12.25 
Q 20.359375 6.59375 26.953125 6.59375 
Q 31.34375 6.59375 34.59375 9 
Q 37.84375 11.421875 40.046875 17.28125 
L 41.546875 16.3125 
Q 40.53125 9.625 35.59375 4.125 
Q 30.671875 -1.375 23.25 -1.375 
Q 15.1875 -1.375 9.453125 4.90625 
Q 3.71875 11.1875 3.71875 21.78125 
Q 3.71875 33.25 9.59375 39.671875 
Q 15.484375 46.09375 24.359375 46.09375 
Q 31.890625 46.09375 36.71875 41.140625 
Q 41.546875 36.1875 41.546875 27.875 
z
M 10.640625 30.71875 
L 31.34375 30.71875 
Q 31.109375 35.015625 30.328125 36.765625 
Q 29.109375 39.5 26.6875 41.0625 
Q 24.265625 42.625 21.625 42.625 
Q 17.578125 42.625 14.375 39.46875 
Q 11.1875 36.328125 10.640625 30.71875 
z
" id="TimesNewRomanPSMT-101"/>
      <path d="M 41.109375 17 
Q 39.3125 8.15625 34.03125 3.390625 
Q 28.765625 -1.375 22.359375 -1.375 
Q 14.75 -1.375 9.078125 5.015625 
Q 3.421875 11.421875 3.421875 22.3125 
Q 3.421875 32.859375 9.6875 39.453125 
Q 15.96875 46.046875 24.75 46.046875 
Q 31.34375 46.046875 35.59375 42.546875 
Q 39.84375 39.0625 39.84375 35.296875 
Q 39.84375 33.453125 38.640625 32.296875 
Q 37.453125 31.15625 35.296875 31.15625 
Q 32.421875 31.15625 30.953125 33.015625 
Q 30.125 34.03125 29.859375 36.90625 
Q 29.59375 39.796875 27.875 41.3125 
Q 26.171875 42.78125 23.140625 42.78125 
Q 18.265625 42.78125 15.28125 39.15625 
Q 11.328125 34.375 11.328125 26.515625 
Q 11.328125 18.5 15.25 12.375 
Q 19.1875 6.25 25.875 6.25 
Q 30.671875 6.25 34.46875 9.515625 
Q 37.15625 11.765625 39.703125 17.671875 
z
" id="TimesNewRomanPSMT-99"/>
      <path id="TimesNewRomanPSMT-32"/>
      <path d="M 34.71875 5.03125 
Q 31.453125 1.609375 28.328125 0.109375 
Q 25.203125 -1.375 21.578125 -1.375 
Q 14.265625 -1.375 8.796875 4.75 
Q 3.328125 10.890625 3.328125 20.515625 
Q 3.328125 30.125 9.375 38.109375 
Q 15.4375 46.09375 24.953125 46.09375 
Q 30.859375 46.09375 34.71875 42.328125 
L 34.71875 50.59375 
Q 34.71875 58.25 34.34375 60 
Q 33.984375 61.765625 33.203125 62.390625 
Q 32.421875 63.03125 31.25 63.03125 
Q 29.984375 63.03125 27.875 62.25 
L 27.25 63.96875 
L 40.578125 69.4375 
L 42.78125 69.4375 
L 42.78125 17.71875 
Q 42.78125 9.859375 43.140625 8.125 
Q 43.5 6.390625 44.3125 5.703125 
Q 45.125 5.03125 46.1875 5.03125 
Q 47.515625 5.03125 49.703125 5.859375 
L 50.25 4.15625 
L 36.96875 -1.375 
L 34.71875 -1.375 
z
M 34.71875 8.453125 
L 34.71875 31.5 
Q 34.421875 34.8125 32.953125 37.546875 
Q 31.5 40.28125 29.078125 41.671875 
Q 26.65625 43.0625 24.359375 43.0625 
Q 20.0625 43.0625 16.703125 39.203125 
Q 12.25 34.125 12.25 24.359375 
Q 12.25 14.5 16.546875 9.25 
Q 20.84375 4 26.125 4 
Q 30.5625 4 34.71875 8.453125 
z
" id="TimesNewRomanPSMT-100"/>
      <path d="M 32.03125 46.046875 
L 32.03125 30.8125 
L 30.421875 30.8125 
Q 28.5625 37.984375 25.65625 40.578125 
Q 22.75 43.171875 18.265625 43.171875 
Q 14.84375 43.171875 12.734375 41.359375 
Q 10.640625 39.546875 10.640625 37.359375 
Q 10.640625 34.625 12.203125 32.671875 
Q 13.71875 30.671875 18.359375 28.421875 
L 25.484375 24.953125 
Q 35.40625 20.125 35.40625 12.203125 
Q 35.40625 6.109375 30.78125 2.359375 
Q 26.171875 -1.375 20.453125 -1.375 
Q 16.359375 -1.375 11.078125 0.09375 
Q 9.46875 0.59375 8.453125 0.59375 
Q 7.328125 0.59375 6.6875 -0.6875 
L 5.078125 -0.6875 
L 5.078125 15.28125 
L 6.6875 15.28125 
Q 8.0625 8.453125 11.90625 4.984375 
Q 15.765625 1.515625 20.5625 1.515625 
Q 23.921875 1.515625 26.046875 3.484375 
Q 28.171875 5.46875 28.171875 8.25 
Q 28.171875 11.625 25.796875 13.921875 
Q 23.4375 16.21875 16.359375 19.734375 
Q 9.28125 23.25 7.078125 26.078125 
Q 4.890625 28.859375 4.890625 33.109375 
Q 4.890625 38.625 8.671875 42.328125 
Q 12.453125 46.046875 18.453125 46.046875 
Q 21.09375 46.046875 24.859375 44.921875 
Q 27.34375 44.1875 28.171875 44.1875 
Q 28.953125 44.1875 29.390625 44.53125 
Q 29.828125 44.875 30.421875 46.046875 
z
" id="TimesNewRomanPSMT-115"/>
      <path d="M 42.328125 44.734375 
L 42.328125 17.625 
Q 42.328125 9.859375 42.6875 8.125 
Q 43.0625 6.390625 43.859375 5.703125 
Q 44.671875 5.03125 45.75 5.03125 
Q 47.265625 5.03125 49.171875 5.859375 
L 49.859375 4.15625 
L 36.46875 -1.375 
L 34.28125 -1.375 
L 34.28125 8.109375 
Q 28.515625 1.859375 25.484375 0.234375 
Q 22.46875 -1.375 19.09375 -1.375 
Q 15.328125 -1.375 12.5625 0.796875 
Q 9.8125 2.984375 8.734375 6.390625 
Q 7.671875 9.8125 7.671875 16.0625 
L 7.671875 36.03125 
Q 7.671875 39.203125 6.984375 40.421875 
Q 6.296875 41.65625 4.953125 42.3125 
Q 3.609375 42.96875 0.09375 42.921875 
L 0.09375 44.734375 
L 15.765625 44.734375 
L 15.765625 14.796875 
Q 15.765625 8.546875 17.9375 6.59375 
Q 20.125 4.640625 23.1875 4.640625 
Q 25.296875 4.640625 27.953125 5.953125 
Q 30.609375 7.28125 34.28125 10.984375 
L 34.28125 36.328125 
Q 34.28125 40.140625 32.890625 41.484375 
Q 31.5 42.828125 27.09375 42.921875 
L 27.09375 44.734375 
z
" id="TimesNewRomanPSMT-117"/>
      <path d="M 16.15625 36.578125 
Q 24.03125 46.046875 31.15625 46.046875 
Q 34.8125 46.046875 37.453125 44.21875 
Q 40.09375 42.390625 41.65625 38.1875 
Q 42.71875 35.25 42.71875 29.203125 
L 42.71875 10.109375 
Q 42.71875 5.859375 43.40625 4.34375 
Q 43.953125 3.125 45.140625 2.4375 
Q 46.34375 1.765625 49.5625 1.765625 
L 49.5625 0 
L 27.4375 0 
L 27.4375 1.765625 
L 28.375 1.765625 
Q 31.5 1.765625 32.734375 2.703125 
Q 33.984375 3.65625 34.46875 5.515625 
Q 34.671875 6.25 34.671875 10.109375 
L 34.671875 28.421875 
Q 34.671875 34.515625 33.078125 37.28125 
Q 31.5 40.046875 27.734375 40.046875 
Q 21.921875 40.046875 16.15625 33.6875 
L 16.15625 10.109375 
Q 16.15625 5.5625 16.703125 4.5 
Q 17.390625 3.078125 18.578125 2.421875 
Q 19.78125 1.765625 23.4375 1.765625 
L 23.4375 0 
L 1.3125 0 
L 1.3125 1.765625 
L 2.296875 1.765625 
Q 5.71875 1.765625 6.90625 3.484375 
Q 8.109375 5.21875 8.109375 10.109375 
L 8.109375 26.703125 
Q 8.109375 34.765625 7.734375 36.515625 
Q 7.375 38.28125 6.609375 38.90625 
Q 5.859375 39.546875 4.59375 39.546875 
Q 3.21875 39.546875 1.3125 38.8125 
L 0.59375 40.578125 
L 14.0625 46.046875 
L 16.15625 46.046875 
z
" id="TimesNewRomanPSMT-110"/>
      <path d="M 20.609375 41.21875 
L 20.609375 11.8125 
Q 20.609375 5.5625 21.96875 3.90625 
Q 23.78125 1.765625 26.8125 1.765625 
L 30.859375 1.765625 
L 30.859375 0 
L 4.15625 0 
L 4.15625 1.765625 
L 6.15625 1.765625 
Q 8.109375 1.765625 9.71875 2.734375 
Q 11.328125 3.71875 11.9375 5.375 
Q 12.546875 7.03125 12.546875 11.8125 
L 12.546875 41.21875 
L 3.859375 41.21875 
L 3.859375 44.734375 
L 12.546875 44.734375 
L 12.546875 47.65625 
Q 12.546875 54.34375 14.6875 58.984375 
Q 16.84375 63.625 21.265625 66.484375 
Q 25.6875 69.34375 31.203125 69.34375 
Q 36.328125 69.34375 40.625 66.015625 
Q 43.453125 63.8125 43.453125 61.078125 
Q 43.453125 59.625 42.1875 58.328125 
Q 40.921875 57.03125 39.453125 57.03125 
Q 38.328125 57.03125 37.078125 57.828125 
Q 35.84375 58.640625 34.03125 61.296875 
Q 32.234375 63.96875 30.71875 64.890625 
Q 29.203125 65.828125 27.34375 65.828125 
Q 25.09375 65.828125 23.53125 64.625 
Q 21.96875 63.421875 21.28125 60.90625 
Q 20.609375 58.40625 20.609375 47.953125 
L 20.609375 44.734375 
L 32.125 44.734375 
L 32.125 41.21875 
z
" id="TimesNewRomanPSMT-102"/>
      <path d="M 16.40625 36.53125 
Q 21.296875 41.40625 22.171875 42.140625 
Q 24.359375 44 26.890625 45.015625 
Q 29.4375 46.046875 31.9375 46.046875 
Q 36.140625 46.046875 39.15625 43.59375 
Q 42.1875 41.15625 43.21875 36.53125 
Q 48.25 42.390625 51.703125 44.21875 
Q 55.171875 46.046875 58.84375 46.046875 
Q 62.40625 46.046875 65.15625 44.21875 
Q 67.921875 42.390625 69.53125 38.234375 
Q 70.609375 35.40625 70.609375 29.34375 
L 70.609375 10.109375 
Q 70.609375 5.90625 71.234375 4.34375 
Q 71.734375 3.265625 73.046875 2.515625 
Q 74.359375 1.765625 77.34375 1.765625 
L 77.34375 0 
L 55.28125 0 
L 55.28125 1.765625 
L 56.203125 1.765625 
Q 59.078125 1.765625 60.6875 2.875 
Q 61.8125 3.65625 62.3125 5.375 
Q 62.5 6.203125 62.5 10.109375 
L 62.5 29.34375 
Q 62.5 34.8125 61.1875 37.0625 
Q 59.28125 40.1875 55.078125 40.1875 
Q 52.484375 40.1875 49.875 38.890625 
Q 47.265625 37.59375 43.5625 34.078125 
L 43.453125 33.546875 
L 43.5625 31.453125 
L 43.5625 10.109375 
Q 43.5625 5.515625 44.0625 4.390625 
Q 44.578125 3.265625 45.984375 2.515625 
Q 47.40625 1.765625 50.828125 1.765625 
L 50.828125 0 
L 28.21875 0 
L 28.21875 1.765625 
Q 31.9375 1.765625 33.328125 2.640625 
Q 34.71875 3.515625 35.25 5.28125 
Q 35.5 6.109375 35.5 10.109375 
L 35.5 29.34375 
Q 35.5 34.8125 33.890625 37.203125 
Q 31.734375 40.328125 27.875 40.328125 
Q 25.25 40.328125 22.65625 38.921875 
Q 18.609375 36.765625 16.40625 34.078125 
L 16.40625 10.109375 
Q 16.40625 5.71875 17.015625 4.390625 
Q 17.625 3.078125 18.8125 2.421875 
Q 20.015625 1.765625 23.6875 1.765625 
L 23.6875 0 
L 1.5625 0 
L 1.5625 1.765625 
Q 4.640625 1.765625 5.859375 2.421875 
Q 7.078125 3.078125 7.703125 4.515625 
Q 8.34375 5.953125 8.34375 10.109375 
L 8.34375 27.203125 
Q 8.34375 34.578125 7.90625 36.71875 
Q 7.5625 38.328125 6.828125 38.9375 
Q 6.109375 39.546875 4.828125 39.546875 
Q 3.46875 39.546875 1.5625 38.8125 
L 0.828125 40.578125 
L 14.3125 46.046875 
L 16.40625 46.046875 
z
" id="TimesNewRomanPSMT-109"/>
      <path d="M 0.828125 44.734375 
L 21.875 44.734375 
L 21.875 42.921875 
L 20.515625 42.921875 
Q 18.609375 42.921875 17.609375 41.984375 
Q 16.609375 41.0625 16.609375 39.5 
Q 16.609375 37.796875 17.625 35.453125 
L 28.03125 10.75 
L 38.484375 36.375 
Q 39.59375 39.109375 39.59375 40.53125 
Q 39.59375 41.21875 39.203125 41.65625 
Q 38.671875 42.390625 37.84375 42.65625 
Q 37.015625 42.921875 34.46875 42.921875 
L 34.46875 44.734375 
L 49.078125 44.734375 
L 49.078125 42.921875 
Q 46.53125 42.71875 45.5625 41.890625 
Q 43.84375 40.4375 42.484375 37.015625 
L 26.609375 -1.375 
L 24.609375 -1.375 
L 8.640625 36.375 
Q 7.5625 39.015625 6.578125 40.15625 
Q 5.609375 41.3125 4.109375 42.09375 
Q 3.265625 42.53125 0.828125 42.921875 
z
" id="TimesNewRomanPSMT-118"/>
     </defs>
     <use xlink:href="#TimesNewRomanPSMT-86"/>
     <use x="61.091797" xlink:href="#TimesNewRomanPSMT-101"/>
     <use x="105.476562" xlink:href="#TimesNewRomanPSMT-108"/>
     <use x="133.259766" xlink:href="#TimesNewRomanPSMT-111"/>
     <use x="183.259766" xlink:href="#TimesNewRomanPSMT-99"/>
     <use x="227.644531" xlink:href="#TimesNewRomanPSMT-105"/>
     <use x="255.427734" xlink:href="#TimesNewRomanPSMT-116"/>
     <use x="283.210938" xlink:href="#TimesNewRomanPSMT-121"/>
     <use x="333.210938" xlink:href="#TimesNewRomanPSMT-32"/>
     <use x="358.210938" xlink:href="#TimesNewRomanPSMT-100"/>
     <use x="408.210938" xlink:href="#TimesNewRomanPSMT-105"/>
     <use x="435.994141" xlink:href="#TimesNewRomanPSMT-115"/>
     <use x="474.910156" xlink:href="#TimesNewRomanPSMT-116"/>
     <use x="502.693359" xlink:href="#TimesNewRomanPSMT-114"/>
     <use x="535.994141" xlink:href="#TimesNewRomanPSMT-105"/>
     <use x="563.777344" xlink:href="#TimesNewRomanPSMT-98"/>
     <use x="613.777344" xlink:href="#TimesNewRomanPSMT-117"/>
     <use x="663.777344" xlink:href="#TimesNewRomanPSMT-116"/>
     <use x="691.560547" xlink:href="#TimesNewRomanPSMT-105"/>
     <use x="719.34375" xlink:href="#TimesNewRomanPSMT-111"/>
     <use x="769.34375" xlink:href="#TimesNewRomanPSMT-110"/>
     <use x="819.34375" xlink:href="#TimesNewRomanPSMT-32"/>
     <use x="844.34375" xlink:href="#TimesNewRomanPSMT-111"/>
     <use x="894.34375" xlink:href="#TimesNewRomanPSMT-102"/>
     <use x="927.644531" xlink:href="#TimesNewRomanPSMT-32"/>
     <use x="952.644531" xlink:href="#TimesNewRomanPSMT-110"/>
     <use x="1002.644531" xlink:href="#TimesNewRomanPSMT-111"/>
     <use x="1052.644531" xlink:href="#TimesNewRomanPSMT-114"/>
     <use x="1085.945312" xlink:href="#TimesNewRomanPSMT-109"/>
     <use x="1163.728516" xlink:href="#TimesNewRomanPSMT-97"/>
     <use x="1208.113281" xlink:href="#TimesNewRomanPSMT-108"/>
     <use x="1235.896484" xlink:href="#TimesNewRomanPSMT-32"/>
     <use x="1260.896484" xlink:href="#TimesNewRomanPSMT-118"/>
     <use x="1310.896484" xlink:href="#TimesNewRomanPSMT-101"/>
     <use x="1355.28125" xlink:href="#TimesNewRomanPSMT-108"/>
     <use x="1383.064453" xlink:href="#TimesNewRomanPSMT-111"/>
     <use x="1433.064453" xlink:href="#TimesNewRomanPSMT-99"/>
     <use x="1477.449219" xlink:href="#TimesNewRomanPSMT-105"/>
     <use x="1505.232422" xlink:href="#TimesNewRomanPSMT-116"/>
     <use x="1533.015625" xlink:href="#TimesNewRomanPSMT-121"/>
     <use x="1583.015625" xlink:href="#TimesNewRomanPSMT-32"/>
    </g>
    <!--  Maximum difference: 5.4% -->
    <g transform="translate(120.956875 49.04175)scale(0.24 -0.24)">
     <defs>
      <path d="M 40.921875 0 
L 15.328125 55.71875 
L 15.328125 11.46875 
Q 15.328125 5.375 16.65625 3.859375 
Q 18.453125 1.8125 22.359375 1.8125 
L 24.703125 1.8125 
L 24.703125 0 
L 1.65625 0 
L 1.65625 1.8125 
L 4 1.8125 
Q 8.203125 1.8125 9.96875 4.34375 
Q 11.03125 5.90625 11.03125 11.46875 
L 11.03125 54.734375 
Q 11.03125 59.125 10.0625 61.078125 
Q 9.375 62.5 7.546875 63.453125 
Q 5.71875 64.40625 1.65625 64.40625 
L 1.65625 66.21875 
L 20.40625 66.21875 
L 44.4375 14.40625 
L 68.0625 66.21875 
L 86.8125 66.21875 
L 86.8125 64.40625 
L 84.515625 64.40625 
Q 80.28125 64.40625 78.515625 61.859375 
Q 77.4375 60.296875 77.4375 54.734375 
L 77.4375 11.46875 
Q 77.4375 5.375 78.8125 3.859375 
Q 80.609375 1.8125 84.515625 1.8125 
L 86.8125 1.8125 
L 86.8125 0 
L 58.6875 0 
L 58.6875 1.8125 
L 61.03125 1.8125 
Q 65.28125 1.8125 67 4.34375 
Q 68.0625 5.90625 68.0625 11.46875 
L 68.0625 55.71875 
L 42.53125 0 
z
" id="TimesNewRomanPSMT-77"/>
      <path d="M 1.3125 44.734375 
L 22.359375 44.734375 
L 22.359375 42.921875 
Q 20.359375 42.921875 19.546875 42.234375 
Q 18.75 41.546875 18.75 40.4375 
Q 18.75 39.265625 20.453125 36.8125 
Q 21 36.03125 22.078125 34.375 
L 25.25 29.296875 
L 28.90625 34.375 
Q 32.421875 39.203125 32.421875 40.484375 
Q 32.421875 41.5 31.59375 42.203125 
Q 30.765625 42.921875 28.90625 42.921875 
L 28.90625 44.734375 
L 44.046875 44.734375 
L 44.046875 42.921875 
Q 41.65625 42.78125 39.890625 41.609375 
Q 37.5 39.9375 33.34375 34.375 
L 27.25 26.21875 
L 38.375 10.203125 
Q 42.484375 4.296875 44.234375 3.09375 
Q 46 1.90625 48.78125 1.765625 
L 48.78125 0 
L 27.6875 0 
L 27.6875 1.765625 
Q 29.890625 1.765625 31.109375 2.734375 
Q 32.03125 3.421875 32.03125 4.546875 
Q 32.03125 5.671875 28.90625 10.203125 
L 22.359375 19.78125 
L 15.1875 10.203125 
Q 11.859375 5.765625 11.859375 4.9375 
Q 11.859375 3.765625 12.953125 2.8125 
Q 14.0625 1.859375 16.265625 1.765625 
L 16.265625 0 
L 1.65625 0 
L 1.65625 1.765625 
Q 3.421875 2 4.734375 2.984375 
Q 6.59375 4.390625 10.984375 10.203125 
L 20.359375 22.65625 
L 11.859375 34.96875 
Q 8.25 40.234375 6.265625 41.578125 
Q 4.296875 42.921875 1.3125 42.921875 
z
" id="TimesNewRomanPSMT-120"/>
      <path d="M 14.109375 46.09375 
Q 16.359375 46.09375 17.9375 44.5 
Q 19.53125 42.921875 19.53125 40.671875 
Q 19.53125 38.421875 17.9375 36.828125 
Q 16.359375 35.25 14.109375 35.25 
Q 11.859375 35.25 10.265625 36.828125 
Q 8.6875 38.421875 8.6875 40.671875 
Q 8.6875 42.921875 10.265625 44.5 
Q 11.859375 46.09375 14.109375 46.09375 
z
M 14.015625 9.515625 
Q 16.3125 9.515625 17.890625 7.90625 
Q 19.484375 6.296875 19.484375 4.046875 
Q 19.484375 1.8125 17.875 0.21875 
Q 16.265625 -1.375 14.015625 -1.375 
Q 11.765625 -1.375 10.171875 0.21875 
Q 8.59375 1.8125 8.59375 4.046875 
Q 8.59375 6.296875 10.171875 7.90625 
Q 11.765625 9.515625 14.015625 9.515625 
z
" id="TimesNewRomanPSMT-58"/>
      <path d="M 43.40625 66.21875 
L 39.59375 57.90625 
L 19.671875 57.90625 
L 15.328125 49.03125 
Q 28.265625 47.125 35.84375 39.40625 
Q 42.328125 32.765625 42.328125 23.78125 
Q 42.328125 18.5625 40.203125 14.109375 
Q 38.09375 9.671875 34.859375 6.546875 
Q 31.640625 3.421875 27.6875 1.515625 
Q 22.078125 -1.171875 16.15625 -1.171875 
Q 10.203125 -1.171875 7.484375 0.84375 
Q 4.78125 2.875 4.78125 5.328125 
Q 4.78125 6.6875 5.90625 7.734375 
Q 7.03125 8.796875 8.734375 8.796875 
Q 10.015625 8.796875 10.96875 8.40625 
Q 11.921875 8.015625 14.203125 6.390625 
Q 17.875 3.859375 21.625 3.859375 
Q 27.34375 3.859375 31.65625 8.171875 
Q 35.984375 12.5 35.984375 18.703125 
Q 35.984375 24.703125 32.125 29.90625 
Q 28.265625 35.109375 21.484375 37.9375 
Q 16.15625 40.140625 6.984375 40.484375 
L 19.671875 66.21875 
z
" id="TimesNewRomanPSMT-53"/>
      <path d="M 67.96875 67.71875 
L 19.734375 -2.734375 
L 15.375 -2.734375 
L 63.625 67.71875 
z
M 17.78125 67.71875 
Q 24.359375 67.71875 28 62.25 
Q 31.640625 56.78125 31.640625 49.703125 
Q 31.640625 41.21875 27.53125 36.578125 
Q 23.4375 31.9375 17.671875 31.9375 
Q 13.8125 31.9375 10.59375 34.0625 
Q 7.375 36.1875 5.4375 40.375 
Q 3.515625 44.578125 3.515625 49.703125 
Q 3.515625 54.828125 5.46875 59.15625 
Q 7.421875 63.484375 10.8125 65.59375 
Q 14.203125 67.71875 17.78125 67.71875 
z
M 17.625 64.984375 
Q 15.140625 64.984375 13.203125 62.046875 
Q 11.28125 59.125 11.28125 49.75 
Q 11.28125 42.96875 12.359375 39.40625 
Q 13.1875 36.71875 14.9375 35.25 
Q 15.96875 34.375 17.484375 34.375 
Q 19.828125 34.375 21.484375 36.921875 
Q 23.921875 40.671875 23.921875 49.46875 
Q 23.921875 58.734375 21.53125 62.5 
Q 19.96875 64.984375 17.625 64.984375 
z
M 65.71875 32.859375 
Q 69.1875 32.859375 72.625 30.65625 
Q 76.078125 28.46875 77.953125 24.265625 
Q 79.828125 20.0625 79.828125 15.046875 
Q 79.828125 6.390625 75.671875 1.828125 
Q 71.53125 -2.734375 65.875 -2.734375 
Q 62.3125 -2.734375 58.953125 -0.53125 
Q 55.609375 1.65625 53.6875 5.734375 
Q 51.765625 9.8125 51.765625 15.046875 
Q 51.765625 20.171875 53.6875 24.40625 
Q 55.609375 28.65625 58.953125 30.75 
Q 62.3125 32.859375 65.71875 32.859375 
z
M 65.765625 30.28125 
Q 63.421875 30.28125 61.71875 27.640625 
Q 59.515625 24.21875 59.515625 14.703125 
Q 59.515625 5.953125 61.765625 2.484375 
Q 63.421875 0 65.765625 0 
Q 68.015625 0 69.78125 2.6875 
Q 72.125 6.25 72.125 14.9375 
Q 72.125 24.125 69.78125 27.78125 
Q 68.171875 30.28125 65.765625 30.28125 
z
" id="TimesNewRomanPSMT-37"/>
     </defs>
     <use xlink:href="#TimesNewRomanPSMT-32"/>
     <use x="25" xlink:href="#TimesNewRomanPSMT-77"/>
     <use x="113.916016" xlink:href="#TimesNewRomanPSMT-97"/>
     <use x="158.300781" xlink:href="#TimesNewRomanPSMT-120"/>
     <use x="208.300781" xlink:href="#TimesNewRomanPSMT-105"/>
     <use x="236.083984" xlink:href="#TimesNewRomanPSMT-109"/>
     <use x="313.867188" xlink:href="#TimesNewRomanPSMT-117"/>
     <use x="363.867188" xlink:href="#TimesNewRomanPSMT-109"/>
     <use x="441.650391" xlink:href="#TimesNewRomanPSMT-32"/>
     <use x="466.650391" xlink:href="#TimesNewRomanPSMT-100"/>
     <use x="516.650391" xlink:href="#TimesNewRomanPSMT-105"/>
     <use x="544.433594" xlink:href="#TimesNewRomanPSMT-102"/>
     <use x="575.984375" xlink:href="#TimesNewRomanPSMT-102"/>
     <use x="609.285156" xlink:href="#TimesNewRomanPSMT-101"/>
     <use x="653.669922" xlink:href="#TimesNewRomanPSMT-114"/>
     <use x="686.970703" xlink:href="#TimesNewRomanPSMT-101"/>
     <use x="731.355469" xlink:href="#TimesNewRomanPSMT-110"/>
     <use x="781.355469" xlink:href="#TimesNewRomanPSMT-99"/>
     <use x="825.740234" xlink:href="#TimesNewRomanPSMT-101"/>
     <use x="870.125" xlink:href="#TimesNewRomanPSMT-58"/>
     <use x="897.908203" xlink:href="#TimesNewRomanPSMT-32"/>
     <use x="922.908203" xlink:href="#TimesNewRomanPSMT-53"/>
     <use x="972.908203" xlink:href="#TimesNewRomanPSMT-46"/>
     <use x="997.908203" xlink:href="#TimesNewRomanPSMT-52"/>
     <use x="1047.908203" xlink:href="#TimesNewRomanPSMT-37"/>
    </g>
   </g>
   <g id="legend_1">
    <g id="patch_7">
     <path d="M 286.108125 135.76925 
L 440.803125 135.76925 
Q 444.003125 135.76925 444.003125 132.56925 
L 444.003125 66.24175 
Q 444.003125 63.04175 440.803125 63.04175 
L 286.108125 63.04175 
Q 282.908125 63.04175 282.908125 66.24175 
L 282.908125 132.56925 
Q 282.908125 135.76925 286.108125 135.76925 
z
" style="fill:#ffffff;opacity:0.8;stroke:#cccccc;stroke-linejoin:miter;"/>
    </g>
    <g id="line2d_12">
     <path d="M 289.308125 75.04175 
L 321.308125 75.04175 
" style="fill:none;stroke:#0e72cc;stroke-linecap:square;stroke-width:1.5;"/>
    </g>
    <g id="line2d_13"/>
    <g id="text_12">
     <!-- Training set -->
     <g transform="translate(334.108125 80.64175)scale(0.16 -0.16)">
      <defs>
       <path d="M 57.859375 66.21875 
L 58.59375 50.6875 
L 56.734375 50.6875 
Q 56.203125 54.78125 55.28125 56.546875 
Q 53.765625 59.375 51.25 60.71875 
Q 48.734375 62.0625 44.625 62.0625 
L 35.296875 62.0625 
L 35.296875 11.46875 
Q 35.296875 5.375 36.625 3.859375 
Q 38.484375 1.8125 42.328125 1.8125 
L 44.625 1.8125 
L 44.625 0 
L 16.546875 0 
L 16.546875 1.8125 
L 18.890625 1.8125 
Q 23.09375 1.8125 24.859375 4.34375 
Q 25.921875 5.90625 25.921875 11.46875 
L 25.921875 62.0625 
L 17.96875 62.0625 
Q 13.328125 62.0625 11.375 61.375 
Q 8.84375 60.453125 7.03125 57.8125 
Q 5.21875 55.171875 4.890625 50.6875 
L 3.03125 50.6875 
L 3.8125 66.21875 
z
" id="TimesNewRomanPSMT-84"/>
       <path d="M 15.09375 16.3125 
Q 10.984375 18.3125 8.78125 21.890625 
Q 6.59375 25.484375 6.59375 29.828125 
Q 6.59375 36.46875 11.59375 41.25 
Q 16.609375 46.046875 24.421875 46.046875 
Q 30.8125 46.046875 35.5 42.921875 
L 44.96875 42.921875 
Q 47.078125 42.921875 47.40625 42.796875 
Q 47.75 42.671875 47.90625 42.390625 
Q 48.1875 41.9375 48.1875 40.828125 
Q 48.1875 39.546875 47.953125 39.0625 
Q 47.796875 38.8125 47.4375 38.671875 
Q 47.078125 38.53125 44.96875 38.53125 
L 39.15625 38.53125 
Q 41.890625 35.015625 41.890625 29.546875 
Q 41.890625 23.296875 37.109375 18.84375 
Q 32.328125 14.40625 24.265625 14.40625 
Q 20.953125 14.40625 17.484375 15.375 
Q 15.328125 13.53125 14.5625 12.140625 
Q 13.8125 10.75 13.8125 9.765625 
Q 13.8125 8.9375 14.625 8.15625 
Q 15.4375 7.375 17.78125 7.03125 
Q 19.140625 6.84375 24.609375 6.6875 
Q 34.671875 6.453125 37.640625 6 
Q 42.1875 5.375 44.890625 2.640625 
Q 47.609375 -0.09375 47.609375 -4.109375 
Q 47.609375 -9.625 42.4375 -14.453125 
Q 34.8125 -21.578125 22.5625 -21.578125 
Q 13.140625 -21.578125 6.640625 -17.328125 
Q 2.984375 -14.890625 2.984375 -12.25 
Q 2.984375 -11.078125 3.515625 -9.90625 
Q 4.34375 -8.109375 6.9375 -4.890625 
Q 7.28125 -4.4375 11.921875 0.390625 
Q 9.375 1.90625 8.328125 3.09375 
Q 7.28125 4.296875 7.28125 5.8125 
Q 7.28125 7.515625 8.671875 9.8125 
Q 10.0625 12.109375 15.09375 16.3125 
z
M 23.578125 43.703125 
Q 19.96875 43.703125 17.53125 40.8125 
Q 15.09375 37.9375 15.09375 31.984375 
Q 15.09375 24.265625 18.40625 20.015625 
Q 20.953125 16.796875 24.859375 16.796875 
Q 28.5625 16.796875 30.953125 19.578125 
Q 33.34375 22.359375 33.34375 28.328125 
Q 33.34375 36.078125 29.984375 40.484375 
Q 27.484375 43.703125 23.578125 43.703125 
z
M 14.59375 0 
Q 12.3125 -2.484375 11.140625 -4.625 
Q 9.96875 -6.78125 9.96875 -8.59375 
Q 9.96875 -10.9375 12.796875 -12.703125 
Q 17.671875 -15.71875 26.90625 -15.71875 
Q 35.6875 -15.71875 39.859375 -12.609375 
Q 44.046875 -9.515625 44.046875 -6 
Q 44.046875 -3.46875 41.546875 -2.390625 
Q 39.015625 -1.3125 31.5 -1.125 
Q 20.515625 -0.828125 14.59375 0 
z
" id="TimesNewRomanPSMT-103"/>
      </defs>
      <use xlink:href="#TimesNewRomanPSMT-84"/>
      <use x="57.583984" xlink:href="#TimesNewRomanPSMT-114"/>
      <use x="90.884766" xlink:href="#TimesNewRomanPSMT-97"/>
      <use x="135.269531" xlink:href="#TimesNewRomanPSMT-105"/>
      <use x="163.052734" xlink:href="#TimesNewRomanPSMT-110"/>
      <use x="213.052734" xlink:href="#TimesNewRomanPSMT-105"/>
      <use x="240.835938" xlink:href="#TimesNewRomanPSMT-110"/>
      <use x="290.835938" xlink:href="#TimesNewRomanPSMT-103"/>
      <use x="340.835938" xlink:href="#TimesNewRomanPSMT-32"/>
      <use x="365.835938" xlink:href="#TimesNewRomanPSMT-115"/>
      <use x="404.751953" xlink:href="#TimesNewRomanPSMT-101"/>
      <use x="449.136719" xlink:href="#TimesNewRomanPSMT-116"/>
     </g>
    </g>
    <g id="line2d_14">
     <path d="M 289.308125 97.69425 
L 321.308125 97.69425 
" style="fill:none;stroke:#ff0000;stroke-dasharray:6.4,1.6,1,1.6;stroke-dashoffset:0;"/>
    </g>
    <g id="line2d_15">
     <g>
      <use style="fill:#ff0000;stroke:#ff0000;stroke-linejoin:bevel;" x="305.308125" xlink:href="#ma354e0421f" y="97.69425"/>
     </g>
    </g>
    <g id="text_13">
     <!-- Theoretical data -->
     <g transform="translate(334.108125 103.29425)scale(0.16 -0.16)">
      <defs>
       <path d="M 16.265625 69.4375 
L 16.265625 36.71875 
Q 21.6875 42.671875 24.859375 44.359375 
Q 28.03125 46.046875 31.203125 46.046875 
Q 35.015625 46.046875 37.75 43.9375 
Q 40.484375 41.84375 41.796875 37.359375 
Q 42.71875 34.234375 42.71875 25.921875 
L 42.71875 10.109375 
Q 42.71875 5.859375 43.40625 4.296875 
Q 43.890625 3.125 45.0625 2.4375 
Q 46.234375 1.765625 49.359375 1.765625 
L 49.359375 0 
L 27.390625 0 
L 27.390625 1.765625 
L 28.421875 1.765625 
Q 31.546875 1.765625 32.765625 2.703125 
Q 33.984375 3.65625 34.46875 5.515625 
Q 34.625 6.296875 34.625 10.109375 
L 34.625 25.921875 
Q 34.625 33.25 33.859375 35.546875 
Q 33.109375 37.84375 31.4375 38.984375 
Q 29.78125 40.140625 27.4375 40.140625 
Q 25.046875 40.140625 22.453125 38.859375 
Q 19.875 37.59375 16.265625 33.734375 
L 16.265625 10.109375 
Q 16.265625 5.515625 16.765625 4.390625 
Q 17.28125 3.265625 18.671875 2.515625 
Q 20.0625 1.765625 23.484375 1.765625 
L 23.484375 0 
L 1.3125 0 
L 1.3125 1.765625 
Q 4.296875 1.765625 6 2.6875 
Q 6.984375 3.171875 7.5625 4.53125 
Q 8.15625 5.90625 8.15625 10.109375 
L 8.15625 50.59375 
Q 8.15625 58.25 7.78125 60 
Q 7.421875 61.765625 6.65625 62.390625 
Q 5.90625 63.03125 4.640625 63.03125 
Q 3.609375 63.03125 1.3125 62.25 
L 0.640625 63.96875 
L 14.015625 69.4375 
z
" id="TimesNewRomanPSMT-104"/>
      </defs>
      <use xlink:href="#TimesNewRomanPSMT-84"/>
      <use x="61.083984" xlink:href="#TimesNewRomanPSMT-104"/>
      <use x="111.083984" xlink:href="#TimesNewRomanPSMT-101"/>
      <use x="155.46875" xlink:href="#TimesNewRomanPSMT-111"/>
      <use x="205.46875" xlink:href="#TimesNewRomanPSMT-114"/>
      <use x="238.769531" xlink:href="#TimesNewRomanPSMT-101"/>
      <use x="283.154297" xlink:href="#TimesNewRomanPSMT-116"/>
      <use x="310.9375" xlink:href="#TimesNewRomanPSMT-105"/>
      <use x="338.720703" xlink:href="#TimesNewRomanPSMT-99"/>
      <use x="383.105469" xlink:href="#TimesNewRomanPSMT-97"/>
      <use x="427.490234" xlink:href="#TimesNewRomanPSMT-108"/>
      <use x="455.273438" xlink:href="#TimesNewRomanPSMT-32"/>
      <use x="480.273438" xlink:href="#TimesNewRomanPSMT-100"/>
      <use x="530.273438" xlink:href="#TimesNewRomanPSMT-97"/>
      <use x="574.658203" xlink:href="#TimesNewRomanPSMT-116"/>
      <use x="602.441406" xlink:href="#TimesNewRomanPSMT-97"/>
     </g>
    </g>
    <g id="line2d_16">
     <path d="M 289.308125 120.31675 
L 321.308125 120.31675 
" style="fill:none;stroke:#f59311;stroke-linecap:square;stroke-width:1.5;"/>
    </g>
    <g id="line2d_17"/>
    <g id="text_14">
     <!-- Symbolic data -->
     <g transform="translate(334.108125 125.91675)scale(0.16 -0.16)">
      <defs>
       <path d="M 45.84375 67.71875 
L 45.84375 44.828125 
L 44.046875 44.828125 
Q 43.171875 51.421875 40.890625 55.328125 
Q 38.625 59.234375 34.421875 61.515625 
Q 30.21875 63.8125 25.734375 63.8125 
Q 20.65625 63.8125 17.328125 60.71875 
Q 14.015625 57.625 14.015625 53.65625 
Q 14.015625 50.640625 16.109375 48.140625 
Q 19.140625 44.484375 30.515625 38.375 
Q 39.796875 33.40625 43.1875 30.734375 
Q 46.578125 28.078125 48.40625 24.453125 
Q 50.25 20.84375 50.25 16.890625 
Q 50.25 9.375 44.40625 3.921875 
Q 38.578125 -1.515625 29.390625 -1.515625 
Q 26.515625 -1.515625 23.96875 -1.078125 
Q 22.46875 -0.828125 17.703125 0.703125 
Q 12.9375 2.25 11.671875 2.25 
Q 10.453125 2.25 9.734375 1.515625 
Q 9.03125 0.78125 8.6875 -1.515625 
L 6.890625 -1.515625 
L 6.890625 21.1875 
L 8.6875 21.1875 
Q 9.96875 14.0625 12.109375 10.515625 
Q 14.265625 6.984375 18.671875 4.640625 
Q 23.09375 2.296875 28.375 2.296875 
Q 34.46875 2.296875 38 5.515625 
Q 41.546875 8.734375 41.546875 13.140625 
Q 41.546875 15.578125 40.203125 18.0625 
Q 38.875 20.5625 36.03125 22.703125 
Q 34.125 24.171875 25.625 28.921875 
Q 17.140625 33.6875 13.546875 36.515625 
Q 9.96875 39.359375 8.109375 42.765625 
Q 6.25 46.1875 6.25 50.296875 
Q 6.25 57.421875 11.71875 62.5625 
Q 17.1875 67.71875 25.640625 67.71875 
Q 30.90625 67.71875 36.8125 65.140625 
Q 39.546875 63.921875 40.671875 63.921875 
Q 41.9375 63.921875 42.75 64.671875 
Q 43.5625 65.4375 44.046875 67.71875 
z
" id="TimesNewRomanPSMT-83"/>
      </defs>
      <use xlink:href="#TimesNewRomanPSMT-83"/>
      <use x="55.615234" xlink:href="#TimesNewRomanPSMT-121"/>
      <use x="105.615234" xlink:href="#TimesNewRomanPSMT-109"/>
      <use x="183.398438" xlink:href="#TimesNewRomanPSMT-98"/>
      <use x="233.398438" xlink:href="#TimesNewRomanPSMT-111"/>
      <use x="283.398438" xlink:href="#TimesNewRomanPSMT-108"/>
      <use x="311.181641" xlink:href="#TimesNewRomanPSMT-105"/>
      <use x="338.964844" xlink:href="#TimesNewRomanPSMT-99"/>
      <use x="383.349609" xlink:href="#TimesNewRomanPSMT-32"/>
      <use x="408.349609" xlink:href="#TimesNewRomanPSMT-100"/>
      <use x="458.349609" xlink:href="#TimesNewRomanPSMT-97"/>
      <use x="502.734375" xlink:href="#TimesNewRomanPSMT-116"/>
      <use x="530.517578" xlink:href="#TimesNewRomanPSMT-97"/>
     </g>
    </g>
   </g>
  </g>
 </g>
 <defs>
  <clipPath id="p073439ca01">
   <rect height="271.8" width="390.6" x="61.403125" y="55.04175"/>
  </clipPath>
 </defs>
</svg>
