<?xml version="1.0" encoding="utf-8" standalone="no"?>
<!DOCTYPE svg PUBLIC "-//W3C//DTD SVG 1.1//EN"
  "http://www.w3.org/Graphics/SVG/1.1/DTD/svg11.dtd">
<!-- Created with matplotlib (https://matplotlib.org/) -->
<svg height="360.737656pt" version="1.1" viewBox="0 0 444.165625 360.737656" width="444.165625pt" xmlns="http://www.w3.org/2000/svg" xmlns:xlink="http://www.w3.org/1999/xlink">
 <metadata>
  <rdf:RDF xmlns:cc="http://creativecommons.org/ns#" xmlns:dc="http://purl.org/dc/elements/1.1/" xmlns:rdf="http://www.w3.org/1999/02/22-rdf-syntax-ns#">
   <cc:Work>
    <dc:type rdf:resource="http://purl.org/dc/dcmitype/StillImage"/>
    <dc:date>2021-04-07T18:51:54.548183</dc:date>
    <dc:format>image/svg+xml</dc:format>
    <dc:creator>
     <cc:Agent>
      <dc:title>Matplotlib v3.3.2, https://matplotlib.org/</dc:title>
     </cc:Agent>
    </dc:creator>
   </cc:Work>
  </rdf:RDF>
 </metadata>
 <defs>
  <style type="text/css">*{stroke-linecap:butt;stroke-linejoin:round;}</style>
 </defs>
 <g id="figure_1">
  <g id="patch_1">
   <path d="M 0 360.737656 
L 444.165625 360.737656 
L 444.165625 0 
L 0 0 
z
" style="fill:none;"/>
  </g>
  <g id="axes_1">
   <g id="patch_2">
    <path d="M 46.365625 301.665 
L 436.965625 301.665 
L 436.965625 29.865 
L 46.365625 29.865 
z
" style="fill:#ffffff;"/>
   </g>
   <g id="matplotlib.axis_1">
    <g id="xtick_1">
     <g id="line2d_1">
      <defs>
       <path d="M 0 0 
L 0 3.5 
" id="m07322ed8d6" style="stroke:#000000;stroke-width:0.8;"/>
      </defs>
      <g>
       <use style="stroke:#000000;stroke-width:0.8;" x="62.443041" xlink:href="#m07322ed8d6" y="301.665"/>
      </g>
     </g>
     <g id="text_1">
      <!-- 0 -->
      <g transform="translate(57.443041 322.5525)scale(0.2 -0.2)">
       <defs>
        <path d="M 3.609375 32.71875 
Q 3.609375 44.046875 7.03125 52.21875 
Q 10.453125 60.40625 16.109375 64.40625 
Q 20.515625 67.578125 25.203125 67.578125 
Q 32.8125 67.578125 38.875 59.8125 
Q 46.4375 50.203125 46.4375 33.734375 
Q 46.4375 22.21875 43.109375 14.15625 
Q 39.796875 6.109375 34.640625 2.46875 
Q 29.5 -1.171875 24.703125 -1.171875 
Q 15.234375 -1.171875 8.9375 10.015625 
Q 3.609375 19.4375 3.609375 32.71875 
z
M 13.1875 31.5 
Q 13.1875 17.828125 16.546875 9.1875 
Q 19.34375 1.90625 24.859375 1.90625 
Q 27.484375 1.90625 30.3125 4.265625 
Q 33.15625 6.640625 34.625 12.203125 
Q 36.859375 20.609375 36.859375 35.890625 
Q 36.859375 47.21875 34.515625 54.78125 
Q 32.765625 60.40625 29.984375 62.75 
Q 27.984375 64.359375 25.140625 64.359375 
Q 21.828125 64.359375 19.234375 61.375 
Q 15.71875 57.328125 14.453125 48.625 
Q 13.1875 39.9375 13.1875 31.5 
z
" id="TimesNewRomanPSMT-48"/>
       </defs>
       <use xlink:href="#TimesNewRomanPSMT-48"/>
      </g>
     </g>
    </g>
    <g id="xtick_2">
     <g id="line2d_2">
      <g>
       <use style="stroke:#000000;stroke-width:0.8;" x="181.502996" xlink:href="#m07322ed8d6" y="301.665"/>
      </g>
     </g>
     <g id="text_2">
      <!-- 1 -->
      <g transform="translate(176.502996 322.5525)scale(0.2 -0.2)">
       <defs>
        <path d="M 11.71875 59.71875 
L 27.828125 67.578125 
L 29.4375 67.578125 
L 29.4375 11.671875 
Q 29.4375 6.109375 29.90625 4.734375 
Q 30.375 3.375 31.828125 2.640625 
Q 33.296875 1.90625 37.796875 1.8125 
L 37.796875 0 
L 12.890625 0 
L 12.890625 1.8125 
Q 17.578125 1.90625 18.9375 2.609375 
Q 20.3125 3.328125 20.84375 4.515625 
Q 21.390625 5.71875 21.390625 11.671875 
L 21.390625 47.40625 
Q 21.390625 54.640625 20.90625 56.6875 
Q 20.5625 58.25 19.65625 58.984375 
Q 18.75 59.71875 17.484375 59.71875 
Q 15.671875 59.71875 12.453125 58.203125 
z
" id="TimesNewRomanPSMT-49"/>
       </defs>
       <use xlink:href="#TimesNewRomanPSMT-49"/>
      </g>
     </g>
    </g>
    <g id="xtick_3">
     <g id="line2d_3">
      <g>
       <use style="stroke:#000000;stroke-width:0.8;" x="300.562951" xlink:href="#m07322ed8d6" y="301.665"/>
      </g>
     </g>
     <g id="text_3">
      <!-- 2 -->
      <g transform="translate(295.562951 322.5525)scale(0.2 -0.2)">
       <defs>
        <path d="M 45.84375 12.75 
L 41.21875 0 
L 2.15625 0 
L 2.15625 1.8125 
Q 19.390625 17.53125 26.421875 27.484375 
Q 33.453125 37.453125 33.453125 45.703125 
Q 33.453125 52 29.59375 56.046875 
Q 25.734375 60.109375 20.359375 60.109375 
Q 15.484375 60.109375 11.59375 57.25 
Q 7.71875 54.390625 5.859375 48.875 
L 4.046875 48.875 
Q 5.28125 57.90625 10.328125 62.734375 
Q 15.375 67.578125 22.953125 67.578125 
Q 31 67.578125 36.390625 62.40625 
Q 41.796875 57.234375 41.796875 50.203125 
Q 41.796875 45.171875 39.453125 40.140625 
Q 35.84375 32.234375 27.734375 23.390625 
Q 15.578125 10.109375 12.546875 7.375 
L 29.828125 7.375 
Q 35.109375 7.375 37.234375 7.765625 
Q 39.359375 8.15625 41.0625 9.34375 
Q 42.78125 10.546875 44.046875 12.75 
z
" id="TimesNewRomanPSMT-50"/>
       </defs>
       <use xlink:href="#TimesNewRomanPSMT-50"/>
      </g>
     </g>
    </g>
    <g id="xtick_4">
     <g id="line2d_4">
      <g>
       <use style="stroke:#000000;stroke-width:0.8;" x="419.622906" xlink:href="#m07322ed8d6" y="301.665"/>
      </g>
     </g>
     <g id="text_4">
      <!-- 3 -->
      <g transform="translate(414.622906 322.5525)scale(0.2 -0.2)">
       <defs>
        <path d="M 5.078125 53.609375 
Q 7.90625 60.296875 12.21875 63.9375 
Q 16.546875 67.578125 23 67.578125 
Q 30.953125 67.578125 35.203125 62.40625 
Q 38.421875 58.546875 38.421875 54.15625 
Q 38.421875 46.921875 29.34375 39.203125 
Q 35.453125 36.8125 38.578125 32.375 
Q 41.703125 27.9375 41.703125 21.921875 
Q 41.703125 13.328125 36.234375 7.03125 
Q 29.109375 -1.171875 15.578125 -1.171875 
Q 8.890625 -1.171875 6.46875 0.484375 
Q 4.046875 2.15625 4.046875 4.046875 
Q 4.046875 5.46875 5.1875 6.546875 
Q 6.34375 7.625 7.953125 7.625 
Q 9.1875 7.625 10.453125 7.234375 
Q 11.28125 6.984375 14.203125 5.4375 
Q 17.140625 3.90625 18.265625 3.609375 
Q 20.0625 3.078125 22.125 3.078125 
Q 27.09375 3.078125 30.78125 6.9375 
Q 34.46875 10.796875 34.46875 16.0625 
Q 34.46875 19.921875 32.765625 23.578125 
Q 31.5 26.3125 29.984375 27.734375 
Q 27.875 29.6875 24.21875 31.265625 
Q 20.5625 32.859375 16.75 32.859375 
L 15.1875 32.859375 
L 15.1875 34.328125 
Q 19.046875 34.8125 22.921875 37.109375 
Q 26.8125 39.40625 28.5625 42.625 
Q 30.328125 45.84375 30.328125 49.703125 
Q 30.328125 54.734375 27.171875 57.828125 
Q 24.03125 60.9375 19.34375 60.9375 
Q 11.765625 60.9375 6.6875 52.828125 
z
" id="TimesNewRomanPSMT-51"/>
       </defs>
       <use xlink:href="#TimesNewRomanPSMT-51"/>
      </g>
     </g>
    </g>
    <g id="text_5">
     <!-- $x$ -->
     <g transform="translate(236.040625 348.19)scale(0.25 -0.25)">
      <defs>
       <path d="M 24.296875 35.5 
L 25.5 29.796875 
Q 30.796875 37.90625 34.046875 41 
Q 37.296875 44.09375 40.59375 44.09375 
Q 42.40625 44.09375 43.546875 43.046875 
Q 44.703125 42 44.703125 40.390625 
Q 44.703125 38.796875 43.75 37.796875 
Q 42.796875 36.796875 41.296875 36.796875 
Q 40.40625 36.796875 38.90625 37.640625 
Q 37.40625 38.5 36.09375 38.5 
Q 33.203125 38.5 26.296875 26.40625 
Q 26.296875 25.09375 27.09375 21.90625 
L 30.296875 8.5 
Q 31.296875 4.40625 33.296875 4.40625 
Q 34.90625 4.40625 38 8.40625 
Q 38.296875 8.796875 38.6875 9.34375 
Q 39.09375 9.90625 39.390625 10.34375 
Q 39.703125 10.796875 40.09375 11.203125 
L 41.59375 10.296875 
Q 37.296875 3.59375 34.796875 1.25 
Q 32.296875 -1.09375 29.40625 -1.09375 
Q 27 -1.09375 25.703125 0.40625 
Q 24.40625 1.90625 23.5 5.703125 
L 20.59375 17.59375 
L 11.796875 5.703125 
Q 8.703125 1.5 6.75 0.203125 
Q 4.796875 -1.09375 2.296875 -1.09375 
Q 0 -1.09375 -1.34375 0 
Q -2.703125 1.09375 -2.703125 3.09375 
Q -2.703125 4.59375 -1.75 5.640625 
Q -0.796875 6.703125 0.703125 6.703125 
Q 1.90625 6.703125 3.90625 5.59375 
Q 5.40625 4.703125 6.5 4.703125 
Q 8.203125 4.703125 11.59375 9.59375 
L 19.796875 21.203125 
L 17 33.59375 
Q 16 38 15.140625 39.203125 
Q 14.296875 40.40625 12.40625 40.40625 
Q 11.203125 40.40625 8.5 39.703125 
L 6.703125 39.203125 
L 6.40625 40.796875 
L 7.5 41.203125 
Q 15.5 44.09375 19.203125 44.09375 
Q 21.09375 44.09375 22.1875 42.296875 
Q 23.296875 40.5 24.296875 35.5 
z
" id="STIXGeneral-Italic-120"/>
      </defs>
      <use transform="translate(0 0.90625)" xlink:href="#STIXGeneral-Italic-120"/>
     </g>
    </g>
   </g>
   <g id="matplotlib.axis_2">
    <g id="ytick_1">
     <g id="line2d_5">
      <defs>
       <path d="M 0 0 
L -3.5 0 
" id="mfc5baa9a97" style="stroke:#000000;stroke-width:0.8;"/>
      </defs>
      <g>
       <use style="stroke:#000000;stroke-width:0.8;" x="46.365625" xlink:href="#mfc5baa9a97" y="284.85559"/>
      </g>
     </g>
     <g id="text_6">
      <!-- 0 -->
      <g transform="translate(29.365625 291.79934)scale(0.2 -0.2)">
       <use xlink:href="#TimesNewRomanPSMT-48"/>
      </g>
     </g>
    </g>
    <g id="ytick_2">
     <g id="line2d_6">
      <g>
       <use style="stroke:#000000;stroke-width:0.8;" x="46.365625" xlink:href="#mfc5baa9a97" y="202.493609"/>
      </g>
     </g>
     <g id="text_7">
      <!-- 1 -->
      <g transform="translate(29.365625 209.437359)scale(0.2 -0.2)">
       <use xlink:href="#TimesNewRomanPSMT-49"/>
      </g>
     </g>
    </g>
    <g id="ytick_3">
     <g id="line2d_7">
      <g>
       <use style="stroke:#000000;stroke-width:0.8;" x="46.365625" xlink:href="#mfc5baa9a97" y="120.131629"/>
      </g>
     </g>
     <g id="text_8">
      <!-- 2 -->
      <g transform="translate(29.365625 127.075379)scale(0.2 -0.2)">
       <use xlink:href="#TimesNewRomanPSMT-50"/>
      </g>
     </g>
    </g>
    <g id="ytick_4">
     <g id="line2d_8">
      <g>
       <use style="stroke:#000000;stroke-width:0.8;" x="46.365625" xlink:href="#mfc5baa9a97" y="37.769649"/>
      </g>
     </g>
     <g id="text_9">
      <!-- 3 -->
      <g transform="translate(29.365625 44.713399)scale(0.2 -0.2)">
       <use xlink:href="#TimesNewRomanPSMT-51"/>
      </g>
     </g>
    </g>
    <g id="text_10">
     <!-- $f(x)$ -->
     <g transform="translate(21.0875 179.665)rotate(-90)scale(0.2 -0.2)">
      <defs>
       <path d="M 4.09375 42.796875 
L 13.40625 42.796875 
Q 17.296875 55.40625 20.59375 60.09375 
Q 26 67.796875 33.796875 67.796875 
Q 37.5 67.796875 39.953125 66.046875 
Q 42.40625 64.296875 42.40625 61.59375 
Q 42.40625 59.90625 41.15625 58.59375 
Q 39.90625 57.296875 38.203125 57.296875 
Q 36.796875 57.296875 35.640625 58.390625 
Q 34.5 59.5 34.5 61.203125 
Q 34.5 62.203125 35 63.09375 
Q 35.5 64 35.5 64.296875 
Q 35.5 65.59375 33.296875 65.59375 
Q 29.09375 65.59375 26.1875 60.140625 
Q 23.296875 54.703125 21.09375 42.796875 
L 31.796875 42.796875 
L 31.203125 39.59375 
L 20.40625 39.59375 
L 13.203125 7.59375 
Q 6.796875 -20.703125 -6.796875 -20.703125 
Q -10.203125 -20.703125 -12.453125 -18.953125 
Q -14.703125 -17.203125 -14.703125 -14.59375 
Q -14.703125 -12.90625 -13.59375 -11.65625 
Q -12.5 -10.40625 -10.90625 -10.40625 
Q -9.203125 -10.40625 -8.140625 -11.453125 
Q -7.09375 -12.5 -7.09375 -14.09375 
Q -7.09375 -14.796875 -7.546875 -15.640625 
Q -8 -16.5 -8 -17 
Q -8 -18.59375 -6 -18.59375 
Q 0.203125 -18.59375 3.703125 -2.40625 
L 12.5 39.59375 
L 3.40625 39.59375 
z
" id="STIXGeneral-Italic-102"/>
       <path d="M 30.40625 -16.09375 
L 29.203125 -17.703125 
Q 17.59375 -11.09375 11.1875 0.5 
Q 4.796875 12.09375 4.796875 25.203125 
Q 4.796875 52.90625 29.5 67.59375 
L 30.40625 66 
Q 20.203125 57.296875 16.796875 48.84375 
Q 13.40625 40.40625 13.40625 25.5 
Q 13.40625 10.703125 16.90625 1.5 
Q 20.40625 -7.703125 30.40625 -16.09375 
z
" id="STIXGeneral-Regular-40"/>
       <path d="M 2.90625 66 
L 4.09375 67.59375 
Q 15.5 60.796875 22 49.1875 
Q 28.5 37.59375 28.5 24.703125 
Q 28.5 -2.59375 3.796875 -17.703125 
L 2.90625 -16.09375 
Q 13.203125 -7.59375 16.546875 0.84375 
Q 19.90625 9.296875 19.90625 24.40625 
Q 19.90625 39.59375 16.546875 48.75 
Q 13.203125 57.90625 2.90625 66 
z
" id="STIXGeneral-Regular-41"/>
      </defs>
      <use transform="translate(0 0.203125)" xlink:href="#STIXGeneral-Italic-102"/>
      <use transform="translate(27.799988 0.203125)" xlink:href="#STIXGeneral-Regular-40"/>
      <use transform="translate(61.099976 0.203125)" xlink:href="#STIXGeneral-Italic-120"/>
      <use transform="translate(105.499969 0.203125)" xlink:href="#STIXGeneral-Regular-41"/>
     </g>
    </g>
   </g>
   <g id="line2d_9">
    <path clip-path="url(#pc919da3d87)" d="M 64.12017 146.628252 
L 66.524699 42.219545 
L 66.627076 47.796562 
L 66.742137 90.210602 
L 68.017213 85.558168 
L 68.275253 75.65625 
L 68.311374 107.44691 
L 69.058653 116.752892 
L 69.298465 134.288048 
L 69.664645 77.738663 
L 69.819162 143.069351 
L 71.257786 94.641341 
L 71.609247 150.319378 
L 73.815265 118.183483 
L 74.338783 89.987474 
L 78.377657 130.973628 
L 81.526154 189.641479 
L 81.851476 155.729714 
L 82.221633 133.160757 
L 82.748029 139.794781 
L 83.169889 170.76698 
L 83.286757 121.078301 
L 83.954367 157.920462 
L 84.842845 166.570478 
L 85.286574 162.818694 
L 85.355235 207.466265 
L 85.768389 179.702538 
L 86.463255 162.566564 
L 87.756299 175.491809 
L 89.930334 191.944678 
L 91.410824 145.841303 
L 92.239855 163.624449 
L 93.563872 203.447875 
L 94.447441 173.316421 
L 95.9967 201.820257 
L 96.767457 165.645424 
L 97.125661 190.236644 
L 97.391121 184.287847 
L 98.242067 179.731296 
L 98.891393 196.153201 
L 101.866819 214.059302 
L 104.423053 186.158922 
L 104.688284 223.362044 
L 104.850191 178.219223 
L 105.374832 205.189423 
L 106.669046 206.661391 
L 108.46944 212.929542 
L 108.492918 208.449045 
L 109.253331 213.087044 
L 109.406049 213.034828 
L 109.518584 200.596525 
L 109.615109 212.930846 
L 110.831649 211.401469 
L 111.341061 204.360114 
L 111.799209 216.702543 
L 113.645949 220.781984 
L 114.179744 222.791094 
L 114.929424 226.914827 
L 115.355974 237.997645 
L 115.822966 222.570446 
L 119.223775 219.244116 
L 119.382677 221.839266 
L 119.784276 221.569159 
L 120.482245 226.486309 
L 120.647081 225.821198 
L 121.268477 222.218877 
L 123.745706 216.44641 
L 126.593858 255.054578 
L 127.146517 236.98393 
L 127.875307 222.690572 
L 128.748462 245.58293 
L 128.947434 232.882781 
L 129.282427 232.01549 
L 132.826862 225.348965 
L 133.877773 245.429319 
L 136.547174 232.401722 
L 137.395003 245.680163 
L 137.587456 231.78824 
L 139.418044 232.907609 
L 139.914276 240.843527 
L 141.437267 230.847534 
L 142.123308 222.824061 
L 142.564567 233.538546 
L 145.202196 248.373698 
L 145.3924 236.519477 
L 145.532719 240.563145 
L 145.574558 234.334033 
L 145.816056 245.110569 
L 147.359634 246.309909 
L 147.383 259.595512 
L 147.413567 240.37787 
L 148.17345 246.799751 
L 148.462232 237.910336 
L 148.672911 248.35879 
L 149.746941 245.538556 
L 150.083268 252.251944 
L 151.171329 250.05449 
L 151.292655 251.683787 
L 151.530857 242.980038 
L 152.431289 250.994946 
L 152.877837 241.862297 
L 152.913701 245.292464 
L 153.294055 242.090058 
L 154.839781 256.513375 
L 155.103557 246.413219 
L 156.066366 251.796071 
L 156.936979 246.245908 
L 158.998726 244.179024 
L 159.47194 254.524266 
L 159.752014 245.506824 
L 159.889531 254.267464 
L 160.146748 249.074051 
L 160.604486 251.042743 
L 161.594778 241.190395 
L 161.606425 252.239426 
L 163.071362 249.279758 
L 163.710264 244.440534 
L 164.972064 254.598326 
L 165.453177 243.246549 
L 166.052921 251.210957 
L 166.792255 253.846104 
L 167.103986 252.592164 
L 168.366968 257.01338 
L 168.983482 244.903458 
L 170.159493 262.838896 
L 170.168 252.625255 
L 171.193025 260.252173 
L 173.863512 256.553971 
L 175.107697 259.642146 
L 176.02023 259.856645 
L 176.229456 249.952639 
L 176.746724 259.992192 
L 179.49817 259.756359 
L 181.435781 257.528329 
L 185.795707 257.91708 
L 186.467862 261.003336 
L 186.927142 255.142344 
L 189.373638 257.385643 
L 189.85156 264.863109 
L 190.852024 256.597516 
L 191.019957 261.136747 
L 191.222655 258.978983 
L 193.72874 255.781574 
L 194.094041 264.324959 
L 194.144247 258.033717 
L 194.904194 264.48276 
L 195.961567 262.792465 
L 197.368392 263.149417 
L 197.834532 263.763482 
L 198.1453 262.331949 
L 199.174372 263.055496 
L 199.400631 264.869026 
L 199.408623 261.48782 
L 202.698886 265.577889 
L 204.066908 263.502988 
L 204.679586 266.109459 
L 204.755735 269.274825 
L 205.764855 262.1055 
L 205.927027 264.485295 
L 207.880716 265.436583 
L 207.901387 263.230438 
L 210.409441 267.180169 
L 210.551937 262.766925 
L 210.621561 263.856753 
L 213.764005 263.845605 
L 213.83553 262.909657 
L 213.898823 266.441728 
L 213.919088 265.49158 
L 215.590587 262.877567 
L 215.600239 268.933246 
L 216.174126 266.275107 
L 216.537019 268.558473 
L 217.607912 267.575413 
L 218.542055 274.010809 
L 218.740382 267.457325 
L 219.10267 266.538743 
L 222.147223 268.881156 
L 222.920971 268.19144 
L 224.439355 274.194495 
L 224.494418 270.374083 
L 224.660704 267.721935 
L 225.118521 267.520708 
L 225.367267 265.972113 
L 225.370755 263.813734 
L 225.754052 267.740004 
L 226.081005 266.011063 
L 226.247142 272.109117 
L 226.694303 265.897087 
L 227.274177 268.525842 
L 228.022848 268.946654 
L 228.99986 266.194245 
L 233.307282 271.249121 
L 235.89944 268.479349 
L 237.570238 268.322866 
L 237.625052 271.281345 
L 240.101222 269.694433 
L 241.506016 273.794419 
L 241.886439 274.001177 
L 243.128327 272.532034 
L 244.610791 272.933898 
L 245.075886 272.163837 
L 247.215227 271.262902 
L 247.24044 271.358386 
L 247.533902 268.668503 
L 248.836754 267.993794 
L 249.33671 272.093558 
L 251.353657 269.595184 
L 253.760293 272.085032 
L 253.954846 274.420624 
L 254.098331 271.533566 
L 257.064342 272.294809 
L 258.468174 274.56532 
L 259.634285 270.558248 
L 259.675073 271.086696 
L 261.52395 271.253189 
L 264.400149 272.738426 
L 264.821672 276.991923 
L 265.476202 270.774998 
L 266.023031 274.100268 
L 266.105846 272.368769 
L 266.839899 271.680323 
L 267.580456 276.675132 
L 268.089763 274.326784 
L 268.159532 271.150412 
L 268.23484 274.564711 
L 268.61747 274.026078 
L 268.729753 270.007104 
L 270.062007 274.584391 
L 271.206124 275.914598 
L 271.896945 273.609965 
L 271.933652 275.849387 
L 272.321799 276.967398 
L 272.578068 276.68555 
L 273.147006 273.382045 
L 273.530685 276.305686 
L 273.908498 272.969998 
L 273.975822 275.974772 
L 277.737982 272.664458 
L 278.221756 276.054647 
L 279.034487 273.235726 
L 281.071308 278.399536 
L 281.739318 278.07714 
L 282.308523 275.726246 
L 283.050004 274.847544 
L 283.136154 278.424791 
L 283.185708 274.978188 
L 283.351736 275.125527 
L 287.0729 276.54839 
L 287.102691 276.215783 
L 288.894253 276.94186 
L 289.631243 278.32982 
L 291.009945 275.453512 
L 292.463373 274.992692 
L 293.143413 276.94308 
L 295.361199 276.593115 
L 295.720184 277.019135 
L 295.753221 277.978128 
L 298.243736 277.916608 
L 299.076334 275.307875 
L 299.281224 278.31143 
L 300.27451 277.315846 
L 300.82859 278.380259 
L 301.723742 277.156172 
L 302.484986 279.127681 
L 304.54546 276.108786 
L 305.10846 278.00995 
L 305.822726 279.039703 
L 305.975523 277.754536 
L 306.497376 278.625567 
L 308.00001 277.410072 
L 308.814376 277.114347 
L 308.906084 277.276348 
L 309.780139 277.930883 
L 309.801381 278.76608 
L 310.906443 278.564851 
L 311.162914 277.862071 
L 311.396421 278.861452 
L 311.550556 277.277812 
L 311.622857 278.895349 
L 312.282954 279.380973 
L 312.333952 277.749082 
L 313.85787 278.144298 
L 314.045682 279.231609 
L 314.817299 279.23081 
L 317.555652 279.984874 
L 318.300695 278.443757 
L 318.490885 279.516694 
L 321.489266 280.540268 
L 321.610738 279.606137 
L 323.180971 279.840442 
L 323.227929 278.782604 
L 323.490019 278.959049 
L 326.493106 279.940095 
L 326.595694 281.092124 
L 329.850611 278.741916 
L 329.895129 279.756075 
L 330.601133 279.703192 
L 332.749134 279.961109 
L 333.320626 279.729535 
L 338.983725 280.338813 
L 340.117369 280.844127 
L 340.577357 280.793577 
L 341.232346 281.105291 
L 342.198612 280.359168 
L 342.883852 282.147102 
L 344.09562 281.066404 
L 345.935879 279.714141 
L 346.89804 280.547996 
L 347.489301 281.227268 
L 347.902113 280.979502 
L 348.114027 281.338008 
L 350.801117 281.35588 
L 353.115236 281.171985 
L 353.532658 281.382562 
L 355.60453 281.777725 
L 355.685292 281.302975 
L 356.086942 280.855092 
L 358.422606 280.65061 
L 358.523728 281.302292 
L 359.276816 282.029845 
L 362.184498 282.384303 
L 364.763176 282.298447 
L 365.334506 282.614587 
L 365.668585 281.698068 
L 365.702429 282.167323 
L 368.118763 282.243491 
L 370.40049 282.093712 
L 371.897363 282.720246 
L 372.221353 282.506023 
L 373.006837 282.820199 
L 373.193862 282.447736 
L 374.136284 283.178639 
L 374.721099 282.869221 
L 377.155362 282.449312 
L 377.375747 282.860734 
L 377.490472 282.570093 
L 380.966401 283.446538 
L 381.020104 282.757696 
L 382.25685 283.300327 
L 382.715972 282.988234 
L 382.74807 283.076952 
L 385.233535 283.243381 
L 385.327908 283.050165 
L 385.349495 283.230908 
L 386.246411 282.771793 
L 387.063717 283.311402 
L 390.863716 283.497563 
L 392.822597 283.352866 
L 393.934992 283.982918 
L 394.368931 283.511784 
L 398.346396 283.844376 
L 398.684202 283.832627 
L 399.530852 283.956434 
L 399.753843 283.795235 
L 399.859757 283.985931 
L 400.82474 284.017574 
L 401.520609 284.189565 
L 402.433438 283.861344 
L 402.761036 284.241913 
L 404.051908 284.095165 
L 405.038038 284.197484 
L 405.133312 284.423691 
L 406.027346 284.357388 
L 408.540223 284.35825 
L 411.584623 284.504142 
L 411.985808 284.477474 
L 413.132729 284.653436 
L 417.62298 284.765701 
L 419.21108 284.83933 
L 419.21108 284.83933 
" style="fill:none;stroke:#008000;stroke-linecap:square;stroke-opacity:0.8;stroke-width:1.5;"/>
   </g>
   <g id="line2d_10">
    <path clip-path="url(#pc919da3d87)" d="M 64.12017 55.111223 
L 66.742137 78.076262 
L 69.298465 96.685738 
L 71.257786 108.97504 
L 71.609247 111.02502 
L 74.338783 125.571974 
L 78.377657 143.43152 
L 82.221633 157.355406 
L 83.954367 162.859551 
L 86.463255 170.122479 
L 87.756299 173.575987 
L 91.410824 182.421666 
L 94.447441 188.890605 
L 97.391121 194.523337 
L 98.891393 197.182399 
L 101.866819 202.082751 
L 105.374832 207.299021 
L 108.492918 211.495737 
L 111.799209 215.555037 
L 115.822966 220.026095 
L 121.268477 225.383599 
L 123.745706 227.59393 
L 129.282427 232.097391 
L 133.877773 235.437543 
L 139.418044 239.059547 
L 142.564567 240.944686 
L 148.672911 244.296519 
L 153.294055 246.594999 
L 159.47194 249.393175 
L 165.453177 251.842546 
L 171.193025 253.985234 
L 176.746724 255.888909 
L 181.435781 257.380921 
L 191.222655 260.199585 
L 199.408623 262.293631 
L 207.901387 264.252094 
L 218.740382 266.483324 
L 228.99986 268.361195 
L 241.886439 270.45132 
L 254.098331 272.201295 
L 268.729753 274.053392 
L 283.351736 275.68304 
L 301.723742 277.47385 
L 318.490885 278.903014 
L 340.577357 280.543334 
L 362.184498 281.931349 
L 387.063717 283.316331 
L 417.62298 284.768665 
L 419.21108 284.837765 
L 419.21108 284.837765 
" style="fill:none;stroke:#ff0000;stroke-dasharray:9.6,2.4,1.5,2.4;stroke-dashoffset:0;stroke-width:1.5;"/>
    <defs>
     <path d="M 0 3 
C 0.795609 3 1.55874 2.683901 2.12132 2.12132 
C 2.683901 1.55874 3 0.795609 3 0 
C 3 -0.795609 2.683901 -1.55874 2.12132 -2.12132 
C 1.55874 -2.683901 0.795609 -3 0 -3 
C -0.795609 -3 -1.55874 -2.683901 -2.12132 -2.12132 
C -2.683901 -1.55874 -3 -0.795609 -3 0 
C -3 0.795609 -2.683901 1.55874 -2.12132 2.12132 
C -1.55874 2.683901 -0.795609 3 0 3 
z
" id="m0811604844" style="stroke:#ff0000;"/>
    </defs>
    <g clip-path="url(#pc919da3d87)">
     <use style="fill:#ff0000;stroke:#ff0000;" x="64.12017" xlink:href="#m0811604844" y="55.111223"/>
     <use style="fill:#ff0000;stroke:#ff0000;" x="83.169889" xlink:href="#m0811604844" y="160.420658"/>
     <use style="fill:#ff0000;stroke:#ff0000;" x="101.866819" xlink:href="#m0811604844" y="202.082751"/>
     <use style="fill:#ff0000;stroke:#ff0000;" x="115.822966" xlink:href="#m0811604844" y="220.026095"/>
     <use style="fill:#ff0000;stroke:#ff0000;" x="139.418044" xlink:href="#m0811604844" y="239.059547"/>
     <use style="fill:#ff0000;stroke:#ff0000;" x="151.530857" xlink:href="#m0811604844" y="245.740214"/>
     <use style="fill:#ff0000;stroke:#ff0000;" x="164.972064" xlink:href="#m0811604844" y="251.654103"/>
     <use style="fill:#ff0000;stroke:#ff0000;" x="186.467862" xlink:href="#m0811604844" y="258.876795"/>
     <use style="fill:#ff0000;stroke:#ff0000;" x="204.066908" xlink:href="#m0811604844" y="263.392747"/>
     <use style="fill:#ff0000;stroke:#ff0000;" x="218.740382" xlink:href="#m0811604844" y="266.483324"/>
     <use style="fill:#ff0000;stroke:#ff0000;" x="237.570238" xlink:href="#m0811604844" y="269.781417"/>
     <use style="fill:#ff0000;stroke:#ff0000;" x="259.675073" xlink:href="#m0811604844" y="272.936136"/>
     <use style="fill:#ff0000;stroke:#ff0000;" x="273.147006" xlink:href="#m0811604844" y="274.567125"/>
     <use style="fill:#ff0000;stroke:#ff0000;" x="290.849748" xlink:href="#m0811604844" y="276.445418"/>
     <use style="fill:#ff0000;stroke:#ff0000;" x="306.497376" xlink:href="#m0811604844" y="277.898954"/>
     <use style="fill:#ff0000;stroke:#ff0000;" x="321.489266" xlink:href="#m0811604844" y="279.140726"/>
     <use style="fill:#ff0000;stroke:#ff0000;" x="345.935879" xlink:href="#m0811604844" y="280.905759"/>
     <use style="fill:#ff0000;stroke:#ff0000;" x="370.40049" xlink:href="#m0811604844" y="282.41169"/>
     <use style="fill:#ff0000;stroke:#ff0000;" x="386.246411" xlink:href="#m0811604844" y="283.273983"/>
     <use style="fill:#ff0000;stroke:#ff0000;" x="404.051908" xlink:href="#m0811604844" y="284.153682"/>
    </g>
   </g>
   <g id="line2d_11">
    <path clip-path="url(#pc919da3d87)" d="M 64.12017 77.657481 
L 66.742137 92.587951 
L 69.664645 107.138947 
L 71.609247 115.798241 
L 74.338783 126.788757 
L 78.377657 140.968351 
L 82.748029 154.056592 
L 85.355235 160.953829 
L 87.756299 166.79446 
L 91.410824 174.866987 
L 94.447441 180.923326 
L 98.242067 187.780404 
L 98.891393 188.882685 
L 103.691707 196.4634 
L 106.669046 200.714526 
L 110.831649 206.160496 
L 114.179744 210.169702 
L 115.822966 212.028615 
L 121.268477 217.732765 
L 126.593858 222.716542 
L 129.282427 225.038294 
L 133.877773 228.739876 
L 139.914276 233.150347 
L 145.574558 236.882963 
L 150.083268 239.613432 
L 155.103557 242.43012 
L 160.604486 245.276066 
L 166.792255 248.212455 
L 172.029431 250.503919 
L 179.49817 253.502095 
L 186.927142 256.209028 
L 194.904194 258.851277 
L 202.698886 261.203279 
L 210.621561 263.39089 
L 219.10267 265.534242 
L 228.99986 267.80954 
L 241.886439 270.460097 
L 254.098331 272.696065 
L 268.23484 275.003424 
L 281.739318 276.96982 
L 296.870755 278.940589 
L 312.333952 280.739725 
L 330.601133 282.630107 
L 350.801117 284.473286 
L 373.193862 286.266223 
L 396.12547 287.877746 
L 419.21108 289.310455 
L 419.21108 289.310455 
" style="fill:none;stroke:#0000ff;stroke-linecap:square;stroke-width:2;"/>
   </g>
   <g id="patch_3">
    <path d="M 46.365625 301.665 
L 46.365625 29.865 
" style="fill:none;stroke:#000000;stroke-linecap:square;stroke-linejoin:miter;stroke-width:0.8;"/>
   </g>
   <g id="patch_4">
    <path d="M 436.965625 301.665 
L 436.965625 29.865 
" style="fill:none;stroke:#000000;stroke-linecap:square;stroke-linejoin:miter;stroke-width:0.8;"/>
   </g>
   <g id="patch_5">
    <path d="M 46.365625 301.665 
L 436.965625 301.665 
" style="fill:none;stroke:#000000;stroke-linecap:square;stroke-linejoin:miter;stroke-width:0.8;"/>
   </g>
   <g id="patch_6">
    <path d="M 46.365625 29.865 
L 436.965625 29.865 
" style="fill:none;stroke:#000000;stroke-linecap:square;stroke-linejoin:miter;stroke-width:0.8;"/>
   </g>
   <g id="text_11">
    <!-- Data Distribution -->
    <g transform="translate(158.010625 23.865)scale(0.24 -0.24)">
     <defs>
      <path d="M 1.703125 0 
L 1.703125 1.8125 
L 4.203125 1.8125 
Q 8.40625 1.8125 10.15625 4.5 
Q 11.234375 6.109375 11.234375 11.71875 
L 11.234375 54.5 
Q 11.234375 60.6875 9.859375 62.25 
Q 7.953125 64.40625 4.203125 64.40625 
L 1.703125 64.40625 
L 1.703125 66.21875 
L 28.65625 66.21875 
Q 43.5 66.21875 51.234375 62.84375 
Q 58.984375 59.46875 63.6875 51.609375 
Q 68.40625 43.75 68.40625 33.453125 
Q 68.40625 19.625 60.015625 10.359375 
Q 50.59375 0 31.296875 0 
z
M 20.609375 4.78125 
Q 26.8125 3.421875 31 3.421875 
Q 42.328125 3.421875 49.796875 11.375 
Q 57.28125 19.34375 57.28125 32.953125 
Q 57.28125 46.6875 49.796875 54.59375 
Q 42.328125 62.5 30.609375 62.5 
Q 26.21875 62.5 20.609375 61.078125 
z
" id="TimesNewRomanPSMT-68"/>
      <path d="M 28.46875 6.453125 
Q 21.578125 1.125 19.828125 0.296875 
Q 17.1875 -0.921875 14.203125 -0.921875 
Q 9.578125 -0.921875 6.5625 2.25 
Q 3.5625 5.421875 3.5625 10.59375 
Q 3.5625 13.875 5.03125 16.265625 
Q 7.03125 19.578125 11.984375 22.5 
Q 16.9375 25.4375 28.46875 29.640625 
L 28.46875 31.390625 
Q 28.46875 38.09375 26.34375 40.578125 
Q 24.21875 43.0625 20.171875 43.0625 
Q 17.09375 43.0625 15.28125 41.40625 
Q 13.421875 39.75 13.421875 37.59375 
L 13.53125 34.765625 
Q 13.53125 32.515625 12.375 31.296875 
Q 11.234375 30.078125 9.375 30.078125 
Q 7.5625 30.078125 6.421875 31.34375 
Q 5.28125 32.625 5.28125 34.8125 
Q 5.28125 39.015625 9.578125 42.53125 
Q 13.875 46.046875 21.625 46.046875 
Q 27.59375 46.046875 31.390625 44.046875 
Q 34.28125 42.53125 35.640625 39.3125 
Q 36.53125 37.203125 36.53125 30.71875 
L 36.53125 15.53125 
Q 36.53125 9.125 36.765625 7.6875 
Q 37.015625 6.25 37.578125 5.765625 
Q 38.140625 5.28125 38.875 5.28125 
Q 39.65625 5.28125 40.234375 5.609375 
Q 41.265625 6.25 44.1875 9.1875 
L 44.1875 6.453125 
Q 38.71875 -0.875 33.734375 -0.875 
Q 31.34375 -0.875 29.921875 0.78125 
Q 28.515625 2.4375 28.46875 6.453125 
z
M 28.46875 9.625 
L 28.46875 26.65625 
Q 21.09375 23.734375 18.953125 22.515625 
Q 15.09375 20.359375 13.421875 18.015625 
Q 11.765625 15.671875 11.765625 12.890625 
Q 11.765625 9.375 13.859375 7.046875 
Q 15.96875 4.734375 18.703125 4.734375 
Q 22.40625 4.734375 28.46875 9.625 
z
" id="TimesNewRomanPSMT-97"/>
      <path d="M 16.109375 59.421875 
L 16.109375 44.734375 
L 26.5625 44.734375 
L 26.5625 41.3125 
L 16.109375 41.3125 
L 16.109375 12.3125 
Q 16.109375 7.953125 17.359375 6.4375 
Q 18.609375 4.9375 20.5625 4.9375 
Q 22.171875 4.9375 23.6875 5.9375 
Q 25.203125 6.9375 26.03125 8.890625 
L 27.9375 8.890625 
Q 26.21875 4.109375 23.09375 1.6875 
Q 19.96875 -0.734375 16.65625 -0.734375 
Q 14.40625 -0.734375 12.25 0.515625 
Q 10.109375 1.765625 9.078125 4.078125 
Q 8.0625 6.390625 8.0625 11.234375 
L 8.0625 41.3125 
L 0.984375 41.3125 
L 0.984375 42.921875 
Q 3.65625 44 6.46875 46.5625 
Q 9.28125 49.125 11.46875 52.640625 
Q 12.59375 54.5 14.59375 59.421875 
z
" id="TimesNewRomanPSMT-116"/>
      <path id="TimesNewRomanPSMT-32"/>
      <path d="M 14.5 69.4375 
Q 16.546875 69.4375 17.984375 67.984375 
Q 19.4375 66.546875 19.4375 64.5 
Q 19.4375 62.453125 17.984375 60.984375 
Q 16.546875 59.515625 14.5 59.515625 
Q 12.453125 59.515625 10.984375 60.984375 
Q 9.515625 62.453125 9.515625 64.5 
Q 9.515625 66.546875 10.953125 67.984375 
Q 12.40625 69.4375 14.5 69.4375 
z
M 18.5625 46.046875 
L 18.5625 10.109375 
Q 18.5625 5.90625 19.171875 4.515625 
Q 19.78125 3.125 20.96875 2.4375 
Q 22.171875 1.765625 25.34375 1.765625 
L 25.34375 0 
L 3.609375 0 
L 3.609375 1.765625 
Q 6.890625 1.765625 8 2.390625 
Q 9.125 3.03125 9.78125 4.484375 
Q 10.453125 5.953125 10.453125 10.109375 
L 10.453125 27.34375 
Q 10.453125 34.625 10.015625 36.765625 
Q 9.671875 38.328125 8.9375 38.9375 
Q 8.203125 39.546875 6.9375 39.546875 
Q 5.5625 39.546875 3.609375 38.8125 
L 2.9375 40.578125 
L 16.40625 46.046875 
z
" id="TimesNewRomanPSMT-105"/>
      <path d="M 32.03125 46.046875 
L 32.03125 30.8125 
L 30.421875 30.8125 
Q 28.5625 37.984375 25.65625 40.578125 
Q 22.75 43.171875 18.265625 43.171875 
Q 14.84375 43.171875 12.734375 41.359375 
Q 10.640625 39.546875 10.640625 37.359375 
Q 10.640625 34.625 12.203125 32.671875 
Q 13.71875 30.671875 18.359375 28.421875 
L 25.484375 24.953125 
Q 35.40625 20.125 35.40625 12.203125 
Q 35.40625 6.109375 30.78125 2.359375 
Q 26.171875 -1.375 20.453125 -1.375 
Q 16.359375 -1.375 11.078125 0.09375 
Q 9.46875 0.59375 8.453125 0.59375 
Q 7.328125 0.59375 6.6875 -0.6875 
L 5.078125 -0.6875 
L 5.078125 15.28125 
L 6.6875 15.28125 
Q 8.0625 8.453125 11.90625 4.984375 
Q 15.765625 1.515625 20.5625 1.515625 
Q 23.921875 1.515625 26.046875 3.484375 
Q 28.171875 5.46875 28.171875 8.25 
Q 28.171875 11.625 25.796875 13.921875 
Q 23.4375 16.21875 16.359375 19.734375 
Q 9.28125 23.25 7.078125 26.078125 
Q 4.890625 28.859375 4.890625 33.109375 
Q 4.890625 38.625 8.671875 42.328125 
Q 12.453125 46.046875 18.453125 46.046875 
Q 21.09375 46.046875 24.859375 44.921875 
Q 27.34375 44.1875 28.171875 44.1875 
Q 28.953125 44.1875 29.390625 44.53125 
Q 29.828125 44.875 30.421875 46.046875 
z
" id="TimesNewRomanPSMT-115"/>
      <path d="M 16.21875 46.046875 
L 16.21875 35.984375 
Q 21.828125 46.046875 27.734375 46.046875 
Q 30.421875 46.046875 32.171875 44.40625 
Q 33.9375 42.78125 33.9375 40.625 
Q 33.9375 38.71875 32.65625 37.390625 
Q 31.390625 36.078125 29.640625 36.078125 
Q 27.9375 36.078125 25.8125 37.765625 
Q 23.6875 39.453125 22.65625 39.453125 
Q 21.78125 39.453125 20.75 38.484375 
Q 18.5625 36.46875 16.21875 31.890625 
L 16.21875 10.453125 
Q 16.21875 6.734375 17.140625 4.828125 
Q 17.78125 3.515625 19.390625 2.640625 
Q 21 1.765625 24.03125 1.765625 
L 24.03125 0 
L 1.125 0 
L 1.125 1.765625 
Q 4.546875 1.765625 6.203125 2.828125 
Q 7.421875 3.609375 7.90625 5.328125 
Q 8.15625 6.15625 8.15625 10.0625 
L 8.15625 27.390625 
Q 8.15625 35.203125 7.828125 36.6875 
Q 7.515625 38.1875 6.65625 38.859375 
Q 5.8125 39.546875 4.546875 39.546875 
Q 3.03125 39.546875 1.125 38.8125 
L 0.640625 40.578125 
L 14.15625 46.046875 
z
" id="TimesNewRomanPSMT-114"/>
      <path d="M 15.375 37.015625 
Q 21.875 46.046875 29.390625 46.046875 
Q 36.28125 46.046875 41.40625 40.15625 
Q 46.53125 34.28125 46.53125 24.078125 
Q 46.53125 12.15625 38.625 4.890625 
Q 31.84375 -1.375 23.484375 -1.375 
Q 19.578125 -1.375 15.546875 0.046875 
Q 11.53125 1.46875 7.328125 4.296875 
L 7.328125 50.640625 
Q 7.328125 58.25 6.953125 60 
Q 6.59375 61.765625 5.8125 62.390625 
Q 5.03125 63.03125 3.859375 63.03125 
Q 2.484375 63.03125 0.4375 62.25 
L -0.25 63.96875 
L 13.1875 69.4375 
L 15.375 69.4375 
z
M 15.375 33.890625 
L 15.375 7.125 
Q 17.875 4.6875 20.53125 3.4375 
Q 23.1875 2.203125 25.984375 2.203125 
Q 30.421875 2.203125 34.25 7.078125 
Q 38.09375 11.96875 38.09375 21.296875 
Q 38.09375 29.890625 34.25 34.5 
Q 30.421875 39.109375 25.53125 39.109375 
Q 22.953125 39.109375 20.359375 37.796875 
Q 18.40625 36.8125 15.375 33.890625 
z
" id="TimesNewRomanPSMT-98"/>
      <path d="M 42.328125 44.734375 
L 42.328125 17.625 
Q 42.328125 9.859375 42.6875 8.125 
Q 43.0625 6.390625 43.859375 5.703125 
Q 44.671875 5.03125 45.75 5.03125 
Q 47.265625 5.03125 49.171875 5.859375 
L 49.859375 4.15625 
L 36.46875 -1.375 
L 34.28125 -1.375 
L 34.28125 8.109375 
Q 28.515625 1.859375 25.484375 0.234375 
Q 22.46875 -1.375 19.09375 -1.375 
Q 15.328125 -1.375 12.5625 0.796875 
Q 9.8125 2.984375 8.734375 6.390625 
Q 7.671875 9.8125 7.671875 16.0625 
L 7.671875 36.03125 
Q 7.671875 39.203125 6.984375 40.421875 
Q 6.296875 41.65625 4.953125 42.3125 
Q 3.609375 42.96875 0.09375 42.921875 
L 0.09375 44.734375 
L 15.765625 44.734375 
L 15.765625 14.796875 
Q 15.765625 8.546875 17.9375 6.59375 
Q 20.125 4.640625 23.1875 4.640625 
Q 25.296875 4.640625 27.953125 5.953125 
Q 30.609375 7.28125 34.28125 10.984375 
L 34.28125 36.328125 
Q 34.28125 40.140625 32.890625 41.484375 
Q 31.5 42.828125 27.09375 42.921875 
L 27.09375 44.734375 
z
" id="TimesNewRomanPSMT-117"/>
      <path d="M 25 46.046875 
Q 35.15625 46.046875 41.3125 38.328125 
Q 46.53125 31.734375 46.53125 23.1875 
Q 46.53125 17.1875 43.640625 11.03125 
Q 40.765625 4.890625 35.71875 1.75 
Q 30.671875 -1.375 24.46875 -1.375 
Q 14.359375 -1.375 8.40625 6.6875 
Q 3.375 13.484375 3.375 21.921875 
Q 3.375 28.078125 6.421875 34.15625 
Q 9.46875 40.234375 14.453125 43.140625 
Q 19.4375 46.046875 25 46.046875 
z
M 23.484375 42.875 
Q 20.90625 42.875 18.28125 41.328125 
Q 15.671875 39.796875 14.0625 35.9375 
Q 12.453125 32.078125 12.453125 26.03125 
Q 12.453125 16.265625 16.328125 9.171875 
Q 20.21875 2.09375 26.5625 2.09375 
Q 31.296875 2.09375 34.375 6 
Q 37.453125 9.90625 37.453125 19.4375 
Q 37.453125 31.34375 32.328125 38.1875 
Q 28.859375 42.875 23.484375 42.875 
z
" id="TimesNewRomanPSMT-111"/>
      <path d="M 16.15625 36.578125 
Q 24.03125 46.046875 31.15625 46.046875 
Q 34.8125 46.046875 37.453125 44.21875 
Q 40.09375 42.390625 41.65625 38.1875 
Q 42.71875 35.25 42.71875 29.203125 
L 42.71875 10.109375 
Q 42.71875 5.859375 43.40625 4.34375 
Q 43.953125 3.125 45.140625 2.4375 
Q 46.34375 1.765625 49.5625 1.765625 
L 49.5625 0 
L 27.4375 0 
L 27.4375 1.765625 
L 28.375 1.765625 
Q 31.5 1.765625 32.734375 2.703125 
Q 33.984375 3.65625 34.46875 5.515625 
Q 34.671875 6.25 34.671875 10.109375 
L 34.671875 28.421875 
Q 34.671875 34.515625 33.078125 37.28125 
Q 31.5 40.046875 27.734375 40.046875 
Q 21.921875 40.046875 16.15625 33.6875 
L 16.15625 10.109375 
Q 16.15625 5.5625 16.703125 4.5 
Q 17.390625 3.078125 18.578125 2.421875 
Q 19.78125 1.765625 23.4375 1.765625 
L 23.4375 0 
L 1.3125 0 
L 1.3125 1.765625 
L 2.296875 1.765625 
Q 5.71875 1.765625 6.90625 3.484375 
Q 8.109375 5.21875 8.109375 10.109375 
L 8.109375 26.703125 
Q 8.109375 34.765625 7.734375 36.515625 
Q 7.375 38.28125 6.609375 38.90625 
Q 5.859375 39.546875 4.59375 39.546875 
Q 3.21875 39.546875 1.3125 38.8125 
L 0.59375 40.578125 
L 14.0625 46.046875 
L 16.15625 46.046875 
z
" id="TimesNewRomanPSMT-110"/>
     </defs>
     <use xlink:href="#TimesNewRomanPSMT-68"/>
     <use x="72.216797" xlink:href="#TimesNewRomanPSMT-97"/>
     <use x="116.601562" xlink:href="#TimesNewRomanPSMT-116"/>
     <use x="144.384766" xlink:href="#TimesNewRomanPSMT-97"/>
     <use x="188.769531" xlink:href="#TimesNewRomanPSMT-32"/>
     <use x="213.769531" xlink:href="#TimesNewRomanPSMT-68"/>
     <use x="285.986328" xlink:href="#TimesNewRomanPSMT-105"/>
     <use x="313.769531" xlink:href="#TimesNewRomanPSMT-115"/>
     <use x="352.685547" xlink:href="#TimesNewRomanPSMT-116"/>
     <use x="380.46875" xlink:href="#TimesNewRomanPSMT-114"/>
     <use x="413.769531" xlink:href="#TimesNewRomanPSMT-105"/>
     <use x="441.552734" xlink:href="#TimesNewRomanPSMT-98"/>
     <use x="491.552734" xlink:href="#TimesNewRomanPSMT-117"/>
     <use x="541.552734" xlink:href="#TimesNewRomanPSMT-116"/>
     <use x="569.335938" xlink:href="#TimesNewRomanPSMT-105"/>
     <use x="597.119141" xlink:href="#TimesNewRomanPSMT-111"/>
     <use x="647.119141" xlink:href="#TimesNewRomanPSMT-110"/>
    </g>
   </g>
   <g id="legend_1">
    <g id="patch_7">
     <path d="M 250.33375 120.683437 
L 424.365625 120.683437 
Q 427.965625 120.683437 427.965625 117.083437 
L 427.965625 42.465 
Q 427.965625 38.865 424.365625 38.865 
L 250.33375 38.865 
Q 246.73375 38.865 246.73375 42.465 
L 246.73375 117.083437 
Q 246.73375 120.683437 250.33375 120.683437 
z
" style="fill:#ffffff;opacity:0.8;stroke:#cccccc;stroke-linejoin:miter;"/>
    </g>
    <g id="line2d_12">
     <path d="M 253.93375 52.365 
L 289.93375 52.365 
" style="fill:none;stroke:#008000;stroke-linecap:square;stroke-opacity:0.8;stroke-width:1.5;"/>
    </g>
    <g id="line2d_13"/>
    <g id="text_12">
     <!-- Training set -->
     <g transform="translate(304.33375 58.665)scale(0.18 -0.18)">
      <defs>
       <path d="M 57.859375 66.21875 
L 58.59375 50.6875 
L 56.734375 50.6875 
Q 56.203125 54.78125 55.28125 56.546875 
Q 53.765625 59.375 51.25 60.71875 
Q 48.734375 62.0625 44.625 62.0625 
L 35.296875 62.0625 
L 35.296875 11.46875 
Q 35.296875 5.375 36.625 3.859375 
Q 38.484375 1.8125 42.328125 1.8125 
L 44.625 1.8125 
L 44.625 0 
L 16.546875 0 
L 16.546875 1.8125 
L 18.890625 1.8125 
Q 23.09375 1.8125 24.859375 4.34375 
Q 25.921875 5.90625 25.921875 11.46875 
L 25.921875 62.0625 
L 17.96875 62.0625 
Q 13.328125 62.0625 11.375 61.375 
Q 8.84375 60.453125 7.03125 57.8125 
Q 5.21875 55.171875 4.890625 50.6875 
L 3.03125 50.6875 
L 3.8125 66.21875 
z
" id="TimesNewRomanPSMT-84"/>
       <path d="M 15.09375 16.3125 
Q 10.984375 18.3125 8.78125 21.890625 
Q 6.59375 25.484375 6.59375 29.828125 
Q 6.59375 36.46875 11.59375 41.25 
Q 16.609375 46.046875 24.421875 46.046875 
Q 30.8125 46.046875 35.5 42.921875 
L 44.96875 42.921875 
Q 47.078125 42.921875 47.40625 42.796875 
Q 47.75 42.671875 47.90625 42.390625 
Q 48.1875 41.9375 48.1875 40.828125 
Q 48.1875 39.546875 47.953125 39.0625 
Q 47.796875 38.8125 47.4375 38.671875 
Q 47.078125 38.53125 44.96875 38.53125 
L 39.15625 38.53125 
Q 41.890625 35.015625 41.890625 29.546875 
Q 41.890625 23.296875 37.109375 18.84375 
Q 32.328125 14.40625 24.265625 14.40625 
Q 20.953125 14.40625 17.484375 15.375 
Q 15.328125 13.53125 14.5625 12.140625 
Q 13.8125 10.75 13.8125 9.765625 
Q 13.8125 8.9375 14.625 8.15625 
Q 15.4375 7.375 17.78125 7.03125 
Q 19.140625 6.84375 24.609375 6.6875 
Q 34.671875 6.453125 37.640625 6 
Q 42.1875 5.375 44.890625 2.640625 
Q 47.609375 -0.09375 47.609375 -4.109375 
Q 47.609375 -9.625 42.4375 -14.453125 
Q 34.8125 -21.578125 22.5625 -21.578125 
Q 13.140625 -21.578125 6.640625 -17.328125 
Q 2.984375 -14.890625 2.984375 -12.25 
Q 2.984375 -11.078125 3.515625 -9.90625 
Q 4.34375 -8.109375 6.9375 -4.890625 
Q 7.28125 -4.4375 11.921875 0.390625 
Q 9.375 1.90625 8.328125 3.09375 
Q 7.28125 4.296875 7.28125 5.8125 
Q 7.28125 7.515625 8.671875 9.8125 
Q 10.0625 12.109375 15.09375 16.3125 
z
M 23.578125 43.703125 
Q 19.96875 43.703125 17.53125 40.8125 
Q 15.09375 37.9375 15.09375 31.984375 
Q 15.09375 24.265625 18.40625 20.015625 
Q 20.953125 16.796875 24.859375 16.796875 
Q 28.5625 16.796875 30.953125 19.578125 
Q 33.34375 22.359375 33.34375 28.328125 
Q 33.34375 36.078125 29.984375 40.484375 
Q 27.484375 43.703125 23.578125 43.703125 
z
M 14.59375 0 
Q 12.3125 -2.484375 11.140625 -4.625 
Q 9.96875 -6.78125 9.96875 -8.59375 
Q 9.96875 -10.9375 12.796875 -12.703125 
Q 17.671875 -15.71875 26.90625 -15.71875 
Q 35.6875 -15.71875 39.859375 -12.609375 
Q 44.046875 -9.515625 44.046875 -6 
Q 44.046875 -3.46875 41.546875 -2.390625 
Q 39.015625 -1.3125 31.5 -1.125 
Q 20.515625 -0.828125 14.59375 0 
z
" id="TimesNewRomanPSMT-103"/>
       <path d="M 10.640625 27.875 
Q 10.59375 17.921875 15.484375 12.25 
Q 20.359375 6.59375 26.953125 6.59375 
Q 31.34375 6.59375 34.59375 9 
Q 37.84375 11.421875 40.046875 17.28125 
L 41.546875 16.3125 
Q 40.53125 9.625 35.59375 4.125 
Q 30.671875 -1.375 23.25 -1.375 
Q 15.1875 -1.375 9.453125 4.90625 
Q 3.71875 11.1875 3.71875 21.78125 
Q 3.71875 33.25 9.59375 39.671875 
Q 15.484375 46.09375 24.359375 46.09375 
Q 31.890625 46.09375 36.71875 41.140625 
Q 41.546875 36.1875 41.546875 27.875 
z
M 10.640625 30.71875 
L 31.34375 30.71875 
Q 31.109375 35.015625 30.328125 36.765625 
Q 29.109375 39.5 26.6875 41.0625 
Q 24.265625 42.625 21.625 42.625 
Q 17.578125 42.625 14.375 39.46875 
Q 11.1875 36.328125 10.640625 30.71875 
z
" id="TimesNewRomanPSMT-101"/>
      </defs>
      <use xlink:href="#TimesNewRomanPSMT-84"/>
      <use x="57.583984" xlink:href="#TimesNewRomanPSMT-114"/>
      <use x="90.884766" xlink:href="#TimesNewRomanPSMT-97"/>
      <use x="135.269531" xlink:href="#TimesNewRomanPSMT-105"/>
      <use x="163.052734" xlink:href="#TimesNewRomanPSMT-110"/>
      <use x="213.052734" xlink:href="#TimesNewRomanPSMT-105"/>
      <use x="240.835938" xlink:href="#TimesNewRomanPSMT-110"/>
      <use x="290.835938" xlink:href="#TimesNewRomanPSMT-103"/>
      <use x="340.835938" xlink:href="#TimesNewRomanPSMT-32"/>
      <use x="365.835938" xlink:href="#TimesNewRomanPSMT-115"/>
      <use x="404.751953" xlink:href="#TimesNewRomanPSMT-101"/>
      <use x="449.136719" xlink:href="#TimesNewRomanPSMT-116"/>
     </g>
    </g>
    <g id="line2d_14">
     <path d="M 253.93375 77.849062 
L 289.93375 77.849062 
" style="fill:none;stroke:#ff0000;stroke-dasharray:9.6,2.4,1.5,2.4;stroke-dashoffset:0;stroke-width:1.5;"/>
    </g>
    <g id="line2d_15">
     <g>
      <use style="fill:#ff0000;stroke:#ff0000;" x="271.93375" xlink:href="#m0811604844" y="77.849062"/>
     </g>
    </g>
    <g id="text_13">
     <!-- Theoretical data -->
     <g transform="translate(304.33375 84.149062)scale(0.18 -0.18)">
      <defs>
       <path d="M 16.265625 69.4375 
L 16.265625 36.71875 
Q 21.6875 42.671875 24.859375 44.359375 
Q 28.03125 46.046875 31.203125 46.046875 
Q 35.015625 46.046875 37.75 43.9375 
Q 40.484375 41.84375 41.796875 37.359375 
Q 42.71875 34.234375 42.71875 25.921875 
L 42.71875 10.109375 
Q 42.71875 5.859375 43.40625 4.296875 
Q 43.890625 3.125 45.0625 2.4375 
Q 46.234375 1.765625 49.359375 1.765625 
L 49.359375 0 
L 27.390625 0 
L 27.390625 1.765625 
L 28.421875 1.765625 
Q 31.546875 1.765625 32.765625 2.703125 
Q 33.984375 3.65625 34.46875 5.515625 
Q 34.625 6.296875 34.625 10.109375 
L 34.625 25.921875 
Q 34.625 33.25 33.859375 35.546875 
Q 33.109375 37.84375 31.4375 38.984375 
Q 29.78125 40.140625 27.4375 40.140625 
Q 25.046875 40.140625 22.453125 38.859375 
Q 19.875 37.59375 16.265625 33.734375 
L 16.265625 10.109375 
Q 16.265625 5.515625 16.765625 4.390625 
Q 17.28125 3.265625 18.671875 2.515625 
Q 20.0625 1.765625 23.484375 1.765625 
L 23.484375 0 
L 1.3125 0 
L 1.3125 1.765625 
Q 4.296875 1.765625 6 2.6875 
Q 6.984375 3.171875 7.5625 4.53125 
Q 8.15625 5.90625 8.15625 10.109375 
L 8.15625 50.59375 
Q 8.15625 58.25 7.78125 60 
Q 7.421875 61.765625 6.65625 62.390625 
Q 5.90625 63.03125 4.640625 63.03125 
Q 3.609375 63.03125 1.3125 62.25 
L 0.640625 63.96875 
L 14.015625 69.4375 
z
" id="TimesNewRomanPSMT-104"/>
       <path d="M 41.109375 17 
Q 39.3125 8.15625 34.03125 3.390625 
Q 28.765625 -1.375 22.359375 -1.375 
Q 14.75 -1.375 9.078125 5.015625 
Q 3.421875 11.421875 3.421875 22.3125 
Q 3.421875 32.859375 9.6875 39.453125 
Q 15.96875 46.046875 24.75 46.046875 
Q 31.34375 46.046875 35.59375 42.546875 
Q 39.84375 39.0625 39.84375 35.296875 
Q 39.84375 33.453125 38.640625 32.296875 
Q 37.453125 31.15625 35.296875 31.15625 
Q 32.421875 31.15625 30.953125 33.015625 
Q 30.125 34.03125 29.859375 36.90625 
Q 29.59375 39.796875 27.875 41.3125 
Q 26.171875 42.78125 23.140625 42.78125 
Q 18.265625 42.78125 15.28125 39.15625 
Q 11.328125 34.375 11.328125 26.515625 
Q 11.328125 18.5 15.25 12.375 
Q 19.1875 6.25 25.875 6.25 
Q 30.671875 6.25 34.46875 9.515625 
Q 37.15625 11.765625 39.703125 17.671875 
z
" id="TimesNewRomanPSMT-99"/>
       <path d="M 18.5 69.4375 
L 18.5 10.109375 
Q 18.5 5.90625 19.109375 4.53125 
Q 19.734375 3.171875 21 2.46875 
Q 22.265625 1.765625 25.734375 1.765625 
L 25.734375 0 
L 3.8125 0 
L 3.8125 1.765625 
Q 6.890625 1.765625 8 2.390625 
Q 9.125 3.03125 9.765625 4.484375 
Q 10.40625 5.953125 10.40625 10.109375 
L 10.40625 50.734375 
Q 10.40625 58.296875 10.0625 60.03125 
Q 9.71875 61.765625 8.953125 62.390625 
Q 8.203125 63.03125 7.03125 63.03125 
Q 5.765625 63.03125 3.8125 62.25 
L 2.984375 63.96875 
L 16.3125 69.4375 
z
" id="TimesNewRomanPSMT-108"/>
       <path d="M 34.71875 5.03125 
Q 31.453125 1.609375 28.328125 0.109375 
Q 25.203125 -1.375 21.578125 -1.375 
Q 14.265625 -1.375 8.796875 4.75 
Q 3.328125 10.890625 3.328125 20.515625 
Q 3.328125 30.125 9.375 38.109375 
Q 15.4375 46.09375 24.953125 46.09375 
Q 30.859375 46.09375 34.71875 42.328125 
L 34.71875 50.59375 
Q 34.71875 58.25 34.34375 60 
Q 33.984375 61.765625 33.203125 62.390625 
Q 32.421875 63.03125 31.25 63.03125 
Q 29.984375 63.03125 27.875 62.25 
L 27.25 63.96875 
L 40.578125 69.4375 
L 42.78125 69.4375 
L 42.78125 17.71875 
Q 42.78125 9.859375 43.140625 8.125 
Q 43.5 6.390625 44.3125 5.703125 
Q 45.125 5.03125 46.1875 5.03125 
Q 47.515625 5.03125 49.703125 5.859375 
L 50.25 4.15625 
L 36.96875 -1.375 
L 34.71875 -1.375 
z
M 34.71875 8.453125 
L 34.71875 31.5 
Q 34.421875 34.8125 32.953125 37.546875 
Q 31.5 40.28125 29.078125 41.671875 
Q 26.65625 43.0625 24.359375 43.0625 
Q 20.0625 43.0625 16.703125 39.203125 
Q 12.25 34.125 12.25 24.359375 
Q 12.25 14.5 16.546875 9.25 
Q 20.84375 4 26.125 4 
Q 30.5625 4 34.71875 8.453125 
z
" id="TimesNewRomanPSMT-100"/>
      </defs>
      <use xlink:href="#TimesNewRomanPSMT-84"/>
      <use x="61.083984" xlink:href="#TimesNewRomanPSMT-104"/>
      <use x="111.083984" xlink:href="#TimesNewRomanPSMT-101"/>
      <use x="155.46875" xlink:href="#TimesNewRomanPSMT-111"/>
      <use x="205.46875" xlink:href="#TimesNewRomanPSMT-114"/>
      <use x="238.769531" xlink:href="#TimesNewRomanPSMT-101"/>
      <use x="283.154297" xlink:href="#TimesNewRomanPSMT-116"/>
      <use x="310.9375" xlink:href="#TimesNewRomanPSMT-105"/>
      <use x="338.720703" xlink:href="#TimesNewRomanPSMT-99"/>
      <use x="383.105469" xlink:href="#TimesNewRomanPSMT-97"/>
      <use x="427.490234" xlink:href="#TimesNewRomanPSMT-108"/>
      <use x="455.273438" xlink:href="#TimesNewRomanPSMT-32"/>
      <use x="480.273438" xlink:href="#TimesNewRomanPSMT-100"/>
      <use x="530.273438" xlink:href="#TimesNewRomanPSMT-97"/>
      <use x="574.658203" xlink:href="#TimesNewRomanPSMT-116"/>
      <use x="602.441406" xlink:href="#TimesNewRomanPSMT-97"/>
     </g>
    </g>
    <g id="line2d_16">
     <path d="M 253.93375 103.299375 
L 289.93375 103.299375 
" style="fill:none;stroke:#0000ff;stroke-linecap:square;stroke-width:2;"/>
    </g>
    <g id="line2d_17"/>
    <g id="text_14">
     <!-- Symbolic data -->
     <g transform="translate(304.33375 109.599375)scale(0.18 -0.18)">
      <defs>
       <path d="M 45.84375 67.71875 
L 45.84375 44.828125 
L 44.046875 44.828125 
Q 43.171875 51.421875 40.890625 55.328125 
Q 38.625 59.234375 34.421875 61.515625 
Q 30.21875 63.8125 25.734375 63.8125 
Q 20.65625 63.8125 17.328125 60.71875 
Q 14.015625 57.625 14.015625 53.65625 
Q 14.015625 50.640625 16.109375 48.140625 
Q 19.140625 44.484375 30.515625 38.375 
Q 39.796875 33.40625 43.1875 30.734375 
Q 46.578125 28.078125 48.40625 24.453125 
Q 50.25 20.84375 50.25 16.890625 
Q 50.25 9.375 44.40625 3.921875 
Q 38.578125 -1.515625 29.390625 -1.515625 
Q 26.515625 -1.515625 23.96875 -1.078125 
Q 22.46875 -0.828125 17.703125 0.703125 
Q 12.9375 2.25 11.671875 2.25 
Q 10.453125 2.25 9.734375 1.515625 
Q 9.03125 0.78125 8.6875 -1.515625 
L 6.890625 -1.515625 
L 6.890625 21.1875 
L 8.6875 21.1875 
Q 9.96875 14.0625 12.109375 10.515625 
Q 14.265625 6.984375 18.671875 4.640625 
Q 23.09375 2.296875 28.375 2.296875 
Q 34.46875 2.296875 38 5.515625 
Q 41.546875 8.734375 41.546875 13.140625 
Q 41.546875 15.578125 40.203125 18.0625 
Q 38.875 20.5625 36.03125 22.703125 
Q 34.125 24.171875 25.625 28.921875 
Q 17.140625 33.6875 13.546875 36.515625 
Q 9.96875 39.359375 8.109375 42.765625 
Q 6.25 46.1875 6.25 50.296875 
Q 6.25 57.421875 11.71875 62.5625 
Q 17.1875 67.71875 25.640625 67.71875 
Q 30.90625 67.71875 36.8125 65.140625 
Q 39.546875 63.921875 40.671875 63.921875 
Q 41.9375 63.921875 42.75 64.671875 
Q 43.5625 65.4375 44.046875 67.71875 
z
" id="TimesNewRomanPSMT-83"/>
       <path d="M 0.59375 44.734375 
L 21.4375 44.734375 
L 21.4375 42.921875 
L 20.40625 42.921875 
Q 18.21875 42.921875 17.109375 41.96875 
Q 16.015625 41.015625 16.015625 39.59375 
Q 16.015625 37.703125 17.625 34.328125 
L 28.515625 11.765625 
L 38.53125 36.46875 
Q 39.359375 38.484375 39.359375 40.4375 
Q 39.359375 41.3125 39.015625 41.75 
Q 38.625 42.28125 37.796875 42.59375 
Q 36.96875 42.921875 34.859375 42.921875 
L 34.859375 44.734375 
L 49.421875 44.734375 
L 49.421875 42.921875 
Q 47.609375 42.71875 46.625 42.125 
Q 45.65625 41.546875 44.484375 39.9375 
Q 44.046875 39.265625 42.828125 36.1875 
L 24.609375 -8.453125 
Q 21.96875 -14.9375 17.6875 -18.25 
Q 13.421875 -21.578125 9.46875 -21.578125 
Q 6.59375 -21.578125 4.734375 -19.921875 
Q 2.875 -18.265625 2.875 -16.109375 
Q 2.875 -14.0625 4.21875 -12.8125 
Q 5.5625 -11.578125 7.90625 -11.578125 
Q 9.515625 -11.578125 12.3125 -12.640625 
Q 14.265625 -13.375 14.75 -13.375 
Q 16.21875 -13.375 17.9375 -11.859375 
Q 19.671875 -10.359375 21.4375 -6 
L 24.609375 1.765625 
L 8.546875 35.5 
Q 7.8125 37.015625 6.203125 39.265625 
Q 4.984375 40.96875 4.203125 41.546875 
Q 3.078125 42.328125 0.59375 42.921875 
z
" id="TimesNewRomanPSMT-121"/>
       <path d="M 16.40625 36.53125 
Q 21.296875 41.40625 22.171875 42.140625 
Q 24.359375 44 26.890625 45.015625 
Q 29.4375 46.046875 31.9375 46.046875 
Q 36.140625 46.046875 39.15625 43.59375 
Q 42.1875 41.15625 43.21875 36.53125 
Q 48.25 42.390625 51.703125 44.21875 
Q 55.171875 46.046875 58.84375 46.046875 
Q 62.40625 46.046875 65.15625 44.21875 
Q 67.921875 42.390625 69.53125 38.234375 
Q 70.609375 35.40625 70.609375 29.34375 
L 70.609375 10.109375 
Q 70.609375 5.90625 71.234375 4.34375 
Q 71.734375 3.265625 73.046875 2.515625 
Q 74.359375 1.765625 77.34375 1.765625 
L 77.34375 0 
L 55.28125 0 
L 55.28125 1.765625 
L 56.203125 1.765625 
Q 59.078125 1.765625 60.6875 2.875 
Q 61.8125 3.65625 62.3125 5.375 
Q 62.5 6.203125 62.5 10.109375 
L 62.5 29.34375 
Q 62.5 34.8125 61.1875 37.0625 
Q 59.28125 40.1875 55.078125 40.1875 
Q 52.484375 40.1875 49.875 38.890625 
Q 47.265625 37.59375 43.5625 34.078125 
L 43.453125 33.546875 
L 43.5625 31.453125 
L 43.5625 10.109375 
Q 43.5625 5.515625 44.0625 4.390625 
Q 44.578125 3.265625 45.984375 2.515625 
Q 47.40625 1.765625 50.828125 1.765625 
L 50.828125 0 
L 28.21875 0 
L 28.21875 1.765625 
Q 31.9375 1.765625 33.328125 2.640625 
Q 34.71875 3.515625 35.25 5.28125 
Q 35.5 6.109375 35.5 10.109375 
L 35.5 29.34375 
Q 35.5 34.8125 33.890625 37.203125 
Q 31.734375 40.328125 27.875 40.328125 
Q 25.25 40.328125 22.65625 38.921875 
Q 18.609375 36.765625 16.40625 34.078125 
L 16.40625 10.109375 
Q 16.40625 5.71875 17.015625 4.390625 
Q 17.625 3.078125 18.8125 2.421875 
Q 20.015625 1.765625 23.6875 1.765625 
L 23.6875 0 
L 1.5625 0 
L 1.5625 1.765625 
Q 4.640625 1.765625 5.859375 2.421875 
Q 7.078125 3.078125 7.703125 4.515625 
Q 8.34375 5.953125 8.34375 10.109375 
L 8.34375 27.203125 
Q 8.34375 34.578125 7.90625 36.71875 
Q 7.5625 38.328125 6.828125 38.9375 
Q 6.109375 39.546875 4.828125 39.546875 
Q 3.46875 39.546875 1.5625 38.8125 
L 0.828125 40.578125 
L 14.3125 46.046875 
L 16.40625 46.046875 
z
" id="TimesNewRomanPSMT-109"/>
      </defs>
      <use xlink:href="#TimesNewRomanPSMT-83"/>
      <use x="55.615234" xlink:href="#TimesNewRomanPSMT-121"/>
      <use x="105.615234" xlink:href="#TimesNewRomanPSMT-109"/>
      <use x="183.398438" xlink:href="#TimesNewRomanPSMT-98"/>
      <use x="233.398438" xlink:href="#TimesNewRomanPSMT-111"/>
      <use x="283.398438" xlink:href="#TimesNewRomanPSMT-108"/>
      <use x="311.181641" xlink:href="#TimesNewRomanPSMT-105"/>
      <use x="338.964844" xlink:href="#TimesNewRomanPSMT-99"/>
      <use x="383.349609" xlink:href="#TimesNewRomanPSMT-32"/>
      <use x="408.349609" xlink:href="#TimesNewRomanPSMT-100"/>
      <use x="458.349609" xlink:href="#TimesNewRomanPSMT-97"/>
      <use x="502.734375" xlink:href="#TimesNewRomanPSMT-116"/>
      <use x="530.517578" xlink:href="#TimesNewRomanPSMT-97"/>
     </g>
    </g>
   </g>
  </g>
 </g>
 <defs>
  <clipPath id="pc919da3d87">
   <rect height="271.8" width="390.6" x="46.365625" y="29.865"/>
  </clipPath>
 </defs>
</svg>
