<?xml version="1.0" encoding="utf-8" standalone="no"?>
<!DOCTYPE svg PUBLIC "-//W3C//DTD SVG 1.1//EN"
  "http://www.w3.org/Graphics/SVG/1.1/DTD/svg11.dtd">
<!-- Created with matplotlib (https://matplotlib.org/) -->
<svg height="360.737656pt" version="1.1" viewBox="0 0 444.165625 360.737656" width="444.165625pt" xmlns="http://www.w3.org/2000/svg" xmlns:xlink="http://www.w3.org/1999/xlink">
 <metadata>
  <rdf:RDF xmlns:cc="http://creativecommons.org/ns#" xmlns:dc="http://purl.org/dc/elements/1.1/" xmlns:rdf="http://www.w3.org/1999/02/22-rdf-syntax-ns#">
   <cc:Work>
    <dc:type rdf:resource="http://purl.org/dc/dcmitype/StillImage"/>
    <dc:date>2021-04-07T18:52:10.105965</dc:date>
    <dc:format>image/svg+xml</dc:format>
    <dc:creator>
     <cc:Agent>
      <dc:title>Matplotlib v3.3.2, https://matplotlib.org/</dc:title>
     </cc:Agent>
    </dc:creator>
   </cc:Work>
  </rdf:RDF>
 </metadata>
 <defs>
  <style type="text/css">*{stroke-linecap:butt;stroke-linejoin:round;}</style>
 </defs>
 <g id="figure_1">
  <g id="patch_1">
   <path d="M 0 360.737656 
L 444.165625 360.737656 
L 444.165625 0 
L 0 0 
z
" style="fill:none;"/>
  </g>
  <g id="axes_1">
   <g id="patch_2">
    <path d="M 46.365625 301.665 
L 436.965625 301.665 
L 436.965625 29.865 
L 46.365625 29.865 
z
" style="fill:#ffffff;"/>
   </g>
   <g id="matplotlib.axis_1">
    <g id="xtick_1">
     <g id="line2d_1">
      <defs>
       <path d="M 0 0 
L 0 3.5 
" id="md30ea9d6c8" style="stroke:#000000;stroke-width:0.8;"/>
      </defs>
      <g>
       <use style="stroke:#000000;stroke-width:0.8;" x="62.443041" xlink:href="#md30ea9d6c8" y="301.665"/>
      </g>
     </g>
     <g id="text_1">
      <!-- 0 -->
      <g transform="translate(57.443041 322.5525)scale(0.2 -0.2)">
       <defs>
        <path d="M 3.609375 32.71875 
Q 3.609375 44.046875 7.03125 52.21875 
Q 10.453125 60.40625 16.109375 64.40625 
Q 20.515625 67.578125 25.203125 67.578125 
Q 32.8125 67.578125 38.875 59.8125 
Q 46.4375 50.203125 46.4375 33.734375 
Q 46.4375 22.21875 43.109375 14.15625 
Q 39.796875 6.109375 34.640625 2.46875 
Q 29.5 -1.171875 24.703125 -1.171875 
Q 15.234375 -1.171875 8.9375 10.015625 
Q 3.609375 19.4375 3.609375 32.71875 
z
M 13.1875 31.5 
Q 13.1875 17.828125 16.546875 9.1875 
Q 19.34375 1.90625 24.859375 1.90625 
Q 27.484375 1.90625 30.3125 4.265625 
Q 33.15625 6.640625 34.625 12.203125 
Q 36.859375 20.609375 36.859375 35.890625 
Q 36.859375 47.21875 34.515625 54.78125 
Q 32.765625 60.40625 29.984375 62.75 
Q 27.984375 64.359375 25.140625 64.359375 
Q 21.828125 64.359375 19.234375 61.375 
Q 15.71875 57.328125 14.453125 48.625 
Q 13.1875 39.9375 13.1875 31.5 
z
" id="TimesNewRomanPSMT-48"/>
       </defs>
       <use xlink:href="#TimesNewRomanPSMT-48"/>
      </g>
     </g>
    </g>
    <g id="xtick_2">
     <g id="line2d_2">
      <g>
       <use style="stroke:#000000;stroke-width:0.8;" x="181.502996" xlink:href="#md30ea9d6c8" y="301.665"/>
      </g>
     </g>
     <g id="text_2">
      <!-- 1 -->
      <g transform="translate(176.502996 322.5525)scale(0.2 -0.2)">
       <defs>
        <path d="M 11.71875 59.71875 
L 27.828125 67.578125 
L 29.4375 67.578125 
L 29.4375 11.671875 
Q 29.4375 6.109375 29.90625 4.734375 
Q 30.375 3.375 31.828125 2.640625 
Q 33.296875 1.90625 37.796875 1.8125 
L 37.796875 0 
L 12.890625 0 
L 12.890625 1.8125 
Q 17.578125 1.90625 18.9375 2.609375 
Q 20.3125 3.328125 20.84375 4.515625 
Q 21.390625 5.71875 21.390625 11.671875 
L 21.390625 47.40625 
Q 21.390625 54.640625 20.90625 56.6875 
Q 20.5625 58.25 19.65625 58.984375 
Q 18.75 59.71875 17.484375 59.71875 
Q 15.671875 59.71875 12.453125 58.203125 
z
" id="TimesNewRomanPSMT-49"/>
       </defs>
       <use xlink:href="#TimesNewRomanPSMT-49"/>
      </g>
     </g>
    </g>
    <g id="xtick_3">
     <g id="line2d_3">
      <g>
       <use style="stroke:#000000;stroke-width:0.8;" x="300.562951" xlink:href="#md30ea9d6c8" y="301.665"/>
      </g>
     </g>
     <g id="text_3">
      <!-- 2 -->
      <g transform="translate(295.562951 322.5525)scale(0.2 -0.2)">
       <defs>
        <path d="M 45.84375 12.75 
L 41.21875 0 
L 2.15625 0 
L 2.15625 1.8125 
Q 19.390625 17.53125 26.421875 27.484375 
Q 33.453125 37.453125 33.453125 45.703125 
Q 33.453125 52 29.59375 56.046875 
Q 25.734375 60.109375 20.359375 60.109375 
Q 15.484375 60.109375 11.59375 57.25 
Q 7.71875 54.390625 5.859375 48.875 
L 4.046875 48.875 
Q 5.28125 57.90625 10.328125 62.734375 
Q 15.375 67.578125 22.953125 67.578125 
Q 31 67.578125 36.390625 62.40625 
Q 41.796875 57.234375 41.796875 50.203125 
Q 41.796875 45.171875 39.453125 40.140625 
Q 35.84375 32.234375 27.734375 23.390625 
Q 15.578125 10.109375 12.546875 7.375 
L 29.828125 7.375 
Q 35.109375 7.375 37.234375 7.765625 
Q 39.359375 8.15625 41.0625 9.34375 
Q 42.78125 10.546875 44.046875 12.75 
z
" id="TimesNewRomanPSMT-50"/>
       </defs>
       <use xlink:href="#TimesNewRomanPSMT-50"/>
      </g>
     </g>
    </g>
    <g id="xtick_4">
     <g id="line2d_4">
      <g>
       <use style="stroke:#000000;stroke-width:0.8;" x="419.622906" xlink:href="#md30ea9d6c8" y="301.665"/>
      </g>
     </g>
     <g id="text_4">
      <!-- 3 -->
      <g transform="translate(414.622906 322.5525)scale(0.2 -0.2)">
       <defs>
        <path d="M 5.078125 53.609375 
Q 7.90625 60.296875 12.21875 63.9375 
Q 16.546875 67.578125 23 67.578125 
Q 30.953125 67.578125 35.203125 62.40625 
Q 38.421875 58.546875 38.421875 54.15625 
Q 38.421875 46.921875 29.34375 39.203125 
Q 35.453125 36.8125 38.578125 32.375 
Q 41.703125 27.9375 41.703125 21.921875 
Q 41.703125 13.328125 36.234375 7.03125 
Q 29.109375 -1.171875 15.578125 -1.171875 
Q 8.890625 -1.171875 6.46875 0.484375 
Q 4.046875 2.15625 4.046875 4.046875 
Q 4.046875 5.46875 5.1875 6.546875 
Q 6.34375 7.625 7.953125 7.625 
Q 9.1875 7.625 10.453125 7.234375 
Q 11.28125 6.984375 14.203125 5.4375 
Q 17.140625 3.90625 18.265625 3.609375 
Q 20.0625 3.078125 22.125 3.078125 
Q 27.09375 3.078125 30.78125 6.9375 
Q 34.46875 10.796875 34.46875 16.0625 
Q 34.46875 19.921875 32.765625 23.578125 
Q 31.5 26.3125 29.984375 27.734375 
Q 27.875 29.6875 24.21875 31.265625 
Q 20.5625 32.859375 16.75 32.859375 
L 15.1875 32.859375 
L 15.1875 34.328125 
Q 19.046875 34.8125 22.921875 37.109375 
Q 26.8125 39.40625 28.5625 42.625 
Q 30.328125 45.84375 30.328125 49.703125 
Q 30.328125 54.734375 27.171875 57.828125 
Q 24.03125 60.9375 19.34375 60.9375 
Q 11.765625 60.9375 6.6875 52.828125 
z
" id="TimesNewRomanPSMT-51"/>
       </defs>
       <use xlink:href="#TimesNewRomanPSMT-51"/>
      </g>
     </g>
    </g>
    <g id="text_5">
     <!-- $x$ -->
     <g transform="translate(236.040625 348.19)scale(0.25 -0.25)">
      <defs>
       <path d="M 24.296875 35.5 
L 25.5 29.796875 
Q 30.796875 37.90625 34.046875 41 
Q 37.296875 44.09375 40.59375 44.09375 
Q 42.40625 44.09375 43.546875 43.046875 
Q 44.703125 42 44.703125 40.390625 
Q 44.703125 38.796875 43.75 37.796875 
Q 42.796875 36.796875 41.296875 36.796875 
Q 40.40625 36.796875 38.90625 37.640625 
Q 37.40625 38.5 36.09375 38.5 
Q 33.203125 38.5 26.296875 26.40625 
Q 26.296875 25.09375 27.09375 21.90625 
L 30.296875 8.5 
Q 31.296875 4.40625 33.296875 4.40625 
Q 34.90625 4.40625 38 8.40625 
Q 38.296875 8.796875 38.6875 9.34375 
Q 39.09375 9.90625 39.390625 10.34375 
Q 39.703125 10.796875 40.09375 11.203125 
L 41.59375 10.296875 
Q 37.296875 3.59375 34.796875 1.25 
Q 32.296875 -1.09375 29.40625 -1.09375 
Q 27 -1.09375 25.703125 0.40625 
Q 24.40625 1.90625 23.5 5.703125 
L 20.59375 17.59375 
L 11.796875 5.703125 
Q 8.703125 1.5 6.75 0.203125 
Q 4.796875 -1.09375 2.296875 -1.09375 
Q 0 -1.09375 -1.34375 0 
Q -2.703125 1.09375 -2.703125 3.09375 
Q -2.703125 4.59375 -1.75 5.640625 
Q -0.796875 6.703125 0.703125 6.703125 
Q 1.90625 6.703125 3.90625 5.59375 
Q 5.40625 4.703125 6.5 4.703125 
Q 8.203125 4.703125 11.59375 9.59375 
L 19.796875 21.203125 
L 17 33.59375 
Q 16 38 15.140625 39.203125 
Q 14.296875 40.40625 12.40625 40.40625 
Q 11.203125 40.40625 8.5 39.703125 
L 6.703125 39.203125 
L 6.40625 40.796875 
L 7.5 41.203125 
Q 15.5 44.09375 19.203125 44.09375 
Q 21.09375 44.09375 22.1875 42.296875 
Q 23.296875 40.5 24.296875 35.5 
z
" id="STIXGeneral-Italic-120"/>
      </defs>
      <use transform="translate(0 0.90625)" xlink:href="#STIXGeneral-Italic-120"/>
     </g>
    </g>
   </g>
   <g id="matplotlib.axis_2">
    <g id="ytick_1">
     <g id="line2d_5">
      <defs>
       <path d="M 0 0 
L -3.5 0 
" id="m1f52352a17" style="stroke:#000000;stroke-width:0.8;"/>
      </defs>
      <g>
       <use style="stroke:#000000;stroke-width:0.8;" x="46.365625" xlink:href="#m1f52352a17" y="287.319486"/>
      </g>
     </g>
     <g id="text_6">
      <!-- 0 -->
      <g transform="translate(29.365625 294.263236)scale(0.2 -0.2)">
       <use xlink:href="#TimesNewRomanPSMT-48"/>
      </g>
     </g>
    </g>
    <g id="ytick_2">
     <g id="line2d_6">
      <g>
       <use style="stroke:#000000;stroke-width:0.8;" x="46.365625" xlink:href="#m1f52352a17" y="204.121145"/>
      </g>
     </g>
     <g id="text_7">
      <!-- 1 -->
      <g transform="translate(29.365625 211.064895)scale(0.2 -0.2)">
       <use xlink:href="#TimesNewRomanPSMT-49"/>
      </g>
     </g>
    </g>
    <g id="ytick_3">
     <g id="line2d_7">
      <g>
       <use style="stroke:#000000;stroke-width:0.8;" x="46.365625" xlink:href="#m1f52352a17" y="120.922803"/>
      </g>
     </g>
     <g id="text_8">
      <!-- 2 -->
      <g transform="translate(29.365625 127.866553)scale(0.2 -0.2)">
       <use xlink:href="#TimesNewRomanPSMT-50"/>
      </g>
     </g>
    </g>
    <g id="ytick_4">
     <g id="line2d_8">
      <g>
       <use style="stroke:#000000;stroke-width:0.8;" x="46.365625" xlink:href="#m1f52352a17" y="37.724462"/>
      </g>
     </g>
     <g id="text_9">
      <!-- 3 -->
      <g transform="translate(29.365625 44.668212)scale(0.2 -0.2)">
       <use xlink:href="#TimesNewRomanPSMT-51"/>
      </g>
     </g>
    </g>
    <g id="text_10">
     <!-- $f(x)$ -->
     <g transform="translate(21.0875 179.665)rotate(-90)scale(0.2 -0.2)">
      <defs>
       <path d="M 4.09375 42.796875 
L 13.40625 42.796875 
Q 17.296875 55.40625 20.59375 60.09375 
Q 26 67.796875 33.796875 67.796875 
Q 37.5 67.796875 39.953125 66.046875 
Q 42.40625 64.296875 42.40625 61.59375 
Q 42.40625 59.90625 41.15625 58.59375 
Q 39.90625 57.296875 38.203125 57.296875 
Q 36.796875 57.296875 35.640625 58.390625 
Q 34.5 59.5 34.5 61.203125 
Q 34.5 62.203125 35 63.09375 
Q 35.5 64 35.5 64.296875 
Q 35.5 65.59375 33.296875 65.59375 
Q 29.09375 65.59375 26.1875 60.140625 
Q 23.296875 54.703125 21.09375 42.796875 
L 31.796875 42.796875 
L 31.203125 39.59375 
L 20.40625 39.59375 
L 13.203125 7.59375 
Q 6.796875 -20.703125 -6.796875 -20.703125 
Q -10.203125 -20.703125 -12.453125 -18.953125 
Q -14.703125 -17.203125 -14.703125 -14.59375 
Q -14.703125 -12.90625 -13.59375 -11.65625 
Q -12.5 -10.40625 -10.90625 -10.40625 
Q -9.203125 -10.40625 -8.140625 -11.453125 
Q -7.09375 -12.5 -7.09375 -14.09375 
Q -7.09375 -14.796875 -7.546875 -15.640625 
Q -8 -16.5 -8 -17 
Q -8 -18.59375 -6 -18.59375 
Q 0.203125 -18.59375 3.703125 -2.40625 
L 12.5 39.59375 
L 3.40625 39.59375 
z
" id="STIXGeneral-Italic-102"/>
       <path d="M 30.40625 -16.09375 
L 29.203125 -17.703125 
Q 17.59375 -11.09375 11.1875 0.5 
Q 4.796875 12.09375 4.796875 25.203125 
Q 4.796875 52.90625 29.5 67.59375 
L 30.40625 66 
Q 20.203125 57.296875 16.796875 48.84375 
Q 13.40625 40.40625 13.40625 25.5 
Q 13.40625 10.703125 16.90625 1.5 
Q 20.40625 -7.703125 30.40625 -16.09375 
z
" id="STIXGeneral-Regular-40"/>
       <path d="M 2.90625 66 
L 4.09375 67.59375 
Q 15.5 60.796875 22 49.1875 
Q 28.5 37.59375 28.5 24.703125 
Q 28.5 -2.59375 3.796875 -17.703125 
L 2.90625 -16.09375 
Q 13.203125 -7.59375 16.546875 0.84375 
Q 19.90625 9.296875 19.90625 24.40625 
Q 19.90625 39.59375 16.546875 48.75 
Q 13.203125 57.90625 2.90625 66 
z
" id="STIXGeneral-Regular-41"/>
      </defs>
      <use transform="translate(0 0.203125)" xlink:href="#STIXGeneral-Italic-102"/>
      <use transform="translate(27.799988 0.203125)" xlink:href="#STIXGeneral-Regular-40"/>
      <use transform="translate(61.099976 0.203125)" xlink:href="#STIXGeneral-Italic-120"/>
      <use transform="translate(105.499969 0.203125)" xlink:href="#STIXGeneral-Regular-41"/>
     </g>
    </g>
   </g>
   <g id="line2d_9">
    <path clip-path="url(#pbeeccd0b90)" d="M 64.12017 147.688491 
L 66.524699 42.219545 
L 66.627076 47.853195 
L 66.742137 90.697936 
L 68.017213 85.998258 
L 68.275253 75.99579 
L 68.311374 108.109275 
L 69.058653 117.509756 
L 69.298465 135.222976 
L 69.664645 78.099349 
L 69.819162 144.093451 
L 71.257786 95.173669 
L 71.609247 151.4171 
L 73.815265 118.954874 
L 74.338783 90.472543 
L 78.377657 131.874899 
L 81.526154 191.138505 
L 81.851476 156.882376 
L 82.221633 134.084238 
L 82.748029 140.785629 
L 83.169889 172.072341 
L 83.286757 121.879088 
L 83.954367 159.09537 
L 84.842845 167.833225 
L 85.286574 164.043343 
L 85.355235 209.144296 
L 85.768389 181.098637 
L 86.463255 163.788652 
L 87.756299 176.84515 
L 89.930334 193.465093 
L 91.410824 146.893551 
L 92.239855 164.85728 
L 93.563872 205.0851 
L 94.447441 174.647671 
L 95.9967 203.440955 
L 96.767457 166.898777 
L 97.125661 191.739713 
L 97.391121 185.730509 
L 98.242067 181.127686 
L 98.891393 197.716352 
L 101.866819 215.804284 
L 104.423053 187.620583 
L 104.688284 225.201492 
L 104.850191 179.600259 
L 105.374832 206.844334 
L 106.669046 208.331249 
L 108.46944 214.663051 
L 108.492918 210.137056 
L 109.253331 214.822153 
L 109.406049 214.769406 
L 109.518584 202.204796 
L 109.615109 214.664368 
L 110.831649 213.119461 
L 111.341061 206.006603 
L 111.799209 218.474366 
L 113.645949 222.595232 
L 114.179744 224.624744 
L 114.929424 228.790353 
L 115.355974 239.985713 
L 115.822966 224.401856 
L 119.223775 221.041748 
L 119.382677 223.663251 
L 119.784276 223.390401 
L 120.482245 228.357483 
L 120.647081 227.685618 
L 121.268477 224.046717 
L 123.745706 218.215632 
L 126.593858 257.215854 
L 127.146517 238.961704 
L 127.875307 224.523202 
L 128.748462 247.648025 
L 128.947434 234.818909 
L 129.282427 233.942811 
L 132.826862 227.20859 
L 133.877773 247.492854 
L 136.547174 234.332965 
L 137.395003 247.746245 
L 137.587456 233.713254 
L 139.418044 234.84399 
L 139.914276 242.860494 
L 141.437267 232.762995 
L 142.123308 224.658046 
L 142.564567 235.481334 
L 145.202196 250.467133 
L 145.3924 238.492535 
L 145.532719 242.577265 
L 145.574558 236.284899 
L 145.816056 247.170867 
L 147.359634 248.382386 
L 147.383 261.8029 
L 147.413567 242.390108 
L 148.17345 248.877202 
L 148.462232 239.897518 
L 148.672911 250.452073 
L 149.746941 247.6032 
L 150.083268 254.38476 
L 151.171329 252.164992 
L 151.292655 253.810834 
L 151.530857 245.018702 
L 152.431289 253.114998 
L 152.877837 243.88961 
L 152.913701 247.354609 
L 153.294055 244.119684 
L 154.839781 258.689465 
L 155.103557 248.486745 
L 156.066366 253.924258 
L 156.936979 248.317735 
L 158.998726 246.229862 
L 159.47194 256.680157 
L 159.752014 247.571146 
L 159.889531 256.420748 
L 160.146748 251.174597 
L 160.604486 253.16328 
L 161.594778 243.210885 
L 161.606425 254.372115 
L 163.071362 251.382392 
L 163.710264 246.494028 
L 164.972064 256.75497 
L 165.453177 245.287918 
L 166.052921 253.333202 
L 166.792255 255.995108 
L 167.103986 254.728435 
L 168.366968 259.194548 
L 168.983482 246.961653 
L 170.159493 265.079219 
L 170.168 254.761862 
L 171.193025 262.466229 
L 173.863512 258.730473 
L 175.107697 261.850008 
L 176.02023 262.066685 
L 176.229456 252.062107 
L 176.746724 262.203608 
L 179.49817 261.96538 
L 181.435781 259.714725 
L 185.795707 260.107424 
L 186.467862 263.22502 
L 186.927142 257.304511 
L 189.373638 259.570591 
L 189.85156 267.123988 
L 190.852024 258.774461 
L 191.019957 263.359786 
L 191.222655 261.18011 
L 193.72874 257.950232 
L 194.094041 266.580374 
L 194.144247 260.225245 
L 194.904194 266.739777 
L 195.961567 265.032318 
L 197.368392 265.392894 
L 197.834532 266.013195 
L 198.1453 264.567125 
L 199.174372 265.298019 
L 199.400631 267.129965 
L 199.408623 263.714424 
L 202.698886 267.846027 
L 204.066908 265.750055 
L 204.679586 268.382995 
L 204.755735 271.580504 
L 205.764855 264.338377 
L 205.927027 266.742338 
L 207.880716 267.703285 
L 207.901387 265.474738 
L 210.409441 269.464577 
L 210.551937 265.006518 
L 210.621561 266.107413 
L 213.764005 266.096152 
L 213.83553 265.1507 
L 213.898823 268.718637 
L 213.919088 267.758841 
L 215.590587 265.118283 
L 215.600239 271.235456 
L 216.174126 268.550324 
L 216.537019 270.856878 
L 217.607912 269.863834 
L 218.542055 276.364581 
L 218.740382 269.744548 
L 219.10267 268.816638 
L 222.147223 271.182838 
L 222.920971 270.486118 
L 224.439355 276.550132 
L 224.494418 272.690924 
L 224.660704 270.011845 
L 225.118521 269.808574 
L 225.367267 268.244253 
L 225.370755 266.063957 
L 225.754052 270.030097 
L 226.081005 268.283599 
L 226.247142 274.443578 
L 226.694303 268.168466 
L 227.274177 270.823915 
L 228.022848 271.249 
L 228.99986 268.468642 
L 233.307282 273.574848 
L 235.89944 270.77695 
L 237.570238 270.618878 
L 237.625052 273.607399 
L 240.101222 272.004373 
L 241.506016 276.145993 
L 241.886439 276.354851 
L 243.128327 274.870788 
L 244.610791 275.276734 
L 245.075886 274.498853 
L 247.215227 273.588769 
L 247.24044 273.685223 
L 247.533902 270.968025 
L 248.836754 270.286464 
L 249.33671 274.42786 
L 251.353657 271.904116 
L 253.760293 274.419247 
L 253.954846 276.778557 
L 254.098331 273.862182 
L 257.064342 274.631155 
L 258.468174 276.924722 
L 259.634285 272.87696 
L 259.675073 273.410773 
L 261.52395 273.578958 
L 264.400149 275.079276 
L 264.821672 279.375967 
L 265.476202 273.095911 
L 266.023031 276.454948 
L 266.105846 274.705866 
L 266.839899 274.010429 
L 267.580456 279.055959 
L 268.089763 276.683764 
L 268.159532 273.475137 
L 268.23484 276.924107 
L 268.61747 276.380005 
L 268.729753 272.320218 
L 270.062007 276.943987 
L 271.206124 278.287701 
L 271.896945 275.959666 
L 271.933652 278.221828 
L 272.321799 279.351193 
L 272.578068 279.066483 
L 273.147006 275.729431 
L 273.530685 278.682761 
L 273.908498 275.3132 
L 273.975822 278.348487 
L 277.737982 275.004558 
L 278.221756 278.429173 
L 279.034487 275.581626 
L 281.071308 280.797874 
L 281.739318 280.472204 
L 282.308523 278.097437 
L 283.050004 277.209812 
L 283.136154 280.823385 
L 283.185708 277.341783 
L 283.351736 277.490618 
L 287.0729 278.92793 
L 287.102691 278.591945 
L 288.894253 279.325395 
L 289.631243 280.72745 
L 291.009945 277.821934 
L 292.463373 277.356434 
L 293.143413 279.326628 
L 295.361199 278.973109 
L 295.720184 279.403455 
L 295.753221 280.372186 
L 298.243736 280.310041 
L 299.076334 277.674817 
L 299.281224 280.708873 
L 300.27451 279.703179 
L 300.82859 280.7784 
L 301.723742 279.541884 
L 302.484986 281.533413 
L 304.54546 278.483861 
L 305.10846 280.404331 
L 305.822726 281.444542 
L 305.975523 280.146324 
L 306.497376 281.0262 
L 308.00001 279.798362 
L 308.814376 279.499633 
L 308.906084 279.66328 
L 309.780139 280.324461 
L 309.801381 281.168139 
L 310.906443 280.964868 
L 311.162914 280.254951 
L 311.396421 281.26448 
L 311.550556 279.664759 
L 311.622857 281.298721 
L 312.282954 281.789277 
L 312.333952 280.140815 
L 313.85787 280.540043 
L 314.045682 281.638396 
L 314.817299 281.637589 
L 317.555652 282.39931 
L 318.300695 280.842544 
L 318.490885 281.926376 
L 321.489266 282.960344 
L 321.610738 282.016728 
L 323.180971 282.253411 
L 323.227929 281.184831 
L 323.490019 281.363069 
L 326.493106 282.354077 
L 326.595694 283.517804 
L 329.850611 281.14373 
L 329.895129 282.168188 
L 330.601133 282.114768 
L 332.749134 282.375304 
L 333.320626 282.141379 
L 338.983725 282.756843 
L 340.117369 283.267288 
L 340.577357 283.216225 
L 341.232346 283.531105 
L 342.198612 282.777405 
L 342.883852 284.583495 
L 344.09562 283.491823 
L 345.935879 282.125828 
L 346.89804 282.968151 
L 347.489301 283.65432 
L 347.902113 283.404039 
L 348.114027 283.766185 
L 350.801117 283.784238 
L 353.115236 283.598476 
L 353.532658 283.811191 
L 355.60453 284.210367 
L 355.685292 283.730796 
L 356.086942 283.278365 
L 358.422606 283.071807 
L 358.523728 283.730106 
L 359.276816 284.465047 
L 362.184498 284.823105 
L 364.763176 284.736377 
L 365.334506 285.055728 
L 365.668585 284.129901 
L 365.702429 284.603921 
L 368.118763 284.680863 
L 370.40049 284.529563 
L 371.897363 285.162459 
L 372.221353 284.946061 
L 373.006837 285.263427 
L 373.193862 284.887182 
L 374.136284 285.625506 
L 374.721099 285.312946 
L 377.155362 284.888774 
L 377.375747 285.304373 
L 377.490472 285.010781 
L 380.966401 285.896127 
L 381.020104 285.20029 
L 382.25685 285.74843 
L 382.715972 285.433169 
L 382.74807 285.522787 
L 385.233535 285.690906 
L 385.327908 285.495728 
L 385.349495 285.678307 
L 386.246411 285.21453 
L 387.063717 285.759618 
L 390.863716 285.947669 
L 392.822597 285.801503 
L 393.934992 286.437954 
L 394.368931 285.962034 
L 398.346396 286.298004 
L 398.684202 286.286136 
L 399.530852 286.4112 
L 399.753843 286.248365 
L 399.859757 286.440996 
L 400.82474 286.472961 
L 401.520609 286.646699 
L 402.433438 286.315144 
L 402.761036 286.699578 
L 404.051908 286.55134 
L 405.038038 286.654697 
L 405.133312 286.883202 
L 406.027346 286.816225 
L 408.540223 286.817096 
L 411.584623 286.96447 
L 411.985808 286.937531 
L 413.132729 287.11528 
L 417.62298 287.228685 
L 419.21108 287.303062 
L 419.21108 287.303062 
" style="fill:none;stroke:#008000;stroke-linecap:square;stroke-opacity:0.8;stroke-width:1.5;"/>
   </g>
   <g id="line2d_10">
    <path clip-path="url(#pbeeccd0b90)" d="M 64.12017 55.242134 
L 66.742137 78.440376 
L 69.298465 97.238826 
L 71.257786 109.652923 
L 71.609247 111.723719 
L 74.338783 126.418393 
L 78.377657 144.459297 
L 82.221633 158.524576 
L 83.954367 164.084614 
L 86.463255 171.421295 
L 87.756299 174.909872 
L 91.410824 183.845377 
L 94.447441 190.380006 
L 97.391121 196.069936 
L 98.891393 198.756001 
L 101.866819 203.706114 
L 105.374832 208.975354 
L 108.492918 213.214687 
L 111.799209 217.315207 
L 115.822966 221.831668 
L 121.268477 227.243576 
L 123.745706 229.476352 
L 129.282427 234.025544 
L 133.877773 237.399614 
L 139.418044 241.058399 
L 142.564567 242.96268 
L 148.672911 246.34855 
L 153.294055 248.670371 
L 159.47194 251.496962 
L 165.453177 253.971205 
L 171.193025 256.135651 
L 176.746724 258.058657 
L 181.435781 259.565821 
L 191.222655 262.413107 
L 199.408623 264.528418 
L 207.901387 266.506768 
L 218.740382 268.760656 
L 228.99986 270.657596 
L 241.886439 272.768946 
L 254.098331 274.536692 
L 268.729753 276.407595 
L 283.351736 278.053792 
L 301.723742 279.862788 
L 318.490885 281.306465 
L 340.117369 282.931407 
L 362.184498 284.365551 
L 387.063717 285.764598 
L 416.769483 287.193924 
L 419.21108 287.301481 
L 419.21108 287.301481 
" style="fill:none;stroke:#ff0000;stroke-dasharray:9.6,2.4,1.5,2.4;stroke-dashoffset:0;stroke-width:1.5;"/>
    <defs>
     <path d="M 0 3 
C 0.795609 3 1.55874 2.683901 2.12132 2.12132 
C 2.683901 1.55874 3 0.795609 3 0 
C 3 -0.795609 2.683901 -1.55874 2.12132 -2.12132 
C 1.55874 -2.683901 0.795609 -3 0 -3 
C -0.795609 -3 -1.55874 -2.683901 -2.12132 -2.12132 
C -2.683901 -1.55874 -3 -0.795609 -3 0 
C -3 0.795609 -2.683901 1.55874 -2.12132 2.12132 
C -1.55874 2.683901 -0.795609 3 0 3 
z
" id="m0c64545836" style="stroke:#ff0000;"/>
    </defs>
    <g clip-path="url(#pbeeccd0b90)">
     <use style="fill:#ff0000;stroke:#ff0000;" x="64.12017" xlink:href="#m0c64545836" y="55.242134"/>
     <use style="fill:#ff0000;stroke:#ff0000;" x="83.169889" xlink:href="#m0c64545836" y="161.620955"/>
     <use style="fill:#ff0000;stroke:#ff0000;" x="101.866819" xlink:href="#m0c64545836" y="203.706114"/>
     <use style="fill:#ff0000;stroke:#ff0000;" x="115.822966" xlink:href="#m0c64545836" y="221.831668"/>
     <use style="fill:#ff0000;stroke:#ff0000;" x="139.418044" xlink:href="#m0c64545836" y="241.058399"/>
     <use style="fill:#ff0000;stroke:#ff0000;" x="151.530857" xlink:href="#m0c64545836" y="247.806906"/>
     <use style="fill:#ff0000;stroke:#ff0000;" x="164.972064" xlink:href="#m0c64545836" y="253.780848"/>
     <use style="fill:#ff0000;stroke:#ff0000;" x="186.467862" xlink:href="#m0c64545836" y="261.076885"/>
     <use style="fill:#ff0000;stroke:#ff0000;" x="204.066908" xlink:href="#m0c64545836" y="265.638695"/>
     <use style="fill:#ff0000;stroke:#ff0000;" x="218.740382" xlink:href="#m0c64545836" y="268.760656"/>
     <use style="fill:#ff0000;stroke:#ff0000;" x="237.570238" xlink:href="#m0c64545836" y="272.09224"/>
     <use style="fill:#ff0000;stroke:#ff0000;" x="259.675073" xlink:href="#m0c64545836" y="275.278994"/>
     <use style="fill:#ff0000;stroke:#ff0000;" x="273.147006" xlink:href="#m0c64545836" y="276.926546"/>
     <use style="fill:#ff0000;stroke:#ff0000;" x="290.849748" xlink:href="#m0c64545836" y="278.823912"/>
     <use style="fill:#ff0000;stroke:#ff0000;" x="306.497376" xlink:href="#m0c64545836" y="280.292208"/>
     <use style="fill:#ff0000;stroke:#ff0000;" x="321.489266" xlink:href="#m0c64545836" y="281.54659"/>
     <use style="fill:#ff0000;stroke:#ff0000;" x="345.935879" xlink:href="#m0c64545836" y="283.329547"/>
     <use style="fill:#ff0000;stroke:#ff0000;" x="370.40049" xlink:href="#m0c64545836" y="284.85077"/>
     <use style="fill:#ff0000;stroke:#ff0000;" x="386.246411" xlink:href="#m0c64545836" y="285.721819"/>
     <use style="fill:#ff0000;stroke:#ff0000;" x="404.051908" xlink:href="#m0c64545836" y="286.610451"/>
    </g>
   </g>
   <g id="line2d_11">
    <path clip-path="url(#pbeeccd0b90)" d="M 64.12017 70.083922 
L 66.742137 88.113559 
L 69.298465 103.253011 
L 71.257786 113.522906 
L 71.609247 115.257705 
L 74.338783 127.750747 
L 78.377657 143.540216 
L 82.748029 157.79588 
L 85.355235 165.188642 
L 87.756299 171.385616 
L 91.410824 179.856704 
L 94.447441 186.141602 
L 97.391121 191.677174 
L 98.891393 194.311066 
L 103.691707 201.998157 
L 106.669046 206.269527 
L 110.831649 211.700605 
L 114.179744 215.66985 
L 115.822966 217.501963 
L 121.268477 223.091447 
L 126.593858 227.935386 
L 129.282427 230.17949 
L 133.877773 233.740979 
L 139.914276 237.95858 
L 145.532719 241.481195 
L 150.083268 244.088623 
L 155.103557 246.741611 
L 160.604486 249.410818 
L 167.103986 252.284485 
L 173.863512 254.993841 
L 179.49817 257.06258 
L 186.927142 259.560144 
L 195.961567 262.292519 
L 204.755735 264.677785 
L 213.919088 266.917882 
L 224.494418 269.238091 
L 233.307282 270.98542 
L 245.075886 273.093427 
L 258.468174 275.225785 
L 272.321799 277.181546 
L 287.102691 279.034013 
L 302.484986 280.746889 
L 318.490885 282.333951 
L 338.983725 284.124344 
L 359.276816 285.676355 
L 382.74807 287.247469 
L 409.950292 288.82421 
L 419.21108 289.310455 
L 419.21108 289.310455 
" style="fill:none;stroke:#0000ff;stroke-linecap:square;stroke-width:2;"/>
   </g>
   <g id="patch_3">
    <path d="M 46.365625 301.665 
L 46.365625 29.865 
" style="fill:none;stroke:#000000;stroke-linecap:square;stroke-linejoin:miter;stroke-width:0.8;"/>
   </g>
   <g id="patch_4">
    <path d="M 436.965625 301.665 
L 436.965625 29.865 
" style="fill:none;stroke:#000000;stroke-linecap:square;stroke-linejoin:miter;stroke-width:0.8;"/>
   </g>
   <g id="patch_5">
    <path d="M 46.365625 301.665 
L 436.965625 301.665 
" style="fill:none;stroke:#000000;stroke-linecap:square;stroke-linejoin:miter;stroke-width:0.8;"/>
   </g>
   <g id="patch_6">
    <path d="M 46.365625 29.865 
L 436.965625 29.865 
" style="fill:none;stroke:#000000;stroke-linecap:square;stroke-linejoin:miter;stroke-width:0.8;"/>
   </g>
   <g id="text_11">
    <!-- Data Distribution -->
    <g transform="translate(158.010625 23.865)scale(0.24 -0.24)">
     <defs>
      <path d="M 1.703125 0 
L 1.703125 1.8125 
L 4.203125 1.8125 
Q 8.40625 1.8125 10.15625 4.5 
Q 11.234375 6.109375 11.234375 11.71875 
L 11.234375 54.5 
Q 11.234375 60.6875 9.859375 62.25 
Q 7.953125 64.40625 4.203125 64.40625 
L 1.703125 64.40625 
L 1.703125 66.21875 
L 28.65625 66.21875 
Q 43.5 66.21875 51.234375 62.84375 
Q 58.984375 59.46875 63.6875 51.609375 
Q 68.40625 43.75 68.40625 33.453125 
Q 68.40625 19.625 60.015625 10.359375 
Q 50.59375 0 31.296875 0 
z
M 20.609375 4.78125 
Q 26.8125 3.421875 31 3.421875 
Q 42.328125 3.421875 49.796875 11.375 
Q 57.28125 19.34375 57.28125 32.953125 
Q 57.28125 46.6875 49.796875 54.59375 
Q 42.328125 62.5 30.609375 62.5 
Q 26.21875 62.5 20.609375 61.078125 
z
" id="TimesNewRomanPSMT-68"/>
      <path d="M 28.46875 6.453125 
Q 21.578125 1.125 19.828125 0.296875 
Q 17.1875 -0.921875 14.203125 -0.921875 
Q 9.578125 -0.921875 6.5625 2.25 
Q 3.5625 5.421875 3.5625 10.59375 
Q 3.5625 13.875 5.03125 16.265625 
Q 7.03125 19.578125 11.984375 22.5 
Q 16.9375 25.4375 28.46875 29.640625 
L 28.46875 31.390625 
Q 28.46875 38.09375 26.34375 40.578125 
Q 24.21875 43.0625 20.171875 43.0625 
Q 17.09375 43.0625 15.28125 41.40625 
Q 13.421875 39.75 13.421875 37.59375 
L 13.53125 34.765625 
Q 13.53125 32.515625 12.375 31.296875 
Q 11.234375 30.078125 9.375 30.078125 
Q 7.5625 30.078125 6.421875 31.34375 
Q 5.28125 32.625 5.28125 34.8125 
Q 5.28125 39.015625 9.578125 42.53125 
Q 13.875 46.046875 21.625 46.046875 
Q 27.59375 46.046875 31.390625 44.046875 
Q 34.28125 42.53125 35.640625 39.3125 
Q 36.53125 37.203125 36.53125 30.71875 
L 36.53125 15.53125 
Q 36.53125 9.125 36.765625 7.6875 
Q 37.015625 6.25 37.578125 5.765625 
Q 38.140625 5.28125 38.875 5.28125 
Q 39.65625 5.28125 40.234375 5.609375 
Q 41.265625 6.25 44.1875 9.1875 
L 44.1875 6.453125 
Q 38.71875 -0.875 33.734375 -0.875 
Q 31.34375 -0.875 29.921875 0.78125 
Q 28.515625 2.4375 28.46875 6.453125 
z
M 28.46875 9.625 
L 28.46875 26.65625 
Q 21.09375 23.734375 18.953125 22.515625 
Q 15.09375 20.359375 13.421875 18.015625 
Q 11.765625 15.671875 11.765625 12.890625 
Q 11.765625 9.375 13.859375 7.046875 
Q 15.96875 4.734375 18.703125 4.734375 
Q 22.40625 4.734375 28.46875 9.625 
z
" id="TimesNewRomanPSMT-97"/>
      <path d="M 16.109375 59.421875 
L 16.109375 44.734375 
L 26.5625 44.734375 
L 26.5625 41.3125 
L 16.109375 41.3125 
L 16.109375 12.3125 
Q 16.109375 7.953125 17.359375 6.4375 
Q 18.609375 4.9375 20.5625 4.9375 
Q 22.171875 4.9375 23.6875 5.9375 
Q 25.203125 6.9375 26.03125 8.890625 
L 27.9375 8.890625 
Q 26.21875 4.109375 23.09375 1.6875 
Q 19.96875 -0.734375 16.65625 -0.734375 
Q 14.40625 -0.734375 12.25 0.515625 
Q 10.109375 1.765625 9.078125 4.078125 
Q 8.0625 6.390625 8.0625 11.234375 
L 8.0625 41.3125 
L 0.984375 41.3125 
L 0.984375 42.921875 
Q 3.65625 44 6.46875 46.5625 
Q 9.28125 49.125 11.46875 52.640625 
Q 12.59375 54.5 14.59375 59.421875 
z
" id="TimesNewRomanPSMT-116"/>
      <path id="TimesNewRomanPSMT-32"/>
      <path d="M 14.5 69.4375 
Q 16.546875 69.4375 17.984375 67.984375 
Q 19.4375 66.546875 19.4375 64.5 
Q 19.4375 62.453125 17.984375 60.984375 
Q 16.546875 59.515625 14.5 59.515625 
Q 12.453125 59.515625 10.984375 60.984375 
Q 9.515625 62.453125 9.515625 64.5 
Q 9.515625 66.546875 10.953125 67.984375 
Q 12.40625 69.4375 14.5 69.4375 
z
M 18.5625 46.046875 
L 18.5625 10.109375 
Q 18.5625 5.90625 19.171875 4.515625 
Q 19.78125 3.125 20.96875 2.4375 
Q 22.171875 1.765625 25.34375 1.765625 
L 25.34375 0 
L 3.609375 0 
L 3.609375 1.765625 
Q 6.890625 1.765625 8 2.390625 
Q 9.125 3.03125 9.78125 4.484375 
Q 10.453125 5.953125 10.453125 10.109375 
L 10.453125 27.34375 
Q 10.453125 34.625 10.015625 36.765625 
Q 9.671875 38.328125 8.9375 38.9375 
Q 8.203125 39.546875 6.9375 39.546875 
Q 5.5625 39.546875 3.609375 38.8125 
L 2.9375 40.578125 
L 16.40625 46.046875 
z
" id="TimesNewRomanPSMT-105"/>
      <path d="M 32.03125 46.046875 
L 32.03125 30.8125 
L 30.421875 30.8125 
Q 28.5625 37.984375 25.65625 40.578125 
Q 22.75 43.171875 18.265625 43.171875 
Q 14.84375 43.171875 12.734375 41.359375 
Q 10.640625 39.546875 10.640625 37.359375 
Q 10.640625 34.625 12.203125 32.671875 
Q 13.71875 30.671875 18.359375 28.421875 
L 25.484375 24.953125 
Q 35.40625 20.125 35.40625 12.203125 
Q 35.40625 6.109375 30.78125 2.359375 
Q 26.171875 -1.375 20.453125 -1.375 
Q 16.359375 -1.375 11.078125 0.09375 
Q 9.46875 0.59375 8.453125 0.59375 
Q 7.328125 0.59375 6.6875 -0.6875 
L 5.078125 -0.6875 
L 5.078125 15.28125 
L 6.6875 15.28125 
Q 8.0625 8.453125 11.90625 4.984375 
Q 15.765625 1.515625 20.5625 1.515625 
Q 23.921875 1.515625 26.046875 3.484375 
Q 28.171875 5.46875 28.171875 8.25 
Q 28.171875 11.625 25.796875 13.921875 
Q 23.4375 16.21875 16.359375 19.734375 
Q 9.28125 23.25 7.078125 26.078125 
Q 4.890625 28.859375 4.890625 33.109375 
Q 4.890625 38.625 8.671875 42.328125 
Q 12.453125 46.046875 18.453125 46.046875 
Q 21.09375 46.046875 24.859375 44.921875 
Q 27.34375 44.1875 28.171875 44.1875 
Q 28.953125 44.1875 29.390625 44.53125 
Q 29.828125 44.875 30.421875 46.046875 
z
" id="TimesNewRomanPSMT-115"/>
      <path d="M 16.21875 46.046875 
L 16.21875 35.984375 
Q 21.828125 46.046875 27.734375 46.046875 
Q 30.421875 46.046875 32.171875 44.40625 
Q 33.9375 42.78125 33.9375 40.625 
Q 33.9375 38.71875 32.65625 37.390625 
Q 31.390625 36.078125 29.640625 36.078125 
Q 27.9375 36.078125 25.8125 37.765625 
Q 23.6875 39.453125 22.65625 39.453125 
Q 21.78125 39.453125 20.75 38.484375 
Q 18.5625 36.46875 16.21875 31.890625 
L 16.21875 10.453125 
Q 16.21875 6.734375 17.140625 4.828125 
Q 17.78125 3.515625 19.390625 2.640625 
Q 21 1.765625 24.03125 1.765625 
L 24.03125 0 
L 1.125 0 
L 1.125 1.765625 
Q 4.546875 1.765625 6.203125 2.828125 
Q 7.421875 3.609375 7.90625 5.328125 
Q 8.15625 6.15625 8.15625 10.0625 
L 8.15625 27.390625 
Q 8.15625 35.203125 7.828125 36.6875 
Q 7.515625 38.1875 6.65625 38.859375 
Q 5.8125 39.546875 4.546875 39.546875 
Q 3.03125 39.546875 1.125 38.8125 
L 0.640625 40.578125 
L 14.15625 46.046875 
z
" id="TimesNewRomanPSMT-114"/>
      <path d="M 15.375 37.015625 
Q 21.875 46.046875 29.390625 46.046875 
Q 36.28125 46.046875 41.40625 40.15625 
Q 46.53125 34.28125 46.53125 24.078125 
Q 46.53125 12.15625 38.625 4.890625 
Q 31.84375 -1.375 23.484375 -1.375 
Q 19.578125 -1.375 15.546875 0.046875 
Q 11.53125 1.46875 7.328125 4.296875 
L 7.328125 50.640625 
Q 7.328125 58.25 6.953125 60 
Q 6.59375 61.765625 5.8125 62.390625 
Q 5.03125 63.03125 3.859375 63.03125 
Q 2.484375 63.03125 0.4375 62.25 
L -0.25 63.96875 
L 13.1875 69.4375 
L 15.375 69.4375 
z
M 15.375 33.890625 
L 15.375 7.125 
Q 17.875 4.6875 20.53125 3.4375 
Q 23.1875 2.203125 25.984375 2.203125 
Q 30.421875 2.203125 34.25 7.078125 
Q 38.09375 11.96875 38.09375 21.296875 
Q 38.09375 29.890625 34.25 34.5 
Q 30.421875 39.109375 25.53125 39.109375 
Q 22.953125 39.109375 20.359375 37.796875 
Q 18.40625 36.8125 15.375 33.890625 
z
" id="TimesNewRomanPSMT-98"/>
      <path d="M 42.328125 44.734375 
L 42.328125 17.625 
Q 42.328125 9.859375 42.6875 8.125 
Q 43.0625 6.390625 43.859375 5.703125 
Q 44.671875 5.03125 45.75 5.03125 
Q 47.265625 5.03125 49.171875 5.859375 
L 49.859375 4.15625 
L 36.46875 -1.375 
L 34.28125 -1.375 
L 34.28125 8.109375 
Q 28.515625 1.859375 25.484375 0.234375 
Q 22.46875 -1.375 19.09375 -1.375 
Q 15.328125 -1.375 12.5625 0.796875 
Q 9.8125 2.984375 8.734375 6.390625 
Q 7.671875 9.8125 7.671875 16.0625 
L 7.671875 36.03125 
Q 7.671875 39.203125 6.984375 40.421875 
Q 6.296875 41.65625 4.953125 42.3125 
Q 3.609375 42.96875 0.09375 42.921875 
L 0.09375 44.734375 
L 15.765625 44.734375 
L 15.765625 14.796875 
Q 15.765625 8.546875 17.9375 6.59375 
Q 20.125 4.640625 23.1875 4.640625 
Q 25.296875 4.640625 27.953125 5.953125 
Q 30.609375 7.28125 34.28125 10.984375 
L 34.28125 36.328125 
Q 34.28125 40.140625 32.890625 41.484375 
Q 31.5 42.828125 27.09375 42.921875 
L 27.09375 44.734375 
z
" id="TimesNewRomanPSMT-117"/>
      <path d="M 25 46.046875 
Q 35.15625 46.046875 41.3125 38.328125 
Q 46.53125 31.734375 46.53125 23.1875 
Q 46.53125 17.1875 43.640625 11.03125 
Q 40.765625 4.890625 35.71875 1.75 
Q 30.671875 -1.375 24.46875 -1.375 
Q 14.359375 -1.375 8.40625 6.6875 
Q 3.375 13.484375 3.375 21.921875 
Q 3.375 28.078125 6.421875 34.15625 
Q 9.46875 40.234375 14.453125 43.140625 
Q 19.4375 46.046875 25 46.046875 
z
M 23.484375 42.875 
Q 20.90625 42.875 18.28125 41.328125 
Q 15.671875 39.796875 14.0625 35.9375 
Q 12.453125 32.078125 12.453125 26.03125 
Q 12.453125 16.265625 16.328125 9.171875 
Q 20.21875 2.09375 26.5625 2.09375 
Q 31.296875 2.09375 34.375 6 
Q 37.453125 9.90625 37.453125 19.4375 
Q 37.453125 31.34375 32.328125 38.1875 
Q 28.859375 42.875 23.484375 42.875 
z
" id="TimesNewRomanPSMT-111"/>
      <path d="M 16.15625 36.578125 
Q 24.03125 46.046875 31.15625 46.046875 
Q 34.8125 46.046875 37.453125 44.21875 
Q 40.09375 42.390625 41.65625 38.1875 
Q 42.71875 35.25 42.71875 29.203125 
L 42.71875 10.109375 
Q 42.71875 5.859375 43.40625 4.34375 
Q 43.953125 3.125 45.140625 2.4375 
Q 46.34375 1.765625 49.5625 1.765625 
L 49.5625 0 
L 27.4375 0 
L 27.4375 1.765625 
L 28.375 1.765625 
Q 31.5 1.765625 32.734375 2.703125 
Q 33.984375 3.65625 34.46875 5.515625 
Q 34.671875 6.25 34.671875 10.109375 
L 34.671875 28.421875 
Q 34.671875 34.515625 33.078125 37.28125 
Q 31.5 40.046875 27.734375 40.046875 
Q 21.921875 40.046875 16.15625 33.6875 
L 16.15625 10.109375 
Q 16.15625 5.5625 16.703125 4.5 
Q 17.390625 3.078125 18.578125 2.421875 
Q 19.78125 1.765625 23.4375 1.765625 
L 23.4375 0 
L 1.3125 0 
L 1.3125 1.765625 
L 2.296875 1.765625 
Q 5.71875 1.765625 6.90625 3.484375 
Q 8.109375 5.21875 8.109375 10.109375 
L 8.109375 26.703125 
Q 8.109375 34.765625 7.734375 36.515625 
Q 7.375 38.28125 6.609375 38.90625 
Q 5.859375 39.546875 4.59375 39.546875 
Q 3.21875 39.546875 1.3125 38.8125 
L 0.59375 40.578125 
L 14.0625 46.046875 
L 16.15625 46.046875 
z
" id="TimesNewRomanPSMT-110"/>
     </defs>
     <use xlink:href="#TimesNewRomanPSMT-68"/>
     <use x="72.216797" xlink:href="#TimesNewRomanPSMT-97"/>
     <use x="116.601562" xlink:href="#TimesNewRomanPSMT-116"/>
     <use x="144.384766" xlink:href="#TimesNewRomanPSMT-97"/>
     <use x="188.769531" xlink:href="#TimesNewRomanPSMT-32"/>
     <use x="213.769531" xlink:href="#TimesNewRomanPSMT-68"/>
     <use x="285.986328" xlink:href="#TimesNewRomanPSMT-105"/>
     <use x="313.769531" xlink:href="#TimesNewRomanPSMT-115"/>
     <use x="352.685547" xlink:href="#TimesNewRomanPSMT-116"/>
     <use x="380.46875" xlink:href="#TimesNewRomanPSMT-114"/>
     <use x="413.769531" xlink:href="#TimesNewRomanPSMT-105"/>
     <use x="441.552734" xlink:href="#TimesNewRomanPSMT-98"/>
     <use x="491.552734" xlink:href="#TimesNewRomanPSMT-117"/>
     <use x="541.552734" xlink:href="#TimesNewRomanPSMT-116"/>
     <use x="569.335938" xlink:href="#TimesNewRomanPSMT-105"/>
     <use x="597.119141" xlink:href="#TimesNewRomanPSMT-111"/>
     <use x="647.119141" xlink:href="#TimesNewRomanPSMT-110"/>
    </g>
   </g>
   <g id="legend_1">
    <g id="patch_7">
     <path d="M 250.33375 120.683437 
L 424.365625 120.683437 
Q 427.965625 120.683437 427.965625 117.083437 
L 427.965625 42.465 
Q 427.965625 38.865 424.365625 38.865 
L 250.33375 38.865 
Q 246.73375 38.865 246.73375 42.465 
L 246.73375 117.083437 
Q 246.73375 120.683437 250.33375 120.683437 
z
" style="fill:#ffffff;opacity:0.8;stroke:#cccccc;stroke-linejoin:miter;"/>
    </g>
    <g id="line2d_12">
     <path d="M 253.93375 52.365 
L 289.93375 52.365 
" style="fill:none;stroke:#008000;stroke-linecap:square;stroke-opacity:0.8;stroke-width:1.5;"/>
    </g>
    <g id="line2d_13"/>
    <g id="text_12">
     <!-- Training set -->
     <g transform="translate(304.33375 58.665)scale(0.18 -0.18)">
      <defs>
       <path d="M 57.859375 66.21875 
L 58.59375 50.6875 
L 56.734375 50.6875 
Q 56.203125 54.78125 55.28125 56.546875 
Q 53.765625 59.375 51.25 60.71875 
Q 48.734375 62.0625 44.625 62.0625 
L 35.296875 62.0625 
L 35.296875 11.46875 
Q 35.296875 5.375 36.625 3.859375 
Q 38.484375 1.8125 42.328125 1.8125 
L 44.625 1.8125 
L 44.625 0 
L 16.546875 0 
L 16.546875 1.8125 
L 18.890625 1.8125 
Q 23.09375 1.8125 24.859375 4.34375 
Q 25.921875 5.90625 25.921875 11.46875 
L 25.921875 62.0625 
L 17.96875 62.0625 
Q 13.328125 62.0625 11.375 61.375 
Q 8.84375 60.453125 7.03125 57.8125 
Q 5.21875 55.171875 4.890625 50.6875 
L 3.03125 50.6875 
L 3.8125 66.21875 
z
" id="TimesNewRomanPSMT-84"/>
       <path d="M 15.09375 16.3125 
Q 10.984375 18.3125 8.78125 21.890625 
Q 6.59375 25.484375 6.59375 29.828125 
Q 6.59375 36.46875 11.59375 41.25 
Q 16.609375 46.046875 24.421875 46.046875 
Q 30.8125 46.046875 35.5 42.921875 
L 44.96875 42.921875 
Q 47.078125 42.921875 47.40625 42.796875 
Q 47.75 42.671875 47.90625 42.390625 
Q 48.1875 41.9375 48.1875 40.828125 
Q 48.1875 39.546875 47.953125 39.0625 
Q 47.796875 38.8125 47.4375 38.671875 
Q 47.078125 38.53125 44.96875 38.53125 
L 39.15625 38.53125 
Q 41.890625 35.015625 41.890625 29.546875 
Q 41.890625 23.296875 37.109375 18.84375 
Q 32.328125 14.40625 24.265625 14.40625 
Q 20.953125 14.40625 17.484375 15.375 
Q 15.328125 13.53125 14.5625 12.140625 
Q 13.8125 10.75 13.8125 9.765625 
Q 13.8125 8.9375 14.625 8.15625 
Q 15.4375 7.375 17.78125 7.03125 
Q 19.140625 6.84375 24.609375 6.6875 
Q 34.671875 6.453125 37.640625 6 
Q 42.1875 5.375 44.890625 2.640625 
Q 47.609375 -0.09375 47.609375 -4.109375 
Q 47.609375 -9.625 42.4375 -14.453125 
Q 34.8125 -21.578125 22.5625 -21.578125 
Q 13.140625 -21.578125 6.640625 -17.328125 
Q 2.984375 -14.890625 2.984375 -12.25 
Q 2.984375 -11.078125 3.515625 -9.90625 
Q 4.34375 -8.109375 6.9375 -4.890625 
Q 7.28125 -4.4375 11.921875 0.390625 
Q 9.375 1.90625 8.328125 3.09375 
Q 7.28125 4.296875 7.28125 5.8125 
Q 7.28125 7.515625 8.671875 9.8125 
Q 10.0625 12.109375 15.09375 16.3125 
z
M 23.578125 43.703125 
Q 19.96875 43.703125 17.53125 40.8125 
Q 15.09375 37.9375 15.09375 31.984375 
Q 15.09375 24.265625 18.40625 20.015625 
Q 20.953125 16.796875 24.859375 16.796875 
Q 28.5625 16.796875 30.953125 19.578125 
Q 33.34375 22.359375 33.34375 28.328125 
Q 33.34375 36.078125 29.984375 40.484375 
Q 27.484375 43.703125 23.578125 43.703125 
z
M 14.59375 0 
Q 12.3125 -2.484375 11.140625 -4.625 
Q 9.96875 -6.78125 9.96875 -8.59375 
Q 9.96875 -10.9375 12.796875 -12.703125 
Q 17.671875 -15.71875 26.90625 -15.71875 
Q 35.6875 -15.71875 39.859375 -12.609375 
Q 44.046875 -9.515625 44.046875 -6 
Q 44.046875 -3.46875 41.546875 -2.390625 
Q 39.015625 -1.3125 31.5 -1.125 
Q 20.515625 -0.828125 14.59375 0 
z
" id="TimesNewRomanPSMT-103"/>
       <path d="M 10.640625 27.875 
Q 10.59375 17.921875 15.484375 12.25 
Q 20.359375 6.59375 26.953125 6.59375 
Q 31.34375 6.59375 34.59375 9 
Q 37.84375 11.421875 40.046875 17.28125 
L 41.546875 16.3125 
Q 40.53125 9.625 35.59375 4.125 
Q 30.671875 -1.375 23.25 -1.375 
Q 15.1875 -1.375 9.453125 4.90625 
Q 3.71875 11.1875 3.71875 21.78125 
Q 3.71875 33.25 9.59375 39.671875 
Q 15.484375 46.09375 24.359375 46.09375 
Q 31.890625 46.09375 36.71875 41.140625 
Q 41.546875 36.1875 41.546875 27.875 
z
M 10.640625 30.71875 
L 31.34375 30.71875 
Q 31.109375 35.015625 30.328125 36.765625 
Q 29.109375 39.5 26.6875 41.0625 
Q 24.265625 42.625 21.625 42.625 
Q 17.578125 42.625 14.375 39.46875 
Q 11.1875 36.328125 10.640625 30.71875 
z
" id="TimesNewRomanPSMT-101"/>
      </defs>
      <use xlink:href="#TimesNewRomanPSMT-84"/>
      <use x="57.583984" xlink:href="#TimesNewRomanPSMT-114"/>
      <use x="90.884766" xlink:href="#TimesNewRomanPSMT-97"/>
      <use x="135.269531" xlink:href="#TimesNewRomanPSMT-105"/>
      <use x="163.052734" xlink:href="#TimesNewRomanPSMT-110"/>
      <use x="213.052734" xlink:href="#TimesNewRomanPSMT-105"/>
      <use x="240.835938" xlink:href="#TimesNewRomanPSMT-110"/>
      <use x="290.835938" xlink:href="#TimesNewRomanPSMT-103"/>
      <use x="340.835938" xlink:href="#TimesNewRomanPSMT-32"/>
      <use x="365.835938" xlink:href="#TimesNewRomanPSMT-115"/>
      <use x="404.751953" xlink:href="#TimesNewRomanPSMT-101"/>
      <use x="449.136719" xlink:href="#TimesNewRomanPSMT-116"/>
     </g>
    </g>
    <g id="line2d_14">
     <path d="M 253.93375 77.849062 
L 289.93375 77.849062 
" style="fill:none;stroke:#ff0000;stroke-dasharray:9.6,2.4,1.5,2.4;stroke-dashoffset:0;stroke-width:1.5;"/>
    </g>
    <g id="line2d_15">
     <g>
      <use style="fill:#ff0000;stroke:#ff0000;" x="271.93375" xlink:href="#m0c64545836" y="77.849062"/>
     </g>
    </g>
    <g id="text_13">
     <!-- Theoretical data -->
     <g transform="translate(304.33375 84.149062)scale(0.18 -0.18)">
      <defs>
       <path d="M 16.265625 69.4375 
L 16.265625 36.71875 
Q 21.6875 42.671875 24.859375 44.359375 
Q 28.03125 46.046875 31.203125 46.046875 
Q 35.015625 46.046875 37.75 43.9375 
Q 40.484375 41.84375 41.796875 37.359375 
Q 42.71875 34.234375 42.71875 25.921875 
L 42.71875 10.109375 
Q 42.71875 5.859375 43.40625 4.296875 
Q 43.890625 3.125 45.0625 2.4375 
Q 46.234375 1.765625 49.359375 1.765625 
L 49.359375 0 
L 27.390625 0 
L 27.390625 1.765625 
L 28.421875 1.765625 
Q 31.546875 1.765625 32.765625 2.703125 
Q 33.984375 3.65625 34.46875 5.515625 
Q 34.625 6.296875 34.625 10.109375 
L 34.625 25.921875 
Q 34.625 33.25 33.859375 35.546875 
Q 33.109375 37.84375 31.4375 38.984375 
Q 29.78125 40.140625 27.4375 40.140625 
Q 25.046875 40.140625 22.453125 38.859375 
Q 19.875 37.59375 16.265625 33.734375 
L 16.265625 10.109375 
Q 16.265625 5.515625 16.765625 4.390625 
Q 17.28125 3.265625 18.671875 2.515625 
Q 20.0625 1.765625 23.484375 1.765625 
L 23.484375 0 
L 1.3125 0 
L 1.3125 1.765625 
Q 4.296875 1.765625 6 2.6875 
Q 6.984375 3.171875 7.5625 4.53125 
Q 8.15625 5.90625 8.15625 10.109375 
L 8.15625 50.59375 
Q 8.15625 58.25 7.78125 60 
Q 7.421875 61.765625 6.65625 62.390625 
Q 5.90625 63.03125 4.640625 63.03125 
Q 3.609375 63.03125 1.3125 62.25 
L 0.640625 63.96875 
L 14.015625 69.4375 
z
" id="TimesNewRomanPSMT-104"/>
       <path d="M 41.109375 17 
Q 39.3125 8.15625 34.03125 3.390625 
Q 28.765625 -1.375 22.359375 -1.375 
Q 14.75 -1.375 9.078125 5.015625 
Q 3.421875 11.421875 3.421875 22.3125 
Q 3.421875 32.859375 9.6875 39.453125 
Q 15.96875 46.046875 24.75 46.046875 
Q 31.34375 46.046875 35.59375 42.546875 
Q 39.84375 39.0625 39.84375 35.296875 
Q 39.84375 33.453125 38.640625 32.296875 
Q 37.453125 31.15625 35.296875 31.15625 
Q 32.421875 31.15625 30.953125 33.015625 
Q 30.125 34.03125 29.859375 36.90625 
Q 29.59375 39.796875 27.875 41.3125 
Q 26.171875 42.78125 23.140625 42.78125 
Q 18.265625 42.78125 15.28125 39.15625 
Q 11.328125 34.375 11.328125 26.515625 
Q 11.328125 18.5 15.25 12.375 
Q 19.1875 6.25 25.875 6.25 
Q 30.671875 6.25 34.46875 9.515625 
Q 37.15625 11.765625 39.703125 17.671875 
z
" id="TimesNewRomanPSMT-99"/>
       <path d="M 18.5 69.4375 
L 18.5 10.109375 
Q 18.5 5.90625 19.109375 4.53125 
Q 19.734375 3.171875 21 2.46875 
Q 22.265625 1.765625 25.734375 1.765625 
L 25.734375 0 
L 3.8125 0 
L 3.8125 1.765625 
Q 6.890625 1.765625 8 2.390625 
Q 9.125 3.03125 9.765625 4.484375 
Q 10.40625 5.953125 10.40625 10.109375 
L 10.40625 50.734375 
Q 10.40625 58.296875 10.0625 60.03125 
Q 9.71875 61.765625 8.953125 62.390625 
Q 8.203125 63.03125 7.03125 63.03125 
Q 5.765625 63.03125 3.8125 62.25 
L 2.984375 63.96875 
L 16.3125 69.4375 
z
" id="TimesNewRomanPSMT-108"/>
       <path d="M 34.71875 5.03125 
Q 31.453125 1.609375 28.328125 0.109375 
Q 25.203125 -1.375 21.578125 -1.375 
Q 14.265625 -1.375 8.796875 4.75 
Q 3.328125 10.890625 3.328125 20.515625 
Q 3.328125 30.125 9.375 38.109375 
Q 15.4375 46.09375 24.953125 46.09375 
Q 30.859375 46.09375 34.71875 42.328125 
L 34.71875 50.59375 
Q 34.71875 58.25 34.34375 60 
Q 33.984375 61.765625 33.203125 62.390625 
Q 32.421875 63.03125 31.25 63.03125 
Q 29.984375 63.03125 27.875 62.25 
L 27.25 63.96875 
L 40.578125 69.4375 
L 42.78125 69.4375 
L 42.78125 17.71875 
Q 42.78125 9.859375 43.140625 8.125 
Q 43.5 6.390625 44.3125 5.703125 
Q 45.125 5.03125 46.1875 5.03125 
Q 47.515625 5.03125 49.703125 5.859375 
L 50.25 4.15625 
L 36.96875 -1.375 
L 34.71875 -1.375 
z
M 34.71875 8.453125 
L 34.71875 31.5 
Q 34.421875 34.8125 32.953125 37.546875 
Q 31.5 40.28125 29.078125 41.671875 
Q 26.65625 43.0625 24.359375 43.0625 
Q 20.0625 43.0625 16.703125 39.203125 
Q 12.25 34.125 12.25 24.359375 
Q 12.25 14.5 16.546875 9.25 
Q 20.84375 4 26.125 4 
Q 30.5625 4 34.71875 8.453125 
z
" id="TimesNewRomanPSMT-100"/>
      </defs>
      <use xlink:href="#TimesNewRomanPSMT-84"/>
      <use x="61.083984" xlink:href="#TimesNewRomanPSMT-104"/>
      <use x="111.083984" xlink:href="#TimesNewRomanPSMT-101"/>
      <use x="155.46875" xlink:href="#TimesNewRomanPSMT-111"/>
      <use x="205.46875" xlink:href="#TimesNewRomanPSMT-114"/>
      <use x="238.769531" xlink:href="#TimesNewRomanPSMT-101"/>
      <use x="283.154297" xlink:href="#TimesNewRomanPSMT-116"/>
      <use x="310.9375" xlink:href="#TimesNewRomanPSMT-105"/>
      <use x="338.720703" xlink:href="#TimesNewRomanPSMT-99"/>
      <use x="383.105469" xlink:href="#TimesNewRomanPSMT-97"/>
      <use x="427.490234" xlink:href="#TimesNewRomanPSMT-108"/>
      <use x="455.273438" xlink:href="#TimesNewRomanPSMT-32"/>
      <use x="480.273438" xlink:href="#TimesNewRomanPSMT-100"/>
      <use x="530.273438" xlink:href="#TimesNewRomanPSMT-97"/>
      <use x="574.658203" xlink:href="#TimesNewRomanPSMT-116"/>
      <use x="602.441406" xlink:href="#TimesNewRomanPSMT-97"/>
     </g>
    </g>
    <g id="line2d_16">
     <path d="M 253.93375 103.299375 
L 289.93375 103.299375 
" style="fill:none;stroke:#0000ff;stroke-linecap:square;stroke-width:2;"/>
    </g>
    <g id="line2d_17"/>
    <g id="text_14">
     <!-- Symbolic data -->
     <g transform="translate(304.33375 109.599375)scale(0.18 -0.18)">
      <defs>
       <path d="M 45.84375 67.71875 
L 45.84375 44.828125 
L 44.046875 44.828125 
Q 43.171875 51.421875 40.890625 55.328125 
Q 38.625 59.234375 34.421875 61.515625 
Q 30.21875 63.8125 25.734375 63.8125 
Q 20.65625 63.8125 17.328125 60.71875 
Q 14.015625 57.625 14.015625 53.65625 
Q 14.015625 50.640625 16.109375 48.140625 
Q 19.140625 44.484375 30.515625 38.375 
Q 39.796875 33.40625 43.1875 30.734375 
Q 46.578125 28.078125 48.40625 24.453125 
Q 50.25 20.84375 50.25 16.890625 
Q 50.25 9.375 44.40625 3.921875 
Q 38.578125 -1.515625 29.390625 -1.515625 
Q 26.515625 -1.515625 23.96875 -1.078125 
Q 22.46875 -0.828125 17.703125 0.703125 
Q 12.9375 2.25 11.671875 2.25 
Q 10.453125 2.25 9.734375 1.515625 
Q 9.03125 0.78125 8.6875 -1.515625 
L 6.890625 -1.515625 
L 6.890625 21.1875 
L 8.6875 21.1875 
Q 9.96875 14.0625 12.109375 10.515625 
Q 14.265625 6.984375 18.671875 4.640625 
Q 23.09375 2.296875 28.375 2.296875 
Q 34.46875 2.296875 38 5.515625 
Q 41.546875 8.734375 41.546875 13.140625 
Q 41.546875 15.578125 40.203125 18.0625 
Q 38.875 20.5625 36.03125 22.703125 
Q 34.125 24.171875 25.625 28.921875 
Q 17.140625 33.6875 13.546875 36.515625 
Q 9.96875 39.359375 8.109375 42.765625 
Q 6.25 46.1875 6.25 50.296875 
Q 6.25 57.421875 11.71875 62.5625 
Q 17.1875 67.71875 25.640625 67.71875 
Q 30.90625 67.71875 36.8125 65.140625 
Q 39.546875 63.921875 40.671875 63.921875 
Q 41.9375 63.921875 42.75 64.671875 
Q 43.5625 65.4375 44.046875 67.71875 
z
" id="TimesNewRomanPSMT-83"/>
       <path d="M 0.59375 44.734375 
L 21.4375 44.734375 
L 21.4375 42.921875 
L 20.40625 42.921875 
Q 18.21875 42.921875 17.109375 41.96875 
Q 16.015625 41.015625 16.015625 39.59375 
Q 16.015625 37.703125 17.625 34.328125 
L 28.515625 11.765625 
L 38.53125 36.46875 
Q 39.359375 38.484375 39.359375 40.4375 
Q 39.359375 41.3125 39.015625 41.75 
Q 38.625 42.28125 37.796875 42.59375 
Q 36.96875 42.921875 34.859375 42.921875 
L 34.859375 44.734375 
L 49.421875 44.734375 
L 49.421875 42.921875 
Q 47.609375 42.71875 46.625 42.125 
Q 45.65625 41.546875 44.484375 39.9375 
Q 44.046875 39.265625 42.828125 36.1875 
L 24.609375 -8.453125 
Q 21.96875 -14.9375 17.6875 -18.25 
Q 13.421875 -21.578125 9.46875 -21.578125 
Q 6.59375 -21.578125 4.734375 -19.921875 
Q 2.875 -18.265625 2.875 -16.109375 
Q 2.875 -14.0625 4.21875 -12.8125 
Q 5.5625 -11.578125 7.90625 -11.578125 
Q 9.515625 -11.578125 12.3125 -12.640625 
Q 14.265625 -13.375 14.75 -13.375 
Q 16.21875 -13.375 17.9375 -11.859375 
Q 19.671875 -10.359375 21.4375 -6 
L 24.609375 1.765625 
L 8.546875 35.5 
Q 7.8125 37.015625 6.203125 39.265625 
Q 4.984375 40.96875 4.203125 41.546875 
Q 3.078125 42.328125 0.59375 42.921875 
z
" id="TimesNewRomanPSMT-121"/>
       <path d="M 16.40625 36.53125 
Q 21.296875 41.40625 22.171875 42.140625 
Q 24.359375 44 26.890625 45.015625 
Q 29.4375 46.046875 31.9375 46.046875 
Q 36.140625 46.046875 39.15625 43.59375 
Q 42.1875 41.15625 43.21875 36.53125 
Q 48.25 42.390625 51.703125 44.21875 
Q 55.171875 46.046875 58.84375 46.046875 
Q 62.40625 46.046875 65.15625 44.21875 
Q 67.921875 42.390625 69.53125 38.234375 
Q 70.609375 35.40625 70.609375 29.34375 
L 70.609375 10.109375 
Q 70.609375 5.90625 71.234375 4.34375 
Q 71.734375 3.265625 73.046875 2.515625 
Q 74.359375 1.765625 77.34375 1.765625 
L 77.34375 0 
L 55.28125 0 
L 55.28125 1.765625 
L 56.203125 1.765625 
Q 59.078125 1.765625 60.6875 2.875 
Q 61.8125 3.65625 62.3125 5.375 
Q 62.5 6.203125 62.5 10.109375 
L 62.5 29.34375 
Q 62.5 34.8125 61.1875 37.0625 
Q 59.28125 40.1875 55.078125 40.1875 
Q 52.484375 40.1875 49.875 38.890625 
Q 47.265625 37.59375 43.5625 34.078125 
L 43.453125 33.546875 
L 43.5625 31.453125 
L 43.5625 10.109375 
Q 43.5625 5.515625 44.0625 4.390625 
Q 44.578125 3.265625 45.984375 2.515625 
Q 47.40625 1.765625 50.828125 1.765625 
L 50.828125 0 
L 28.21875 0 
L 28.21875 1.765625 
Q 31.9375 1.765625 33.328125 2.640625 
Q 34.71875 3.515625 35.25 5.28125 
Q 35.5 6.109375 35.5 10.109375 
L 35.5 29.34375 
Q 35.5 34.8125 33.890625 37.203125 
Q 31.734375 40.328125 27.875 40.328125 
Q 25.25 40.328125 22.65625 38.921875 
Q 18.609375 36.765625 16.40625 34.078125 
L 16.40625 10.109375 
Q 16.40625 5.71875 17.015625 4.390625 
Q 17.625 3.078125 18.8125 2.421875 
Q 20.015625 1.765625 23.6875 1.765625 
L 23.6875 0 
L 1.5625 0 
L 1.5625 1.765625 
Q 4.640625 1.765625 5.859375 2.421875 
Q 7.078125 3.078125 7.703125 4.515625 
Q 8.34375 5.953125 8.34375 10.109375 
L 8.34375 27.203125 
Q 8.34375 34.578125 7.90625 36.71875 
Q 7.5625 38.328125 6.828125 38.9375 
Q 6.109375 39.546875 4.828125 39.546875 
Q 3.46875 39.546875 1.5625 38.8125 
L 0.828125 40.578125 
L 14.3125 46.046875 
L 16.40625 46.046875 
z
" id="TimesNewRomanPSMT-109"/>
      </defs>
      <use xlink:href="#TimesNewRomanPSMT-83"/>
      <use x="55.615234" xlink:href="#TimesNewRomanPSMT-121"/>
      <use x="105.615234" xlink:href="#TimesNewRomanPSMT-109"/>
      <use x="183.398438" xlink:href="#TimesNewRomanPSMT-98"/>
      <use x="233.398438" xlink:href="#TimesNewRomanPSMT-111"/>
      <use x="283.398438" xlink:href="#TimesNewRomanPSMT-108"/>
      <use x="311.181641" xlink:href="#TimesNewRomanPSMT-105"/>
      <use x="338.964844" xlink:href="#TimesNewRomanPSMT-99"/>
      <use x="383.349609" xlink:href="#TimesNewRomanPSMT-32"/>
      <use x="408.349609" xlink:href="#TimesNewRomanPSMT-100"/>
      <use x="458.349609" xlink:href="#TimesNewRomanPSMT-97"/>
      <use x="502.734375" xlink:href="#TimesNewRomanPSMT-116"/>
      <use x="530.517578" xlink:href="#TimesNewRomanPSMT-97"/>
     </g>
    </g>
   </g>
  </g>
 </g>
 <defs>
  <clipPath id="pbeeccd0b90">
   <rect height="271.8" width="390.6" x="46.365625" y="29.865"/>
  </clipPath>
 </defs>
</svg>
