<?xml version="1.0" encoding="utf-8" standalone="no"?>
<!DOCTYPE svg PUBLIC "-//W3C//DTD SVG 1.1//EN"
  "http://www.w3.org/Graphics/SVG/1.1/DTD/svg11.dtd">
<!-- Created with matplotlib (https://matplotlib.org/) -->
<svg height="356.230625pt" version="1.1" viewBox="0 0 738.203125 356.230625" width="738.203125pt" xmlns="http://www.w3.org/2000/svg" xmlns:xlink="http://www.w3.org/1999/xlink">
 <metadata>
  <rdf:RDF xmlns:cc="http://creativecommons.org/ns#" xmlns:dc="http://purl.org/dc/elements/1.1/" xmlns:rdf="http://www.w3.org/1999/02/22-rdf-syntax-ns#">
   <cc:Work>
    <dc:type rdf:resource="http://purl.org/dc/dcmitype/StillImage"/>
    <dc:date>2021-04-07T12:05:53.537260</dc:date>
    <dc:format>image/svg+xml</dc:format>
    <dc:creator>
     <cc:Agent>
      <dc:title>Matplotlib v3.3.2, https://matplotlib.org/</dc:title>
     </cc:Agent>
    </dc:creator>
   </cc:Work>
  </rdf:RDF>
 </metadata>
 <defs>
  <style type="text/css">*{stroke-linecap:butt;stroke-linejoin:round;}</style>
 </defs>
 <g id="figure_1">
  <g id="patch_1">
   <path d="M 0 356.230625 
L 738.203125 356.230625 
L 738.203125 0 
L 0 0 
z
" style="fill:none;"/>
  </g>
  <g id="axes_1">
   <g id="patch_2">
    <path d="M 61.403125 301.665 
L 731.003125 301.665 
L 731.003125 29.865 
L 61.403125 29.865 
z
" style="fill:#ffffff;"/>
   </g>
   <g id="matplotlib.axis_1">
    <g id="xtick_1">
     <g id="line2d_1">
      <defs>
       <path d="M 0 0 
L 0 3.5 
" id="ma93c7a2c5b" style="stroke:#000000;stroke-width:0.8;"/>
      </defs>
      <g>
       <use style="stroke:#000000;stroke-width:0.8;" x="91.839489" xlink:href="#ma93c7a2c5b" y="301.665"/>
      </g>
     </g>
     <g id="text_1">
      <!-- −4 -->
      <g transform="translate(81.200426 322.5525)scale(0.2 -0.2)">
       <defs>
        <path d="M 54.4375 31.25 
L 1.8125 31.25 
L 1.8125 35.25 
L 54.4375 35.25 
z
" id="TimesNewRomanPSMT-8722"/>
        <path d="M 46.53125 24.421875 
L 46.53125 17.484375 
L 37.640625 17.484375 
L 37.640625 0 
L 29.59375 0 
L 29.59375 17.484375 
L 1.5625 17.484375 
L 1.5625 23.734375 
L 32.28125 67.578125 
L 37.640625 67.578125 
L 37.640625 24.421875 
z
M 29.59375 24.421875 
L 29.59375 57.28125 
L 6.34375 24.421875 
z
" id="TimesNewRomanPSMT-52"/>
       </defs>
       <use xlink:href="#TimesNewRomanPSMT-8722"/>
       <use x="56.396484" xlink:href="#TimesNewRomanPSMT-52"/>
      </g>
     </g>
    </g>
    <g id="xtick_2">
     <g id="line2d_2">
      <g>
       <use style="stroke:#000000;stroke-width:0.8;" x="167.930398" xlink:href="#ma93c7a2c5b" y="301.665"/>
      </g>
     </g>
     <g id="text_2">
      <!-- −3 -->
      <g transform="translate(157.291335 322.5525)scale(0.2 -0.2)">
       <defs>
        <path d="M 5.078125 53.609375 
Q 7.90625 60.296875 12.21875 63.9375 
Q 16.546875 67.578125 23 67.578125 
Q 30.953125 67.578125 35.203125 62.40625 
Q 38.421875 58.546875 38.421875 54.15625 
Q 38.421875 46.921875 29.34375 39.203125 
Q 35.453125 36.8125 38.578125 32.375 
Q 41.703125 27.9375 41.703125 21.921875 
Q 41.703125 13.328125 36.234375 7.03125 
Q 29.109375 -1.171875 15.578125 -1.171875 
Q 8.890625 -1.171875 6.46875 0.484375 
Q 4.046875 2.15625 4.046875 4.046875 
Q 4.046875 5.46875 5.1875 6.546875 
Q 6.34375 7.625 7.953125 7.625 
Q 9.1875 7.625 10.453125 7.234375 
Q 11.28125 6.984375 14.203125 5.4375 
Q 17.140625 3.90625 18.265625 3.609375 
Q 20.0625 3.078125 22.125 3.078125 
Q 27.09375 3.078125 30.78125 6.9375 
Q 34.46875 10.796875 34.46875 16.0625 
Q 34.46875 19.921875 32.765625 23.578125 
Q 31.5 26.3125 29.984375 27.734375 
Q 27.875 29.6875 24.21875 31.265625 
Q 20.5625 32.859375 16.75 32.859375 
L 15.1875 32.859375 
L 15.1875 34.328125 
Q 19.046875 34.8125 22.921875 37.109375 
Q 26.8125 39.40625 28.5625 42.625 
Q 30.328125 45.84375 30.328125 49.703125 
Q 30.328125 54.734375 27.171875 57.828125 
Q 24.03125 60.9375 19.34375 60.9375 
Q 11.765625 60.9375 6.6875 52.828125 
z
" id="TimesNewRomanPSMT-51"/>
       </defs>
       <use xlink:href="#TimesNewRomanPSMT-8722"/>
       <use x="56.396484" xlink:href="#TimesNewRomanPSMT-51"/>
      </g>
     </g>
    </g>
    <g id="xtick_3">
     <g id="line2d_3">
      <g>
       <use style="stroke:#000000;stroke-width:0.8;" x="244.021307" xlink:href="#ma93c7a2c5b" y="301.665"/>
      </g>
     </g>
     <g id="text_3">
      <!-- −2 -->
      <g transform="translate(233.382244 322.5525)scale(0.2 -0.2)">
       <defs>
        <path d="M 45.84375 12.75 
L 41.21875 0 
L 2.15625 0 
L 2.15625 1.8125 
Q 19.390625 17.53125 26.421875 27.484375 
Q 33.453125 37.453125 33.453125 45.703125 
Q 33.453125 52 29.59375 56.046875 
Q 25.734375 60.109375 20.359375 60.109375 
Q 15.484375 60.109375 11.59375 57.25 
Q 7.71875 54.390625 5.859375 48.875 
L 4.046875 48.875 
Q 5.28125 57.90625 10.328125 62.734375 
Q 15.375 67.578125 22.953125 67.578125 
Q 31 67.578125 36.390625 62.40625 
Q 41.796875 57.234375 41.796875 50.203125 
Q 41.796875 45.171875 39.453125 40.140625 
Q 35.84375 32.234375 27.734375 23.390625 
Q 15.578125 10.109375 12.546875 7.375 
L 29.828125 7.375 
Q 35.109375 7.375 37.234375 7.765625 
Q 39.359375 8.15625 41.0625 9.34375 
Q 42.78125 10.546875 44.046875 12.75 
z
" id="TimesNewRomanPSMT-50"/>
       </defs>
       <use xlink:href="#TimesNewRomanPSMT-8722"/>
       <use x="56.396484" xlink:href="#TimesNewRomanPSMT-50"/>
      </g>
     </g>
    </g>
    <g id="xtick_4">
     <g id="line2d_4">
      <g>
       <use style="stroke:#000000;stroke-width:0.8;" x="320.112216" xlink:href="#ma93c7a2c5b" y="301.665"/>
      </g>
     </g>
     <g id="text_4">
      <!-- −1 -->
      <g transform="translate(309.473153 322.5525)scale(0.2 -0.2)">
       <defs>
        <path d="M 11.71875 59.71875 
L 27.828125 67.578125 
L 29.4375 67.578125 
L 29.4375 11.671875 
Q 29.4375 6.109375 29.90625 4.734375 
Q 30.375 3.375 31.828125 2.640625 
Q 33.296875 1.90625 37.796875 1.8125 
L 37.796875 0 
L 12.890625 0 
L 12.890625 1.8125 
Q 17.578125 1.90625 18.9375 2.609375 
Q 20.3125 3.328125 20.84375 4.515625 
Q 21.390625 5.71875 21.390625 11.671875 
L 21.390625 47.40625 
Q 21.390625 54.640625 20.90625 56.6875 
Q 20.5625 58.25 19.65625 58.984375 
Q 18.75 59.71875 17.484375 59.71875 
Q 15.671875 59.71875 12.453125 58.203125 
z
" id="TimesNewRomanPSMT-49"/>
       </defs>
       <use xlink:href="#TimesNewRomanPSMT-8722"/>
       <use x="56.396484" xlink:href="#TimesNewRomanPSMT-49"/>
      </g>
     </g>
    </g>
    <g id="xtick_5">
     <g id="line2d_5">
      <g>
       <use style="stroke:#000000;stroke-width:0.8;" x="396.203125" xlink:href="#ma93c7a2c5b" y="301.665"/>
      </g>
     </g>
     <g id="text_5">
      <!-- 0 -->
      <g transform="translate(391.203125 322.5525)scale(0.2 -0.2)">
       <defs>
        <path d="M 3.609375 32.71875 
Q 3.609375 44.046875 7.03125 52.21875 
Q 10.453125 60.40625 16.109375 64.40625 
Q 20.515625 67.578125 25.203125 67.578125 
Q 32.8125 67.578125 38.875 59.8125 
Q 46.4375 50.203125 46.4375 33.734375 
Q 46.4375 22.21875 43.109375 14.15625 
Q 39.796875 6.109375 34.640625 2.46875 
Q 29.5 -1.171875 24.703125 -1.171875 
Q 15.234375 -1.171875 8.9375 10.015625 
Q 3.609375 19.4375 3.609375 32.71875 
z
M 13.1875 31.5 
Q 13.1875 17.828125 16.546875 9.1875 
Q 19.34375 1.90625 24.859375 1.90625 
Q 27.484375 1.90625 30.3125 4.265625 
Q 33.15625 6.640625 34.625 12.203125 
Q 36.859375 20.609375 36.859375 35.890625 
Q 36.859375 47.21875 34.515625 54.78125 
Q 32.765625 60.40625 29.984375 62.75 
Q 27.984375 64.359375 25.140625 64.359375 
Q 21.828125 64.359375 19.234375 61.375 
Q 15.71875 57.328125 14.453125 48.625 
Q 13.1875 39.9375 13.1875 31.5 
z
" id="TimesNewRomanPSMT-48"/>
       </defs>
       <use xlink:href="#TimesNewRomanPSMT-48"/>
      </g>
     </g>
    </g>
    <g id="xtick_6">
     <g id="line2d_6">
      <g>
       <use style="stroke:#000000;stroke-width:0.8;" x="472.294034" xlink:href="#ma93c7a2c5b" y="301.665"/>
      </g>
     </g>
     <g id="text_6">
      <!-- 1 -->
      <g transform="translate(467.294034 322.5525)scale(0.2 -0.2)">
       <use xlink:href="#TimesNewRomanPSMT-49"/>
      </g>
     </g>
    </g>
    <g id="xtick_7">
     <g id="line2d_7">
      <g>
       <use style="stroke:#000000;stroke-width:0.8;" x="548.384943" xlink:href="#ma93c7a2c5b" y="301.665"/>
      </g>
     </g>
     <g id="text_7">
      <!-- 2 -->
      <g transform="translate(543.384943 322.5525)scale(0.2 -0.2)">
       <use xlink:href="#TimesNewRomanPSMT-50"/>
      </g>
     </g>
    </g>
    <g id="xtick_8">
     <g id="line2d_8">
      <g>
       <use style="stroke:#000000;stroke-width:0.8;" x="624.475852" xlink:href="#ma93c7a2c5b" y="301.665"/>
      </g>
     </g>
     <g id="text_8">
      <!-- 3 -->
      <g transform="translate(619.475852 322.5525)scale(0.2 -0.2)">
       <use xlink:href="#TimesNewRomanPSMT-51"/>
      </g>
     </g>
    </g>
    <g id="xtick_9">
     <g id="line2d_9">
      <g>
       <use style="stroke:#000000;stroke-width:0.8;" x="700.566761" xlink:href="#ma93c7a2c5b" y="301.665"/>
      </g>
     </g>
     <g id="text_9">
      <!-- 4 -->
      <g transform="translate(695.566761 322.5525)scale(0.2 -0.2)">
       <use xlink:href="#TimesNewRomanPSMT-52"/>
      </g>
     </g>
    </g>
    <g id="text_10">
     <!-- $\mathrm{Tangential\ Velocity}\ V_t [-]$ -->
     <g transform="translate(291.903125 344.630625)scale(0.2 -0.2)">
      <defs>
       <path d="M 59.296875 49.203125 
L 56.90625 49.203125 
Q 55.296875 57.40625 52.390625 59.703125 
Q 49.5 62 41.5 62 
L 35.59375 62 
L 35.59375 11.09375 
Q 35.59375 5.40625 37.296875 3.796875 
Q 39 2.203125 45.203125 1.90625 
L 45.203125 0 
L 16 0 
L 16 1.90625 
Q 22.296875 2.296875 23.84375 4 
Q 25.40625 5.703125 25.40625 12.296875 
L 25.40625 62 
L 19.40625 62 
Q 11.296875 62 8.4375 59.640625 
Q 5.59375 57.296875 4.09375 49.203125 
L 1.703125 49.203125 
L 2.40625 66.203125 
L 58.59375 66.203125 
z
" id="STIXGeneral-Regular-84"/>
       <path d="M 44.203125 6.59375 
L 44.203125 3.796875 
Q 40.40625 -1 35.203125 -1 
Q 29.5 -1 28.796875 6.296875 
L 28.703125 6.296875 
Q 22.296875 -1 14.203125 -1 
Q 9.5 -1 6.59375 1.75 
Q 3.703125 4.5 3.703125 9.40625 
Q 3.703125 16.40625 10.703125 21.09375 
Q 15.5 24.296875 28.703125 29.203125 
L 28.703125 34.59375 
Q 28.703125 39.09375 26.546875 41.34375 
Q 24.40625 43.59375 20.90625 43.59375 
Q 17.90625 43.59375 15.90625 42.140625 
Q 13.90625 40.703125 13.90625 38.703125 
Q 13.90625 37.796875 14.203125 36.6875 
Q 14.5 35.59375 14.5 34.5 
Q 14.5 33 13.140625 31.703125 
Q 11.796875 30.40625 9.90625 30.40625 
Q 8.203125 30.40625 6.890625 31.703125 
Q 5.59375 33 5.59375 35 
Q 5.59375 39.796875 10.703125 43 
Q 15.40625 46 22.203125 46 
Q 30.296875 46 34 41.5 
Q 35.796875 39.40625 36.296875 37.25 
Q 36.796875 35.09375 36.796875 30.40625 
L 36.796875 11.296875 
Q 36.796875 4.703125 39.90625 4.703125 
Q 41.90625 4.703125 44.203125 6.59375 
z
M 28.703125 12.703125 
L 28.703125 26.796875 
Q 19.5 23.59375 15.90625 20.203125 
Q 12.5 17.09375 12.5 12.5 
Q 12.5 8.703125 14.390625 6.75 
Q 16.296875 4.796875 19.40625 4.796875 
Q 22.703125 4.796875 25.203125 6.40625 
Q 27.296875 7.90625 28 9.203125 
Q 28.703125 10.5 28.703125 12.703125 
z
" id="STIXGeneral-Regular-97"/>
       <path d="M 48.5 0 
L 27.703125 0 
L 27.796875 1.5 
Q 31.5 1.796875 32.75 3.640625 
Q 34 5.5 34 10.5 
L 34 30.40625 
Q 34 40.5 26.703125 40.5 
Q 24.203125 40.5 22 39.296875 
Q 19.796875 38.09375 16.40625 34.796875 
L 16.40625 7.203125 
Q 16.40625 4.203125 17.75 3 
Q 19.09375 1.796875 22.90625 1.5 
L 22.90625 0 
L 1.796875 0 
L 1.796875 1.5 
Q 5.59375 1.796875 6.796875 3.34375 
Q 8 4.90625 8 9.40625 
L 8 33.703125 
Q 8 37.40625 7.296875 38.796875 
Q 6.59375 40.203125 4.5 40.203125 
Q 2.5 40.203125 1.59375 39.796875 
L 1.59375 41.5 
Q 8.59375 43.5 15.296875 46 
L 16.09375 45.703125 
L 16.09375 37.90625 
L 16.203125 37.90625 
Q 23.296875 46 30.59375 46 
Q 36.296875 46 39.34375 42 
Q 42.40625 38 42.40625 30.59375 
L 42.40625 8.5 
Q 42.40625 4.5 43.59375 3.203125 
Q 44.796875 1.90625 48.5 1.5 
z
" id="STIXGeneral-Regular-110"/>
       <path d="M 47 38.796875 
L 38.703125 38.796875 
Q 40.59375 34.5 40.59375 30.40625 
Q 40.59375 22.703125 35.390625 18.796875 
Q 30.203125 14.90625 25 14.90625 
Q 23.90625 14.90625 21.203125 15.203125 
L 19.296875 15.40625 
Q 17.296875 14.796875 15.296875 12.6875 
Q 13.296875 10.59375 13.296875 9.09375 
Q 13.296875 6.796875 21.09375 6.40625 
L 34 5.796875 
Q 39.5 5.59375 42.796875 2.6875 
Q 46.09375 -0.203125 46.09375 -4.90625 
Q 46.09375 -10.703125 40.09375 -15.40625 
Q 31.796875 -21.796875 20.09375 -21.796875 
Q 12.90625 -21.796875 7.84375 -18.9375 
Q 2.796875 -16.09375 2.796875 -12.09375 
Q 2.796875 -9.296875 5 -6.546875 
Q 7.203125 -3.796875 12.59375 0.09375 
Q 9.40625 1.59375 8.34375 2.6875 
Q 7.296875 3.796875 7.296875 5.40625 
Q 7.296875 8.296875 11.90625 12.296875 
Q 14.203125 14.296875 16.203125 16.296875 
Q 11.203125 18.796875 9.046875 21.890625 
Q 6.90625 25 6.90625 29.703125 
Q 6.90625 36.5 11.75 41.25 
Q 16.59375 46 23.59375 46 
Q 27.59375 46 31.59375 44.5 
L 33.796875 43.703125 
Q 36.703125 42.703125 39.296875 42.703125 
L 47 42.703125 
z
M 15.203125 33.796875 
L 15.203125 33.5 
Q 15.203125 26.296875 18.046875 21.84375 
Q 20.90625 17.40625 25.5 17.40625 
Q 28.90625 17.40625 30.90625 19.84375 
Q 32.90625 22.296875 32.90625 26.40625 
Q 32.90625 33 29.90625 38.5 
Q 27.40625 43.203125 22.59375 43.203125 
Q 19.09375 43.203125 17.140625 40.703125 
Q 15.203125 38.203125 15.203125 33.796875 
z
M 43.296875 -6.40625 
Q 43.296875 -3.59375 40.546875 -2.546875 
Q 37.796875 -1.5 30.90625 -1.5 
Q 21 -1.5 14.703125 -0.203125 
Q 11.703125 -3.796875 10.75 -5.4375 
Q 9.796875 -7.09375 9.796875 -8.796875 
Q 9.796875 -12.09375 13.75 -14.09375 
Q 17.703125 -16.09375 24.296875 -16.09375 
Q 32.796875 -16.09375 38.046875 -13.4375 
Q 43.296875 -10.796875 43.296875 -6.40625 
z
" id="STIXGeneral-Regular-103"/>
       <path d="M 40.796875 16.40625 
L 42.40625 15.703125 
Q 36.40625 -1 21.5 -1 
Q 12.703125 -1 7.59375 5.140625 
Q 2.5 11.296875 2.5 21.703125 
Q 2.5 32.40625 8.203125 39.203125 
Q 13.90625 46 23.203125 46 
Q 32.203125 46 37.09375 39.09375 
Q 40 35.09375 40.5 27.703125 
L 9.703125 27.703125 
Q 10.09375 21.40625 10.9375 18.09375 
Q 11.796875 14.796875 14.296875 11.40625 
Q 18.5 5.90625 25.40625 5.90625 
Q 30.296875 5.90625 33.640625 8.296875 
Q 37 10.703125 40.796875 16.40625 
z
M 9.90625 30.90625 
L 30.296875 30.90625 
Q 29.40625 37.203125 27.34375 39.796875 
Q 25.296875 42.40625 20.5 42.40625 
Q 16.296875 42.40625 13.5 39.453125 
Q 10.703125 36.5 9.90625 30.90625 
z
" id="STIXGeneral-Regular-101"/>
       <path d="M 26.59375 7.703125 
L 27.90625 6.59375 
Q 23.09375 -1 15.796875 -1 
Q 7 -1 7 11.703125 
L 7 41.796875 
L 1.703125 41.796875 
Q 1.296875 42.09375 1.296875 42.5 
Q 1.296875 43.296875 3 44.40625 
Q 6.796875 46.59375 12.703125 55.09375 
Q 12.90625 55.40625 13.65625 56.34375 
Q 14.40625 57.296875 14.703125 57.90625 
Q 15.40625 57.90625 15.40625 56.59375 
L 15.40625 45 
L 25.5 45 
L 25.5 41.796875 
L 15.40625 41.796875 
L 15.40625 13.203125 
Q 15.40625 8.40625 16.59375 6.296875 
Q 17.796875 4.203125 20.59375 4.203125 
Q 23.59375 4.203125 26.59375 7.703125 
z
" id="STIXGeneral-Regular-116"/>
       <path d="M 18 63.203125 
Q 18 61 16.5 59.546875 
Q 15 58.09375 12.796875 58.09375 
Q 10.703125 58.09375 9.25 59.546875 
Q 7.796875 61 7.796875 63.203125 
Q 7.796875 65.296875 9.296875 66.796875 
Q 10.796875 68.296875 12.90625 68.296875 
Q 15.09375 68.296875 16.546875 66.796875 
Q 18 65.296875 18 63.203125 
z
M 25.296875 0 
L 1.59375 0 
L 1.59375 1.5 
Q 6.796875 1.796875 8.140625 3.296875 
Q 9.5 4.796875 9.5 10.40625 
L 9.5 33.09375 
Q 9.5 36.59375 8.796875 38 
Q 8.09375 39.40625 6.203125 39.40625 
Q 3.796875 39.40625 2 38.90625 
L 2 40.5 
L 17.5 46 
L 17.90625 45.59375 
L 17.90625 10.5 
Q 17.90625 4.90625 19.15625 3.40625 
Q 20.40625 1.90625 25.296875 1.5 
z
" id="STIXGeneral-Regular-105"/>
       <path d="M 25.703125 0 
L 2.09375 0 
L 2.09375 1.5 
Q 6.796875 1.90625 8.296875 3.453125 
Q 9.796875 5 9.796875 9.203125 
L 9.796875 56.09375 
Q 9.796875 59.703125 8.890625 61.09375 
Q 8 62.5 5.59375 62.5 
Q 3.5 62.5 1.90625 62.296875 
L 1.90625 63.90625 
Q 11.40625 66.203125 17.703125 68.296875 
L 18.203125 67.90625 
L 18.203125 8.703125 
Q 18.203125 4.5 19.59375 3.140625 
Q 21 1.796875 25.703125 1.5 
z
" id="STIXGeneral-Regular-108"/>
       <path d="M 69.703125 66.203125 
L 69.703125 64.296875 
Q 66.59375 64.203125 64.59375 62.34375 
Q 62.59375 60.5 60.5 55.203125 
L 38.296875 -1.09375 
L 36.796875 -1.09375 
L 12.40625 53.296875 
Q 9.203125 60.40625 7.296875 62.296875 
Q 5.40625 64.203125 1.59375 64.296875 
L 1.59375 66.203125 
L 28.09375 66.203125 
L 28.09375 64.296875 
L 25.296875 64.09375 
Q 20.796875 63.796875 20.796875 61 
Q 20.796875 59 24.703125 50.296875 
L 39.90625 16.09375 
L 54.59375 53 
Q 56.5 57.796875 56.5 60.203125 
Q 56.5 60.90625 56.34375 61.453125 
Q 56.203125 62 56 62.390625 
Q 55.796875 62.796875 55.25 63.09375 
Q 54.703125 63.40625 54.390625 63.546875 
Q 54.09375 63.703125 53.296875 63.84375 
Q 52.5 64 52.140625 64.046875 
Q 51.796875 64.09375 50.75 64.1875 
Q 49.703125 64.296875 49.296875 64.296875 
L 49.296875 66.203125 
z
" id="STIXGeneral-Regular-86"/>
       <path d="M 47 23.09375 
Q 47 12.59375 40.75 5.796875 
Q 34.5 -1 24.5 -1 
Q 15.296875 -1 9.09375 5.75 
Q 2.90625 12.5 2.90625 22.796875 
Q 2.90625 33.203125 9.09375 39.59375 
Q 15.296875 46 25.40625 46 
Q 34.703125 46 40.84375 39.640625 
Q 47 33.296875 47 23.09375 
z
M 38 20.40625 
Q 38 31.796875 33 38.203125 
Q 29 43.203125 23.5 43.203125 
Q 18.296875 43.203125 15.09375 38.953125 
Q 11.90625 34.703125 11.90625 27.296875 
Q 11.90625 14.5 17.203125 6.796875 
Q 20.59375 1.796875 26.203125 1.796875 
Q 31.703125 1.796875 34.84375 6.75 
Q 38 11.703125 38 20.40625 
z
" id="STIXGeneral-Regular-111"/>
       <path d="M 39.796875 15.59375 
L 41.203125 14.703125 
Q 36.90625 6.296875 33 3.203125 
Q 27.90625 -1 21.5 -1 
Q 13.203125 -1 7.84375 5.25 
Q 2.5 11.5 2.5 21.203125 
Q 2.5 33.90625 10.90625 40.90625 
Q 17.09375 46 24.40625 46 
Q 30.703125 46 35.25 42.953125 
Q 39.796875 39.90625 39.796875 35.703125 
Q 39.796875 34 38.390625 32.75 
Q 37 31.5 35.09375 31.5 
Q 31.59375 31.5 30.296875 36.09375 
L 29.703125 38.296875 
Q 28.90625 41.09375 27.703125 42.09375 
Q 26.5 43.09375 23.796875 43.09375 
Q 17.703125 43.09375 13.953125 38.296875 
Q 10.203125 33.5 10.203125 25.703125 
Q 10.203125 17.09375 14.5 11.640625 
Q 18.796875 6.203125 25.703125 6.203125 
Q 30 6.203125 33.09375 8.25 
Q 36.203125 10.296875 39.796875 15.59375 
z
" id="STIXGeneral-Regular-99"/>
       <path d="M 47.5 45 
L 47.5 43.5 
Q 45.703125 43.296875 44.59375 42.1875 
Q 43.5 41.09375 42.5 38.40625 
L 27.5 -2.5 
Q 23.59375 -13.09375 19.640625 -17.4375 
Q 15.703125 -21.796875 10 -21.796875 
Q 6.796875 -21.796875 4.890625 -20.140625 
Q 3 -18.5 3 -16 
Q 3 -14.09375 4.25 -12.75 
Q 5.5 -11.40625 7.296875 -11.40625 
Q 10.203125 -11.40625 12.5 -12.703125 
Q 13.796875 -13.40625 15.09375 -13.40625 
Q 17.203125 -13.40625 20.09375 -9 
Q 21.5 -7 22.796875 -3.296875 
Q 24.09375 0.40625 24.09375 1.796875 
Q 24.09375 3.09375 19.90625 11.90625 
L 6.703125 40.09375 
Q 5.40625 43 1.40625 43.59375 
L 1.40625 45 
L 21.90625 45 
L 21.90625 43.5 
Q 18.703125 43.40625 17.453125 42.796875 
Q 16.203125 42.203125 16.203125 40.796875 
Q 16.203125 39.703125 17.5 36.703125 
L 28.703125 11.703125 
L 38.40625 39.296875 
Q 38.796875 40.203125 38.796875 41.09375 
Q 38.796875 43.5 34.203125 43.5 
L 34.203125 45 
z
" id="STIXGeneral-Regular-121"/>
       <path d="M 68.796875 65.296875 
L 68.796875 63.703125 
Q 65.59375 63.59375 63.203125 59.703125 
L 25.90625 -1.796875 
L 24 -1.796875 
L 15.796875 48.5 
Q 14.09375 59 12.9375 61.09375 
Q 11.796875 63.203125 7.59375 63.703125 
L 7.59375 65.296875 
L 31.59375 65.296875 
L 31.59375 63.703125 
Q 26.90625 63.203125 25.453125 62.203125 
Q 24 61.203125 24 58.59375 
Q 24 57.59375 24.09375 57.09375 
L 30.59375 12.796875 
L 51.59375 48.796875 
Q 56.5 57.203125 56.5 60.296875 
Q 56.5 63 50.296875 63.703125 
L 50.296875 65.296875 
z
" id="STIXGeneral-Italic-86"/>
       <path d="M 29.59375 42.796875 
L 29.09375 39.59375 
L 20.703125 39.59375 
L 12 6.796875 
Q 11.796875 6 11.796875 5.40625 
Q 11.796875 3.796875 13.296875 3.796875 
Q 14.5 3.796875 16.09375 5.34375 
Q 17.703125 6.90625 21.40625 11.703125 
L 22.703125 11 
Q 18.09375 4 15.140625 1.453125 
Q 12.203125 -1.09375 8.40625 -1.09375 
Q 3.796875 -1.09375 3.796875 2.59375 
Q 3.796875 3.59375 5.40625 10 
L 13.203125 39.59375 
L 5.703125 39.59375 
L 5.59375 40.203125 
Q 5.59375 42 8.90625 42.703125 
Q 11.40625 43.296875 15.5 46.546875 
Q 19.59375 49.796875 22.203125 53.703125 
Q 22.796875 54.59375 23.59375 54.59375 
Q 24.5 54.59375 24.5 53.796875 
Q 24.5 53.296875 24.40625 53.09375 
L 21.59375 42.796875 
z
" id="STIXGeneral-Italic-116"/>
       <path d="M 29.90625 -15.59375 
L 8.796875 -15.59375 
L 8.796875 66.203125 
L 29.90625 66.203125 
L 29.90625 63.703125 
L 21.59375 63.703125 
Q 19 63.703125 17.703125 62.59375 
Q 16.40625 61.5 16.40625 58.90625 
L 16.40625 -7.703125 
Q 16.40625 -13.09375 21.59375 -13.09375 
L 29.90625 -13.09375 
z
" id="STIXGeneral-Regular-91"/>
       <path d="M 62.09375 22 
L 6.40625 22 
L 6.40625 28.59375 
L 62.09375 28.59375 
z
" id="STIXGeneral-Regular-8722"/>
       <path d="M 24.5 -15.59375 
L 3.40625 -15.59375 
L 3.40625 -13.09375 
L 12.203125 -13.09375 
Q 14.796875 -13.09375 15.84375 -12 
Q 16.90625 -10.90625 16.90625 -8.5 
L 16.90625 58.296875 
Q 16.90625 63.703125 11.796875 63.703125 
L 3.40625 63.703125 
L 3.40625 66.203125 
L 24.5 66.203125 
z
" id="STIXGeneral-Regular-93"/>
      </defs>
      <use transform="translate(0 0.703125)" xlink:href="#STIXGeneral-Regular-84"/>
      <use transform="translate(61.099991 0.703125)" xlink:href="#STIXGeneral-Regular-97"/>
      <use transform="translate(105.499985 0.703125)" xlink:href="#STIXGeneral-Regular-110"/>
      <use transform="translate(155.499969 0.703125)" xlink:href="#STIXGeneral-Regular-103"/>
      <use transform="translate(205.499954 0.703125)" xlink:href="#STIXGeneral-Regular-101"/>
      <use transform="translate(249.899948 0.703125)" xlink:href="#STIXGeneral-Regular-110"/>
      <use transform="translate(299.899933 0.703125)" xlink:href="#STIXGeneral-Regular-116"/>
      <use transform="translate(327.699921 0.703125)" xlink:href="#STIXGeneral-Regular-105"/>
      <use transform="translate(355.499908 0.703125)" xlink:href="#STIXGeneral-Regular-97"/>
      <use transform="translate(399.899902 0.703125)" xlink:href="#STIXGeneral-Regular-108"/>
      <use transform="translate(453.63296 0.703125)" xlink:href="#STIXGeneral-Regular-86"/>
      <use transform="translate(525.832942 0.703125)" xlink:href="#STIXGeneral-Regular-101"/>
      <use transform="translate(570.232936 0.703125)" xlink:href="#STIXGeneral-Regular-108"/>
      <use transform="translate(598.032923 0.703125)" xlink:href="#STIXGeneral-Regular-111"/>
      <use transform="translate(648.032908 0.703125)" xlink:href="#STIXGeneral-Regular-99"/>
      <use transform="translate(692.432902 0.703125)" xlink:href="#STIXGeneral-Regular-105"/>
      <use transform="translate(720.23289 0.703125)" xlink:href="#STIXGeneral-Regular-116"/>
      <use transform="translate(748.032878 0.703125)" xlink:href="#STIXGeneral-Regular-121"/>
      <use transform="translate(822.099282 0.703125)" xlink:href="#STIXGeneral-Italic-86"/>
      <use transform="translate(883.199273 -12.525)scale(0.7)" xlink:href="#STIXGeneral-Italic-116"/>
      <use transform="translate(907.06864 0.703125)" xlink:href="#STIXGeneral-Regular-91"/>
      <use transform="translate(940.368627 0.703125)" xlink:href="#STIXGeneral-Regular-8722"/>
      <use transform="translate(1008.868612 0.703125)" xlink:href="#STIXGeneral-Regular-93"/>
     </g>
    </g>
   </g>
   <g id="matplotlib.axis_2">
    <g id="ytick_1">
     <g id="line2d_10">
      <defs>
       <path d="M 0 0 
L -3.5 0 
" id="mbcff934676" style="stroke:#000000;stroke-width:0.8;"/>
      </defs>
      <g>
       <use style="stroke:#000000;stroke-width:0.8;" x="61.403125" xlink:href="#mbcff934676" y="289.310455"/>
      </g>
     </g>
     <g id="text_11">
      <!-- 0.0 -->
      <g transform="translate(29.403125 296.254205)scale(0.2 -0.2)">
       <defs>
        <path d="M 12.5 9.46875 
Q 14.796875 9.46875 16.359375 7.875 
Q 17.921875 6.296875 17.921875 4.046875 
Q 17.921875 1.8125 16.328125 0.21875 
Q 14.75 -1.375 12.5 -1.375 
Q 10.25 -1.375 8.65625 0.21875 
Q 7.078125 1.8125 7.078125 4.046875 
Q 7.078125 6.34375 8.65625 7.90625 
Q 10.25 9.46875 12.5 9.46875 
z
" id="TimesNewRomanPSMT-46"/>
       </defs>
       <use xlink:href="#TimesNewRomanPSMT-48"/>
       <use x="50" xlink:href="#TimesNewRomanPSMT-46"/>
       <use x="75" xlink:href="#TimesNewRomanPSMT-48"/>
      </g>
     </g>
    </g>
    <g id="ytick_2">
     <g id="line2d_11">
      <g>
       <use style="stroke:#000000;stroke-width:0.8;" x="61.403125" xlink:href="#mbcff934676" y="239.362115"/>
      </g>
     </g>
     <g id="text_12">
      <!-- 0.2 -->
      <g transform="translate(29.403125 246.305865)scale(0.2 -0.2)">
       <use xlink:href="#TimesNewRomanPSMT-48"/>
       <use x="50" xlink:href="#TimesNewRomanPSMT-46"/>
       <use x="75" xlink:href="#TimesNewRomanPSMT-50"/>
      </g>
     </g>
    </g>
    <g id="ytick_3">
     <g id="line2d_12">
      <g>
       <use style="stroke:#000000;stroke-width:0.8;" x="61.403125" xlink:href="#mbcff934676" y="189.413776"/>
      </g>
     </g>
     <g id="text_13">
      <!-- 0.4 -->
      <g transform="translate(29.403125 196.357526)scale(0.2 -0.2)">
       <use xlink:href="#TimesNewRomanPSMT-48"/>
       <use x="50" xlink:href="#TimesNewRomanPSMT-46"/>
       <use x="75" xlink:href="#TimesNewRomanPSMT-52"/>
      </g>
     </g>
    </g>
    <g id="ytick_4">
     <g id="line2d_13">
      <g>
       <use style="stroke:#000000;stroke-width:0.8;" x="61.403125" xlink:href="#mbcff934676" y="139.465437"/>
      </g>
     </g>
     <g id="text_14">
      <!-- 0.6 -->
      <g transform="translate(29.403125 146.409187)scale(0.2 -0.2)">
       <defs>
        <path d="M 44.828125 67.578125 
L 44.828125 65.765625 
Q 38.375 65.140625 34.296875 63.203125 
Q 30.21875 61.28125 26.234375 57.328125 
Q 22.265625 53.375 19.65625 48.515625 
Q 17.046875 43.65625 15.28125 36.96875 
Q 22.3125 41.796875 29.390625 41.796875 
Q 36.1875 41.796875 41.15625 36.328125 
Q 46.140625 30.859375 46.140625 22.265625 
Q 46.140625 13.96875 41.109375 7.125 
Q 35.0625 -1.171875 25.09375 -1.171875 
Q 18.3125 -1.171875 13.578125 3.328125 
Q 4.296875 12.0625 4.296875 25.984375 
Q 4.296875 34.859375 7.859375 42.859375 
Q 11.421875 50.875 18.03125 57.078125 
Q 24.65625 63.28125 30.703125 65.421875 
Q 36.765625 67.578125 42 67.578125 
z
M 14.453125 33.40625 
Q 13.578125 26.8125 13.578125 22.75 
Q 13.578125 18.0625 15.3125 12.5625 
Q 17.046875 7.078125 20.453125 3.859375 
Q 22.953125 1.5625 26.515625 1.5625 
Q 30.765625 1.5625 34.109375 5.5625 
Q 37.453125 9.578125 37.453125 17 
Q 37.453125 25.34375 34.125 31.4375 
Q 30.8125 37.546875 24.703125 37.546875 
Q 22.859375 37.546875 20.734375 36.765625 
Q 18.609375 35.984375 14.453125 33.40625 
z
" id="TimesNewRomanPSMT-54"/>
       </defs>
       <use xlink:href="#TimesNewRomanPSMT-48"/>
       <use x="50" xlink:href="#TimesNewRomanPSMT-46"/>
       <use x="75" xlink:href="#TimesNewRomanPSMT-54"/>
      </g>
     </g>
    </g>
    <g id="ytick_5">
     <g id="line2d_14">
      <g>
       <use style="stroke:#000000;stroke-width:0.8;" x="61.403125" xlink:href="#mbcff934676" y="89.517097"/>
      </g>
     </g>
     <g id="text_15">
      <!-- 0.8 -->
      <g transform="translate(29.403125 96.460847)scale(0.2 -0.2)">
       <defs>
        <path d="M 19.1875 33.34375 
Q 11.328125 39.796875 9.046875 43.703125 
Q 6.78125 47.609375 6.78125 51.8125 
Q 6.78125 58.25 11.765625 62.90625 
Q 16.75 67.578125 25 67.578125 
Q 33.015625 67.578125 37.890625 63.234375 
Q 42.78125 58.890625 42.78125 53.328125 
Q 42.78125 49.609375 40.140625 45.75 
Q 37.5 41.890625 29.15625 36.671875 
Q 37.75 30.03125 40.53125 26.21875 
Q 44.234375 21.234375 44.234375 15.71875 
Q 44.234375 8.734375 38.90625 3.78125 
Q 33.59375 -1.171875 24.953125 -1.171875 
Q 15.53125 -1.171875 10.25 4.734375 
Q 6.0625 9.46875 6.0625 15.09375 
Q 6.0625 19.484375 9.015625 23.796875 
Q 11.96875 28.125 19.1875 33.34375 
z
M 26.859375 38.578125 
Q 32.71875 43.84375 34.28125 46.890625 
Q 35.84375 49.953125 35.84375 53.8125 
Q 35.84375 58.9375 32.953125 61.84375 
Q 30.078125 64.75 25.09375 64.75 
Q 20.125 64.75 17 61.859375 
Q 13.875 58.984375 13.875 55.125 
Q 13.875 52.59375 15.15625 50.046875 
Q 16.453125 47.515625 18.84375 45.21875 
z
M 21.484375 31.5 
Q 17.4375 28.078125 15.484375 24.046875 
Q 13.53125 20.015625 13.53125 15.328125 
Q 13.53125 9.03125 16.96875 5.25 
Q 20.40625 1.46875 25.734375 1.46875 
Q 31 1.46875 34.171875 4.4375 
Q 37.359375 7.421875 37.359375 11.671875 
Q 37.359375 15.1875 35.5 17.96875 
Q 32.03125 23.140625 21.484375 31.5 
z
" id="TimesNewRomanPSMT-56"/>
       </defs>
       <use xlink:href="#TimesNewRomanPSMT-48"/>
       <use x="50" xlink:href="#TimesNewRomanPSMT-46"/>
       <use x="75" xlink:href="#TimesNewRomanPSMT-56"/>
      </g>
     </g>
    </g>
    <g id="ytick_6">
     <g id="line2d_15">
      <g>
       <use style="stroke:#000000;stroke-width:0.8;" x="61.403125" xlink:href="#mbcff934676" y="39.568758"/>
      </g>
     </g>
     <g id="text_16">
      <!-- 1.0 -->
      <g transform="translate(29.403125 46.512508)scale(0.2 -0.2)">
       <use xlink:href="#TimesNewRomanPSMT-49"/>
       <use x="50" xlink:href="#TimesNewRomanPSMT-46"/>
       <use x="75" xlink:href="#TimesNewRomanPSMT-48"/>
      </g>
     </g>
    </g>
    <g id="text_17">
     <!-- Probability -->
     <g transform="translate(21.0875 210.207187)rotate(-90)scale(0.2 -0.2)">
      <defs>
       <path d="M 20.515625 31 
L 20.515625 11.71875 
Q 20.515625 5.46875 21.875 3.953125 
Q 23.734375 1.8125 27.484375 1.8125 
L 30.03125 1.8125 
L 30.03125 0 
L 1.65625 0 
L 1.65625 1.8125 
L 4.15625 1.8125 
Q 8.34375 1.8125 10.15625 4.546875 
Q 11.140625 6.0625 11.140625 11.71875 
L 11.140625 54.5 
Q 11.140625 60.75 9.8125 62.25 
Q 7.90625 64.40625 4.15625 64.40625 
L 1.65625 64.40625 
L 1.65625 66.21875 
L 25.921875 66.21875 
Q 34.8125 66.21875 39.9375 64.375 
Q 45.0625 62.546875 48.578125 58.203125 
Q 52.09375 53.859375 52.09375 47.90625 
Q 52.09375 39.796875 46.75 34.71875 
Q 41.40625 29.640625 31.640625 29.640625 
Q 29.25 29.640625 26.46875 29.984375 
Q 23.6875 30.328125 20.515625 31 
z
M 20.515625 33.796875 
Q 23.09375 33.296875 25.09375 33.046875 
Q 27.09375 32.8125 28.515625 32.8125 
Q 33.59375 32.8125 37.28125 36.734375 
Q 40.96875 40.671875 40.96875 46.921875 
Q 40.96875 51.21875 39.203125 54.90625 
Q 37.453125 58.59375 34.21875 60.421875 
Q 31 62.25 26.90625 62.25 
Q 24.421875 62.25 20.515625 61.328125 
z
" id="TimesNewRomanPSMT-80"/>
       <path d="M 16.21875 46.046875 
L 16.21875 35.984375 
Q 21.828125 46.046875 27.734375 46.046875 
Q 30.421875 46.046875 32.171875 44.40625 
Q 33.9375 42.78125 33.9375 40.625 
Q 33.9375 38.71875 32.65625 37.390625 
Q 31.390625 36.078125 29.640625 36.078125 
Q 27.9375 36.078125 25.8125 37.765625 
Q 23.6875 39.453125 22.65625 39.453125 
Q 21.78125 39.453125 20.75 38.484375 
Q 18.5625 36.46875 16.21875 31.890625 
L 16.21875 10.453125 
Q 16.21875 6.734375 17.140625 4.828125 
Q 17.78125 3.515625 19.390625 2.640625 
Q 21 1.765625 24.03125 1.765625 
L 24.03125 0 
L 1.125 0 
L 1.125 1.765625 
Q 4.546875 1.765625 6.203125 2.828125 
Q 7.421875 3.609375 7.90625 5.328125 
Q 8.15625 6.15625 8.15625 10.0625 
L 8.15625 27.390625 
Q 8.15625 35.203125 7.828125 36.6875 
Q 7.515625 38.1875 6.65625 38.859375 
Q 5.8125 39.546875 4.546875 39.546875 
Q 3.03125 39.546875 1.125 38.8125 
L 0.640625 40.578125 
L 14.15625 46.046875 
z
" id="TimesNewRomanPSMT-114"/>
       <path d="M 25 46.046875 
Q 35.15625 46.046875 41.3125 38.328125 
Q 46.53125 31.734375 46.53125 23.1875 
Q 46.53125 17.1875 43.640625 11.03125 
Q 40.765625 4.890625 35.71875 1.75 
Q 30.671875 -1.375 24.46875 -1.375 
Q 14.359375 -1.375 8.40625 6.6875 
Q 3.375 13.484375 3.375 21.921875 
Q 3.375 28.078125 6.421875 34.15625 
Q 9.46875 40.234375 14.453125 43.140625 
Q 19.4375 46.046875 25 46.046875 
z
M 23.484375 42.875 
Q 20.90625 42.875 18.28125 41.328125 
Q 15.671875 39.796875 14.0625 35.9375 
Q 12.453125 32.078125 12.453125 26.03125 
Q 12.453125 16.265625 16.328125 9.171875 
Q 20.21875 2.09375 26.5625 2.09375 
Q 31.296875 2.09375 34.375 6 
Q 37.453125 9.90625 37.453125 19.4375 
Q 37.453125 31.34375 32.328125 38.1875 
Q 28.859375 42.875 23.484375 42.875 
z
" id="TimesNewRomanPSMT-111"/>
       <path d="M 15.375 37.015625 
Q 21.875 46.046875 29.390625 46.046875 
Q 36.28125 46.046875 41.40625 40.15625 
Q 46.53125 34.28125 46.53125 24.078125 
Q 46.53125 12.15625 38.625 4.890625 
Q 31.84375 -1.375 23.484375 -1.375 
Q 19.578125 -1.375 15.546875 0.046875 
Q 11.53125 1.46875 7.328125 4.296875 
L 7.328125 50.640625 
Q 7.328125 58.25 6.953125 60 
Q 6.59375 61.765625 5.8125 62.390625 
Q 5.03125 63.03125 3.859375 63.03125 
Q 2.484375 63.03125 0.4375 62.25 
L -0.25 63.96875 
L 13.1875 69.4375 
L 15.375 69.4375 
z
M 15.375 33.890625 
L 15.375 7.125 
Q 17.875 4.6875 20.53125 3.4375 
Q 23.1875 2.203125 25.984375 2.203125 
Q 30.421875 2.203125 34.25 7.078125 
Q 38.09375 11.96875 38.09375 21.296875 
Q 38.09375 29.890625 34.25 34.5 
Q 30.421875 39.109375 25.53125 39.109375 
Q 22.953125 39.109375 20.359375 37.796875 
Q 18.40625 36.8125 15.375 33.890625 
z
" id="TimesNewRomanPSMT-98"/>
       <path d="M 28.46875 6.453125 
Q 21.578125 1.125 19.828125 0.296875 
Q 17.1875 -0.921875 14.203125 -0.921875 
Q 9.578125 -0.921875 6.5625 2.25 
Q 3.5625 5.421875 3.5625 10.59375 
Q 3.5625 13.875 5.03125 16.265625 
Q 7.03125 19.578125 11.984375 22.5 
Q 16.9375 25.4375 28.46875 29.640625 
L 28.46875 31.390625 
Q 28.46875 38.09375 26.34375 40.578125 
Q 24.21875 43.0625 20.171875 43.0625 
Q 17.09375 43.0625 15.28125 41.40625 
Q 13.421875 39.75 13.421875 37.59375 
L 13.53125 34.765625 
Q 13.53125 32.515625 12.375 31.296875 
Q 11.234375 30.078125 9.375 30.078125 
Q 7.5625 30.078125 6.421875 31.34375 
Q 5.28125 32.625 5.28125 34.8125 
Q 5.28125 39.015625 9.578125 42.53125 
Q 13.875 46.046875 21.625 46.046875 
Q 27.59375 46.046875 31.390625 44.046875 
Q 34.28125 42.53125 35.640625 39.3125 
Q 36.53125 37.203125 36.53125 30.71875 
L 36.53125 15.53125 
Q 36.53125 9.125 36.765625 7.6875 
Q 37.015625 6.25 37.578125 5.765625 
Q 38.140625 5.28125 38.875 5.28125 
Q 39.65625 5.28125 40.234375 5.609375 
Q 41.265625 6.25 44.1875 9.1875 
L 44.1875 6.453125 
Q 38.71875 -0.875 33.734375 -0.875 
Q 31.34375 -0.875 29.921875 0.78125 
Q 28.515625 2.4375 28.46875 6.453125 
z
M 28.46875 9.625 
L 28.46875 26.65625 
Q 21.09375 23.734375 18.953125 22.515625 
Q 15.09375 20.359375 13.421875 18.015625 
Q 11.765625 15.671875 11.765625 12.890625 
Q 11.765625 9.375 13.859375 7.046875 
Q 15.96875 4.734375 18.703125 4.734375 
Q 22.40625 4.734375 28.46875 9.625 
z
" id="TimesNewRomanPSMT-97"/>
       <path d="M 14.5 69.4375 
Q 16.546875 69.4375 17.984375 67.984375 
Q 19.4375 66.546875 19.4375 64.5 
Q 19.4375 62.453125 17.984375 60.984375 
Q 16.546875 59.515625 14.5 59.515625 
Q 12.453125 59.515625 10.984375 60.984375 
Q 9.515625 62.453125 9.515625 64.5 
Q 9.515625 66.546875 10.953125 67.984375 
Q 12.40625 69.4375 14.5 69.4375 
z
M 18.5625 46.046875 
L 18.5625 10.109375 
Q 18.5625 5.90625 19.171875 4.515625 
Q 19.78125 3.125 20.96875 2.4375 
Q 22.171875 1.765625 25.34375 1.765625 
L 25.34375 0 
L 3.609375 0 
L 3.609375 1.765625 
Q 6.890625 1.765625 8 2.390625 
Q 9.125 3.03125 9.78125 4.484375 
Q 10.453125 5.953125 10.453125 10.109375 
L 10.453125 27.34375 
Q 10.453125 34.625 10.015625 36.765625 
Q 9.671875 38.328125 8.9375 38.9375 
Q 8.203125 39.546875 6.9375 39.546875 
Q 5.5625 39.546875 3.609375 38.8125 
L 2.9375 40.578125 
L 16.40625 46.046875 
z
" id="TimesNewRomanPSMT-105"/>
       <path d="M 18.5 69.4375 
L 18.5 10.109375 
Q 18.5 5.90625 19.109375 4.53125 
Q 19.734375 3.171875 21 2.46875 
Q 22.265625 1.765625 25.734375 1.765625 
L 25.734375 0 
L 3.8125 0 
L 3.8125 1.765625 
Q 6.890625 1.765625 8 2.390625 
Q 9.125 3.03125 9.765625 4.484375 
Q 10.40625 5.953125 10.40625 10.109375 
L 10.40625 50.734375 
Q 10.40625 58.296875 10.0625 60.03125 
Q 9.71875 61.765625 8.953125 62.390625 
Q 8.203125 63.03125 7.03125 63.03125 
Q 5.765625 63.03125 3.8125 62.25 
L 2.984375 63.96875 
L 16.3125 69.4375 
z
" id="TimesNewRomanPSMT-108"/>
       <path d="M 16.109375 59.421875 
L 16.109375 44.734375 
L 26.5625 44.734375 
L 26.5625 41.3125 
L 16.109375 41.3125 
L 16.109375 12.3125 
Q 16.109375 7.953125 17.359375 6.4375 
Q 18.609375 4.9375 20.5625 4.9375 
Q 22.171875 4.9375 23.6875 5.9375 
Q 25.203125 6.9375 26.03125 8.890625 
L 27.9375 8.890625 
Q 26.21875 4.109375 23.09375 1.6875 
Q 19.96875 -0.734375 16.65625 -0.734375 
Q 14.40625 -0.734375 12.25 0.515625 
Q 10.109375 1.765625 9.078125 4.078125 
Q 8.0625 6.390625 8.0625 11.234375 
L 8.0625 41.3125 
L 0.984375 41.3125 
L 0.984375 42.921875 
Q 3.65625 44 6.46875 46.5625 
Q 9.28125 49.125 11.46875 52.640625 
Q 12.59375 54.5 14.59375 59.421875 
z
" id="TimesNewRomanPSMT-116"/>
       <path d="M 0.59375 44.734375 
L 21.4375 44.734375 
L 21.4375 42.921875 
L 20.40625 42.921875 
Q 18.21875 42.921875 17.109375 41.96875 
Q 16.015625 41.015625 16.015625 39.59375 
Q 16.015625 37.703125 17.625 34.328125 
L 28.515625 11.765625 
L 38.53125 36.46875 
Q 39.359375 38.484375 39.359375 40.4375 
Q 39.359375 41.3125 39.015625 41.75 
Q 38.625 42.28125 37.796875 42.59375 
Q 36.96875 42.921875 34.859375 42.921875 
L 34.859375 44.734375 
L 49.421875 44.734375 
L 49.421875 42.921875 
Q 47.609375 42.71875 46.625 42.125 
Q 45.65625 41.546875 44.484375 39.9375 
Q 44.046875 39.265625 42.828125 36.1875 
L 24.609375 -8.453125 
Q 21.96875 -14.9375 17.6875 -18.25 
Q 13.421875 -21.578125 9.46875 -21.578125 
Q 6.59375 -21.578125 4.734375 -19.921875 
Q 2.875 -18.265625 2.875 -16.109375 
Q 2.875 -14.0625 4.21875 -12.8125 
Q 5.5625 -11.578125 7.90625 -11.578125 
Q 9.515625 -11.578125 12.3125 -12.640625 
Q 14.265625 -13.375 14.75 -13.375 
Q 16.21875 -13.375 17.9375 -11.859375 
Q 19.671875 -10.359375 21.4375 -6 
L 24.609375 1.765625 
L 8.546875 35.5 
Q 7.8125 37.015625 6.203125 39.265625 
Q 4.984375 40.96875 4.203125 41.546875 
Q 3.078125 42.328125 0.59375 42.921875 
z
" id="TimesNewRomanPSMT-121"/>
      </defs>
      <use xlink:href="#TimesNewRomanPSMT-80"/>
      <use x="55.615234" xlink:href="#TimesNewRomanPSMT-114"/>
      <use x="88.916016" xlink:href="#TimesNewRomanPSMT-111"/>
      <use x="138.916016" xlink:href="#TimesNewRomanPSMT-98"/>
      <use x="188.916016" xlink:href="#TimesNewRomanPSMT-97"/>
      <use x="233.300781" xlink:href="#TimesNewRomanPSMT-98"/>
      <use x="283.300781" xlink:href="#TimesNewRomanPSMT-105"/>
      <use x="311.083984" xlink:href="#TimesNewRomanPSMT-108"/>
      <use x="338.867188" xlink:href="#TimesNewRomanPSMT-105"/>
      <use x="366.650391" xlink:href="#TimesNewRomanPSMT-116"/>
      <use x="394.433594" xlink:href="#TimesNewRomanPSMT-121"/>
     </g>
    </g>
   </g>
   <g id="line2d_16">
    <path clip-path="url(#p73a43896c7)" d="M 92.261735 289.310455 
L 268.076603 289.310455 
L 269.22572 288.02352 
L 270.374837 289.310455 
L 291.058939 289.310455 
L 292.208056 288.02352 
L 293.357173 289.310455 
L 305.997457 289.310455 
L 307.146574 288.02352 
L 308.295691 288.02352 
L 309.444808 289.310455 
L 311.743041 286.736585 
L 312.892158 289.310455 
L 314.041275 289.310455 
L 315.190391 288.02352 
L 316.339508 288.02352 
L 317.488625 289.310455 
L 318.637742 289.310455 
L 319.786859 288.02352 
L 320.935975 288.02352 
L 322.085092 289.310455 
L 323.234209 289.310455 
L 324.383326 286.736585 
L 325.532443 289.310455 
L 326.681559 289.310455 
L 327.830676 284.162716 
L 328.979793 288.02352 
L 330.12891 285.449651 
L 331.278027 289.310455 
L 332.427143 286.736585 
L 333.57626 288.02352 
L 334.725377 288.02352 
L 335.874494 289.310455 
L 337.02361 289.310455 
L 338.172727 285.449651 
L 339.321844 282.875782 
L 342.769194 286.736585 
L 345.067428 281.588847 
L 346.216545 284.162716 
L 348.514778 286.736585 
L 349.663895 281.588847 
L 350.813012 277.728043 
L 351.962129 285.449651 
L 353.111245 279.014978 
L 354.260362 281.588847 
L 356.558596 281.588847 
L 357.707713 280.301913 
L 358.856829 280.301913 
L 360.005946 279.014978 
L 361.155063 273.86724 
L 362.30418 281.588847 
L 363.453297 275.154174 
L 364.602413 267.432517 
L 365.75153 279.014978 
L 366.900647 273.86724 
L 368.049764 267.432517 
L 369.19888 271.293437 
L 370.347997 262.284845 
L 371.497114 266.145599 
L 372.646231 254.563171 
L 373.795348 267.432517 
L 374.944464 242.980744 
L 376.093581 268.719435 
L 377.242698 264.858681 
L 378.391815 251.989335 
L 379.540932 264.858681 
L 380.690048 248.128581 
L 381.839165 248.128581 
L 382.988282 242.980744 
L 384.137399 241.693826 
L 385.286516 233.972317 
L 386.435632 233.972317 
L 387.584749 230.111398 
L 388.733866 236.546154 
L 389.882983 233.972317 
L 391.032099 215.955134 
L 392.181216 226.250644 
L 393.330333 208.233626 
L 394.47945 244.267662 
L 395.628567 231.398316 
L 396.777683 205.659625 
L 397.9268 196.651198 
L 399.075917 204.372706 
L 400.225034 203.085788 
L 401.374151 204.372706 
L 402.523267 203.085788 
L 403.672384 186.355689 
L 404.821501 167.051587 
L 405.970618 188.929525 
L 407.119734 155.46916 
L 408.268851 181.208016 
L 409.417968 174.773261 
L 410.567085 161.903915 
L 411.716202 154.182242 
L 412.865318 155.46916 
L 414.014435 164.477751 
L 415.163552 155.46916 
L 416.312669 147.747651 
L 417.461786 145.173815 
L 418.610902 129.730468 
L 419.760019 159.330079 
L 420.909136 158.043161 
L 422.058253 164.477751 
L 423.20737 137.452142 
L 424.356486 136.165224 
L 425.505603 118.14804 
L 426.65472 145.173815 
L 427.803837 127.156632 
L 428.952953 134.878306 
L 430.10207 125.869714 
L 431.251187 107.852035 
L 432.400304 127.156632 
L 433.549421 120.721215 
L 434.698537 128.44355 
L 435.847654 140.025978 
L 436.996771 132.30447 
L 438.145888 97.557683 
L 439.295005 106.565447 
L 440.444121 110.426863 
L 441.593238 98.84427 
L 442.742355 82.113674 
L 443.891472 82.113674 
L 445.040588 85.975089 
L 446.189705 96.269442 
L 447.338822 84.688502 
L 448.487939 83.400261 
L 449.637056 102.705685 
L 450.786172 116.861453 
L 451.935289 97.557683 
L 453.084406 85.975089 
L 454.233523 88.548264 
L 455.38264 61.523316 
L 456.531756 42.219545 
L 457.680873 100.130857 
L 458.82999 78.253912 
L 459.979107 92.40968 
L 461.128223 83.400261 
L 462.27734 69.244493 
L 463.426457 75.679084 
L 464.575574 51.22731 
L 465.724691 75.679084 
L 466.873807 69.244493 
L 468.022924 101.417444 
L 469.172041 74.392496 
L 470.321158 101.417444 
L 471.470275 101.417444 
L 472.619391 133.591388 
L 473.768508 84.688502 
L 474.917625 131.017552 
L 476.066742 114.286625 
L 477.215859 129.730468 
L 478.364975 107.852035 
L 479.514092 116.861453 
L 480.663209 149.034569 
L 481.812326 145.173815 
L 482.961442 164.477751 
L 484.110559 137.452142 
L 485.259676 147.747651 
L 486.408793 152.895324 
L 487.55791 164.477751 
L 488.707026 179.920933 
L 489.856143 181.208016 
L 491.00526 203.085788 
L 492.154377 163.190833 
L 493.303494 177.347097 
L 494.45261 203.085788 
L 495.601727 214.668216 
L 496.750844 187.642607 
L 497.899961 209.520544 
L 499.049077 217.242052 
L 500.198194 222.38989 
L 501.347311 217.242052 
L 502.496428 236.546154 
L 503.645545 228.82448 
L 504.794661 217.242052 
L 505.943778 231.398316 
L 507.092895 248.128581 
L 508.242012 235.259235 
L 509.391129 227.537562 
L 510.540245 249.415499 
L 511.689362 254.563171 
L 513.987596 244.267662 
L 515.136712 245.554745 
L 516.285829 253.276253 
L 517.434946 249.415499 
L 518.584063 250.702417 
L 519.73318 260.997927 
L 520.882296 245.554745 
L 522.031413 258.424091 
L 523.18053 259.711009 
L 525.478764 270.006353 
L 526.62788 270.006353 
L 527.776997 263.571763 
L 528.926114 275.154174 
L 530.075231 272.580355 
L 531.224348 279.014978 
L 532.373464 276.441109 
L 533.522581 275.154174 
L 534.671698 281.588847 
L 535.820815 276.441109 
L 536.969931 270.006353 
L 538.119048 281.588847 
L 539.268165 280.301913 
L 540.417282 276.441109 
L 541.566399 281.588847 
L 542.715515 280.301913 
L 543.864632 284.162716 
L 545.013749 276.441109 
L 546.162866 285.449651 
L 547.311983 281.588847 
L 548.461099 285.449651 
L 549.610216 288.02352 
L 550.759333 284.162716 
L 551.90845 289.310455 
L 553.057566 282.875782 
L 554.206683 286.736585 
L 555.3558 285.449651 
L 556.504917 289.310455 
L 557.654034 288.02352 
L 562.250501 288.02352 
L 563.399618 289.310455 
L 565.697851 289.310455 
L 566.846968 288.02352 
L 567.996085 288.02352 
L 569.145201 285.449651 
L 570.294318 288.02352 
L 571.443435 289.310455 
L 572.592552 288.02352 
L 573.741669 289.310455 
L 574.890785 288.02352 
L 576.039902 288.02352 
L 577.189019 289.310455 
L 578.338136 288.02352 
L 579.487253 288.02352 
L 580.636369 289.310455 
L 587.53107 289.310455 
L 588.680187 288.02352 
L 589.829304 289.310455 
L 592.127537 289.310455 
L 593.276654 288.02352 
L 594.425771 289.310455 
L 700.144515 289.310455 
L 700.144515 289.310455 
" style="fill:none;stroke:#334f65;stroke-linecap:square;stroke-width:1.5;"/>
   </g>
   <g id="line2d_17">
    <path clip-path="url(#p73a43896c7)" d="M 91.839489 289.310424 
L 300.851109 289.214131 
L 313.056167 288.987636 
L 320.684328 288.658032 
L 326.786857 288.19766 
L 331.363754 287.677416 
L 335.940651 286.948384 
L 340.517547 285.942983 
L 343.568812 285.079034 
L 346.620076 284.027522 
L 349.671341 282.756997 
L 352.722606 281.233039 
L 355.77387 279.418525 
L 358.825135 277.274068 
L 361.876399 274.758619 
L 364.927664 271.830269 
L 367.978928 268.447258 
L 371.030193 264.569171 
L 374.081457 260.158333 
L 377.132722 255.181368 
L 380.183986 249.61089 
L 383.235251 243.427288 
L 386.286515 236.620529 
L 389.33778 229.191925 
L 392.389044 221.155774 
L 395.440309 212.5408 
L 398.491573 203.391289 
L 403.06847 188.801892 
L 407.645367 173.424489 
L 421.376057 126.454807 
L 424.427322 116.742919 
L 427.478586 107.624257 
L 430.529851 99.250185 
L 433.581115 91.764877 
L 435.106748 88.397584 
L 436.63238 85.30121 
L 438.158012 82.489958 
L 439.683644 79.976852 
L 441.209277 77.773639 
L 442.734909 75.8907 
L 444.260541 74.336963 
L 445.786174 73.119834 
L 447.311806 72.245143 
L 448.837438 71.717091 
L 450.36307 71.53822 
L 451.888703 71.709393 
L 453.414335 72.229784 
L 454.939967 73.096888 
L 456.465599 74.30654 
L 457.991232 75.852947 
L 459.516864 77.728734 
L 461.042496 79.925006 
L 462.568128 82.431417 
L 464.093761 85.236245 
L 465.619393 88.326495 
L 468.670657 95.305477 
L 471.721922 103.242788 
L 474.773187 111.99952 
L 477.824451 121.427467 
L 482.401348 136.492016 
L 490.029509 162.791081 
L 496.132038 183.635615 
L 500.708935 198.528453 
L 505.285832 212.442967 
L 508.337096 221.064091 
L 511.388361 229.106793 
L 514.439625 236.542183 
L 517.49089 243.355812 
L 520.542154 249.546234 
L 523.593419 255.123365 
L 526.644683 260.106722 
L 529.695948 264.523616 
L 532.747212 268.407364 
L 535.798477 271.795605 
L 538.849742 274.72873 
L 541.901006 277.248493 
L 544.952271 279.396805 
L 548.003535 281.21473 
L 551.0548 282.741678 
L 554.106064 284.014798 
L 557.157329 285.068542 
L 560.208593 285.934395 
L 564.78549 286.942109 
L 569.362387 287.672904 
L 573.939284 288.194467 
L 580.041813 288.656067 
L 587.669974 288.986606 
L 598.3494 289.197392 
L 616.656987 289.294958 
L 692.9386 289.310454 
L 700.566761 289.310454 
L 700.566761 289.310454 
" style="fill:none;stroke:#0e72cc;stroke-linecap:square;stroke-width:2;"/>
   </g>
   <g id="line2d_18">
    <path clip-path="url(#p73a43896c7)" d="M 91.839489 289.310424 
L 300.851109 289.213231 
L 313.056167 288.984619 
L 320.684328 288.651934 
L 326.786857 288.18726 
L 331.363754 287.662154 
L 335.940651 286.926309 
L 340.517547 285.911511 
L 343.568812 285.039488 
L 346.620076 283.978149 
L 349.671341 282.69575 
L 352.722606 281.157549 
L 355.77387 279.326077 
L 358.825135 277.161579 
L 361.876399 274.62262 
L 364.927664 271.666903 
L 367.978928 268.252275 
L 371.030193 264.337944 
L 374.081457 259.885884 
L 377.132722 254.862404 
L 380.183986 249.239866 
L 383.235251 242.998474 
L 386.286515 236.1281 
L 389.33778 228.630069 
L 392.389044 220.518815 
L 395.440309 211.823327 
L 398.491573 202.588306 
L 403.06847 187.86256 
L 407.645367 172.341443 
L 421.376057 124.932792 
L 424.427322 115.130138 
L 427.478586 105.926255 
L 430.529851 97.473921 
L 433.581115 89.918657 
L 435.106748 86.519894 
L 436.63238 83.394582 
L 438.158012 80.557056 
L 439.683644 78.020463 
L 441.209277 75.79666 
L 442.734909 73.896123 
L 444.260541 72.327864 
L 445.786174 71.099361 
L 447.311806 70.216495 
L 448.837438 69.683508 
L 450.36307 69.502965 
L 451.888703 69.675738 
L 453.414335 70.200993 
L 454.939967 71.076201 
L 456.465599 72.297158 
L 457.991232 73.858017 
L 459.516864 75.751335 
L 461.042496 77.968133 
L 462.568128 80.497968 
L 464.093761 83.32901 
L 465.619393 86.448141 
L 468.670657 93.492347 
L 471.721922 101.503837 
L 474.773187 110.342409 
L 477.824451 119.858467 
L 482.401348 135.063806 
L 490.029509 161.608657 
L 496.132038 182.648 
L 500.708935 197.680023 
L 503.7602 207.168182 
L 506.811464 216.14598 
L 509.862729 224.560366 
L 512.913993 232.374443 
L 515.965258 239.566503 
L 519.016522 246.128719 
L 522.067787 252.065584 
L 525.119051 257.39218 
L 528.170316 262.132366 
L 531.22158 266.31696 
L 534.272845 269.981979 
L 537.324109 273.166987 
L 540.375374 275.913608 
L 543.426638 278.264203 
L 546.477903 280.260762 
L 549.529167 281.943987 
L 552.580432 283.352581 
L 555.631696 284.522722 
L 558.682961 285.487712 
L 561.734225 286.277773 
L 566.311122 287.193231 
L 570.888019 287.853583 
L 576.990548 288.44512 
L 583.093077 288.80953 
L 592.246871 289.100219 
L 605.977561 289.259173 
L 636.490206 289.309056 
L 700.566761 289.310454 
L 700.566761 289.310454 
" style="fill:none;stroke:#6ca30f;stroke-linecap:square;stroke-width:2;"/>
   </g>
   <g id="line2d_19">
    <path clip-path="url(#p73a43896c7)" d="M 91.839489 289.310425 
L 302.376741 289.198832 
L 314.581799 288.941144 
L 322.20996 288.570048 
L 328.312489 288.055689 
L 332.889386 287.477933 
L 337.466283 286.672603 
L 342.04318 285.567916 
L 345.094444 284.62284 
L 348.145709 283.476755 
L 351.196973 282.097009 
L 354.248238 280.448123 
L 357.299502 278.492135 
L 360.350767 276.189114 
L 363.402031 273.497858 
L 366.453296 270.376789 
L 369.50456 266.78504 
L 372.555825 262.683748 
L 375.607089 258.037517 
L 378.658354 252.816034 
L 381.709619 246.995797 
L 384.760883 240.5619 
L 387.812148 233.509808 
L 390.863412 225.847062 
L 393.914677 217.594811 
L 396.965941 208.789098 
L 401.542838 194.66077 
L 406.119735 179.652023 
L 413.747896 153.60011 
L 419.850425 132.959968 
L 424.427322 118.3557 
L 427.478586 109.322259 
L 430.529851 101.026449 
L 433.581115 93.611098 
L 435.106748 90.275275 
L 436.63238 87.207839 
L 438.158012 84.42286 
L 439.683644 81.93324 
L 441.209277 79.750619 
L 442.734909 77.885277 
L 444.260541 76.346061 
L 445.786174 75.140307 
L 447.311806 74.27379 
L 448.837438 73.750673 
L 450.36307 73.573474 
L 451.888703 73.743047 
L 453.414335 74.258575 
L 454.939967 75.117576 
L 456.465599 76.315923 
L 457.991232 77.847877 
L 459.516864 79.706133 
L 461.042496 81.88188 
L 462.568128 84.364865 
L 464.093761 87.143481 
L 465.619393 90.20485 
L 468.670657 97.118608 
L 471.721922 104.981738 
L 474.773187 113.656632 
L 477.824451 122.996467 
L 482.401348 137.920226 
L 490.029509 163.973505 
L 496.132038 184.62323 
L 500.708935 199.376883 
L 505.285832 213.161355 
L 508.337096 221.701908 
L 511.388361 229.669444 
L 514.439625 237.035345 
L 517.49089 243.785295 
L 520.542154 249.917862 
L 523.593419 255.44287 
L 526.644683 260.379655 
L 529.695948 264.755268 
L 532.747212 268.60272 
L 535.798477 271.959295 
L 538.849742 274.865008 
L 541.901006 277.361221 
L 544.952271 279.489456 
L 548.003535 281.290391 
L 551.0548 282.803068 
L 554.106064 284.06429 
L 557.157329 285.108186 
L 560.208593 285.965947 
L 564.78549 286.964243 
L 569.362387 287.688208 
L 573.939284 288.204897 
L 580.041813 288.662183 
L 587.669974 288.989633 
L 598.3494 289.198448 
L 616.656987 289.295103 
L 694.464232 289.310454 
L 700.566761 289.310454 
L 700.566761 289.310454 
" style="fill:none;stroke:#f59311;stroke-linecap:square;stroke-width:2;"/>
   </g>
   <g id="line2d_20">
    <path clip-path="url(#p73a43896c7)" d="M 91.839489 289.310427 
L 302.376741 289.207256 
L 314.581799 288.969017 
L 322.20996 288.625928 
L 328.312489 288.150388 
L 332.889386 287.616237 
L 337.466283 286.871686 
L 342.04318 285.850371 
L 345.094444 284.976622 
L 348.145709 283.917035 
L 351.196973 282.64142 
L 354.248238 281.116978 
L 357.299502 279.308612 
L 360.350767 277.179404 
L 363.402031 274.691262 
L 366.453296 271.805745 
L 369.50456 268.485071 
L 372.555825 264.69331 
L 375.607089 260.397738 
L 378.658354 255.57033 
L 381.709619 250.189356 
L 384.760883 244.241036 
L 387.812148 237.721177 
L 390.863412 230.636752 
L 393.914677 223.007312 
L 396.965941 214.866181 
L 401.542838 201.804143 
L 406.119735 187.928131 
L 413.747896 163.8424 
L 419.850425 144.760005 
L 424.427322 131.257945 
L 427.478586 122.906273 
L 430.529851 115.236563 
L 433.581115 108.38086 
L 436.63238 102.460866 
L 438.158012 99.886074 
L 439.683644 97.584351 
L 441.209277 95.566456 
L 442.734909 93.841895 
L 444.260541 92.418845 
L 445.786174 91.304092 
L 447.311806 90.502973 
L 448.837438 90.019336 
L 450.36307 89.855511 
L 451.888703 90.012286 
L 453.414335 90.488906 
L 454.939967 91.283076 
L 456.465599 92.390982 
L 457.991232 93.807316 
L 459.516864 95.525327 
L 461.042496 97.536867 
L 462.568128 99.832457 
L 464.093761 102.401366 
L 465.619393 105.231688 
L 468.670657 111.623653 
L 471.721922 118.893339 
L 474.773187 126.913524 
L 477.824451 135.548466 
L 482.401348 149.345904 
L 490.029509 173.432898 
L 496.132038 192.524153 
L 500.708935 206.164322 
L 505.285832 218.908457 
L 508.337096 226.80444 
L 511.388361 234.170652 
L 514.439625 240.980636 
L 517.49089 247.221156 
L 520.542154 252.890888 
L 523.593419 257.998914 
L 526.644683 262.563111 
L 529.695948 266.60849 
L 532.747212 270.165568 
L 535.798477 273.268817 
L 538.849742 275.95523 
L 541.901006 278.26305 
L 544.952271 280.230663 
L 548.003535 281.895678 
L 551.0548 283.294192 
L 554.106064 284.460227 
L 557.157329 285.425339 
L 560.208593 286.218362 
L 564.78549 287.141316 
L 569.362387 287.810641 
L 575.464916 288.413866 
L 581.567445 288.788088 
L 590.721238 289.089095 
L 604.451929 289.255672 
L 633.438942 289.308581 
L 700.566761 289.310454 
L 700.566761 289.310454 
" style="fill:none;stroke:#fa4343;stroke-linecap:square;stroke-width:2;"/>
   </g>
   <g id="line2d_21">
    <path clip-path="url(#p73a43896c7)" d="M 91.839489 289.310427 
L 302.376741 289.206203 
L 314.581799 288.965532 
L 322.20996 288.618943 
L 328.312489 288.138551 
L 332.889386 287.598949 
L 337.466283 286.846801 
L 342.04318 285.815064 
L 345.094444 284.932399 
L 348.145709 283.862 
L 351.196973 282.573369 
L 354.248238 281.033371 
L 357.299502 279.206552 
L 360.350767 277.055617 
L 363.402031 274.542086 
L 366.453296 271.627125 
L 369.50456 268.272567 
L 372.555825 264.442115 
L 375.607089 260.102711 
L 378.658354 255.226043 
L 381.709619 249.790162 
L 384.760883 243.781144 
L 387.812148 237.194756 
L 390.863412 230.038041 
L 393.914677 222.330749 
L 396.965941 214.106546 
L 401.542838 200.911221 
L 406.119735 186.893618 
L 413.747896 162.562114 
L 419.850425 143.285 
L 424.427322 129.645165 
L 427.478586 121.208272 
L 430.529851 113.460299 
L 433.581115 106.53464 
L 436.63238 100.554238 
L 438.158012 97.953172 
L 439.683644 95.627962 
L 441.209277 93.589476 
L 442.734909 91.847317 
L 444.260541 90.409747 
L 445.786174 89.283619 
L 447.311806 88.474325 
L 448.837438 87.985753 
L 450.36307 87.820256 
L 451.888703 87.978631 
L 453.414335 88.460115 
L 454.939967 89.262389 
L 456.465599 90.381599 
L 457.991232 91.812386 
L 459.516864 93.547928 
L 461.042496 95.579993 
L 462.568128 97.899008 
L 464.093761 100.49413 
L 465.619393 103.353333 
L 468.670657 109.810522 
L 471.721922 117.154389 
L 474.773187 125.256413 
L 477.824451 133.979466 
L 482.401348 147.917694 
L 490.029509 172.250474 
L 496.132038 191.536538 
L 500.708935 205.315892 
L 505.285832 218.190069 
L 508.337096 226.166623 
L 511.388361 233.608001 
L 514.439625 240.487475 
L 517.49089 246.791673 
L 520.542154 252.519259 
L 523.593419 257.679409 
L 526.644683 262.290179 
L 529.695948 266.376837 
L 532.747212 269.970212 
L 535.798477 273.105126 
L 538.849742 275.818952 
L 541.901006 278.150322 
L 544.952271 280.138012 
L 548.003535 281.820018 
L 551.0548 283.232802 
L 554.106064 284.410735 
L 557.157329 285.385695 
L 560.208593 286.186811 
L 564.78549 287.119181 
L 569.362387 287.795337 
L 575.464916 288.404717 
L 581.567445 288.782758 
L 590.721238 289.086836 
L 604.451929 289.255113 
L 633.438942 289.308562 
L 700.566761 289.310454 
L 700.566761 289.310454 
" style="fill:none;stroke:#d12a6a;stroke-linecap:square;stroke-width:2;"/>
   </g>
   <g id="line2d_22">
    <path clip-path="url(#p73a43896c7)" d="M 92.261735 289.310455 
L 305.997457 289.210805 
L 317.488625 288.990893 
L 325.532443 288.6283 
L 331.278027 288.171393 
L 335.874494 287.623367 
L 340.470961 286.849948 
L 343.918311 286.077939 
L 347.365662 285.100418 
L 350.813012 283.874692 
L 354.260362 282.352777 
L 356.558596 281.147663 
L 358.856829 279.7707 
L 361.155063 278.204399 
L 363.453297 276.430729 
L 365.75153 274.431326 
L 368.049764 272.187744 
L 370.347997 269.681749 
L 372.646231 266.895651 
L 374.944464 263.812677 
L 377.242698 260.417374 
L 379.540932 256.696047 
L 381.839165 252.637215 
L 384.137399 248.232087 
L 386.435632 243.475036 
L 389.882983 235.676357 
L 393.330333 227.093316 
L 396.777683 217.760663 
L 400.225034 207.739415 
L 403.672384 197.118525 
L 408.268851 182.231722 
L 424.356486 129.189084 
L 427.803837 119.011811 
L 430.10207 112.723911 
L 432.400304 106.909062 
L 434.698537 101.62837 
L 436.996771 96.938564 
L 439.295005 92.890985 
L 441.593238 89.530651 
L 442.742355 88.120334 
L 443.891472 86.895426 
L 445.040588 85.859427 
L 446.189705 85.015306 
L 447.338822 84.365492 
L 448.487939 83.911856 
L 449.637056 83.655708 
L 450.786172 83.597791 
L 451.935289 83.738271 
L 453.084406 84.076741 
L 454.233523 84.612224 
L 455.38264 85.343174 
L 456.531756 86.267486 
L 457.680873 87.382506 
L 458.82999 88.685041 
L 461.128223 91.837301 
L 463.426457 95.688631 
L 465.724691 100.196022 
L 468.022924 105.309885 
L 470.321158 110.974961 
L 472.619391 117.131314 
L 476.066742 127.147223 
L 479.514092 137.900814 
L 484.110559 152.991529 
L 496.750844 194.99161 
L 501.347311 209.167936 
L 504.794661 219.098316 
L 508.242012 228.329994 
L 511.689362 236.805718 
L 515.136712 244.494201 
L 517.434946 249.17772 
L 519.73318 253.510203 
L 522.031413 257.497974 
L 524.329647 261.150425 
L 526.62788 264.479534 
L 528.926114 267.499401 
L 531.224348 270.225787 
L 533.522581 272.675689 
L 535.820815 274.86694 
L 538.119048 276.817843 
L 540.417282 278.546851 
L 542.715515 280.072278 
L 545.013749 281.412057 
L 548.461099 283.111395 
L 551.90845 284.487181 
L 555.3558 285.590075 
L 558.80315 286.465588 
L 563.399618 287.347866 
L 567.996085 287.977262 
L 573.741669 288.505918 
L 580.636369 288.885342 
L 589.829304 289.138406 
L 604.767822 289.275775 
L 643.837793 289.310211 
L 700.144515 289.310455 
L 700.144515 289.310455 
" style="fill:none;stroke:#0000ff;stroke-dasharray:9.6,2.4,1.5,2.4;stroke-dashoffset:0;stroke-width:1.5;"/>
    <defs>
     <path d="M 0 -3 
L -0.673542 -0.927051 
L -2.85317 -0.927051 
L -1.089814 0.354102 
L -1.763356 2.427051 
L -0 1.145898 
L 1.763356 2.427051 
L 1.089814 0.354102 
L 2.85317 -0.927051 
L 0.673542 -0.927051 
z
" id="m8d7fc79a2d" style="stroke:#0000ff;stroke-linejoin:bevel;"/>
    </defs>
    <g clip-path="url(#p73a43896c7)">
     <use style="fill:#0000ff;stroke:#0000ff;stroke-linejoin:bevel;" x="92.261735" xlink:href="#m8d7fc79a2d" y="289.310455"/>
     <use style="fill:#0000ff;stroke:#0000ff;stroke-linejoin:bevel;" x="115.244071" xlink:href="#m8d7fc79a2d" y="289.310455"/>
     <use style="fill:#0000ff;stroke:#0000ff;stroke-linejoin:bevel;" x="138.226406" xlink:href="#m8d7fc79a2d" y="289.310455"/>
     <use style="fill:#0000ff;stroke:#0000ff;stroke-linejoin:bevel;" x="161.208742" xlink:href="#m8d7fc79a2d" y="289.310455"/>
     <use style="fill:#0000ff;stroke:#0000ff;stroke-linejoin:bevel;" x="184.191078" xlink:href="#m8d7fc79a2d" y="289.310455"/>
     <use style="fill:#0000ff;stroke:#0000ff;stroke-linejoin:bevel;" x="207.173413" xlink:href="#m8d7fc79a2d" y="289.310454"/>
     <use style="fill:#0000ff;stroke:#0000ff;stroke-linejoin:bevel;" x="230.155749" xlink:href="#m8d7fc79a2d" y="289.31045"/>
     <use style="fill:#0000ff;stroke:#0000ff;stroke-linejoin:bevel;" x="253.138085" xlink:href="#m8d7fc79a2d" y="289.310319"/>
     <use style="fill:#0000ff;stroke:#0000ff;stroke-linejoin:bevel;" x="276.120421" xlink:href="#m8d7fc79a2d" y="289.307388"/>
     <use style="fill:#0000ff;stroke:#0000ff;stroke-linejoin:bevel;" x="299.102756" xlink:href="#m8d7fc79a2d" y="289.26317"/>
     <use style="fill:#0000ff;stroke:#0000ff;stroke-linejoin:bevel;" x="322.085092" xlink:href="#m8d7fc79a2d" y="288.814712"/>
     <use style="fill:#0000ff;stroke:#0000ff;stroke-linejoin:bevel;" x="345.067428" xlink:href="#m8d7fc79a2d" y="285.776931"/>
     <use style="fill:#0000ff;stroke:#0000ff;stroke-linejoin:bevel;" x="368.049764" xlink:href="#m8d7fc79a2d" y="272.187744"/>
     <use style="fill:#0000ff;stroke:#0000ff;stroke-linejoin:bevel;" x="391.032099" xlink:href="#m8d7fc79a2d" y="232.901295"/>
     <use style="fill:#0000ff;stroke:#0000ff;stroke-linejoin:bevel;" x="414.014435" xlink:href="#m8d7fc79a2d" y="162.970904"/>
     <use style="fill:#0000ff;stroke:#0000ff;stroke-linejoin:bevel;" x="436.996771" xlink:href="#m8d7fc79a2d" y="96.938564"/>
     <use style="fill:#0000ff;stroke:#0000ff;stroke-linejoin:bevel;" x="459.979107" xlink:href="#m8d7fc79a2d" y="90.171378"/>
     <use style="fill:#0000ff;stroke:#0000ff;stroke-linejoin:bevel;" x="482.961442" xlink:href="#m8d7fc79a2d" y="149.163408"/>
     <use style="fill:#0000ff;stroke:#0000ff;stroke-linejoin:bevel;" x="505.943778" xlink:href="#m8d7fc79a2d" y="222.256561"/>
     <use style="fill:#0000ff;stroke:#0000ff;stroke-linejoin:bevel;" x="528.926114" xlink:href="#m8d7fc79a2d" y="267.499401"/>
     <use style="fill:#0000ff;stroke:#0000ff;stroke-linejoin:bevel;" x="551.90845" xlink:href="#m8d7fc79a2d" y="284.487181"/>
     <use style="fill:#0000ff;stroke:#0000ff;stroke-linejoin:bevel;" x="574.890785" xlink:href="#m8d7fc79a2d" y="288.585318"/>
     <use style="fill:#0000ff;stroke:#0000ff;stroke-linejoin:bevel;" x="597.873121" xlink:href="#m8d7fc79a2d" y="289.236339"/>
     <use style="fill:#0000ff;stroke:#0000ff;stroke-linejoin:bevel;" x="620.855457" xlink:href="#m8d7fc79a2d" y="289.305304"/>
     <use style="fill:#0000ff;stroke:#0000ff;stroke-linejoin:bevel;" x="643.837793" xlink:href="#m8d7fc79a2d" y="289.310211"/>
     <use style="fill:#0000ff;stroke:#0000ff;stroke-linejoin:bevel;" x="666.820128" xlink:href="#m8d7fc79a2d" y="289.310447"/>
     <use style="fill:#0000ff;stroke:#0000ff;stroke-linejoin:bevel;" x="689.802464" xlink:href="#m8d7fc79a2d" y="289.310454"/>
    </g>
   </g>
   <g id="patch_3">
    <path d="M 61.403125 301.665 
L 61.403125 29.865 
" style="fill:none;stroke:#000000;stroke-linecap:square;stroke-linejoin:miter;stroke-width:0.8;"/>
   </g>
   <g id="patch_4">
    <path d="M 731.003125 301.665 
L 731.003125 29.865 
" style="fill:none;stroke:#000000;stroke-linecap:square;stroke-linejoin:miter;stroke-width:0.8;"/>
   </g>
   <g id="patch_5">
    <path d="M 61.403125 301.665 
L 731.003125 301.665 
" style="fill:none;stroke:#000000;stroke-linecap:square;stroke-linejoin:miter;stroke-width:0.8;"/>
   </g>
   <g id="patch_6">
    <path d="M 61.403125 29.865 
L 731.003125 29.865 
" style="fill:none;stroke:#000000;stroke-linecap:square;stroke-linejoin:miter;stroke-width:0.8;"/>
   </g>
   <g id="text_18">
    <!-- Velocity Distribution -->
    <g transform="translate(295.215625 23.865)scale(0.24 -0.24)">
     <defs>
      <path d="M 71 66.21875 
L 71 64.40625 
Q 67.484375 63.765625 65.671875 62.15625 
Q 63.09375 59.765625 61.078125 54.828125 
L 37.984375 -1.515625 
L 36.1875 -1.515625 
L 11.375 55.5625 
Q 9.46875 59.96875 8.6875 60.9375 
Q 7.46875 62.453125 5.6875 63.296875 
Q 3.90625 64.15625 0.875 64.40625 
L 0.875 66.21875 
L 27.9375 66.21875 
L 27.9375 64.40625 
Q 23.34375 63.96875 21.96875 62.84375 
Q 20.609375 61.71875 20.609375 59.96875 
Q 20.609375 57.515625 22.859375 52.34375 
L 39.703125 13.53125 
L 55.328125 51.859375 
Q 57.625 57.515625 57.625 59.71875 
Q 57.625 61.140625 56.203125 62.421875 
Q 54.78125 63.71875 51.421875 64.265625 
Q 51.171875 64.3125 50.59375 64.40625 
L 50.59375 66.21875 
z
" id="TimesNewRomanPSMT-86"/>
      <path d="M 10.640625 27.875 
Q 10.59375 17.921875 15.484375 12.25 
Q 20.359375 6.59375 26.953125 6.59375 
Q 31.34375 6.59375 34.59375 9 
Q 37.84375 11.421875 40.046875 17.28125 
L 41.546875 16.3125 
Q 40.53125 9.625 35.59375 4.125 
Q 30.671875 -1.375 23.25 -1.375 
Q 15.1875 -1.375 9.453125 4.90625 
Q 3.71875 11.1875 3.71875 21.78125 
Q 3.71875 33.25 9.59375 39.671875 
Q 15.484375 46.09375 24.359375 46.09375 
Q 31.890625 46.09375 36.71875 41.140625 
Q 41.546875 36.1875 41.546875 27.875 
z
M 10.640625 30.71875 
L 31.34375 30.71875 
Q 31.109375 35.015625 30.328125 36.765625 
Q 29.109375 39.5 26.6875 41.0625 
Q 24.265625 42.625 21.625 42.625 
Q 17.578125 42.625 14.375 39.46875 
Q 11.1875 36.328125 10.640625 30.71875 
z
" id="TimesNewRomanPSMT-101"/>
      <path d="M 41.109375 17 
Q 39.3125 8.15625 34.03125 3.390625 
Q 28.765625 -1.375 22.359375 -1.375 
Q 14.75 -1.375 9.078125 5.015625 
Q 3.421875 11.421875 3.421875 22.3125 
Q 3.421875 32.859375 9.6875 39.453125 
Q 15.96875 46.046875 24.75 46.046875 
Q 31.34375 46.046875 35.59375 42.546875 
Q 39.84375 39.0625 39.84375 35.296875 
Q 39.84375 33.453125 38.640625 32.296875 
Q 37.453125 31.15625 35.296875 31.15625 
Q 32.421875 31.15625 30.953125 33.015625 
Q 30.125 34.03125 29.859375 36.90625 
Q 29.59375 39.796875 27.875 41.3125 
Q 26.171875 42.78125 23.140625 42.78125 
Q 18.265625 42.78125 15.28125 39.15625 
Q 11.328125 34.375 11.328125 26.515625 
Q 11.328125 18.5 15.25 12.375 
Q 19.1875 6.25 25.875 6.25 
Q 30.671875 6.25 34.46875 9.515625 
Q 37.15625 11.765625 39.703125 17.671875 
z
" id="TimesNewRomanPSMT-99"/>
      <path id="TimesNewRomanPSMT-32"/>
      <path d="M 1.703125 0 
L 1.703125 1.8125 
L 4.203125 1.8125 
Q 8.40625 1.8125 10.15625 4.5 
Q 11.234375 6.109375 11.234375 11.71875 
L 11.234375 54.5 
Q 11.234375 60.6875 9.859375 62.25 
Q 7.953125 64.40625 4.203125 64.40625 
L 1.703125 64.40625 
L 1.703125 66.21875 
L 28.65625 66.21875 
Q 43.5 66.21875 51.234375 62.84375 
Q 58.984375 59.46875 63.6875 51.609375 
Q 68.40625 43.75 68.40625 33.453125 
Q 68.40625 19.625 60.015625 10.359375 
Q 50.59375 0 31.296875 0 
z
M 20.609375 4.78125 
Q 26.8125 3.421875 31 3.421875 
Q 42.328125 3.421875 49.796875 11.375 
Q 57.28125 19.34375 57.28125 32.953125 
Q 57.28125 46.6875 49.796875 54.59375 
Q 42.328125 62.5 30.609375 62.5 
Q 26.21875 62.5 20.609375 61.078125 
z
" id="TimesNewRomanPSMT-68"/>
      <path d="M 32.03125 46.046875 
L 32.03125 30.8125 
L 30.421875 30.8125 
Q 28.5625 37.984375 25.65625 40.578125 
Q 22.75 43.171875 18.265625 43.171875 
Q 14.84375 43.171875 12.734375 41.359375 
Q 10.640625 39.546875 10.640625 37.359375 
Q 10.640625 34.625 12.203125 32.671875 
Q 13.71875 30.671875 18.359375 28.421875 
L 25.484375 24.953125 
Q 35.40625 20.125 35.40625 12.203125 
Q 35.40625 6.109375 30.78125 2.359375 
Q 26.171875 -1.375 20.453125 -1.375 
Q 16.359375 -1.375 11.078125 0.09375 
Q 9.46875 0.59375 8.453125 0.59375 
Q 7.328125 0.59375 6.6875 -0.6875 
L 5.078125 -0.6875 
L 5.078125 15.28125 
L 6.6875 15.28125 
Q 8.0625 8.453125 11.90625 4.984375 
Q 15.765625 1.515625 20.5625 1.515625 
Q 23.921875 1.515625 26.046875 3.484375 
Q 28.171875 5.46875 28.171875 8.25 
Q 28.171875 11.625 25.796875 13.921875 
Q 23.4375 16.21875 16.359375 19.734375 
Q 9.28125 23.25 7.078125 26.078125 
Q 4.890625 28.859375 4.890625 33.109375 
Q 4.890625 38.625 8.671875 42.328125 
Q 12.453125 46.046875 18.453125 46.046875 
Q 21.09375 46.046875 24.859375 44.921875 
Q 27.34375 44.1875 28.171875 44.1875 
Q 28.953125 44.1875 29.390625 44.53125 
Q 29.828125 44.875 30.421875 46.046875 
z
" id="TimesNewRomanPSMT-115"/>
      <path d="M 42.328125 44.734375 
L 42.328125 17.625 
Q 42.328125 9.859375 42.6875 8.125 
Q 43.0625 6.390625 43.859375 5.703125 
Q 44.671875 5.03125 45.75 5.03125 
Q 47.265625 5.03125 49.171875 5.859375 
L 49.859375 4.15625 
L 36.46875 -1.375 
L 34.28125 -1.375 
L 34.28125 8.109375 
Q 28.515625 1.859375 25.484375 0.234375 
Q 22.46875 -1.375 19.09375 -1.375 
Q 15.328125 -1.375 12.5625 0.796875 
Q 9.8125 2.984375 8.734375 6.390625 
Q 7.671875 9.8125 7.671875 16.0625 
L 7.671875 36.03125 
Q 7.671875 39.203125 6.984375 40.421875 
Q 6.296875 41.65625 4.953125 42.3125 
Q 3.609375 42.96875 0.09375 42.921875 
L 0.09375 44.734375 
L 15.765625 44.734375 
L 15.765625 14.796875 
Q 15.765625 8.546875 17.9375 6.59375 
Q 20.125 4.640625 23.1875 4.640625 
Q 25.296875 4.640625 27.953125 5.953125 
Q 30.609375 7.28125 34.28125 10.984375 
L 34.28125 36.328125 
Q 34.28125 40.140625 32.890625 41.484375 
Q 31.5 42.828125 27.09375 42.921875 
L 27.09375 44.734375 
z
" id="TimesNewRomanPSMT-117"/>
      <path d="M 16.15625 36.578125 
Q 24.03125 46.046875 31.15625 46.046875 
Q 34.8125 46.046875 37.453125 44.21875 
Q 40.09375 42.390625 41.65625 38.1875 
Q 42.71875 35.25 42.71875 29.203125 
L 42.71875 10.109375 
Q 42.71875 5.859375 43.40625 4.34375 
Q 43.953125 3.125 45.140625 2.4375 
Q 46.34375 1.765625 49.5625 1.765625 
L 49.5625 0 
L 27.4375 0 
L 27.4375 1.765625 
L 28.375 1.765625 
Q 31.5 1.765625 32.734375 2.703125 
Q 33.984375 3.65625 34.46875 5.515625 
Q 34.671875 6.25 34.671875 10.109375 
L 34.671875 28.421875 
Q 34.671875 34.515625 33.078125 37.28125 
Q 31.5 40.046875 27.734375 40.046875 
Q 21.921875 40.046875 16.15625 33.6875 
L 16.15625 10.109375 
Q 16.15625 5.5625 16.703125 4.5 
Q 17.390625 3.078125 18.578125 2.421875 
Q 19.78125 1.765625 23.4375 1.765625 
L 23.4375 0 
L 1.3125 0 
L 1.3125 1.765625 
L 2.296875 1.765625 
Q 5.71875 1.765625 6.90625 3.484375 
Q 8.109375 5.21875 8.109375 10.109375 
L 8.109375 26.703125 
Q 8.109375 34.765625 7.734375 36.515625 
Q 7.375 38.28125 6.609375 38.90625 
Q 5.859375 39.546875 4.59375 39.546875 
Q 3.21875 39.546875 1.3125 38.8125 
L 0.59375 40.578125 
L 14.0625 46.046875 
L 16.15625 46.046875 
z
" id="TimesNewRomanPSMT-110"/>
     </defs>
     <use xlink:href="#TimesNewRomanPSMT-86"/>
     <use x="61.091797" xlink:href="#TimesNewRomanPSMT-101"/>
     <use x="105.476562" xlink:href="#TimesNewRomanPSMT-108"/>
     <use x="133.259766" xlink:href="#TimesNewRomanPSMT-111"/>
     <use x="183.259766" xlink:href="#TimesNewRomanPSMT-99"/>
     <use x="227.644531" xlink:href="#TimesNewRomanPSMT-105"/>
     <use x="255.427734" xlink:href="#TimesNewRomanPSMT-116"/>
     <use x="283.210938" xlink:href="#TimesNewRomanPSMT-121"/>
     <use x="333.210938" xlink:href="#TimesNewRomanPSMT-32"/>
     <use x="358.210938" xlink:href="#TimesNewRomanPSMT-68"/>
     <use x="430.427734" xlink:href="#TimesNewRomanPSMT-105"/>
     <use x="458.210938" xlink:href="#TimesNewRomanPSMT-115"/>
     <use x="497.126953" xlink:href="#TimesNewRomanPSMT-116"/>
     <use x="524.910156" xlink:href="#TimesNewRomanPSMT-114"/>
     <use x="558.210938" xlink:href="#TimesNewRomanPSMT-105"/>
     <use x="585.994141" xlink:href="#TimesNewRomanPSMT-98"/>
     <use x="635.994141" xlink:href="#TimesNewRomanPSMT-117"/>
     <use x="685.994141" xlink:href="#TimesNewRomanPSMT-116"/>
     <use x="713.777344" xlink:href="#TimesNewRomanPSMT-105"/>
     <use x="741.560547" xlink:href="#TimesNewRomanPSMT-111"/>
     <use x="791.560547" xlink:href="#TimesNewRomanPSMT-110"/>
    </g>
   </g>
   <g id="legend_1">
    <g id="patch_7">
     <path d="M 553.37125 222.450937 
L 718.403125 222.450937 
Q 722.003125 222.450937 722.003125 218.850937 
L 722.003125 42.465 
Q 722.003125 38.865 718.403125 38.865 
L 553.37125 38.865 
Q 549.77125 38.865 549.77125 42.465 
L 549.77125 218.850937 
Q 549.77125 222.450937 553.37125 222.450937 
z
" style="fill:#ffffff;opacity:0.8;stroke:#cccccc;stroke-linejoin:miter;"/>
    </g>
    <g id="line2d_23">
     <path d="M 556.97125 52.365 
L 592.97125 52.365 
" style="fill:none;stroke:#334f65;stroke-linecap:square;stroke-width:1.5;"/>
    </g>
    <g id="line2d_24"/>
    <g id="text_19">
     <!-- Training set -->
     <g transform="translate(607.37125 58.665)scale(0.18 -0.18)">
      <defs>
       <path d="M 57.859375 66.21875 
L 58.59375 50.6875 
L 56.734375 50.6875 
Q 56.203125 54.78125 55.28125 56.546875 
Q 53.765625 59.375 51.25 60.71875 
Q 48.734375 62.0625 44.625 62.0625 
L 35.296875 62.0625 
L 35.296875 11.46875 
Q 35.296875 5.375 36.625 3.859375 
Q 38.484375 1.8125 42.328125 1.8125 
L 44.625 1.8125 
L 44.625 0 
L 16.546875 0 
L 16.546875 1.8125 
L 18.890625 1.8125 
Q 23.09375 1.8125 24.859375 4.34375 
Q 25.921875 5.90625 25.921875 11.46875 
L 25.921875 62.0625 
L 17.96875 62.0625 
Q 13.328125 62.0625 11.375 61.375 
Q 8.84375 60.453125 7.03125 57.8125 
Q 5.21875 55.171875 4.890625 50.6875 
L 3.03125 50.6875 
L 3.8125 66.21875 
z
" id="TimesNewRomanPSMT-84"/>
       <path d="M 15.09375 16.3125 
Q 10.984375 18.3125 8.78125 21.890625 
Q 6.59375 25.484375 6.59375 29.828125 
Q 6.59375 36.46875 11.59375 41.25 
Q 16.609375 46.046875 24.421875 46.046875 
Q 30.8125 46.046875 35.5 42.921875 
L 44.96875 42.921875 
Q 47.078125 42.921875 47.40625 42.796875 
Q 47.75 42.671875 47.90625 42.390625 
Q 48.1875 41.9375 48.1875 40.828125 
Q 48.1875 39.546875 47.953125 39.0625 
Q 47.796875 38.8125 47.4375 38.671875 
Q 47.078125 38.53125 44.96875 38.53125 
L 39.15625 38.53125 
Q 41.890625 35.015625 41.890625 29.546875 
Q 41.890625 23.296875 37.109375 18.84375 
Q 32.328125 14.40625 24.265625 14.40625 
Q 20.953125 14.40625 17.484375 15.375 
Q 15.328125 13.53125 14.5625 12.140625 
Q 13.8125 10.75 13.8125 9.765625 
Q 13.8125 8.9375 14.625 8.15625 
Q 15.4375 7.375 17.78125 7.03125 
Q 19.140625 6.84375 24.609375 6.6875 
Q 34.671875 6.453125 37.640625 6 
Q 42.1875 5.375 44.890625 2.640625 
Q 47.609375 -0.09375 47.609375 -4.109375 
Q 47.609375 -9.625 42.4375 -14.453125 
Q 34.8125 -21.578125 22.5625 -21.578125 
Q 13.140625 -21.578125 6.640625 -17.328125 
Q 2.984375 -14.890625 2.984375 -12.25 
Q 2.984375 -11.078125 3.515625 -9.90625 
Q 4.34375 -8.109375 6.9375 -4.890625 
Q 7.28125 -4.4375 11.921875 0.390625 
Q 9.375 1.90625 8.328125 3.09375 
Q 7.28125 4.296875 7.28125 5.8125 
Q 7.28125 7.515625 8.671875 9.8125 
Q 10.0625 12.109375 15.09375 16.3125 
z
M 23.578125 43.703125 
Q 19.96875 43.703125 17.53125 40.8125 
Q 15.09375 37.9375 15.09375 31.984375 
Q 15.09375 24.265625 18.40625 20.015625 
Q 20.953125 16.796875 24.859375 16.796875 
Q 28.5625 16.796875 30.953125 19.578125 
Q 33.34375 22.359375 33.34375 28.328125 
Q 33.34375 36.078125 29.984375 40.484375 
Q 27.484375 43.703125 23.578125 43.703125 
z
M 14.59375 0 
Q 12.3125 -2.484375 11.140625 -4.625 
Q 9.96875 -6.78125 9.96875 -8.59375 
Q 9.96875 -10.9375 12.796875 -12.703125 
Q 17.671875 -15.71875 26.90625 -15.71875 
Q 35.6875 -15.71875 39.859375 -12.609375 
Q 44.046875 -9.515625 44.046875 -6 
Q 44.046875 -3.46875 41.546875 -2.390625 
Q 39.015625 -1.3125 31.5 -1.125 
Q 20.515625 -0.828125 14.59375 0 
z
" id="TimesNewRomanPSMT-103"/>
      </defs>
      <use xlink:href="#TimesNewRomanPSMT-84"/>
      <use x="57.583984" xlink:href="#TimesNewRomanPSMT-114"/>
      <use x="90.884766" xlink:href="#TimesNewRomanPSMT-97"/>
      <use x="135.269531" xlink:href="#TimesNewRomanPSMT-105"/>
      <use x="163.052734" xlink:href="#TimesNewRomanPSMT-110"/>
      <use x="213.052734" xlink:href="#TimesNewRomanPSMT-105"/>
      <use x="240.835938" xlink:href="#TimesNewRomanPSMT-110"/>
      <use x="290.835938" xlink:href="#TimesNewRomanPSMT-103"/>
      <use x="340.835938" xlink:href="#TimesNewRomanPSMT-32"/>
      <use x="365.835938" xlink:href="#TimesNewRomanPSMT-115"/>
      <use x="404.751953" xlink:href="#TimesNewRomanPSMT-101"/>
      <use x="449.136719" xlink:href="#TimesNewRomanPSMT-116"/>
     </g>
    </g>
    <g id="line2d_25">
     <path d="M 556.97125 77.849062 
L 592.97125 77.849062 
" style="fill:none;stroke:#0e72cc;stroke-linecap:square;stroke-width:2;"/>
    </g>
    <g id="line2d_26"/>
    <g id="text_20">
     <!-- Iteration 1 -->
     <g transform="translate(607.37125 84.149062)scale(0.18 -0.18)">
      <defs>
       <path d="M 30.859375 1.8125 
L 30.859375 0 
L 2.484375 0 
L 2.484375 1.8125 
L 4.828125 1.8125 
Q 8.9375 1.8125 10.796875 4.203125 
Q 11.96875 5.765625 11.96875 11.71875 
L 11.96875 54.5 
Q 11.96875 59.515625 11.328125 61.140625 
Q 10.84375 62.359375 9.328125 63.234375 
Q 7.171875 64.40625 4.828125 64.40625 
L 2.484375 64.40625 
L 2.484375 66.21875 
L 30.859375 66.21875 
L 30.859375 64.40625 
L 28.46875 64.40625 
Q 24.421875 64.40625 22.5625 62.015625 
Q 21.34375 60.453125 21.34375 54.5 
L 21.34375 11.71875 
Q 21.34375 6.6875 21.96875 5.078125 
Q 22.46875 3.859375 24.03125 2.984375 
Q 26.125 1.8125 28.46875 1.8125 
z
" id="TimesNewRomanPSMT-73"/>
      </defs>
      <use xlink:href="#TimesNewRomanPSMT-73"/>
      <use x="33.300781" xlink:href="#TimesNewRomanPSMT-116"/>
      <use x="61.083984" xlink:href="#TimesNewRomanPSMT-101"/>
      <use x="105.46875" xlink:href="#TimesNewRomanPSMT-114"/>
      <use x="138.769531" xlink:href="#TimesNewRomanPSMT-97"/>
      <use x="183.154297" xlink:href="#TimesNewRomanPSMT-116"/>
      <use x="210.9375" xlink:href="#TimesNewRomanPSMT-105"/>
      <use x="238.720703" xlink:href="#TimesNewRomanPSMT-111"/>
      <use x="288.720703" xlink:href="#TimesNewRomanPSMT-110"/>
      <use x="338.720703" xlink:href="#TimesNewRomanPSMT-32"/>
      <use x="363.720703" xlink:href="#TimesNewRomanPSMT-49"/>
     </g>
    </g>
    <g id="line2d_27">
     <path d="M 556.97125 103.299375 
L 592.97125 103.299375 
" style="fill:none;stroke:#6ca30f;stroke-linecap:square;stroke-width:2;"/>
    </g>
    <g id="line2d_28"/>
    <g id="text_21">
     <!-- Iteration 2 -->
     <g transform="translate(607.37125 109.599375)scale(0.18 -0.18)">
      <use xlink:href="#TimesNewRomanPSMT-73"/>
      <use x="33.300781" xlink:href="#TimesNewRomanPSMT-116"/>
      <use x="61.083984" xlink:href="#TimesNewRomanPSMT-101"/>
      <use x="105.46875" xlink:href="#TimesNewRomanPSMT-114"/>
      <use x="138.769531" xlink:href="#TimesNewRomanPSMT-97"/>
      <use x="183.154297" xlink:href="#TimesNewRomanPSMT-116"/>
      <use x="210.9375" xlink:href="#TimesNewRomanPSMT-105"/>
      <use x="238.720703" xlink:href="#TimesNewRomanPSMT-111"/>
      <use x="288.720703" xlink:href="#TimesNewRomanPSMT-110"/>
      <use x="338.720703" xlink:href="#TimesNewRomanPSMT-32"/>
      <use x="363.720703" xlink:href="#TimesNewRomanPSMT-50"/>
     </g>
    </g>
    <g id="line2d_29">
     <path d="M 556.97125 128.749687 
L 592.97125 128.749687 
" style="fill:none;stroke:#f59311;stroke-linecap:square;stroke-width:2;"/>
    </g>
    <g id="line2d_30"/>
    <g id="text_22">
     <!-- Iteration 3 -->
     <g transform="translate(607.37125 135.049687)scale(0.18 -0.18)">
      <use xlink:href="#TimesNewRomanPSMT-73"/>
      <use x="33.300781" xlink:href="#TimesNewRomanPSMT-116"/>
      <use x="61.083984" xlink:href="#TimesNewRomanPSMT-101"/>
      <use x="105.46875" xlink:href="#TimesNewRomanPSMT-114"/>
      <use x="138.769531" xlink:href="#TimesNewRomanPSMT-97"/>
      <use x="183.154297" xlink:href="#TimesNewRomanPSMT-116"/>
      <use x="210.9375" xlink:href="#TimesNewRomanPSMT-105"/>
      <use x="238.720703" xlink:href="#TimesNewRomanPSMT-111"/>
      <use x="288.720703" xlink:href="#TimesNewRomanPSMT-110"/>
      <use x="338.720703" xlink:href="#TimesNewRomanPSMT-32"/>
      <use x="363.720703" xlink:href="#TimesNewRomanPSMT-51"/>
     </g>
    </g>
    <g id="line2d_31">
     <path d="M 556.97125 154.2 
L 592.97125 154.2 
" style="fill:none;stroke:#fa4343;stroke-linecap:square;stroke-width:2;"/>
    </g>
    <g id="line2d_32"/>
    <g id="text_23">
     <!-- Iteration 4 -->
     <g transform="translate(607.37125 160.5)scale(0.18 -0.18)">
      <use xlink:href="#TimesNewRomanPSMT-73"/>
      <use x="33.300781" xlink:href="#TimesNewRomanPSMT-116"/>
      <use x="61.083984" xlink:href="#TimesNewRomanPSMT-101"/>
      <use x="105.46875" xlink:href="#TimesNewRomanPSMT-114"/>
      <use x="138.769531" xlink:href="#TimesNewRomanPSMT-97"/>
      <use x="183.154297" xlink:href="#TimesNewRomanPSMT-116"/>
      <use x="210.9375" xlink:href="#TimesNewRomanPSMT-105"/>
      <use x="238.720703" xlink:href="#TimesNewRomanPSMT-111"/>
      <use x="288.720703" xlink:href="#TimesNewRomanPSMT-110"/>
      <use x="338.720703" xlink:href="#TimesNewRomanPSMT-32"/>
      <use x="363.720703" xlink:href="#TimesNewRomanPSMT-52"/>
     </g>
    </g>
    <g id="line2d_33">
     <path d="M 556.97125 179.650312 
L 592.97125 179.650312 
" style="fill:none;stroke:#d12a6a;stroke-linecap:square;stroke-width:2;"/>
    </g>
    <g id="line2d_34"/>
    <g id="text_24">
     <!-- Iteration 5 -->
     <g transform="translate(607.37125 185.950312)scale(0.18 -0.18)">
      <defs>
       <path d="M 43.40625 66.21875 
L 39.59375 57.90625 
L 19.671875 57.90625 
L 15.328125 49.03125 
Q 28.265625 47.125 35.84375 39.40625 
Q 42.328125 32.765625 42.328125 23.78125 
Q 42.328125 18.5625 40.203125 14.109375 
Q 38.09375 9.671875 34.859375 6.546875 
Q 31.640625 3.421875 27.6875 1.515625 
Q 22.078125 -1.171875 16.15625 -1.171875 
Q 10.203125 -1.171875 7.484375 0.84375 
Q 4.78125 2.875 4.78125 5.328125 
Q 4.78125 6.6875 5.90625 7.734375 
Q 7.03125 8.796875 8.734375 8.796875 
Q 10.015625 8.796875 10.96875 8.40625 
Q 11.921875 8.015625 14.203125 6.390625 
Q 17.875 3.859375 21.625 3.859375 
Q 27.34375 3.859375 31.65625 8.171875 
Q 35.984375 12.5 35.984375 18.703125 
Q 35.984375 24.703125 32.125 29.90625 
Q 28.265625 35.109375 21.484375 37.9375 
Q 16.15625 40.140625 6.984375 40.484375 
L 19.671875 66.21875 
z
" id="TimesNewRomanPSMT-53"/>
      </defs>
      <use xlink:href="#TimesNewRomanPSMT-73"/>
      <use x="33.300781" xlink:href="#TimesNewRomanPSMT-116"/>
      <use x="61.083984" xlink:href="#TimesNewRomanPSMT-101"/>
      <use x="105.46875" xlink:href="#TimesNewRomanPSMT-114"/>
      <use x="138.769531" xlink:href="#TimesNewRomanPSMT-97"/>
      <use x="183.154297" xlink:href="#TimesNewRomanPSMT-116"/>
      <use x="210.9375" xlink:href="#TimesNewRomanPSMT-105"/>
      <use x="238.720703" xlink:href="#TimesNewRomanPSMT-111"/>
      <use x="288.720703" xlink:href="#TimesNewRomanPSMT-110"/>
      <use x="338.720703" xlink:href="#TimesNewRomanPSMT-32"/>
      <use x="363.720703" xlink:href="#TimesNewRomanPSMT-53"/>
     </g>
    </g>
    <g id="line2d_35">
     <path d="M 556.97125 205.100625 
L 592.97125 205.100625 
" style="fill:none;stroke:#0000ff;stroke-dasharray:9.6,2.4,1.5,2.4;stroke-dashoffset:0;stroke-width:1.5;"/>
    </g>
    <g id="line2d_36">
     <g>
      <use style="fill:#0000ff;stroke:#0000ff;stroke-linejoin:bevel;" x="574.97125" xlink:href="#m8d7fc79a2d" y="205.100625"/>
     </g>
    </g>
    <g id="text_25">
     <!-- Theretical data -->
     <g transform="translate(607.37125 211.400625)scale(0.18 -0.18)">
      <defs>
       <path d="M 16.265625 69.4375 
L 16.265625 36.71875 
Q 21.6875 42.671875 24.859375 44.359375 
Q 28.03125 46.046875 31.203125 46.046875 
Q 35.015625 46.046875 37.75 43.9375 
Q 40.484375 41.84375 41.796875 37.359375 
Q 42.71875 34.234375 42.71875 25.921875 
L 42.71875 10.109375 
Q 42.71875 5.859375 43.40625 4.296875 
Q 43.890625 3.125 45.0625 2.4375 
Q 46.234375 1.765625 49.359375 1.765625 
L 49.359375 0 
L 27.390625 0 
L 27.390625 1.765625 
L 28.421875 1.765625 
Q 31.546875 1.765625 32.765625 2.703125 
Q 33.984375 3.65625 34.46875 5.515625 
Q 34.625 6.296875 34.625 10.109375 
L 34.625 25.921875 
Q 34.625 33.25 33.859375 35.546875 
Q 33.109375 37.84375 31.4375 38.984375 
Q 29.78125 40.140625 27.4375 40.140625 
Q 25.046875 40.140625 22.453125 38.859375 
Q 19.875 37.59375 16.265625 33.734375 
L 16.265625 10.109375 
Q 16.265625 5.515625 16.765625 4.390625 
Q 17.28125 3.265625 18.671875 2.515625 
Q 20.0625 1.765625 23.484375 1.765625 
L 23.484375 0 
L 1.3125 0 
L 1.3125 1.765625 
Q 4.296875 1.765625 6 2.6875 
Q 6.984375 3.171875 7.5625 4.53125 
Q 8.15625 5.90625 8.15625 10.109375 
L 8.15625 50.59375 
Q 8.15625 58.25 7.78125 60 
Q 7.421875 61.765625 6.65625 62.390625 
Q 5.90625 63.03125 4.640625 63.03125 
Q 3.609375 63.03125 1.3125 62.25 
L 0.640625 63.96875 
L 14.015625 69.4375 
z
" id="TimesNewRomanPSMT-104"/>
       <path d="M 34.71875 5.03125 
Q 31.453125 1.609375 28.328125 0.109375 
Q 25.203125 -1.375 21.578125 -1.375 
Q 14.265625 -1.375 8.796875 4.75 
Q 3.328125 10.890625 3.328125 20.515625 
Q 3.328125 30.125 9.375 38.109375 
Q 15.4375 46.09375 24.953125 46.09375 
Q 30.859375 46.09375 34.71875 42.328125 
L 34.71875 50.59375 
Q 34.71875 58.25 34.34375 60 
Q 33.984375 61.765625 33.203125 62.390625 
Q 32.421875 63.03125 31.25 63.03125 
Q 29.984375 63.03125 27.875 62.25 
L 27.25 63.96875 
L 40.578125 69.4375 
L 42.78125 69.4375 
L 42.78125 17.71875 
Q 42.78125 9.859375 43.140625 8.125 
Q 43.5 6.390625 44.3125 5.703125 
Q 45.125 5.03125 46.1875 5.03125 
Q 47.515625 5.03125 49.703125 5.859375 
L 50.25 4.15625 
L 36.96875 -1.375 
L 34.71875 -1.375 
z
M 34.71875 8.453125 
L 34.71875 31.5 
Q 34.421875 34.8125 32.953125 37.546875 
Q 31.5 40.28125 29.078125 41.671875 
Q 26.65625 43.0625 24.359375 43.0625 
Q 20.0625 43.0625 16.703125 39.203125 
Q 12.25 34.125 12.25 24.359375 
Q 12.25 14.5 16.546875 9.25 
Q 20.84375 4 26.125 4 
Q 30.5625 4 34.71875 8.453125 
z
" id="TimesNewRomanPSMT-100"/>
      </defs>
      <use xlink:href="#TimesNewRomanPSMT-84"/>
      <use x="61.083984" xlink:href="#TimesNewRomanPSMT-104"/>
      <use x="111.083984" xlink:href="#TimesNewRomanPSMT-101"/>
      <use x="155.46875" xlink:href="#TimesNewRomanPSMT-114"/>
      <use x="188.769531" xlink:href="#TimesNewRomanPSMT-101"/>
      <use x="233.154297" xlink:href="#TimesNewRomanPSMT-116"/>
      <use x="260.9375" xlink:href="#TimesNewRomanPSMT-105"/>
      <use x="288.720703" xlink:href="#TimesNewRomanPSMT-99"/>
      <use x="333.105469" xlink:href="#TimesNewRomanPSMT-97"/>
      <use x="377.490234" xlink:href="#TimesNewRomanPSMT-108"/>
      <use x="405.273438" xlink:href="#TimesNewRomanPSMT-32"/>
      <use x="430.273438" xlink:href="#TimesNewRomanPSMT-100"/>
      <use x="480.273438" xlink:href="#TimesNewRomanPSMT-97"/>
      <use x="524.658203" xlink:href="#TimesNewRomanPSMT-116"/>
      <use x="552.441406" xlink:href="#TimesNewRomanPSMT-97"/>
     </g>
    </g>
   </g>
  </g>
 </g>
 <defs>
  <clipPath id="p73a43896c7">
   <rect height="271.8" width="669.6" x="61.403125" y="29.865"/>
  </clipPath>
 </defs>
</svg>
