<?xml version="1.0" encoding="utf-8" standalone="no"?>
<!DOCTYPE svg PUBLIC "-//W3C//DTD SVG 1.1//EN"
  "http://www.w3.org/Graphics/SVG/1.1/DTD/svg11.dtd">
<!-- Created with matplotlib (https://matplotlib.org/) -->
<svg height="356.230625pt" version="1.1" viewBox="0 0 459.203125 356.230625" width="459.203125pt" xmlns="http://www.w3.org/2000/svg" xmlns:xlink="http://www.w3.org/1999/xlink">
 <metadata>
  <rdf:RDF xmlns:cc="http://creativecommons.org/ns#" xmlns:dc="http://purl.org/dc/elements/1.1/" xmlns:rdf="http://www.w3.org/1999/02/22-rdf-syntax-ns#">
   <cc:Work>
    <dc:type rdf:resource="http://purl.org/dc/dcmitype/StillImage"/>
    <dc:date>2021-04-07T11:34:29.588536</dc:date>
    <dc:format>image/svg+xml</dc:format>
    <dc:creator>
     <cc:Agent>
      <dc:title>Matplotlib v3.3.2, https://matplotlib.org/</dc:title>
     </cc:Agent>
    </dc:creator>
   </cc:Work>
  </rdf:RDF>
 </metadata>
 <defs>
  <style type="text/css">*{stroke-linecap:butt;stroke-linejoin:round;}</style>
 </defs>
 <g id="figure_1">
  <g id="patch_1">
   <path d="M 0 356.230625 
L 459.203125 356.230625 
L 459.203125 0 
L 0 0 
z
" style="fill:none;"/>
  </g>
  <g id="axes_1">
   <g id="patch_2">
    <path d="M 61.403125 301.665 
L 452.003125 301.665 
L 452.003125 29.865 
L 61.403125 29.865 
z
" style="fill:#ffffff;"/>
   </g>
   <g id="matplotlib.axis_1">
    <g id="xtick_1">
     <g id="line2d_1">
      <defs>
       <path d="M 0 0 
L 0 3.5 
" id="m3bedc64151" style="stroke:#000000;stroke-width:0.8;"/>
      </defs>
      <g>
       <use style="stroke:#000000;stroke-width:0.8;" x="78.911018" xlink:href="#m3bedc64151" y="301.665"/>
      </g>
     </g>
     <g id="text_1">
      <!-- −4 -->
      <g transform="translate(68.271956 322.5525)scale(0.2 -0.2)">
       <defs>
        <path d="M 54.4375 31.25 
L 1.8125 31.25 
L 1.8125 35.25 
L 54.4375 35.25 
z
" id="TimesNewRomanPSMT-8722"/>
        <path d="M 46.53125 24.421875 
L 46.53125 17.484375 
L 37.640625 17.484375 
L 37.640625 0 
L 29.59375 0 
L 29.59375 17.484375 
L 1.5625 17.484375 
L 1.5625 23.734375 
L 32.28125 67.578125 
L 37.640625 67.578125 
L 37.640625 24.421875 
z
M 29.59375 24.421875 
L 29.59375 57.28125 
L 6.34375 24.421875 
z
" id="TimesNewRomanPSMT-52"/>
       </defs>
       <use xlink:href="#TimesNewRomanPSMT-8722"/>
       <use x="56.396484" xlink:href="#TimesNewRomanPSMT-52"/>
      </g>
     </g>
    </g>
    <g id="xtick_2">
     <g id="line2d_2">
      <g>
       <use style="stroke:#000000;stroke-width:0.8;" x="167.807072" xlink:href="#m3bedc64151" y="301.665"/>
      </g>
     </g>
     <g id="text_2">
      <!-- −2 -->
      <g transform="translate(157.168009 322.5525)scale(0.2 -0.2)">
       <defs>
        <path d="M 45.84375 12.75 
L 41.21875 0 
L 2.15625 0 
L 2.15625 1.8125 
Q 19.390625 17.53125 26.421875 27.484375 
Q 33.453125 37.453125 33.453125 45.703125 
Q 33.453125 52 29.59375 56.046875 
Q 25.734375 60.109375 20.359375 60.109375 
Q 15.484375 60.109375 11.59375 57.25 
Q 7.71875 54.390625 5.859375 48.875 
L 4.046875 48.875 
Q 5.28125 57.90625 10.328125 62.734375 
Q 15.375 67.578125 22.953125 67.578125 
Q 31 67.578125 36.390625 62.40625 
Q 41.796875 57.234375 41.796875 50.203125 
Q 41.796875 45.171875 39.453125 40.140625 
Q 35.84375 32.234375 27.734375 23.390625 
Q 15.578125 10.109375 12.546875 7.375 
L 29.828125 7.375 
Q 35.109375 7.375 37.234375 7.765625 
Q 39.359375 8.15625 41.0625 9.34375 
Q 42.78125 10.546875 44.046875 12.75 
z
" id="TimesNewRomanPSMT-50"/>
       </defs>
       <use xlink:href="#TimesNewRomanPSMT-8722"/>
       <use x="56.396484" xlink:href="#TimesNewRomanPSMT-50"/>
      </g>
     </g>
    </g>
    <g id="xtick_3">
     <g id="line2d_3">
      <g>
       <use style="stroke:#000000;stroke-width:0.8;" x="256.703125" xlink:href="#m3bedc64151" y="301.665"/>
      </g>
     </g>
     <g id="text_3">
      <!-- 0 -->
      <g transform="translate(251.703125 322.5525)scale(0.2 -0.2)">
       <defs>
        <path d="M 3.609375 32.71875 
Q 3.609375 44.046875 7.03125 52.21875 
Q 10.453125 60.40625 16.109375 64.40625 
Q 20.515625 67.578125 25.203125 67.578125 
Q 32.8125 67.578125 38.875 59.8125 
Q 46.4375 50.203125 46.4375 33.734375 
Q 46.4375 22.21875 43.109375 14.15625 
Q 39.796875 6.109375 34.640625 2.46875 
Q 29.5 -1.171875 24.703125 -1.171875 
Q 15.234375 -1.171875 8.9375 10.015625 
Q 3.609375 19.4375 3.609375 32.71875 
z
M 13.1875 31.5 
Q 13.1875 17.828125 16.546875 9.1875 
Q 19.34375 1.90625 24.859375 1.90625 
Q 27.484375 1.90625 30.3125 4.265625 
Q 33.15625 6.640625 34.625 12.203125 
Q 36.859375 20.609375 36.859375 35.890625 
Q 36.859375 47.21875 34.515625 54.78125 
Q 32.765625 60.40625 29.984375 62.75 
Q 27.984375 64.359375 25.140625 64.359375 
Q 21.828125 64.359375 19.234375 61.375 
Q 15.71875 57.328125 14.453125 48.625 
Q 13.1875 39.9375 13.1875 31.5 
z
" id="TimesNewRomanPSMT-48"/>
       </defs>
       <use xlink:href="#TimesNewRomanPSMT-48"/>
      </g>
     </g>
    </g>
    <g id="xtick_4">
     <g id="line2d_4">
      <g>
       <use style="stroke:#000000;stroke-width:0.8;" x="345.599178" xlink:href="#m3bedc64151" y="301.665"/>
      </g>
     </g>
     <g id="text_4">
      <!-- 2 -->
      <g transform="translate(340.599178 322.5525)scale(0.2 -0.2)">
       <use xlink:href="#TimesNewRomanPSMT-50"/>
      </g>
     </g>
    </g>
    <g id="xtick_5">
     <g id="line2d_5">
      <g>
       <use style="stroke:#000000;stroke-width:0.8;" x="434.495232" xlink:href="#m3bedc64151" y="301.665"/>
      </g>
     </g>
     <g id="text_5">
      <!-- 4 -->
      <g transform="translate(429.495232 322.5525)scale(0.2 -0.2)">
       <use xlink:href="#TimesNewRomanPSMT-52"/>
      </g>
     </g>
    </g>
    <g id="text_6">
     <!-- $\mathrm{Tangential\ Velocity}\ V_t [-]$ -->
     <g transform="translate(152.403125 344.630625)scale(0.2 -0.2)">
      <defs>
       <path d="M 59.296875 49.203125 
L 56.90625 49.203125 
Q 55.296875 57.40625 52.390625 59.703125 
Q 49.5 62 41.5 62 
L 35.59375 62 
L 35.59375 11.09375 
Q 35.59375 5.40625 37.296875 3.796875 
Q 39 2.203125 45.203125 1.90625 
L 45.203125 0 
L 16 0 
L 16 1.90625 
Q 22.296875 2.296875 23.84375 4 
Q 25.40625 5.703125 25.40625 12.296875 
L 25.40625 62 
L 19.40625 62 
Q 11.296875 62 8.4375 59.640625 
Q 5.59375 57.296875 4.09375 49.203125 
L 1.703125 49.203125 
L 2.40625 66.203125 
L 58.59375 66.203125 
z
" id="STIXGeneral-Regular-84"/>
       <path d="M 44.203125 6.59375 
L 44.203125 3.796875 
Q 40.40625 -1 35.203125 -1 
Q 29.5 -1 28.796875 6.296875 
L 28.703125 6.296875 
Q 22.296875 -1 14.203125 -1 
Q 9.5 -1 6.59375 1.75 
Q 3.703125 4.5 3.703125 9.40625 
Q 3.703125 16.40625 10.703125 21.09375 
Q 15.5 24.296875 28.703125 29.203125 
L 28.703125 34.59375 
Q 28.703125 39.09375 26.546875 41.34375 
Q 24.40625 43.59375 20.90625 43.59375 
Q 17.90625 43.59375 15.90625 42.140625 
Q 13.90625 40.703125 13.90625 38.703125 
Q 13.90625 37.796875 14.203125 36.6875 
Q 14.5 35.59375 14.5 34.5 
Q 14.5 33 13.140625 31.703125 
Q 11.796875 30.40625 9.90625 30.40625 
Q 8.203125 30.40625 6.890625 31.703125 
Q 5.59375 33 5.59375 35 
Q 5.59375 39.796875 10.703125 43 
Q 15.40625 46 22.203125 46 
Q 30.296875 46 34 41.5 
Q 35.796875 39.40625 36.296875 37.25 
Q 36.796875 35.09375 36.796875 30.40625 
L 36.796875 11.296875 
Q 36.796875 4.703125 39.90625 4.703125 
Q 41.90625 4.703125 44.203125 6.59375 
z
M 28.703125 12.703125 
L 28.703125 26.796875 
Q 19.5 23.59375 15.90625 20.203125 
Q 12.5 17.09375 12.5 12.5 
Q 12.5 8.703125 14.390625 6.75 
Q 16.296875 4.796875 19.40625 4.796875 
Q 22.703125 4.796875 25.203125 6.40625 
Q 27.296875 7.90625 28 9.203125 
Q 28.703125 10.5 28.703125 12.703125 
z
" id="STIXGeneral-Regular-97"/>
       <path d="M 48.5 0 
L 27.703125 0 
L 27.796875 1.5 
Q 31.5 1.796875 32.75 3.640625 
Q 34 5.5 34 10.5 
L 34 30.40625 
Q 34 40.5 26.703125 40.5 
Q 24.203125 40.5 22 39.296875 
Q 19.796875 38.09375 16.40625 34.796875 
L 16.40625 7.203125 
Q 16.40625 4.203125 17.75 3 
Q 19.09375 1.796875 22.90625 1.5 
L 22.90625 0 
L 1.796875 0 
L 1.796875 1.5 
Q 5.59375 1.796875 6.796875 3.34375 
Q 8 4.90625 8 9.40625 
L 8 33.703125 
Q 8 37.40625 7.296875 38.796875 
Q 6.59375 40.203125 4.5 40.203125 
Q 2.5 40.203125 1.59375 39.796875 
L 1.59375 41.5 
Q 8.59375 43.5 15.296875 46 
L 16.09375 45.703125 
L 16.09375 37.90625 
L 16.203125 37.90625 
Q 23.296875 46 30.59375 46 
Q 36.296875 46 39.34375 42 
Q 42.40625 38 42.40625 30.59375 
L 42.40625 8.5 
Q 42.40625 4.5 43.59375 3.203125 
Q 44.796875 1.90625 48.5 1.5 
z
" id="STIXGeneral-Regular-110"/>
       <path d="M 47 38.796875 
L 38.703125 38.796875 
Q 40.59375 34.5 40.59375 30.40625 
Q 40.59375 22.703125 35.390625 18.796875 
Q 30.203125 14.90625 25 14.90625 
Q 23.90625 14.90625 21.203125 15.203125 
L 19.296875 15.40625 
Q 17.296875 14.796875 15.296875 12.6875 
Q 13.296875 10.59375 13.296875 9.09375 
Q 13.296875 6.796875 21.09375 6.40625 
L 34 5.796875 
Q 39.5 5.59375 42.796875 2.6875 
Q 46.09375 -0.203125 46.09375 -4.90625 
Q 46.09375 -10.703125 40.09375 -15.40625 
Q 31.796875 -21.796875 20.09375 -21.796875 
Q 12.90625 -21.796875 7.84375 -18.9375 
Q 2.796875 -16.09375 2.796875 -12.09375 
Q 2.796875 -9.296875 5 -6.546875 
Q 7.203125 -3.796875 12.59375 0.09375 
Q 9.40625 1.59375 8.34375 2.6875 
Q 7.296875 3.796875 7.296875 5.40625 
Q 7.296875 8.296875 11.90625 12.296875 
Q 14.203125 14.296875 16.203125 16.296875 
Q 11.203125 18.796875 9.046875 21.890625 
Q 6.90625 25 6.90625 29.703125 
Q 6.90625 36.5 11.75 41.25 
Q 16.59375 46 23.59375 46 
Q 27.59375 46 31.59375 44.5 
L 33.796875 43.703125 
Q 36.703125 42.703125 39.296875 42.703125 
L 47 42.703125 
z
M 15.203125 33.796875 
L 15.203125 33.5 
Q 15.203125 26.296875 18.046875 21.84375 
Q 20.90625 17.40625 25.5 17.40625 
Q 28.90625 17.40625 30.90625 19.84375 
Q 32.90625 22.296875 32.90625 26.40625 
Q 32.90625 33 29.90625 38.5 
Q 27.40625 43.203125 22.59375 43.203125 
Q 19.09375 43.203125 17.140625 40.703125 
Q 15.203125 38.203125 15.203125 33.796875 
z
M 43.296875 -6.40625 
Q 43.296875 -3.59375 40.546875 -2.546875 
Q 37.796875 -1.5 30.90625 -1.5 
Q 21 -1.5 14.703125 -0.203125 
Q 11.703125 -3.796875 10.75 -5.4375 
Q 9.796875 -7.09375 9.796875 -8.796875 
Q 9.796875 -12.09375 13.75 -14.09375 
Q 17.703125 -16.09375 24.296875 -16.09375 
Q 32.796875 -16.09375 38.046875 -13.4375 
Q 43.296875 -10.796875 43.296875 -6.40625 
z
" id="STIXGeneral-Regular-103"/>
       <path d="M 40.796875 16.40625 
L 42.40625 15.703125 
Q 36.40625 -1 21.5 -1 
Q 12.703125 -1 7.59375 5.140625 
Q 2.5 11.296875 2.5 21.703125 
Q 2.5 32.40625 8.203125 39.203125 
Q 13.90625 46 23.203125 46 
Q 32.203125 46 37.09375 39.09375 
Q 40 35.09375 40.5 27.703125 
L 9.703125 27.703125 
Q 10.09375 21.40625 10.9375 18.09375 
Q 11.796875 14.796875 14.296875 11.40625 
Q 18.5 5.90625 25.40625 5.90625 
Q 30.296875 5.90625 33.640625 8.296875 
Q 37 10.703125 40.796875 16.40625 
z
M 9.90625 30.90625 
L 30.296875 30.90625 
Q 29.40625 37.203125 27.34375 39.796875 
Q 25.296875 42.40625 20.5 42.40625 
Q 16.296875 42.40625 13.5 39.453125 
Q 10.703125 36.5 9.90625 30.90625 
z
" id="STIXGeneral-Regular-101"/>
       <path d="M 26.59375 7.703125 
L 27.90625 6.59375 
Q 23.09375 -1 15.796875 -1 
Q 7 -1 7 11.703125 
L 7 41.796875 
L 1.703125 41.796875 
Q 1.296875 42.09375 1.296875 42.5 
Q 1.296875 43.296875 3 44.40625 
Q 6.796875 46.59375 12.703125 55.09375 
Q 12.90625 55.40625 13.65625 56.34375 
Q 14.40625 57.296875 14.703125 57.90625 
Q 15.40625 57.90625 15.40625 56.59375 
L 15.40625 45 
L 25.5 45 
L 25.5 41.796875 
L 15.40625 41.796875 
L 15.40625 13.203125 
Q 15.40625 8.40625 16.59375 6.296875 
Q 17.796875 4.203125 20.59375 4.203125 
Q 23.59375 4.203125 26.59375 7.703125 
z
" id="STIXGeneral-Regular-116"/>
       <path d="M 18 63.203125 
Q 18 61 16.5 59.546875 
Q 15 58.09375 12.796875 58.09375 
Q 10.703125 58.09375 9.25 59.546875 
Q 7.796875 61 7.796875 63.203125 
Q 7.796875 65.296875 9.296875 66.796875 
Q 10.796875 68.296875 12.90625 68.296875 
Q 15.09375 68.296875 16.546875 66.796875 
Q 18 65.296875 18 63.203125 
z
M 25.296875 0 
L 1.59375 0 
L 1.59375 1.5 
Q 6.796875 1.796875 8.140625 3.296875 
Q 9.5 4.796875 9.5 10.40625 
L 9.5 33.09375 
Q 9.5 36.59375 8.796875 38 
Q 8.09375 39.40625 6.203125 39.40625 
Q 3.796875 39.40625 2 38.90625 
L 2 40.5 
L 17.5 46 
L 17.90625 45.59375 
L 17.90625 10.5 
Q 17.90625 4.90625 19.15625 3.40625 
Q 20.40625 1.90625 25.296875 1.5 
z
" id="STIXGeneral-Regular-105"/>
       <path d="M 25.703125 0 
L 2.09375 0 
L 2.09375 1.5 
Q 6.796875 1.90625 8.296875 3.453125 
Q 9.796875 5 9.796875 9.203125 
L 9.796875 56.09375 
Q 9.796875 59.703125 8.890625 61.09375 
Q 8 62.5 5.59375 62.5 
Q 3.5 62.5 1.90625 62.296875 
L 1.90625 63.90625 
Q 11.40625 66.203125 17.703125 68.296875 
L 18.203125 67.90625 
L 18.203125 8.703125 
Q 18.203125 4.5 19.59375 3.140625 
Q 21 1.796875 25.703125 1.5 
z
" id="STIXGeneral-Regular-108"/>
       <path d="M 69.703125 66.203125 
L 69.703125 64.296875 
Q 66.59375 64.203125 64.59375 62.34375 
Q 62.59375 60.5 60.5 55.203125 
L 38.296875 -1.09375 
L 36.796875 -1.09375 
L 12.40625 53.296875 
Q 9.203125 60.40625 7.296875 62.296875 
Q 5.40625 64.203125 1.59375 64.296875 
L 1.59375 66.203125 
L 28.09375 66.203125 
L 28.09375 64.296875 
L 25.296875 64.09375 
Q 20.796875 63.796875 20.796875 61 
Q 20.796875 59 24.703125 50.296875 
L 39.90625 16.09375 
L 54.59375 53 
Q 56.5 57.796875 56.5 60.203125 
Q 56.5 60.90625 56.34375 61.453125 
Q 56.203125 62 56 62.390625 
Q 55.796875 62.796875 55.25 63.09375 
Q 54.703125 63.40625 54.390625 63.546875 
Q 54.09375 63.703125 53.296875 63.84375 
Q 52.5 64 52.140625 64.046875 
Q 51.796875 64.09375 50.75 64.1875 
Q 49.703125 64.296875 49.296875 64.296875 
L 49.296875 66.203125 
z
" id="STIXGeneral-Regular-86"/>
       <path d="M 47 23.09375 
Q 47 12.59375 40.75 5.796875 
Q 34.5 -1 24.5 -1 
Q 15.296875 -1 9.09375 5.75 
Q 2.90625 12.5 2.90625 22.796875 
Q 2.90625 33.203125 9.09375 39.59375 
Q 15.296875 46 25.40625 46 
Q 34.703125 46 40.84375 39.640625 
Q 47 33.296875 47 23.09375 
z
M 38 20.40625 
Q 38 31.796875 33 38.203125 
Q 29 43.203125 23.5 43.203125 
Q 18.296875 43.203125 15.09375 38.953125 
Q 11.90625 34.703125 11.90625 27.296875 
Q 11.90625 14.5 17.203125 6.796875 
Q 20.59375 1.796875 26.203125 1.796875 
Q 31.703125 1.796875 34.84375 6.75 
Q 38 11.703125 38 20.40625 
z
" id="STIXGeneral-Regular-111"/>
       <path d="M 39.796875 15.59375 
L 41.203125 14.703125 
Q 36.90625 6.296875 33 3.203125 
Q 27.90625 -1 21.5 -1 
Q 13.203125 -1 7.84375 5.25 
Q 2.5 11.5 2.5 21.203125 
Q 2.5 33.90625 10.90625 40.90625 
Q 17.09375 46 24.40625 46 
Q 30.703125 46 35.25 42.953125 
Q 39.796875 39.90625 39.796875 35.703125 
Q 39.796875 34 38.390625 32.75 
Q 37 31.5 35.09375 31.5 
Q 31.59375 31.5 30.296875 36.09375 
L 29.703125 38.296875 
Q 28.90625 41.09375 27.703125 42.09375 
Q 26.5 43.09375 23.796875 43.09375 
Q 17.703125 43.09375 13.953125 38.296875 
Q 10.203125 33.5 10.203125 25.703125 
Q 10.203125 17.09375 14.5 11.640625 
Q 18.796875 6.203125 25.703125 6.203125 
Q 30 6.203125 33.09375 8.25 
Q 36.203125 10.296875 39.796875 15.59375 
z
" id="STIXGeneral-Regular-99"/>
       <path d="M 47.5 45 
L 47.5 43.5 
Q 45.703125 43.296875 44.59375 42.1875 
Q 43.5 41.09375 42.5 38.40625 
L 27.5 -2.5 
Q 23.59375 -13.09375 19.640625 -17.4375 
Q 15.703125 -21.796875 10 -21.796875 
Q 6.796875 -21.796875 4.890625 -20.140625 
Q 3 -18.5 3 -16 
Q 3 -14.09375 4.25 -12.75 
Q 5.5 -11.40625 7.296875 -11.40625 
Q 10.203125 -11.40625 12.5 -12.703125 
Q 13.796875 -13.40625 15.09375 -13.40625 
Q 17.203125 -13.40625 20.09375 -9 
Q 21.5 -7 22.796875 -3.296875 
Q 24.09375 0.40625 24.09375 1.796875 
Q 24.09375 3.09375 19.90625 11.90625 
L 6.703125 40.09375 
Q 5.40625 43 1.40625 43.59375 
L 1.40625 45 
L 21.90625 45 
L 21.90625 43.5 
Q 18.703125 43.40625 17.453125 42.796875 
Q 16.203125 42.203125 16.203125 40.796875 
Q 16.203125 39.703125 17.5 36.703125 
L 28.703125 11.703125 
L 38.40625 39.296875 
Q 38.796875 40.203125 38.796875 41.09375 
Q 38.796875 43.5 34.203125 43.5 
L 34.203125 45 
z
" id="STIXGeneral-Regular-121"/>
       <path d="M 68.796875 65.296875 
L 68.796875 63.703125 
Q 65.59375 63.59375 63.203125 59.703125 
L 25.90625 -1.796875 
L 24 -1.796875 
L 15.796875 48.5 
Q 14.09375 59 12.9375 61.09375 
Q 11.796875 63.203125 7.59375 63.703125 
L 7.59375 65.296875 
L 31.59375 65.296875 
L 31.59375 63.703125 
Q 26.90625 63.203125 25.453125 62.203125 
Q 24 61.203125 24 58.59375 
Q 24 57.59375 24.09375 57.09375 
L 30.59375 12.796875 
L 51.59375 48.796875 
Q 56.5 57.203125 56.5 60.296875 
Q 56.5 63 50.296875 63.703125 
L 50.296875 65.296875 
z
" id="STIXGeneral-Italic-86"/>
       <path d="M 29.59375 42.796875 
L 29.09375 39.59375 
L 20.703125 39.59375 
L 12 6.796875 
Q 11.796875 6 11.796875 5.40625 
Q 11.796875 3.796875 13.296875 3.796875 
Q 14.5 3.796875 16.09375 5.34375 
Q 17.703125 6.90625 21.40625 11.703125 
L 22.703125 11 
Q 18.09375 4 15.140625 1.453125 
Q 12.203125 -1.09375 8.40625 -1.09375 
Q 3.796875 -1.09375 3.796875 2.59375 
Q 3.796875 3.59375 5.40625 10 
L 13.203125 39.59375 
L 5.703125 39.59375 
L 5.59375 40.203125 
Q 5.59375 42 8.90625 42.703125 
Q 11.40625 43.296875 15.5 46.546875 
Q 19.59375 49.796875 22.203125 53.703125 
Q 22.796875 54.59375 23.59375 54.59375 
Q 24.5 54.59375 24.5 53.796875 
Q 24.5 53.296875 24.40625 53.09375 
L 21.59375 42.796875 
z
" id="STIXGeneral-Italic-116"/>
       <path d="M 29.90625 -15.59375 
L 8.796875 -15.59375 
L 8.796875 66.203125 
L 29.90625 66.203125 
L 29.90625 63.703125 
L 21.59375 63.703125 
Q 19 63.703125 17.703125 62.59375 
Q 16.40625 61.5 16.40625 58.90625 
L 16.40625 -7.703125 
Q 16.40625 -13.09375 21.59375 -13.09375 
L 29.90625 -13.09375 
z
" id="STIXGeneral-Regular-91"/>
       <path d="M 62.09375 22 
L 6.40625 22 
L 6.40625 28.59375 
L 62.09375 28.59375 
z
" id="STIXGeneral-Regular-8722"/>
       <path d="M 24.5 -15.59375 
L 3.40625 -15.59375 
L 3.40625 -13.09375 
L 12.203125 -13.09375 
Q 14.796875 -13.09375 15.84375 -12 
Q 16.90625 -10.90625 16.90625 -8.5 
L 16.90625 58.296875 
Q 16.90625 63.703125 11.796875 63.703125 
L 3.40625 63.703125 
L 3.40625 66.203125 
L 24.5 66.203125 
z
" id="STIXGeneral-Regular-93"/>
      </defs>
      <use transform="translate(0 0.703125)" xlink:href="#STIXGeneral-Regular-84"/>
      <use transform="translate(61.099991 0.703125)" xlink:href="#STIXGeneral-Regular-97"/>
      <use transform="translate(105.499985 0.703125)" xlink:href="#STIXGeneral-Regular-110"/>
      <use transform="translate(155.499969 0.703125)" xlink:href="#STIXGeneral-Regular-103"/>
      <use transform="translate(205.499954 0.703125)" xlink:href="#STIXGeneral-Regular-101"/>
      <use transform="translate(249.899948 0.703125)" xlink:href="#STIXGeneral-Regular-110"/>
      <use transform="translate(299.899933 0.703125)" xlink:href="#STIXGeneral-Regular-116"/>
      <use transform="translate(327.699921 0.703125)" xlink:href="#STIXGeneral-Regular-105"/>
      <use transform="translate(355.499908 0.703125)" xlink:href="#STIXGeneral-Regular-97"/>
      <use transform="translate(399.899902 0.703125)" xlink:href="#STIXGeneral-Regular-108"/>
      <use transform="translate(453.63296 0.703125)" xlink:href="#STIXGeneral-Regular-86"/>
      <use transform="translate(525.832942 0.703125)" xlink:href="#STIXGeneral-Regular-101"/>
      <use transform="translate(570.232936 0.703125)" xlink:href="#STIXGeneral-Regular-108"/>
      <use transform="translate(598.032923 0.703125)" xlink:href="#STIXGeneral-Regular-111"/>
      <use transform="translate(648.032908 0.703125)" xlink:href="#STIXGeneral-Regular-99"/>
      <use transform="translate(692.432902 0.703125)" xlink:href="#STIXGeneral-Regular-105"/>
      <use transform="translate(720.23289 0.703125)" xlink:href="#STIXGeneral-Regular-116"/>
      <use transform="translate(748.032878 0.703125)" xlink:href="#STIXGeneral-Regular-121"/>
      <use transform="translate(822.099282 0.703125)" xlink:href="#STIXGeneral-Italic-86"/>
      <use transform="translate(883.199273 -12.525)scale(0.7)" xlink:href="#STIXGeneral-Italic-116"/>
      <use transform="translate(907.06864 0.703125)" xlink:href="#STIXGeneral-Regular-91"/>
      <use transform="translate(940.368627 0.703125)" xlink:href="#STIXGeneral-Regular-8722"/>
      <use transform="translate(1008.868612 0.703125)" xlink:href="#STIXGeneral-Regular-93"/>
     </g>
    </g>
   </g>
   <g id="matplotlib.axis_2">
    <g id="ytick_1">
     <g id="line2d_6">
      <defs>
       <path d="M 0 0 
L -3.5 0 
" id="me3448fd21f" style="stroke:#000000;stroke-width:0.8;"/>
      </defs>
      <g>
       <use style="stroke:#000000;stroke-width:0.8;" x="61.403125" xlink:href="#me3448fd21f" y="289.310455"/>
      </g>
     </g>
     <g id="text_7">
      <!-- 0.0 -->
      <g transform="translate(29.403125 296.254205)scale(0.2 -0.2)">
       <defs>
        <path d="M 12.5 9.46875 
Q 14.796875 9.46875 16.359375 7.875 
Q 17.921875 6.296875 17.921875 4.046875 
Q 17.921875 1.8125 16.328125 0.21875 
Q 14.75 -1.375 12.5 -1.375 
Q 10.25 -1.375 8.65625 0.21875 
Q 7.078125 1.8125 7.078125 4.046875 
Q 7.078125 6.34375 8.65625 7.90625 
Q 10.25 9.46875 12.5 9.46875 
z
" id="TimesNewRomanPSMT-46"/>
       </defs>
       <use xlink:href="#TimesNewRomanPSMT-48"/>
       <use x="50" xlink:href="#TimesNewRomanPSMT-46"/>
       <use x="75" xlink:href="#TimesNewRomanPSMT-48"/>
      </g>
     </g>
    </g>
    <g id="ytick_2">
     <g id="line2d_7">
      <g>
       <use style="stroke:#000000;stroke-width:0.8;" x="61.403125" xlink:href="#me3448fd21f" y="239.362115"/>
      </g>
     </g>
     <g id="text_8">
      <!-- 0.2 -->
      <g transform="translate(29.403125 246.305865)scale(0.2 -0.2)">
       <use xlink:href="#TimesNewRomanPSMT-48"/>
       <use x="50" xlink:href="#TimesNewRomanPSMT-46"/>
       <use x="75" xlink:href="#TimesNewRomanPSMT-50"/>
      </g>
     </g>
    </g>
    <g id="ytick_3">
     <g id="line2d_8">
      <g>
       <use style="stroke:#000000;stroke-width:0.8;" x="61.403125" xlink:href="#me3448fd21f" y="189.413776"/>
      </g>
     </g>
     <g id="text_9">
      <!-- 0.4 -->
      <g transform="translate(29.403125 196.357526)scale(0.2 -0.2)">
       <use xlink:href="#TimesNewRomanPSMT-48"/>
       <use x="50" xlink:href="#TimesNewRomanPSMT-46"/>
       <use x="75" xlink:href="#TimesNewRomanPSMT-52"/>
      </g>
     </g>
    </g>
    <g id="ytick_4">
     <g id="line2d_9">
      <g>
       <use style="stroke:#000000;stroke-width:0.8;" x="61.403125" xlink:href="#me3448fd21f" y="139.465437"/>
      </g>
     </g>
     <g id="text_10">
      <!-- 0.6 -->
      <g transform="translate(29.403125 146.409187)scale(0.2 -0.2)">
       <defs>
        <path d="M 44.828125 67.578125 
L 44.828125 65.765625 
Q 38.375 65.140625 34.296875 63.203125 
Q 30.21875 61.28125 26.234375 57.328125 
Q 22.265625 53.375 19.65625 48.515625 
Q 17.046875 43.65625 15.28125 36.96875 
Q 22.3125 41.796875 29.390625 41.796875 
Q 36.1875 41.796875 41.15625 36.328125 
Q 46.140625 30.859375 46.140625 22.265625 
Q 46.140625 13.96875 41.109375 7.125 
Q 35.0625 -1.171875 25.09375 -1.171875 
Q 18.3125 -1.171875 13.578125 3.328125 
Q 4.296875 12.0625 4.296875 25.984375 
Q 4.296875 34.859375 7.859375 42.859375 
Q 11.421875 50.875 18.03125 57.078125 
Q 24.65625 63.28125 30.703125 65.421875 
Q 36.765625 67.578125 42 67.578125 
z
M 14.453125 33.40625 
Q 13.578125 26.8125 13.578125 22.75 
Q 13.578125 18.0625 15.3125 12.5625 
Q 17.046875 7.078125 20.453125 3.859375 
Q 22.953125 1.5625 26.515625 1.5625 
Q 30.765625 1.5625 34.109375 5.5625 
Q 37.453125 9.578125 37.453125 17 
Q 37.453125 25.34375 34.125 31.4375 
Q 30.8125 37.546875 24.703125 37.546875 
Q 22.859375 37.546875 20.734375 36.765625 
Q 18.609375 35.984375 14.453125 33.40625 
z
" id="TimesNewRomanPSMT-54"/>
       </defs>
       <use xlink:href="#TimesNewRomanPSMT-48"/>
       <use x="50" xlink:href="#TimesNewRomanPSMT-46"/>
       <use x="75" xlink:href="#TimesNewRomanPSMT-54"/>
      </g>
     </g>
    </g>
    <g id="ytick_5">
     <g id="line2d_10">
      <g>
       <use style="stroke:#000000;stroke-width:0.8;" x="61.403125" xlink:href="#me3448fd21f" y="89.517097"/>
      </g>
     </g>
     <g id="text_11">
      <!-- 0.8 -->
      <g transform="translate(29.403125 96.460847)scale(0.2 -0.2)">
       <defs>
        <path d="M 19.1875 33.34375 
Q 11.328125 39.796875 9.046875 43.703125 
Q 6.78125 47.609375 6.78125 51.8125 
Q 6.78125 58.25 11.765625 62.90625 
Q 16.75 67.578125 25 67.578125 
Q 33.015625 67.578125 37.890625 63.234375 
Q 42.78125 58.890625 42.78125 53.328125 
Q 42.78125 49.609375 40.140625 45.75 
Q 37.5 41.890625 29.15625 36.671875 
Q 37.75 30.03125 40.53125 26.21875 
Q 44.234375 21.234375 44.234375 15.71875 
Q 44.234375 8.734375 38.90625 3.78125 
Q 33.59375 -1.171875 24.953125 -1.171875 
Q 15.53125 -1.171875 10.25 4.734375 
Q 6.0625 9.46875 6.0625 15.09375 
Q 6.0625 19.484375 9.015625 23.796875 
Q 11.96875 28.125 19.1875 33.34375 
z
M 26.859375 38.578125 
Q 32.71875 43.84375 34.28125 46.890625 
Q 35.84375 49.953125 35.84375 53.8125 
Q 35.84375 58.9375 32.953125 61.84375 
Q 30.078125 64.75 25.09375 64.75 
Q 20.125 64.75 17 61.859375 
Q 13.875 58.984375 13.875 55.125 
Q 13.875 52.59375 15.15625 50.046875 
Q 16.453125 47.515625 18.84375 45.21875 
z
M 21.484375 31.5 
Q 17.4375 28.078125 15.484375 24.046875 
Q 13.53125 20.015625 13.53125 15.328125 
Q 13.53125 9.03125 16.96875 5.25 
Q 20.40625 1.46875 25.734375 1.46875 
Q 31 1.46875 34.171875 4.4375 
Q 37.359375 7.421875 37.359375 11.671875 
Q 37.359375 15.1875 35.5 17.96875 
Q 32.03125 23.140625 21.484375 31.5 
z
" id="TimesNewRomanPSMT-56"/>
       </defs>
       <use xlink:href="#TimesNewRomanPSMT-48"/>
       <use x="50" xlink:href="#TimesNewRomanPSMT-46"/>
       <use x="75" xlink:href="#TimesNewRomanPSMT-56"/>
      </g>
     </g>
    </g>
    <g id="ytick_6">
     <g id="line2d_11">
      <g>
       <use style="stroke:#000000;stroke-width:0.8;" x="61.403125" xlink:href="#me3448fd21f" y="39.568758"/>
      </g>
     </g>
     <g id="text_12">
      <!-- 1.0 -->
      <g transform="translate(29.403125 46.512508)scale(0.2 -0.2)">
       <defs>
        <path d="M 11.71875 59.71875 
L 27.828125 67.578125 
L 29.4375 67.578125 
L 29.4375 11.671875 
Q 29.4375 6.109375 29.90625 4.734375 
Q 30.375 3.375 31.828125 2.640625 
Q 33.296875 1.90625 37.796875 1.8125 
L 37.796875 0 
L 12.890625 0 
L 12.890625 1.8125 
Q 17.578125 1.90625 18.9375 2.609375 
Q 20.3125 3.328125 20.84375 4.515625 
Q 21.390625 5.71875 21.390625 11.671875 
L 21.390625 47.40625 
Q 21.390625 54.640625 20.90625 56.6875 
Q 20.5625 58.25 19.65625 58.984375 
Q 18.75 59.71875 17.484375 59.71875 
Q 15.671875 59.71875 12.453125 58.203125 
z
" id="TimesNewRomanPSMT-49"/>
       </defs>
       <use xlink:href="#TimesNewRomanPSMT-49"/>
       <use x="50" xlink:href="#TimesNewRomanPSMT-46"/>
       <use x="75" xlink:href="#TimesNewRomanPSMT-48"/>
      </g>
     </g>
    </g>
    <g id="text_13">
     <!-- Probability -->
     <g transform="translate(21.0875 210.207187)rotate(-90)scale(0.2 -0.2)">
      <defs>
       <path d="M 20.515625 31 
L 20.515625 11.71875 
Q 20.515625 5.46875 21.875 3.953125 
Q 23.734375 1.8125 27.484375 1.8125 
L 30.03125 1.8125 
L 30.03125 0 
L 1.65625 0 
L 1.65625 1.8125 
L 4.15625 1.8125 
Q 8.34375 1.8125 10.15625 4.546875 
Q 11.140625 6.0625 11.140625 11.71875 
L 11.140625 54.5 
Q 11.140625 60.75 9.8125 62.25 
Q 7.90625 64.40625 4.15625 64.40625 
L 1.65625 64.40625 
L 1.65625 66.21875 
L 25.921875 66.21875 
Q 34.8125 66.21875 39.9375 64.375 
Q 45.0625 62.546875 48.578125 58.203125 
Q 52.09375 53.859375 52.09375 47.90625 
Q 52.09375 39.796875 46.75 34.71875 
Q 41.40625 29.640625 31.640625 29.640625 
Q 29.25 29.640625 26.46875 29.984375 
Q 23.6875 30.328125 20.515625 31 
z
M 20.515625 33.796875 
Q 23.09375 33.296875 25.09375 33.046875 
Q 27.09375 32.8125 28.515625 32.8125 
Q 33.59375 32.8125 37.28125 36.734375 
Q 40.96875 40.671875 40.96875 46.921875 
Q 40.96875 51.21875 39.203125 54.90625 
Q 37.453125 58.59375 34.21875 60.421875 
Q 31 62.25 26.90625 62.25 
Q 24.421875 62.25 20.515625 61.328125 
z
" id="TimesNewRomanPSMT-80"/>
       <path d="M 16.21875 46.046875 
L 16.21875 35.984375 
Q 21.828125 46.046875 27.734375 46.046875 
Q 30.421875 46.046875 32.171875 44.40625 
Q 33.9375 42.78125 33.9375 40.625 
Q 33.9375 38.71875 32.65625 37.390625 
Q 31.390625 36.078125 29.640625 36.078125 
Q 27.9375 36.078125 25.8125 37.765625 
Q 23.6875 39.453125 22.65625 39.453125 
Q 21.78125 39.453125 20.75 38.484375 
Q 18.5625 36.46875 16.21875 31.890625 
L 16.21875 10.453125 
Q 16.21875 6.734375 17.140625 4.828125 
Q 17.78125 3.515625 19.390625 2.640625 
Q 21 1.765625 24.03125 1.765625 
L 24.03125 0 
L 1.125 0 
L 1.125 1.765625 
Q 4.546875 1.765625 6.203125 2.828125 
Q 7.421875 3.609375 7.90625 5.328125 
Q 8.15625 6.15625 8.15625 10.0625 
L 8.15625 27.390625 
Q 8.15625 35.203125 7.828125 36.6875 
Q 7.515625 38.1875 6.65625 38.859375 
Q 5.8125 39.546875 4.546875 39.546875 
Q 3.03125 39.546875 1.125 38.8125 
L 0.640625 40.578125 
L 14.15625 46.046875 
z
" id="TimesNewRomanPSMT-114"/>
       <path d="M 25 46.046875 
Q 35.15625 46.046875 41.3125 38.328125 
Q 46.53125 31.734375 46.53125 23.1875 
Q 46.53125 17.1875 43.640625 11.03125 
Q 40.765625 4.890625 35.71875 1.75 
Q 30.671875 -1.375 24.46875 -1.375 
Q 14.359375 -1.375 8.40625 6.6875 
Q 3.375 13.484375 3.375 21.921875 
Q 3.375 28.078125 6.421875 34.15625 
Q 9.46875 40.234375 14.453125 43.140625 
Q 19.4375 46.046875 25 46.046875 
z
M 23.484375 42.875 
Q 20.90625 42.875 18.28125 41.328125 
Q 15.671875 39.796875 14.0625 35.9375 
Q 12.453125 32.078125 12.453125 26.03125 
Q 12.453125 16.265625 16.328125 9.171875 
Q 20.21875 2.09375 26.5625 2.09375 
Q 31.296875 2.09375 34.375 6 
Q 37.453125 9.90625 37.453125 19.4375 
Q 37.453125 31.34375 32.328125 38.1875 
Q 28.859375 42.875 23.484375 42.875 
z
" id="TimesNewRomanPSMT-111"/>
       <path d="M 15.375 37.015625 
Q 21.875 46.046875 29.390625 46.046875 
Q 36.28125 46.046875 41.40625 40.15625 
Q 46.53125 34.28125 46.53125 24.078125 
Q 46.53125 12.15625 38.625 4.890625 
Q 31.84375 -1.375 23.484375 -1.375 
Q 19.578125 -1.375 15.546875 0.046875 
Q 11.53125 1.46875 7.328125 4.296875 
L 7.328125 50.640625 
Q 7.328125 58.25 6.953125 60 
Q 6.59375 61.765625 5.8125 62.390625 
Q 5.03125 63.03125 3.859375 63.03125 
Q 2.484375 63.03125 0.4375 62.25 
L -0.25 63.96875 
L 13.1875 69.4375 
L 15.375 69.4375 
z
M 15.375 33.890625 
L 15.375 7.125 
Q 17.875 4.6875 20.53125 3.4375 
Q 23.1875 2.203125 25.984375 2.203125 
Q 30.421875 2.203125 34.25 7.078125 
Q 38.09375 11.96875 38.09375 21.296875 
Q 38.09375 29.890625 34.25 34.5 
Q 30.421875 39.109375 25.53125 39.109375 
Q 22.953125 39.109375 20.359375 37.796875 
Q 18.40625 36.8125 15.375 33.890625 
z
" id="TimesNewRomanPSMT-98"/>
       <path d="M 28.46875 6.453125 
Q 21.578125 1.125 19.828125 0.296875 
Q 17.1875 -0.921875 14.203125 -0.921875 
Q 9.578125 -0.921875 6.5625 2.25 
Q 3.5625 5.421875 3.5625 10.59375 
Q 3.5625 13.875 5.03125 16.265625 
Q 7.03125 19.578125 11.984375 22.5 
Q 16.9375 25.4375 28.46875 29.640625 
L 28.46875 31.390625 
Q 28.46875 38.09375 26.34375 40.578125 
Q 24.21875 43.0625 20.171875 43.0625 
Q 17.09375 43.0625 15.28125 41.40625 
Q 13.421875 39.75 13.421875 37.59375 
L 13.53125 34.765625 
Q 13.53125 32.515625 12.375 31.296875 
Q 11.234375 30.078125 9.375 30.078125 
Q 7.5625 30.078125 6.421875 31.34375 
Q 5.28125 32.625 5.28125 34.8125 
Q 5.28125 39.015625 9.578125 42.53125 
Q 13.875 46.046875 21.625 46.046875 
Q 27.59375 46.046875 31.390625 44.046875 
Q 34.28125 42.53125 35.640625 39.3125 
Q 36.53125 37.203125 36.53125 30.71875 
L 36.53125 15.53125 
Q 36.53125 9.125 36.765625 7.6875 
Q 37.015625 6.25 37.578125 5.765625 
Q 38.140625 5.28125 38.875 5.28125 
Q 39.65625 5.28125 40.234375 5.609375 
Q 41.265625 6.25 44.1875 9.1875 
L 44.1875 6.453125 
Q 38.71875 -0.875 33.734375 -0.875 
Q 31.34375 -0.875 29.921875 0.78125 
Q 28.515625 2.4375 28.46875 6.453125 
z
M 28.46875 9.625 
L 28.46875 26.65625 
Q 21.09375 23.734375 18.953125 22.515625 
Q 15.09375 20.359375 13.421875 18.015625 
Q 11.765625 15.671875 11.765625 12.890625 
Q 11.765625 9.375 13.859375 7.046875 
Q 15.96875 4.734375 18.703125 4.734375 
Q 22.40625 4.734375 28.46875 9.625 
z
" id="TimesNewRomanPSMT-97"/>
       <path d="M 14.5 69.4375 
Q 16.546875 69.4375 17.984375 67.984375 
Q 19.4375 66.546875 19.4375 64.5 
Q 19.4375 62.453125 17.984375 60.984375 
Q 16.546875 59.515625 14.5 59.515625 
Q 12.453125 59.515625 10.984375 60.984375 
Q 9.515625 62.453125 9.515625 64.5 
Q 9.515625 66.546875 10.953125 67.984375 
Q 12.40625 69.4375 14.5 69.4375 
z
M 18.5625 46.046875 
L 18.5625 10.109375 
Q 18.5625 5.90625 19.171875 4.515625 
Q 19.78125 3.125 20.96875 2.4375 
Q 22.171875 1.765625 25.34375 1.765625 
L 25.34375 0 
L 3.609375 0 
L 3.609375 1.765625 
Q 6.890625 1.765625 8 2.390625 
Q 9.125 3.03125 9.78125 4.484375 
Q 10.453125 5.953125 10.453125 10.109375 
L 10.453125 27.34375 
Q 10.453125 34.625 10.015625 36.765625 
Q 9.671875 38.328125 8.9375 38.9375 
Q 8.203125 39.546875 6.9375 39.546875 
Q 5.5625 39.546875 3.609375 38.8125 
L 2.9375 40.578125 
L 16.40625 46.046875 
z
" id="TimesNewRomanPSMT-105"/>
       <path d="M 18.5 69.4375 
L 18.5 10.109375 
Q 18.5 5.90625 19.109375 4.53125 
Q 19.734375 3.171875 21 2.46875 
Q 22.265625 1.765625 25.734375 1.765625 
L 25.734375 0 
L 3.8125 0 
L 3.8125 1.765625 
Q 6.890625 1.765625 8 2.390625 
Q 9.125 3.03125 9.765625 4.484375 
Q 10.40625 5.953125 10.40625 10.109375 
L 10.40625 50.734375 
Q 10.40625 58.296875 10.0625 60.03125 
Q 9.71875 61.765625 8.953125 62.390625 
Q 8.203125 63.03125 7.03125 63.03125 
Q 5.765625 63.03125 3.8125 62.25 
L 2.984375 63.96875 
L 16.3125 69.4375 
z
" id="TimesNewRomanPSMT-108"/>
       <path d="M 16.109375 59.421875 
L 16.109375 44.734375 
L 26.5625 44.734375 
L 26.5625 41.3125 
L 16.109375 41.3125 
L 16.109375 12.3125 
Q 16.109375 7.953125 17.359375 6.4375 
Q 18.609375 4.9375 20.5625 4.9375 
Q 22.171875 4.9375 23.6875 5.9375 
Q 25.203125 6.9375 26.03125 8.890625 
L 27.9375 8.890625 
Q 26.21875 4.109375 23.09375 1.6875 
Q 19.96875 -0.734375 16.65625 -0.734375 
Q 14.40625 -0.734375 12.25 0.515625 
Q 10.109375 1.765625 9.078125 4.078125 
Q 8.0625 6.390625 8.0625 11.234375 
L 8.0625 41.3125 
L 0.984375 41.3125 
L 0.984375 42.921875 
Q 3.65625 44 6.46875 46.5625 
Q 9.28125 49.125 11.46875 52.640625 
Q 12.59375 54.5 14.59375 59.421875 
z
" id="TimesNewRomanPSMT-116"/>
       <path d="M 0.59375 44.734375 
L 21.4375 44.734375 
L 21.4375 42.921875 
L 20.40625 42.921875 
Q 18.21875 42.921875 17.109375 41.96875 
Q 16.015625 41.015625 16.015625 39.59375 
Q 16.015625 37.703125 17.625 34.328125 
L 28.515625 11.765625 
L 38.53125 36.46875 
Q 39.359375 38.484375 39.359375 40.4375 
Q 39.359375 41.3125 39.015625 41.75 
Q 38.625 42.28125 37.796875 42.59375 
Q 36.96875 42.921875 34.859375 42.921875 
L 34.859375 44.734375 
L 49.421875 44.734375 
L 49.421875 42.921875 
Q 47.609375 42.71875 46.625 42.125 
Q 45.65625 41.546875 44.484375 39.9375 
Q 44.046875 39.265625 42.828125 36.1875 
L 24.609375 -8.453125 
Q 21.96875 -14.9375 17.6875 -18.25 
Q 13.421875 -21.578125 9.46875 -21.578125 
Q 6.59375 -21.578125 4.734375 -19.921875 
Q 2.875 -18.265625 2.875 -16.109375 
Q 2.875 -14.0625 4.21875 -12.8125 
Q 5.5625 -11.578125 7.90625 -11.578125 
Q 9.515625 -11.578125 12.3125 -12.640625 
Q 14.265625 -13.375 14.75 -13.375 
Q 16.21875 -13.375 17.9375 -11.859375 
Q 19.671875 -10.359375 21.4375 -6 
L 24.609375 1.765625 
L 8.546875 35.5 
Q 7.8125 37.015625 6.203125 39.265625 
Q 4.984375 40.96875 4.203125 41.546875 
Q 3.078125 42.328125 0.59375 42.921875 
z
" id="TimesNewRomanPSMT-121"/>
      </defs>
      <use xlink:href="#TimesNewRomanPSMT-80"/>
      <use x="55.615234" xlink:href="#TimesNewRomanPSMT-114"/>
      <use x="88.916016" xlink:href="#TimesNewRomanPSMT-111"/>
      <use x="138.916016" xlink:href="#TimesNewRomanPSMT-98"/>
      <use x="188.916016" xlink:href="#TimesNewRomanPSMT-97"/>
      <use x="233.300781" xlink:href="#TimesNewRomanPSMT-98"/>
      <use x="283.300781" xlink:href="#TimesNewRomanPSMT-105"/>
      <use x="311.083984" xlink:href="#TimesNewRomanPSMT-108"/>
      <use x="338.867188" xlink:href="#TimesNewRomanPSMT-105"/>
      <use x="366.650391" xlink:href="#TimesNewRomanPSMT-116"/>
      <use x="394.433594" xlink:href="#TimesNewRomanPSMT-121"/>
     </g>
    </g>
   </g>
   <g id="line2d_12">
    <path clip-path="url(#p3491e1d057)" d="M 79.15767 289.310455 
L 181.858822 289.310455 
L 182.530071 288.02352 
L 183.201321 289.310455 
L 195.283809 289.310455 
L 195.955058 288.02352 
L 196.626308 289.310455 
L 204.010051 289.310455 
L 204.6813 288.02352 
L 205.352549 288.02352 
L 206.023799 289.310455 
L 207.366297 286.736585 
L 208.037547 289.310455 
L 208.708796 289.310455 
L 209.380045 288.02352 
L 210.051295 288.02352 
L 210.722544 289.310455 
L 211.393793 289.310455 
L 212.065043 288.02352 
L 212.736292 288.02352 
L 213.407542 289.310455 
L 214.078791 289.310455 
L 214.75004 286.736585 
L 215.42129 289.310455 
L 216.092539 289.310455 
L 216.763788 284.162716 
L 217.435038 288.02352 
L 218.106287 285.449651 
L 218.777536 289.310455 
L 219.448786 286.736585 
L 220.120035 288.02352 
L 220.791284 288.02352 
L 221.462534 289.310455 
L 222.133783 289.310455 
L 222.805033 285.449651 
L 223.476282 282.875782 
L 225.49003 286.736585 
L 226.832529 281.588847 
L 227.503778 284.162716 
L 228.846277 286.736585 
L 229.517526 281.588847 
L 230.188775 277.728043 
L 230.860025 285.449651 
L 231.531274 279.014978 
L 232.202524 281.588847 
L 233.545022 281.588847 
L 234.216272 280.301913 
L 234.887521 280.301913 
L 235.55877 279.014978 
L 236.23002 273.86724 
L 236.901269 281.588847 
L 237.572518 275.154174 
L 238.243768 267.432517 
L 238.915017 279.014978 
L 239.586266 273.86724 
L 240.257516 267.432517 
L 240.928765 271.293437 
L 241.600014 262.284845 
L 242.271264 266.145599 
L 242.942513 254.563171 
L 243.613763 267.432517 
L 244.285012 242.980744 
L 244.956261 268.719435 
L 245.627511 264.858681 
L 246.29876 251.989335 
L 246.970009 264.858681 
L 247.641259 248.128581 
L 248.312508 248.128581 
L 248.983757 242.980744 
L 249.655007 241.693826 
L 250.326256 233.972317 
L 250.997505 233.972317 
L 251.668755 230.111398 
L 252.340004 236.546154 
L 253.011254 233.972317 
L 253.682503 215.955134 
L 254.353752 226.250644 
L 255.025002 208.233626 
L 255.696251 244.267662 
L 256.3675 231.398316 
L 257.03875 205.659625 
L 257.709999 196.651198 
L 258.381248 204.372706 
L 259.052498 203.085788 
L 259.723747 204.372706 
L 260.394996 203.085788 
L 261.737495 167.051587 
L 262.408745 188.929525 
L 263.079994 155.46916 
L 263.751243 181.208016 
L 264.422493 174.773261 
L 265.093742 161.903915 
L 265.764991 154.182242 
L 266.436241 155.46916 
L 267.10749 164.477751 
L 268.449989 147.747651 
L 269.121238 145.173815 
L 269.792487 129.730468 
L 270.463737 159.330079 
L 271.134986 158.043161 
L 271.806236 164.477751 
L 272.477485 137.452142 
L 273.148734 136.165224 
L 273.819984 118.14804 
L 274.491233 145.173815 
L 275.162482 127.156632 
L 275.833732 134.878306 
L 276.504981 125.869714 
L 277.17623 107.852035 
L 277.84748 127.156632 
L 278.518729 120.721215 
L 279.189978 128.44355 
L 279.861228 140.025978 
L 280.532477 132.30447 
L 281.203726 97.557683 
L 281.874976 106.565447 
L 282.546225 110.426863 
L 283.217475 98.84427 
L 283.888724 82.113674 
L 284.559973 82.113674 
L 285.231223 85.975089 
L 285.902472 96.269442 
L 286.573721 84.688502 
L 287.244971 83.400261 
L 287.91622 102.705685 
L 288.587469 116.861453 
L 289.258719 97.557683 
L 289.929968 85.975089 
L 290.601217 88.548264 
L 291.272467 61.523316 
L 291.943716 42.219545 
L 292.614966 100.130857 
L 293.286215 78.253912 
L 293.957464 92.40968 
L 294.628714 83.400261 
L 295.299963 69.244493 
L 295.971212 75.679084 
L 296.642462 51.22731 
L 297.313711 75.679084 
L 297.98496 69.244493 
L 298.65621 101.417444 
L 299.327459 74.392496 
L 299.998708 101.417444 
L 300.669958 101.417444 
L 301.341207 133.591388 
L 302.012457 84.688502 
L 302.683706 131.017552 
L 303.354955 114.286625 
L 304.026205 129.730468 
L 304.697454 107.852035 
L 305.368703 116.861453 
L 306.039953 149.034569 
L 306.711202 145.173815 
L 307.382451 164.477751 
L 308.053701 137.452142 
L 308.72495 147.747651 
L 309.396199 152.895324 
L 310.067449 164.477751 
L 310.738698 179.920933 
L 311.409947 181.208016 
L 312.081197 203.085788 
L 312.752446 163.190833 
L 313.423696 177.347097 
L 314.094945 203.085788 
L 314.766194 214.668216 
L 315.437444 187.642607 
L 316.108693 209.520544 
L 316.779942 217.242052 
L 317.451192 222.38989 
L 318.122441 217.242052 
L 318.79369 236.546154 
L 319.46494 228.82448 
L 320.136189 217.242052 
L 320.807438 231.398316 
L 321.478688 248.128581 
L 322.149937 235.259235 
L 322.821187 227.537562 
L 323.492436 249.415499 
L 324.163685 254.563171 
L 325.506184 244.267662 
L 326.177433 245.554745 
L 326.848683 253.276253 
L 327.519932 249.415499 
L 328.191181 250.702417 
L 328.862431 260.997927 
L 329.53368 245.554745 
L 330.204929 258.424091 
L 330.876179 259.711009 
L 332.218678 270.006353 
L 332.889927 270.006353 
L 333.561176 263.571763 
L 334.232426 275.154174 
L 334.903675 272.580355 
L 335.574924 279.014978 
L 336.246174 276.441109 
L 336.917423 275.154174 
L 337.588672 281.588847 
L 338.259922 276.441109 
L 338.931171 270.006353 
L 339.60242 281.588847 
L 340.27367 280.301913 
L 340.944919 276.441109 
L 341.616168 281.588847 
L 342.287418 280.301913 
L 342.958667 284.162716 
L 343.629917 276.441109 
L 344.301166 285.449651 
L 344.972415 281.588847 
L 345.643665 285.449651 
L 346.314914 288.02352 
L 346.986163 284.162716 
L 347.657413 289.310455 
L 348.328662 282.875782 
L 348.999911 286.736585 
L 349.671161 285.449651 
L 350.34241 289.310455 
L 351.013659 288.02352 
L 353.698657 288.02352 
L 354.369906 289.310455 
L 355.712405 289.310455 
L 356.383654 288.02352 
L 357.054904 288.02352 
L 357.726153 285.449651 
L 358.397402 288.02352 
L 359.068652 289.310455 
L 359.739901 288.02352 
L 360.41115 289.310455 
L 361.0824 288.02352 
L 361.753649 288.02352 
L 362.424899 289.310455 
L 363.096148 288.02352 
L 363.767397 288.02352 
L 364.438647 289.310455 
L 368.466143 289.310455 
L 369.137392 288.02352 
L 369.808641 289.310455 
L 371.15114 289.310455 
L 371.822389 288.02352 
L 372.493639 289.310455 
L 434.24858 289.310455 
L 434.24858 289.310455 
" style="fill:none;stroke:#0e72cc;stroke-linecap:square;stroke-width:1.5;"/>
   </g>
   <g id="line2d_13">
    <path clip-path="url(#p3491e1d057)" d="M 79.15767 289.310455 
L 204.010051 289.210805 
L 210.722544 288.990893 
L 215.42129 288.6283 
L 218.777536 288.171393 
L 221.462534 287.623367 
L 224.147531 286.849948 
L 226.161279 286.077939 
L 228.175027 285.100418 
L 230.188775 283.874692 
L 232.202524 282.352777 
L 234.216272 280.481741 
L 236.23002 278.204399 
L 238.243768 275.460398 
L 240.257516 272.187744 
L 242.271264 268.324787 
L 244.285012 263.812677 
L 246.29876 258.598238 
L 248.312508 252.637215 
L 250.326256 245.897767 
L 252.340004 238.364072 
L 254.353752 230.039856 
L 257.03875 217.760663 
L 259.723747 204.26053 
L 263.079994 186.015503 
L 274.491233 122.313125 
L 276.504981 112.723911 
L 278.518729 104.198286 
L 279.861228 99.20626 
L 281.203726 94.831524 
L 282.546225 91.122369 
L 283.888724 88.120334 
L 285.231223 85.859427 
L 285.902472 85.015306 
L 286.573721 84.365492 
L 287.244971 83.911856 
L 287.91622 83.655708 
L 288.587469 83.597791 
L 289.258719 83.738271 
L 289.929968 84.076741 
L 290.601217 84.612224 
L 291.272467 85.343174 
L 291.943716 86.267486 
L 293.286215 88.685041 
L 294.628714 91.837301 
L 295.971212 95.688631 
L 297.313711 100.196022 
L 298.65621 105.309885 
L 300.669958 113.995628 
L 302.683706 123.715383 
L 305.368703 137.900814 
L 309.396199 160.709659 
L 315.437444 194.99161 
L 318.79369 212.551033 
L 321.478688 225.334491 
L 323.492436 234.066912 
L 325.506184 242.019781 
L 327.519932 249.17772 
L 329.53368 255.546657 
L 331.547428 261.150425 
L 333.561176 266.027172 
L 335.574924 270.225787 
L 337.588672 273.802509 
L 339.60242 276.817843 
L 341.616168 279.33388 
L 343.629917 281.412057 
L 345.643665 283.111395 
L 347.657413 284.487181 
L 349.671161 285.590075 
L 351.684909 286.465588 
L 354.369906 287.347866 
L 357.054904 287.977262 
L 360.41115 288.505918 
L 364.438647 288.885342 
L 369.808641 289.138406 
L 378.534883 289.275775 
L 401.357361 289.310211 
L 434.24858 289.310455 
L 434.24858 289.310455 
" style="fill:none;stroke:#ff0000;stroke-dasharray:6.4,1.6,1,1.6;stroke-dashoffset:0;"/>
    <defs>
     <path d="M 0 -3 
L -0.673542 -0.927051 
L -2.85317 -0.927051 
L -1.089814 0.354102 
L -1.763356 2.427051 
L -0 1.145898 
L 1.763356 2.427051 
L 1.089814 0.354102 
L 2.85317 -0.927051 
L 0.673542 -0.927051 
z
" id="mf399638a71" style="stroke:#ff0000;stroke-linejoin:bevel;"/>
    </defs>
    <g clip-path="url(#p3491e1d057)">
     <use style="fill:#ff0000;stroke:#ff0000;stroke-linejoin:bevel;" x="79.15767" xlink:href="#mf399638a71" y="289.310455"/>
     <use style="fill:#ff0000;stroke:#ff0000;stroke-linejoin:bevel;" x="92.582658" xlink:href="#mf399638a71" y="289.310455"/>
     <use style="fill:#ff0000;stroke:#ff0000;stroke-linejoin:bevel;" x="106.007645" xlink:href="#mf399638a71" y="289.310455"/>
     <use style="fill:#ff0000;stroke:#ff0000;stroke-linejoin:bevel;" x="119.432632" xlink:href="#mf399638a71" y="289.310455"/>
     <use style="fill:#ff0000;stroke:#ff0000;stroke-linejoin:bevel;" x="132.857619" xlink:href="#mf399638a71" y="289.310455"/>
     <use style="fill:#ff0000;stroke:#ff0000;stroke-linejoin:bevel;" x="146.282606" xlink:href="#mf399638a71" y="289.310454"/>
     <use style="fill:#ff0000;stroke:#ff0000;stroke-linejoin:bevel;" x="159.707593" xlink:href="#mf399638a71" y="289.31045"/>
     <use style="fill:#ff0000;stroke:#ff0000;stroke-linejoin:bevel;" x="173.13258" xlink:href="#mf399638a71" y="289.310319"/>
     <use style="fill:#ff0000;stroke:#ff0000;stroke-linejoin:bevel;" x="186.557567" xlink:href="#mf399638a71" y="289.307388"/>
     <use style="fill:#ff0000;stroke:#ff0000;stroke-linejoin:bevel;" x="199.982554" xlink:href="#mf399638a71" y="289.26317"/>
     <use style="fill:#ff0000;stroke:#ff0000;stroke-linejoin:bevel;" x="213.407542" xlink:href="#mf399638a71" y="288.814712"/>
     <use style="fill:#ff0000;stroke:#ff0000;stroke-linejoin:bevel;" x="226.832529" xlink:href="#mf399638a71" y="285.776931"/>
     <use style="fill:#ff0000;stroke:#ff0000;stroke-linejoin:bevel;" x="240.257516" xlink:href="#mf399638a71" y="272.187744"/>
     <use style="fill:#ff0000;stroke:#ff0000;stroke-linejoin:bevel;" x="253.682503" xlink:href="#mf399638a71" y="232.901295"/>
     <use style="fill:#ff0000;stroke:#ff0000;stroke-linejoin:bevel;" x="267.10749" xlink:href="#mf399638a71" y="162.970904"/>
     <use style="fill:#ff0000;stroke:#ff0000;stroke-linejoin:bevel;" x="280.532477" xlink:href="#mf399638a71" y="96.938564"/>
     <use style="fill:#ff0000;stroke:#ff0000;stroke-linejoin:bevel;" x="293.957464" xlink:href="#mf399638a71" y="90.171378"/>
     <use style="fill:#ff0000;stroke:#ff0000;stroke-linejoin:bevel;" x="307.382451" xlink:href="#mf399638a71" y="149.163408"/>
     <use style="fill:#ff0000;stroke:#ff0000;stroke-linejoin:bevel;" x="320.807438" xlink:href="#mf399638a71" y="222.256561"/>
     <use style="fill:#ff0000;stroke:#ff0000;stroke-linejoin:bevel;" x="334.232426" xlink:href="#mf399638a71" y="267.499401"/>
     <use style="fill:#ff0000;stroke:#ff0000;stroke-linejoin:bevel;" x="347.657413" xlink:href="#mf399638a71" y="284.487181"/>
     <use style="fill:#ff0000;stroke:#ff0000;stroke-linejoin:bevel;" x="361.0824" xlink:href="#mf399638a71" y="288.585318"/>
     <use style="fill:#ff0000;stroke:#ff0000;stroke-linejoin:bevel;" x="374.507387" xlink:href="#mf399638a71" y="289.236339"/>
     <use style="fill:#ff0000;stroke:#ff0000;stroke-linejoin:bevel;" x="387.932374" xlink:href="#mf399638a71" y="289.305304"/>
     <use style="fill:#ff0000;stroke:#ff0000;stroke-linejoin:bevel;" x="401.357361" xlink:href="#mf399638a71" y="289.310211"/>
     <use style="fill:#ff0000;stroke:#ff0000;stroke-linejoin:bevel;" x="414.782348" xlink:href="#mf399638a71" y="289.310447"/>
     <use style="fill:#ff0000;stroke:#ff0000;stroke-linejoin:bevel;" x="428.207335" xlink:href="#mf399638a71" y="289.310454"/>
    </g>
   </g>
   <g id="line2d_14">
    <path clip-path="url(#p3491e1d057)" d="M 79.15767 289.310455 
L 201.996303 289.203268 
L 208.708796 288.979309 
L 213.407542 288.619642 
L 216.763788 288.173939 
L 219.448786 287.645447 
L 222.133783 286.906546 
L 224.818781 285.890026 
L 226.832529 284.89686 
L 228.846277 283.661882 
L 230.860025 282.140455 
L 232.873773 280.283654 
L 234.887521 278.038925 
L 236.901269 275.351076 
L 238.915017 272.163635 
L 240.928765 268.420603 
L 242.942513 264.068593 
L 244.956261 259.059321 
L 246.970009 253.352399 
L 248.983757 246.918347 
L 250.997505 239.741693 
L 253.011254 231.824017 
L 255.696251 220.154679 
L 258.381248 207.322052 
L 261.737495 189.943257 
L 266.436241 164.143472 
L 271.134986 138.537636 
L 273.819984 124.950035 
L 275.833732 115.633236 
L 277.84748 107.288939 
L 279.861228 100.103602 
L 281.203726 96.040068 
L 282.546225 92.608353 
L 283.888724 89.8449 
L 285.231223 87.779368 
L 285.902472 87.015606 
L 286.573721 86.434111 
L 287.244971 86.03647 
L 287.91622 85.823768 
L 288.587469 85.796588 
L 289.258719 85.955004 
L 289.929968 86.298583 
L 290.601217 86.826385 
L 291.272467 87.53697 
L 292.614966 89.498266 
L 293.957464 92.161223 
L 295.299963 95.497221 
L 296.642462 99.470775 
L 297.98496 104.040163 
L 299.998708 111.906815 
L 302.012457 120.828449 
L 304.697454 134.025939 
L 308.053701 151.927742 
L 316.779942 199.51224 
L 319.46494 212.930865 
L 322.149937 225.285711 
L 324.834935 236.419758 
L 326.848683 243.917042 
L 328.862431 250.670141 
L 330.876179 256.687544 
L 332.889927 261.993075 
L 334.903675 266.622799 
L 336.917423 270.621953 
L 338.931171 274.042053 
L 340.944919 276.938254 
L 342.958667 279.367062 
L 344.972415 281.384411 
L 346.986163 283.044134 
L 348.999911 284.396818 
L 351.013659 285.489009 
L 353.027408 286.362732 
L 355.712405 287.251634 
L 358.397402 287.893319 
L 361.753649 288.440016 
L 365.781145 288.839851 
L 371.15114 289.113503 
L 379.206132 289.262661 
L 398.001114 289.309401 
L 434.24858 289.310454 
L 434.24858 289.310454 
" style="fill:none;stroke:#f59311;stroke-linecap:square;stroke-width:1.5;"/>
   </g>
   <g id="patch_3">
    <path d="M 61.403125 301.665 
L 61.403125 29.865 
" style="fill:none;stroke:#000000;stroke-linecap:square;stroke-linejoin:miter;stroke-width:0.8;"/>
   </g>
   <g id="patch_4">
    <path d="M 452.003125 301.665 
L 452.003125 29.865 
" style="fill:none;stroke:#000000;stroke-linecap:square;stroke-linejoin:miter;stroke-width:0.8;"/>
   </g>
   <g id="patch_5">
    <path d="M 61.403125 301.665 
L 452.003125 301.665 
" style="fill:none;stroke:#000000;stroke-linecap:square;stroke-linejoin:miter;stroke-width:0.8;"/>
   </g>
   <g id="patch_6">
    <path d="M 61.403125 29.865 
L 452.003125 29.865 
" style="fill:none;stroke:#000000;stroke-linecap:square;stroke-linejoin:miter;stroke-width:0.8;"/>
   </g>
   <g id="text_14">
    <!-- Velocity Distribution -->
    <g transform="translate(155.715625 23.865)scale(0.24 -0.24)">
     <defs>
      <path d="M 71 66.21875 
L 71 64.40625 
Q 67.484375 63.765625 65.671875 62.15625 
Q 63.09375 59.765625 61.078125 54.828125 
L 37.984375 -1.515625 
L 36.1875 -1.515625 
L 11.375 55.5625 
Q 9.46875 59.96875 8.6875 60.9375 
Q 7.46875 62.453125 5.6875 63.296875 
Q 3.90625 64.15625 0.875 64.40625 
L 0.875 66.21875 
L 27.9375 66.21875 
L 27.9375 64.40625 
Q 23.34375 63.96875 21.96875 62.84375 
Q 20.609375 61.71875 20.609375 59.96875 
Q 20.609375 57.515625 22.859375 52.34375 
L 39.703125 13.53125 
L 55.328125 51.859375 
Q 57.625 57.515625 57.625 59.71875 
Q 57.625 61.140625 56.203125 62.421875 
Q 54.78125 63.71875 51.421875 64.265625 
Q 51.171875 64.3125 50.59375 64.40625 
L 50.59375 66.21875 
z
" id="TimesNewRomanPSMT-86"/>
      <path d="M 10.640625 27.875 
Q 10.59375 17.921875 15.484375 12.25 
Q 20.359375 6.59375 26.953125 6.59375 
Q 31.34375 6.59375 34.59375 9 
Q 37.84375 11.421875 40.046875 17.28125 
L 41.546875 16.3125 
Q 40.53125 9.625 35.59375 4.125 
Q 30.671875 -1.375 23.25 -1.375 
Q 15.1875 -1.375 9.453125 4.90625 
Q 3.71875 11.1875 3.71875 21.78125 
Q 3.71875 33.25 9.59375 39.671875 
Q 15.484375 46.09375 24.359375 46.09375 
Q 31.890625 46.09375 36.71875 41.140625 
Q 41.546875 36.1875 41.546875 27.875 
z
M 10.640625 30.71875 
L 31.34375 30.71875 
Q 31.109375 35.015625 30.328125 36.765625 
Q 29.109375 39.5 26.6875 41.0625 
Q 24.265625 42.625 21.625 42.625 
Q 17.578125 42.625 14.375 39.46875 
Q 11.1875 36.328125 10.640625 30.71875 
z
" id="TimesNewRomanPSMT-101"/>
      <path d="M 41.109375 17 
Q 39.3125 8.15625 34.03125 3.390625 
Q 28.765625 -1.375 22.359375 -1.375 
Q 14.75 -1.375 9.078125 5.015625 
Q 3.421875 11.421875 3.421875 22.3125 
Q 3.421875 32.859375 9.6875 39.453125 
Q 15.96875 46.046875 24.75 46.046875 
Q 31.34375 46.046875 35.59375 42.546875 
Q 39.84375 39.0625 39.84375 35.296875 
Q 39.84375 33.453125 38.640625 32.296875 
Q 37.453125 31.15625 35.296875 31.15625 
Q 32.421875 31.15625 30.953125 33.015625 
Q 30.125 34.03125 29.859375 36.90625 
Q 29.59375 39.796875 27.875 41.3125 
Q 26.171875 42.78125 23.140625 42.78125 
Q 18.265625 42.78125 15.28125 39.15625 
Q 11.328125 34.375 11.328125 26.515625 
Q 11.328125 18.5 15.25 12.375 
Q 19.1875 6.25 25.875 6.25 
Q 30.671875 6.25 34.46875 9.515625 
Q 37.15625 11.765625 39.703125 17.671875 
z
" id="TimesNewRomanPSMT-99"/>
      <path id="TimesNewRomanPSMT-32"/>
      <path d="M 1.703125 0 
L 1.703125 1.8125 
L 4.203125 1.8125 
Q 8.40625 1.8125 10.15625 4.5 
Q 11.234375 6.109375 11.234375 11.71875 
L 11.234375 54.5 
Q 11.234375 60.6875 9.859375 62.25 
Q 7.953125 64.40625 4.203125 64.40625 
L 1.703125 64.40625 
L 1.703125 66.21875 
L 28.65625 66.21875 
Q 43.5 66.21875 51.234375 62.84375 
Q 58.984375 59.46875 63.6875 51.609375 
Q 68.40625 43.75 68.40625 33.453125 
Q 68.40625 19.625 60.015625 10.359375 
Q 50.59375 0 31.296875 0 
z
M 20.609375 4.78125 
Q 26.8125 3.421875 31 3.421875 
Q 42.328125 3.421875 49.796875 11.375 
Q 57.28125 19.34375 57.28125 32.953125 
Q 57.28125 46.6875 49.796875 54.59375 
Q 42.328125 62.5 30.609375 62.5 
Q 26.21875 62.5 20.609375 61.078125 
z
" id="TimesNewRomanPSMT-68"/>
      <path d="M 32.03125 46.046875 
L 32.03125 30.8125 
L 30.421875 30.8125 
Q 28.5625 37.984375 25.65625 40.578125 
Q 22.75 43.171875 18.265625 43.171875 
Q 14.84375 43.171875 12.734375 41.359375 
Q 10.640625 39.546875 10.640625 37.359375 
Q 10.640625 34.625 12.203125 32.671875 
Q 13.71875 30.671875 18.359375 28.421875 
L 25.484375 24.953125 
Q 35.40625 20.125 35.40625 12.203125 
Q 35.40625 6.109375 30.78125 2.359375 
Q 26.171875 -1.375 20.453125 -1.375 
Q 16.359375 -1.375 11.078125 0.09375 
Q 9.46875 0.59375 8.453125 0.59375 
Q 7.328125 0.59375 6.6875 -0.6875 
L 5.078125 -0.6875 
L 5.078125 15.28125 
L 6.6875 15.28125 
Q 8.0625 8.453125 11.90625 4.984375 
Q 15.765625 1.515625 20.5625 1.515625 
Q 23.921875 1.515625 26.046875 3.484375 
Q 28.171875 5.46875 28.171875 8.25 
Q 28.171875 11.625 25.796875 13.921875 
Q 23.4375 16.21875 16.359375 19.734375 
Q 9.28125 23.25 7.078125 26.078125 
Q 4.890625 28.859375 4.890625 33.109375 
Q 4.890625 38.625 8.671875 42.328125 
Q 12.453125 46.046875 18.453125 46.046875 
Q 21.09375 46.046875 24.859375 44.921875 
Q 27.34375 44.1875 28.171875 44.1875 
Q 28.953125 44.1875 29.390625 44.53125 
Q 29.828125 44.875 30.421875 46.046875 
z
" id="TimesNewRomanPSMT-115"/>
      <path d="M 42.328125 44.734375 
L 42.328125 17.625 
Q 42.328125 9.859375 42.6875 8.125 
Q 43.0625 6.390625 43.859375 5.703125 
Q 44.671875 5.03125 45.75 5.03125 
Q 47.265625 5.03125 49.171875 5.859375 
L 49.859375 4.15625 
L 36.46875 -1.375 
L 34.28125 -1.375 
L 34.28125 8.109375 
Q 28.515625 1.859375 25.484375 0.234375 
Q 22.46875 -1.375 19.09375 -1.375 
Q 15.328125 -1.375 12.5625 0.796875 
Q 9.8125 2.984375 8.734375 6.390625 
Q 7.671875 9.8125 7.671875 16.0625 
L 7.671875 36.03125 
Q 7.671875 39.203125 6.984375 40.421875 
Q 6.296875 41.65625 4.953125 42.3125 
Q 3.609375 42.96875 0.09375 42.921875 
L 0.09375 44.734375 
L 15.765625 44.734375 
L 15.765625 14.796875 
Q 15.765625 8.546875 17.9375 6.59375 
Q 20.125 4.640625 23.1875 4.640625 
Q 25.296875 4.640625 27.953125 5.953125 
Q 30.609375 7.28125 34.28125 10.984375 
L 34.28125 36.328125 
Q 34.28125 40.140625 32.890625 41.484375 
Q 31.5 42.828125 27.09375 42.921875 
L 27.09375 44.734375 
z
" id="TimesNewRomanPSMT-117"/>
      <path d="M 16.15625 36.578125 
Q 24.03125 46.046875 31.15625 46.046875 
Q 34.8125 46.046875 37.453125 44.21875 
Q 40.09375 42.390625 41.65625 38.1875 
Q 42.71875 35.25 42.71875 29.203125 
L 42.71875 10.109375 
Q 42.71875 5.859375 43.40625 4.34375 
Q 43.953125 3.125 45.140625 2.4375 
Q 46.34375 1.765625 49.5625 1.765625 
L 49.5625 0 
L 27.4375 0 
L 27.4375 1.765625 
L 28.375 1.765625 
Q 31.5 1.765625 32.734375 2.703125 
Q 33.984375 3.65625 34.46875 5.515625 
Q 34.671875 6.25 34.671875 10.109375 
L 34.671875 28.421875 
Q 34.671875 34.515625 33.078125 37.28125 
Q 31.5 40.046875 27.734375 40.046875 
Q 21.921875 40.046875 16.15625 33.6875 
L 16.15625 10.109375 
Q 16.15625 5.5625 16.703125 4.5 
Q 17.390625 3.078125 18.578125 2.421875 
Q 19.78125 1.765625 23.4375 1.765625 
L 23.4375 0 
L 1.3125 0 
L 1.3125 1.765625 
L 2.296875 1.765625 
Q 5.71875 1.765625 6.90625 3.484375 
Q 8.109375 5.21875 8.109375 10.109375 
L 8.109375 26.703125 
Q 8.109375 34.765625 7.734375 36.515625 
Q 7.375 38.28125 6.609375 38.90625 
Q 5.859375 39.546875 4.59375 39.546875 
Q 3.21875 39.546875 1.3125 38.8125 
L 0.59375 40.578125 
L 14.0625 46.046875 
L 16.15625 46.046875 
z
" id="TimesNewRomanPSMT-110"/>
     </defs>
     <use xlink:href="#TimesNewRomanPSMT-86"/>
     <use x="61.091797" xlink:href="#TimesNewRomanPSMT-101"/>
     <use x="105.476562" xlink:href="#TimesNewRomanPSMT-108"/>
     <use x="133.259766" xlink:href="#TimesNewRomanPSMT-111"/>
     <use x="183.259766" xlink:href="#TimesNewRomanPSMT-99"/>
     <use x="227.644531" xlink:href="#TimesNewRomanPSMT-105"/>
     <use x="255.427734" xlink:href="#TimesNewRomanPSMT-116"/>
     <use x="283.210938" xlink:href="#TimesNewRomanPSMT-121"/>
     <use x="333.210938" xlink:href="#TimesNewRomanPSMT-32"/>
     <use x="358.210938" xlink:href="#TimesNewRomanPSMT-68"/>
     <use x="430.427734" xlink:href="#TimesNewRomanPSMT-105"/>
     <use x="458.210938" xlink:href="#TimesNewRomanPSMT-115"/>
     <use x="497.126953" xlink:href="#TimesNewRomanPSMT-116"/>
     <use x="524.910156" xlink:href="#TimesNewRomanPSMT-114"/>
     <use x="558.210938" xlink:href="#TimesNewRomanPSMT-105"/>
     <use x="585.994141" xlink:href="#TimesNewRomanPSMT-98"/>
     <use x="635.994141" xlink:href="#TimesNewRomanPSMT-117"/>
     <use x="685.994141" xlink:href="#TimesNewRomanPSMT-116"/>
     <use x="713.777344" xlink:href="#TimesNewRomanPSMT-105"/>
     <use x="741.560547" xlink:href="#TimesNewRomanPSMT-111"/>
     <use x="791.560547" xlink:href="#TimesNewRomanPSMT-110"/>
    </g>
   </g>
   <g id="legend_1">
    <g id="patch_7">
     <path d="M 74.003125 120.683437 
L 248.035 120.683437 
Q 251.635 120.683437 251.635 117.083437 
L 251.635 42.465 
Q 251.635 38.865 248.035 38.865 
L 74.003125 38.865 
Q 70.403125 38.865 70.403125 42.465 
L 70.403125 117.083437 
Q 70.403125 120.683437 74.003125 120.683437 
z
" style="fill:#ffffff;opacity:0.8;stroke:#cccccc;stroke-linejoin:miter;"/>
    </g>
    <g id="line2d_15">
     <path d="M 77.603125 52.365 
L 113.603125 52.365 
" style="fill:none;stroke:#0e72cc;stroke-linecap:square;stroke-width:1.5;"/>
    </g>
    <g id="line2d_16"/>
    <g id="text_15">
     <!-- Training set -->
     <g transform="translate(128.003125 58.665)scale(0.18 -0.18)">
      <defs>
       <path d="M 57.859375 66.21875 
L 58.59375 50.6875 
L 56.734375 50.6875 
Q 56.203125 54.78125 55.28125 56.546875 
Q 53.765625 59.375 51.25 60.71875 
Q 48.734375 62.0625 44.625 62.0625 
L 35.296875 62.0625 
L 35.296875 11.46875 
Q 35.296875 5.375 36.625 3.859375 
Q 38.484375 1.8125 42.328125 1.8125 
L 44.625 1.8125 
L 44.625 0 
L 16.546875 0 
L 16.546875 1.8125 
L 18.890625 1.8125 
Q 23.09375 1.8125 24.859375 4.34375 
Q 25.921875 5.90625 25.921875 11.46875 
L 25.921875 62.0625 
L 17.96875 62.0625 
Q 13.328125 62.0625 11.375 61.375 
Q 8.84375 60.453125 7.03125 57.8125 
Q 5.21875 55.171875 4.890625 50.6875 
L 3.03125 50.6875 
L 3.8125 66.21875 
z
" id="TimesNewRomanPSMT-84"/>
       <path d="M 15.09375 16.3125 
Q 10.984375 18.3125 8.78125 21.890625 
Q 6.59375 25.484375 6.59375 29.828125 
Q 6.59375 36.46875 11.59375 41.25 
Q 16.609375 46.046875 24.421875 46.046875 
Q 30.8125 46.046875 35.5 42.921875 
L 44.96875 42.921875 
Q 47.078125 42.921875 47.40625 42.796875 
Q 47.75 42.671875 47.90625 42.390625 
Q 48.1875 41.9375 48.1875 40.828125 
Q 48.1875 39.546875 47.953125 39.0625 
Q 47.796875 38.8125 47.4375 38.671875 
Q 47.078125 38.53125 44.96875 38.53125 
L 39.15625 38.53125 
Q 41.890625 35.015625 41.890625 29.546875 
Q 41.890625 23.296875 37.109375 18.84375 
Q 32.328125 14.40625 24.265625 14.40625 
Q 20.953125 14.40625 17.484375 15.375 
Q 15.328125 13.53125 14.5625 12.140625 
Q 13.8125 10.75 13.8125 9.765625 
Q 13.8125 8.9375 14.625 8.15625 
Q 15.4375 7.375 17.78125 7.03125 
Q 19.140625 6.84375 24.609375 6.6875 
Q 34.671875 6.453125 37.640625 6 
Q 42.1875 5.375 44.890625 2.640625 
Q 47.609375 -0.09375 47.609375 -4.109375 
Q 47.609375 -9.625 42.4375 -14.453125 
Q 34.8125 -21.578125 22.5625 -21.578125 
Q 13.140625 -21.578125 6.640625 -17.328125 
Q 2.984375 -14.890625 2.984375 -12.25 
Q 2.984375 -11.078125 3.515625 -9.90625 
Q 4.34375 -8.109375 6.9375 -4.890625 
Q 7.28125 -4.4375 11.921875 0.390625 
Q 9.375 1.90625 8.328125 3.09375 
Q 7.28125 4.296875 7.28125 5.8125 
Q 7.28125 7.515625 8.671875 9.8125 
Q 10.0625 12.109375 15.09375 16.3125 
z
M 23.578125 43.703125 
Q 19.96875 43.703125 17.53125 40.8125 
Q 15.09375 37.9375 15.09375 31.984375 
Q 15.09375 24.265625 18.40625 20.015625 
Q 20.953125 16.796875 24.859375 16.796875 
Q 28.5625 16.796875 30.953125 19.578125 
Q 33.34375 22.359375 33.34375 28.328125 
Q 33.34375 36.078125 29.984375 40.484375 
Q 27.484375 43.703125 23.578125 43.703125 
z
M 14.59375 0 
Q 12.3125 -2.484375 11.140625 -4.625 
Q 9.96875 -6.78125 9.96875 -8.59375 
Q 9.96875 -10.9375 12.796875 -12.703125 
Q 17.671875 -15.71875 26.90625 -15.71875 
Q 35.6875 -15.71875 39.859375 -12.609375 
Q 44.046875 -9.515625 44.046875 -6 
Q 44.046875 -3.46875 41.546875 -2.390625 
Q 39.015625 -1.3125 31.5 -1.125 
Q 20.515625 -0.828125 14.59375 0 
z
" id="TimesNewRomanPSMT-103"/>
      </defs>
      <use xlink:href="#TimesNewRomanPSMT-84"/>
      <use x="57.583984" xlink:href="#TimesNewRomanPSMT-114"/>
      <use x="90.884766" xlink:href="#TimesNewRomanPSMT-97"/>
      <use x="135.269531" xlink:href="#TimesNewRomanPSMT-105"/>
      <use x="163.052734" xlink:href="#TimesNewRomanPSMT-110"/>
      <use x="213.052734" xlink:href="#TimesNewRomanPSMT-105"/>
      <use x="240.835938" xlink:href="#TimesNewRomanPSMT-110"/>
      <use x="290.835938" xlink:href="#TimesNewRomanPSMT-103"/>
      <use x="340.835938" xlink:href="#TimesNewRomanPSMT-32"/>
      <use x="365.835938" xlink:href="#TimesNewRomanPSMT-115"/>
      <use x="404.751953" xlink:href="#TimesNewRomanPSMT-101"/>
      <use x="449.136719" xlink:href="#TimesNewRomanPSMT-116"/>
     </g>
    </g>
    <g id="line2d_17">
     <path d="M 77.603125 77.849062 
L 113.603125 77.849062 
" style="fill:none;stroke:#ff0000;stroke-dasharray:6.4,1.6,1,1.6;stroke-dashoffset:0;"/>
    </g>
    <g id="line2d_18">
     <g>
      <use style="fill:#ff0000;stroke:#ff0000;stroke-linejoin:bevel;" x="95.603125" xlink:href="#mf399638a71" y="77.849062"/>
     </g>
    </g>
    <g id="text_16">
     <!-- Theoretical data -->
     <g transform="translate(128.003125 84.149062)scale(0.18 -0.18)">
      <defs>
       <path d="M 16.265625 69.4375 
L 16.265625 36.71875 
Q 21.6875 42.671875 24.859375 44.359375 
Q 28.03125 46.046875 31.203125 46.046875 
Q 35.015625 46.046875 37.75 43.9375 
Q 40.484375 41.84375 41.796875 37.359375 
Q 42.71875 34.234375 42.71875 25.921875 
L 42.71875 10.109375 
Q 42.71875 5.859375 43.40625 4.296875 
Q 43.890625 3.125 45.0625 2.4375 
Q 46.234375 1.765625 49.359375 1.765625 
L 49.359375 0 
L 27.390625 0 
L 27.390625 1.765625 
L 28.421875 1.765625 
Q 31.546875 1.765625 32.765625 2.703125 
Q 33.984375 3.65625 34.46875 5.515625 
Q 34.625 6.296875 34.625 10.109375 
L 34.625 25.921875 
Q 34.625 33.25 33.859375 35.546875 
Q 33.109375 37.84375 31.4375 38.984375 
Q 29.78125 40.140625 27.4375 40.140625 
Q 25.046875 40.140625 22.453125 38.859375 
Q 19.875 37.59375 16.265625 33.734375 
L 16.265625 10.109375 
Q 16.265625 5.515625 16.765625 4.390625 
Q 17.28125 3.265625 18.671875 2.515625 
Q 20.0625 1.765625 23.484375 1.765625 
L 23.484375 0 
L 1.3125 0 
L 1.3125 1.765625 
Q 4.296875 1.765625 6 2.6875 
Q 6.984375 3.171875 7.5625 4.53125 
Q 8.15625 5.90625 8.15625 10.109375 
L 8.15625 50.59375 
Q 8.15625 58.25 7.78125 60 
Q 7.421875 61.765625 6.65625 62.390625 
Q 5.90625 63.03125 4.640625 63.03125 
Q 3.609375 63.03125 1.3125 62.25 
L 0.640625 63.96875 
L 14.015625 69.4375 
z
" id="TimesNewRomanPSMT-104"/>
       <path d="M 34.71875 5.03125 
Q 31.453125 1.609375 28.328125 0.109375 
Q 25.203125 -1.375 21.578125 -1.375 
Q 14.265625 -1.375 8.796875 4.75 
Q 3.328125 10.890625 3.328125 20.515625 
Q 3.328125 30.125 9.375 38.109375 
Q 15.4375 46.09375 24.953125 46.09375 
Q 30.859375 46.09375 34.71875 42.328125 
L 34.71875 50.59375 
Q 34.71875 58.25 34.34375 60 
Q 33.984375 61.765625 33.203125 62.390625 
Q 32.421875 63.03125 31.25 63.03125 
Q 29.984375 63.03125 27.875 62.25 
L 27.25 63.96875 
L 40.578125 69.4375 
L 42.78125 69.4375 
L 42.78125 17.71875 
Q 42.78125 9.859375 43.140625 8.125 
Q 43.5 6.390625 44.3125 5.703125 
Q 45.125 5.03125 46.1875 5.03125 
Q 47.515625 5.03125 49.703125 5.859375 
L 50.25 4.15625 
L 36.96875 -1.375 
L 34.71875 -1.375 
z
M 34.71875 8.453125 
L 34.71875 31.5 
Q 34.421875 34.8125 32.953125 37.546875 
Q 31.5 40.28125 29.078125 41.671875 
Q 26.65625 43.0625 24.359375 43.0625 
Q 20.0625 43.0625 16.703125 39.203125 
Q 12.25 34.125 12.25 24.359375 
Q 12.25 14.5 16.546875 9.25 
Q 20.84375 4 26.125 4 
Q 30.5625 4 34.71875 8.453125 
z
" id="TimesNewRomanPSMT-100"/>
      </defs>
      <use xlink:href="#TimesNewRomanPSMT-84"/>
      <use x="61.083984" xlink:href="#TimesNewRomanPSMT-104"/>
      <use x="111.083984" xlink:href="#TimesNewRomanPSMT-101"/>
      <use x="155.46875" xlink:href="#TimesNewRomanPSMT-111"/>
      <use x="205.46875" xlink:href="#TimesNewRomanPSMT-114"/>
      <use x="238.769531" xlink:href="#TimesNewRomanPSMT-101"/>
      <use x="283.154297" xlink:href="#TimesNewRomanPSMT-116"/>
      <use x="310.9375" xlink:href="#TimesNewRomanPSMT-105"/>
      <use x="338.720703" xlink:href="#TimesNewRomanPSMT-99"/>
      <use x="383.105469" xlink:href="#TimesNewRomanPSMT-97"/>
      <use x="427.490234" xlink:href="#TimesNewRomanPSMT-108"/>
      <use x="455.273438" xlink:href="#TimesNewRomanPSMT-32"/>
      <use x="480.273438" xlink:href="#TimesNewRomanPSMT-100"/>
      <use x="530.273438" xlink:href="#TimesNewRomanPSMT-97"/>
      <use x="574.658203" xlink:href="#TimesNewRomanPSMT-116"/>
      <use x="602.441406" xlink:href="#TimesNewRomanPSMT-97"/>
     </g>
    </g>
    <g id="line2d_19">
     <path d="M 77.603125 103.299375 
L 113.603125 103.299375 
" style="fill:none;stroke:#f59311;stroke-linecap:square;stroke-width:1.5;"/>
    </g>
    <g id="line2d_20"/>
    <g id="text_17">
     <!-- Symbolic data -->
     <g transform="translate(128.003125 109.599375)scale(0.18 -0.18)">
      <defs>
       <path d="M 45.84375 67.71875 
L 45.84375 44.828125 
L 44.046875 44.828125 
Q 43.171875 51.421875 40.890625 55.328125 
Q 38.625 59.234375 34.421875 61.515625 
Q 30.21875 63.8125 25.734375 63.8125 
Q 20.65625 63.8125 17.328125 60.71875 
Q 14.015625 57.625 14.015625 53.65625 
Q 14.015625 50.640625 16.109375 48.140625 
Q 19.140625 44.484375 30.515625 38.375 
Q 39.796875 33.40625 43.1875 30.734375 
Q 46.578125 28.078125 48.40625 24.453125 
Q 50.25 20.84375 50.25 16.890625 
Q 50.25 9.375 44.40625 3.921875 
Q 38.578125 -1.515625 29.390625 -1.515625 
Q 26.515625 -1.515625 23.96875 -1.078125 
Q 22.46875 -0.828125 17.703125 0.703125 
Q 12.9375 2.25 11.671875 2.25 
Q 10.453125 2.25 9.734375 1.515625 
Q 9.03125 0.78125 8.6875 -1.515625 
L 6.890625 -1.515625 
L 6.890625 21.1875 
L 8.6875 21.1875 
Q 9.96875 14.0625 12.109375 10.515625 
Q 14.265625 6.984375 18.671875 4.640625 
Q 23.09375 2.296875 28.375 2.296875 
Q 34.46875 2.296875 38 5.515625 
Q 41.546875 8.734375 41.546875 13.140625 
Q 41.546875 15.578125 40.203125 18.0625 
Q 38.875 20.5625 36.03125 22.703125 
Q 34.125 24.171875 25.625 28.921875 
Q 17.140625 33.6875 13.546875 36.515625 
Q 9.96875 39.359375 8.109375 42.765625 
Q 6.25 46.1875 6.25 50.296875 
Q 6.25 57.421875 11.71875 62.5625 
Q 17.1875 67.71875 25.640625 67.71875 
Q 30.90625 67.71875 36.8125 65.140625 
Q 39.546875 63.921875 40.671875 63.921875 
Q 41.9375 63.921875 42.75 64.671875 
Q 43.5625 65.4375 44.046875 67.71875 
z
" id="TimesNewRomanPSMT-83"/>
       <path d="M 16.40625 36.53125 
Q 21.296875 41.40625 22.171875 42.140625 
Q 24.359375 44 26.890625 45.015625 
Q 29.4375 46.046875 31.9375 46.046875 
Q 36.140625 46.046875 39.15625 43.59375 
Q 42.1875 41.15625 43.21875 36.53125 
Q 48.25 42.390625 51.703125 44.21875 
Q 55.171875 46.046875 58.84375 46.046875 
Q 62.40625 46.046875 65.15625 44.21875 
Q 67.921875 42.390625 69.53125 38.234375 
Q 70.609375 35.40625 70.609375 29.34375 
L 70.609375 10.109375 
Q 70.609375 5.90625 71.234375 4.34375 
Q 71.734375 3.265625 73.046875 2.515625 
Q 74.359375 1.765625 77.34375 1.765625 
L 77.34375 0 
L 55.28125 0 
L 55.28125 1.765625 
L 56.203125 1.765625 
Q 59.078125 1.765625 60.6875 2.875 
Q 61.8125 3.65625 62.3125 5.375 
Q 62.5 6.203125 62.5 10.109375 
L 62.5 29.34375 
Q 62.5 34.8125 61.1875 37.0625 
Q 59.28125 40.1875 55.078125 40.1875 
Q 52.484375 40.1875 49.875 38.890625 
Q 47.265625 37.59375 43.5625 34.078125 
L 43.453125 33.546875 
L 43.5625 31.453125 
L 43.5625 10.109375 
Q 43.5625 5.515625 44.0625 4.390625 
Q 44.578125 3.265625 45.984375 2.515625 
Q 47.40625 1.765625 50.828125 1.765625 
L 50.828125 0 
L 28.21875 0 
L 28.21875 1.765625 
Q 31.9375 1.765625 33.328125 2.640625 
Q 34.71875 3.515625 35.25 5.28125 
Q 35.5 6.109375 35.5 10.109375 
L 35.5 29.34375 
Q 35.5 34.8125 33.890625 37.203125 
Q 31.734375 40.328125 27.875 40.328125 
Q 25.25 40.328125 22.65625 38.921875 
Q 18.609375 36.765625 16.40625 34.078125 
L 16.40625 10.109375 
Q 16.40625 5.71875 17.015625 4.390625 
Q 17.625 3.078125 18.8125 2.421875 
Q 20.015625 1.765625 23.6875 1.765625 
L 23.6875 0 
L 1.5625 0 
L 1.5625 1.765625 
Q 4.640625 1.765625 5.859375 2.421875 
Q 7.078125 3.078125 7.703125 4.515625 
Q 8.34375 5.953125 8.34375 10.109375 
L 8.34375 27.203125 
Q 8.34375 34.578125 7.90625 36.71875 
Q 7.5625 38.328125 6.828125 38.9375 
Q 6.109375 39.546875 4.828125 39.546875 
Q 3.46875 39.546875 1.5625 38.8125 
L 0.828125 40.578125 
L 14.3125 46.046875 
L 16.40625 46.046875 
z
" id="TimesNewRomanPSMT-109"/>
      </defs>
      <use xlink:href="#TimesNewRomanPSMT-83"/>
      <use x="55.615234" xlink:href="#TimesNewRomanPSMT-121"/>
      <use x="105.615234" xlink:href="#TimesNewRomanPSMT-109"/>
      <use x="183.398438" xlink:href="#TimesNewRomanPSMT-98"/>
      <use x="233.398438" xlink:href="#TimesNewRomanPSMT-111"/>
      <use x="283.398438" xlink:href="#TimesNewRomanPSMT-108"/>
      <use x="311.181641" xlink:href="#TimesNewRomanPSMT-105"/>
      <use x="338.964844" xlink:href="#TimesNewRomanPSMT-99"/>
      <use x="383.349609" xlink:href="#TimesNewRomanPSMT-32"/>
      <use x="408.349609" xlink:href="#TimesNewRomanPSMT-100"/>
      <use x="458.349609" xlink:href="#TimesNewRomanPSMT-97"/>
      <use x="502.734375" xlink:href="#TimesNewRomanPSMT-116"/>
      <use x="530.517578" xlink:href="#TimesNewRomanPSMT-97"/>
     </g>
    </g>
   </g>
  </g>
 </g>
 <defs>
  <clipPath id="p3491e1d057">
   <rect height="271.8" width="390.6" x="61.403125" y="29.865"/>
  </clipPath>
 </defs>
</svg>
