<?xml version="1.0" encoding="utf-8" standalone="no"?>
<!DOCTYPE svg PUBLIC "-//W3C//DTD SVG 1.1//EN"
  "http://www.w3.org/Graphics/SVG/1.1/DTD/svg11.dtd">
<!-- Created with matplotlib (https://matplotlib.org/) -->
<svg height="356.230625pt" version="1.1" viewBox="0 0 459.203125 356.230625" width="459.203125pt" xmlns="http://www.w3.org/2000/svg" xmlns:xlink="http://www.w3.org/1999/xlink">
 <metadata>
  <rdf:RDF xmlns:cc="http://creativecommons.org/ns#" xmlns:dc="http://purl.org/dc/elements/1.1/" xmlns:rdf="http://www.w3.org/1999/02/22-rdf-syntax-ns#">
   <cc:Work>
    <dc:type rdf:resource="http://purl.org/dc/dcmitype/StillImage"/>
    <dc:date>2021-04-07T13:25:52.452756</dc:date>
    <dc:format>image/svg+xml</dc:format>
    <dc:creator>
     <cc:Agent>
      <dc:title>Matplotlib v3.3.2, https://matplotlib.org/</dc:title>
     </cc:Agent>
    </dc:creator>
   </cc:Work>
  </rdf:RDF>
 </metadata>
 <defs>
  <style type="text/css">*{stroke-linecap:butt;stroke-linejoin:round;}</style>
 </defs>
 <g id="figure_1">
  <g id="patch_1">
   <path d="M 0 356.230625 
L 459.203125 356.230625 
L 459.203125 0 
L 0 0 
z
" style="fill:none;"/>
  </g>
  <g id="axes_1">
   <g id="patch_2">
    <path d="M 61.403125 301.665 
L 452.003125 301.665 
L 452.003125 29.865 
L 61.403125 29.865 
z
" style="fill:#ffffff;"/>
   </g>
   <g id="matplotlib.axis_1">
    <g id="xtick_1">
     <g id="line2d_1">
      <defs>
       <path d="M 0 0 
L 0 3.5 
" id="m01facd8ce5" style="stroke:#000000;stroke-width:0.8;"/>
      </defs>
      <g>
       <use style="stroke:#000000;stroke-width:0.8;" x="78.48515" xlink:href="#m01facd8ce5" y="301.665"/>
      </g>
     </g>
     <g id="text_1">
      <!-- 0 -->
      <g transform="translate(73.48515 322.5525)scale(0.2 -0.2)">
       <defs>
        <path d="M 3.609375 32.71875 
Q 3.609375 44.046875 7.03125 52.21875 
Q 10.453125 60.40625 16.109375 64.40625 
Q 20.515625 67.578125 25.203125 67.578125 
Q 32.8125 67.578125 38.875 59.8125 
Q 46.4375 50.203125 46.4375 33.734375 
Q 46.4375 22.21875 43.109375 14.15625 
Q 39.796875 6.109375 34.640625 2.46875 
Q 29.5 -1.171875 24.703125 -1.171875 
Q 15.234375 -1.171875 8.9375 10.015625 
Q 3.609375 19.4375 3.609375 32.71875 
z
M 13.1875 31.5 
Q 13.1875 17.828125 16.546875 9.1875 
Q 19.34375 1.90625 24.859375 1.90625 
Q 27.484375 1.90625 30.3125 4.265625 
Q 33.15625 6.640625 34.625 12.203125 
Q 36.859375 20.609375 36.859375 35.890625 
Q 36.859375 47.21875 34.515625 54.78125 
Q 32.765625 60.40625 29.984375 62.75 
Q 27.984375 64.359375 25.140625 64.359375 
Q 21.828125 64.359375 19.234375 61.375 
Q 15.71875 57.328125 14.453125 48.625 
Q 13.1875 39.9375 13.1875 31.5 
z
" id="TimesNewRomanPSMT-48"/>
       </defs>
       <use xlink:href="#TimesNewRomanPSMT-48"/>
      </g>
     </g>
    </g>
    <g id="xtick_2">
     <g id="line2d_2">
      <g>
       <use style="stroke:#000000;stroke-width:0.8;" x="167.549567" xlink:href="#m01facd8ce5" y="301.665"/>
      </g>
     </g>
     <g id="text_2">
      <!-- 1 -->
      <g transform="translate(162.549567 322.5525)scale(0.2 -0.2)">
       <defs>
        <path d="M 11.71875 59.71875 
L 27.828125 67.578125 
L 29.4375 67.578125 
L 29.4375 11.671875 
Q 29.4375 6.109375 29.90625 4.734375 
Q 30.375 3.375 31.828125 2.640625 
Q 33.296875 1.90625 37.796875 1.8125 
L 37.796875 0 
L 12.890625 0 
L 12.890625 1.8125 
Q 17.578125 1.90625 18.9375 2.609375 
Q 20.3125 3.328125 20.84375 4.515625 
Q 21.390625 5.71875 21.390625 11.671875 
L 21.390625 47.40625 
Q 21.390625 54.640625 20.90625 56.6875 
Q 20.5625 58.25 19.65625 58.984375 
Q 18.75 59.71875 17.484375 59.71875 
Q 15.671875 59.71875 12.453125 58.203125 
z
" id="TimesNewRomanPSMT-49"/>
       </defs>
       <use xlink:href="#TimesNewRomanPSMT-49"/>
      </g>
     </g>
    </g>
    <g id="xtick_3">
     <g id="line2d_3">
      <g>
       <use style="stroke:#000000;stroke-width:0.8;" x="256.613984" xlink:href="#m01facd8ce5" y="301.665"/>
      </g>
     </g>
     <g id="text_3">
      <!-- 2 -->
      <g transform="translate(251.613984 322.5525)scale(0.2 -0.2)">
       <defs>
        <path d="M 45.84375 12.75 
L 41.21875 0 
L 2.15625 0 
L 2.15625 1.8125 
Q 19.390625 17.53125 26.421875 27.484375 
Q 33.453125 37.453125 33.453125 45.703125 
Q 33.453125 52 29.59375 56.046875 
Q 25.734375 60.109375 20.359375 60.109375 
Q 15.484375 60.109375 11.59375 57.25 
Q 7.71875 54.390625 5.859375 48.875 
L 4.046875 48.875 
Q 5.28125 57.90625 10.328125 62.734375 
Q 15.375 67.578125 22.953125 67.578125 
Q 31 67.578125 36.390625 62.40625 
Q 41.796875 57.234375 41.796875 50.203125 
Q 41.796875 45.171875 39.453125 40.140625 
Q 35.84375 32.234375 27.734375 23.390625 
Q 15.578125 10.109375 12.546875 7.375 
L 29.828125 7.375 
Q 35.109375 7.375 37.234375 7.765625 
Q 39.359375 8.15625 41.0625 9.34375 
Q 42.78125 10.546875 44.046875 12.75 
z
" id="TimesNewRomanPSMT-50"/>
       </defs>
       <use xlink:href="#TimesNewRomanPSMT-50"/>
      </g>
     </g>
    </g>
    <g id="xtick_4">
     <g id="line2d_4">
      <g>
       <use style="stroke:#000000;stroke-width:0.8;" x="345.678401" xlink:href="#m01facd8ce5" y="301.665"/>
      </g>
     </g>
     <g id="text_4">
      <!-- 3 -->
      <g transform="translate(340.678401 322.5525)scale(0.2 -0.2)">
       <defs>
        <path d="M 5.078125 53.609375 
Q 7.90625 60.296875 12.21875 63.9375 
Q 16.546875 67.578125 23 67.578125 
Q 30.953125 67.578125 35.203125 62.40625 
Q 38.421875 58.546875 38.421875 54.15625 
Q 38.421875 46.921875 29.34375 39.203125 
Q 35.453125 36.8125 38.578125 32.375 
Q 41.703125 27.9375 41.703125 21.921875 
Q 41.703125 13.328125 36.234375 7.03125 
Q 29.109375 -1.171875 15.578125 -1.171875 
Q 8.890625 -1.171875 6.46875 0.484375 
Q 4.046875 2.15625 4.046875 4.046875 
Q 4.046875 5.46875 5.1875 6.546875 
Q 6.34375 7.625 7.953125 7.625 
Q 9.1875 7.625 10.453125 7.234375 
Q 11.28125 6.984375 14.203125 5.4375 
Q 17.140625 3.90625 18.265625 3.609375 
Q 20.0625 3.078125 22.125 3.078125 
Q 27.09375 3.078125 30.78125 6.9375 
Q 34.46875 10.796875 34.46875 16.0625 
Q 34.46875 19.921875 32.765625 23.578125 
Q 31.5 26.3125 29.984375 27.734375 
Q 27.875 29.6875 24.21875 31.265625 
Q 20.5625 32.859375 16.75 32.859375 
L 15.1875 32.859375 
L 15.1875 34.328125 
Q 19.046875 34.8125 22.921875 37.109375 
Q 26.8125 39.40625 28.5625 42.625 
Q 30.328125 45.84375 30.328125 49.703125 
Q 30.328125 54.734375 27.171875 57.828125 
Q 24.03125 60.9375 19.34375 60.9375 
Q 11.765625 60.9375 6.6875 52.828125 
z
" id="TimesNewRomanPSMT-51"/>
       </defs>
       <use xlink:href="#TimesNewRomanPSMT-51"/>
      </g>
     </g>
    </g>
    <g id="xtick_5">
     <g id="line2d_5">
      <g>
       <use style="stroke:#000000;stroke-width:0.8;" x="434.742819" xlink:href="#m01facd8ce5" y="301.665"/>
      </g>
     </g>
     <g id="text_5">
      <!-- 4 -->
      <g transform="translate(429.742819 322.5525)scale(0.2 -0.2)">
       <defs>
        <path d="M 46.53125 24.421875 
L 46.53125 17.484375 
L 37.640625 17.484375 
L 37.640625 0 
L 29.59375 0 
L 29.59375 17.484375 
L 1.5625 17.484375 
L 1.5625 23.734375 
L 32.28125 67.578125 
L 37.640625 67.578125 
L 37.640625 24.421875 
z
M 29.59375 24.421875 
L 29.59375 57.28125 
L 6.34375 24.421875 
z
" id="TimesNewRomanPSMT-52"/>
       </defs>
       <use xlink:href="#TimesNewRomanPSMT-52"/>
      </g>
     </g>
    </g>
    <g id="text_6">
     <!-- $\mathrm{Normal\ Velocity}\ V_n [-]$ -->
     <g transform="translate(163.103125 344.630625)scale(0.2 -0.2)">
      <defs>
       <path d="M 70.703125 66.203125 
L 70.703125 64.296875 
Q 65.59375 63.796875 64.09375 62.5 
Q 62.5 61.09375 61.84375 58.6875 
Q 61.203125 56.296875 61.203125 50.703125 
L 61.203125 -1.09375 
L 59.40625 -1.09375 
L 15.296875 53.796875 
L 15.296875 15 
Q 15.296875 7.40625 17 5.046875 
Q 18.703125 2.703125 24.59375 1.90625 
L 24.59375 0 
L 1.203125 0 
L 1.203125 1.90625 
Q 7.40625 2.59375 9.15625 4.84375 
Q 10.90625 7.09375 10.90625 15 
L 10.90625 59 
Q 8.296875 62.203125 6.5 63.25 
Q 4.703125 64.296875 1.203125 64.296875 
L 1.203125 66.203125 
L 18.203125 66.203125 
L 56.796875 17.90625 
L 56.796875 51.90625 
Q 56.796875 59.5 54.90625 61.703125 
Q 53.703125 63 52.25 63.453125 
Q 50.796875 63.90625 47 64.296875 
L 47 66.203125 
z
" id="STIXGeneral-Regular-78"/>
       <path d="M 47 23.09375 
Q 47 12.59375 40.75 5.796875 
Q 34.5 -1 24.5 -1 
Q 15.296875 -1 9.09375 5.75 
Q 2.90625 12.5 2.90625 22.796875 
Q 2.90625 33.203125 9.09375 39.59375 
Q 15.296875 46 25.40625 46 
Q 34.703125 46 40.84375 39.640625 
Q 47 33.296875 47 23.09375 
z
M 38 20.40625 
Q 38 31.796875 33 38.203125 
Q 29 43.203125 23.5 43.203125 
Q 18.296875 43.203125 15.09375 38.953125 
Q 11.90625 34.703125 11.90625 27.296875 
Q 11.90625 14.5 17.203125 6.796875 
Q 20.59375 1.796875 26.203125 1.796875 
Q 31.703125 1.796875 34.84375 6.75 
Q 38 11.703125 38 20.40625 
z
" id="STIXGeneral-Regular-111"/>
       <path d="M 16 45.796875 
L 16 36.59375 
Q 19.796875 42 22.34375 44 
Q 24.90625 46 28 46 
Q 30.59375 46 32.046875 44.59375 
Q 33.5 43.203125 33.5 40.703125 
Q 33.5 38.59375 32.453125 37.390625 
Q 31.40625 36.203125 29.59375 36.203125 
Q 27.703125 36.203125 25.59375 38.203125 
Q 24 39.703125 23 39.703125 
Q 20.90625 39.703125 18.453125 36.796875 
Q 16 33.90625 16 31.5 
L 16 9 
Q 16 4.703125 17.703125 3.203125 
Q 19.40625 1.703125 24.5 1.5 
L 24.5 0 
L 0.5 0 
L 0.5 1.5 
Q 5.296875 2.40625 6.4375 3.5 
Q 7.59375 4.59375 7.59375 8.40625 
L 7.59375 33.40625 
Q 7.59375 36.703125 6.84375 38.046875 
Q 6.09375 39.40625 4.203125 39.40625 
Q 2.59375 39.40625 0.703125 39 
L 0.703125 40.59375 
Q 7 42.59375 15.5 46 
z
" id="STIXGeneral-Regular-114"/>
       <path d="M 77.5 0 
L 55.703125 0 
L 55.703125 1.5 
Q 59.90625 1.90625 61.046875 3.25 
Q 62.203125 4.59375 62.203125 9 
L 62.203125 29.59375 
Q 62.203125 35.59375 60.453125 38.1875 
Q 58.703125 40.796875 54.5 40.796875 
Q 51 40.796875 48.546875 39.390625 
Q 46.09375 38 43.796875 34.703125 
L 43.796875 9.5 
Q 43.796875 4.703125 45.25 3.140625 
Q 46.703125 1.59375 51 1.5 
L 51 0 
L 28.59375 0 
L 28.59375 1.5 
Q 33 1.796875 34.203125 2.9375 
Q 35.40625 4.09375 35.40625 8.59375 
L 35.40625 29.703125 
Q 35.40625 40.796875 28.90625 40.796875 
Q 26.09375 40.796875 22.9375 39.546875 
Q 19.796875 38.296875 18.296875 36.5 
Q 17 35 17 34.796875 
L 17 7 
Q 17 3.796875 18.390625 2.75 
Q 19.796875 1.703125 23.796875 1.5 
L 23.796875 0 
L 1.59375 0 
L 1.59375 1.5 
Q 5.796875 1.59375 7.1875 3.046875 
Q 8.59375 4.5 8.59375 8.796875 
L 8.59375 33.59375 
Q 8.59375 37.296875 7.796875 38.75 
Q 7 40.203125 5.09375 40.203125 
Q 3.59375 40.203125 1.90625 39.796875 
L 1.90625 41.5 
Q 8.703125 43.40625 15.796875 46 
L 16.59375 45.703125 
L 16.59375 38.296875 
L 16.796875 38.296875 
Q 21.296875 43 24.75 44.5 
Q 28.203125 46 32.09375 46 
Q 40 46 42.703125 37.59375 
Q 50.5 46 59 46 
Q 70.59375 46 70.59375 28 
L 70.59375 7.703125 
Q 70.59375 4.40625 71.59375 3.15625 
Q 72.59375 1.90625 74.90625 1.703125 
L 77.5 1.5 
z
" id="STIXGeneral-Regular-109"/>
       <path d="M 44.203125 6.59375 
L 44.203125 3.796875 
Q 40.40625 -1 35.203125 -1 
Q 29.5 -1 28.796875 6.296875 
L 28.703125 6.296875 
Q 22.296875 -1 14.203125 -1 
Q 9.5 -1 6.59375 1.75 
Q 3.703125 4.5 3.703125 9.40625 
Q 3.703125 16.40625 10.703125 21.09375 
Q 15.5 24.296875 28.703125 29.203125 
L 28.703125 34.59375 
Q 28.703125 39.09375 26.546875 41.34375 
Q 24.40625 43.59375 20.90625 43.59375 
Q 17.90625 43.59375 15.90625 42.140625 
Q 13.90625 40.703125 13.90625 38.703125 
Q 13.90625 37.796875 14.203125 36.6875 
Q 14.5 35.59375 14.5 34.5 
Q 14.5 33 13.140625 31.703125 
Q 11.796875 30.40625 9.90625 30.40625 
Q 8.203125 30.40625 6.890625 31.703125 
Q 5.59375 33 5.59375 35 
Q 5.59375 39.796875 10.703125 43 
Q 15.40625 46 22.203125 46 
Q 30.296875 46 34 41.5 
Q 35.796875 39.40625 36.296875 37.25 
Q 36.796875 35.09375 36.796875 30.40625 
L 36.796875 11.296875 
Q 36.796875 4.703125 39.90625 4.703125 
Q 41.90625 4.703125 44.203125 6.59375 
z
M 28.703125 12.703125 
L 28.703125 26.796875 
Q 19.5 23.59375 15.90625 20.203125 
Q 12.5 17.09375 12.5 12.5 
Q 12.5 8.703125 14.390625 6.75 
Q 16.296875 4.796875 19.40625 4.796875 
Q 22.703125 4.796875 25.203125 6.40625 
Q 27.296875 7.90625 28 9.203125 
Q 28.703125 10.5 28.703125 12.703125 
z
" id="STIXGeneral-Regular-97"/>
       <path d="M 25.703125 0 
L 2.09375 0 
L 2.09375 1.5 
Q 6.796875 1.90625 8.296875 3.453125 
Q 9.796875 5 9.796875 9.203125 
L 9.796875 56.09375 
Q 9.796875 59.703125 8.890625 61.09375 
Q 8 62.5 5.59375 62.5 
Q 3.5 62.5 1.90625 62.296875 
L 1.90625 63.90625 
Q 11.40625 66.203125 17.703125 68.296875 
L 18.203125 67.90625 
L 18.203125 8.703125 
Q 18.203125 4.5 19.59375 3.140625 
Q 21 1.796875 25.703125 1.5 
z
" id="STIXGeneral-Regular-108"/>
       <path d="M 69.703125 66.203125 
L 69.703125 64.296875 
Q 66.59375 64.203125 64.59375 62.34375 
Q 62.59375 60.5 60.5 55.203125 
L 38.296875 -1.09375 
L 36.796875 -1.09375 
L 12.40625 53.296875 
Q 9.203125 60.40625 7.296875 62.296875 
Q 5.40625 64.203125 1.59375 64.296875 
L 1.59375 66.203125 
L 28.09375 66.203125 
L 28.09375 64.296875 
L 25.296875 64.09375 
Q 20.796875 63.796875 20.796875 61 
Q 20.796875 59 24.703125 50.296875 
L 39.90625 16.09375 
L 54.59375 53 
Q 56.5 57.796875 56.5 60.203125 
Q 56.5 60.90625 56.34375 61.453125 
Q 56.203125 62 56 62.390625 
Q 55.796875 62.796875 55.25 63.09375 
Q 54.703125 63.40625 54.390625 63.546875 
Q 54.09375 63.703125 53.296875 63.84375 
Q 52.5 64 52.140625 64.046875 
Q 51.796875 64.09375 50.75 64.1875 
Q 49.703125 64.296875 49.296875 64.296875 
L 49.296875 66.203125 
z
" id="STIXGeneral-Regular-86"/>
       <path d="M 40.796875 16.40625 
L 42.40625 15.703125 
Q 36.40625 -1 21.5 -1 
Q 12.703125 -1 7.59375 5.140625 
Q 2.5 11.296875 2.5 21.703125 
Q 2.5 32.40625 8.203125 39.203125 
Q 13.90625 46 23.203125 46 
Q 32.203125 46 37.09375 39.09375 
Q 40 35.09375 40.5 27.703125 
L 9.703125 27.703125 
Q 10.09375 21.40625 10.9375 18.09375 
Q 11.796875 14.796875 14.296875 11.40625 
Q 18.5 5.90625 25.40625 5.90625 
Q 30.296875 5.90625 33.640625 8.296875 
Q 37 10.703125 40.796875 16.40625 
z
M 9.90625 30.90625 
L 30.296875 30.90625 
Q 29.40625 37.203125 27.34375 39.796875 
Q 25.296875 42.40625 20.5 42.40625 
Q 16.296875 42.40625 13.5 39.453125 
Q 10.703125 36.5 9.90625 30.90625 
z
" id="STIXGeneral-Regular-101"/>
       <path d="M 39.796875 15.59375 
L 41.203125 14.703125 
Q 36.90625 6.296875 33 3.203125 
Q 27.90625 -1 21.5 -1 
Q 13.203125 -1 7.84375 5.25 
Q 2.5 11.5 2.5 21.203125 
Q 2.5 33.90625 10.90625 40.90625 
Q 17.09375 46 24.40625 46 
Q 30.703125 46 35.25 42.953125 
Q 39.796875 39.90625 39.796875 35.703125 
Q 39.796875 34 38.390625 32.75 
Q 37 31.5 35.09375 31.5 
Q 31.59375 31.5 30.296875 36.09375 
L 29.703125 38.296875 
Q 28.90625 41.09375 27.703125 42.09375 
Q 26.5 43.09375 23.796875 43.09375 
Q 17.703125 43.09375 13.953125 38.296875 
Q 10.203125 33.5 10.203125 25.703125 
Q 10.203125 17.09375 14.5 11.640625 
Q 18.796875 6.203125 25.703125 6.203125 
Q 30 6.203125 33.09375 8.25 
Q 36.203125 10.296875 39.796875 15.59375 
z
" id="STIXGeneral-Regular-99"/>
       <path d="M 18 63.203125 
Q 18 61 16.5 59.546875 
Q 15 58.09375 12.796875 58.09375 
Q 10.703125 58.09375 9.25 59.546875 
Q 7.796875 61 7.796875 63.203125 
Q 7.796875 65.296875 9.296875 66.796875 
Q 10.796875 68.296875 12.90625 68.296875 
Q 15.09375 68.296875 16.546875 66.796875 
Q 18 65.296875 18 63.203125 
z
M 25.296875 0 
L 1.59375 0 
L 1.59375 1.5 
Q 6.796875 1.796875 8.140625 3.296875 
Q 9.5 4.796875 9.5 10.40625 
L 9.5 33.09375 
Q 9.5 36.59375 8.796875 38 
Q 8.09375 39.40625 6.203125 39.40625 
Q 3.796875 39.40625 2 38.90625 
L 2 40.5 
L 17.5 46 
L 17.90625 45.59375 
L 17.90625 10.5 
Q 17.90625 4.90625 19.15625 3.40625 
Q 20.40625 1.90625 25.296875 1.5 
z
" id="STIXGeneral-Regular-105"/>
       <path d="M 26.59375 7.703125 
L 27.90625 6.59375 
Q 23.09375 -1 15.796875 -1 
Q 7 -1 7 11.703125 
L 7 41.796875 
L 1.703125 41.796875 
Q 1.296875 42.09375 1.296875 42.5 
Q 1.296875 43.296875 3 44.40625 
Q 6.796875 46.59375 12.703125 55.09375 
Q 12.90625 55.40625 13.65625 56.34375 
Q 14.40625 57.296875 14.703125 57.90625 
Q 15.40625 57.90625 15.40625 56.59375 
L 15.40625 45 
L 25.5 45 
L 25.5 41.796875 
L 15.40625 41.796875 
L 15.40625 13.203125 
Q 15.40625 8.40625 16.59375 6.296875 
Q 17.796875 4.203125 20.59375 4.203125 
Q 23.59375 4.203125 26.59375 7.703125 
z
" id="STIXGeneral-Regular-116"/>
       <path d="M 47.5 45 
L 47.5 43.5 
Q 45.703125 43.296875 44.59375 42.1875 
Q 43.5 41.09375 42.5 38.40625 
L 27.5 -2.5 
Q 23.59375 -13.09375 19.640625 -17.4375 
Q 15.703125 -21.796875 10 -21.796875 
Q 6.796875 -21.796875 4.890625 -20.140625 
Q 3 -18.5 3 -16 
Q 3 -14.09375 4.25 -12.75 
Q 5.5 -11.40625 7.296875 -11.40625 
Q 10.203125 -11.40625 12.5 -12.703125 
Q 13.796875 -13.40625 15.09375 -13.40625 
Q 17.203125 -13.40625 20.09375 -9 
Q 21.5 -7 22.796875 -3.296875 
Q 24.09375 0.40625 24.09375 1.796875 
Q 24.09375 3.09375 19.90625 11.90625 
L 6.703125 40.09375 
Q 5.40625 43 1.40625 43.59375 
L 1.40625 45 
L 21.90625 45 
L 21.90625 43.5 
Q 18.703125 43.40625 17.453125 42.796875 
Q 16.203125 42.203125 16.203125 40.796875 
Q 16.203125 39.703125 17.5 36.703125 
L 28.703125 11.703125 
L 38.40625 39.296875 
Q 38.796875 40.203125 38.796875 41.09375 
Q 38.796875 43.5 34.203125 43.5 
L 34.203125 45 
z
" id="STIXGeneral-Regular-121"/>
       <path d="M 68.796875 65.296875 
L 68.796875 63.703125 
Q 65.59375 63.59375 63.203125 59.703125 
L 25.90625 -1.796875 
L 24 -1.796875 
L 15.796875 48.5 
Q 14.09375 59 12.9375 61.09375 
Q 11.796875 63.203125 7.59375 63.703125 
L 7.59375 65.296875 
L 31.59375 65.296875 
L 31.59375 63.703125 
Q 26.90625 63.203125 25.453125 62.203125 
Q 24 61.203125 24 58.59375 
Q 24 57.59375 24.09375 57.09375 
L 30.59375 12.796875 
L 51.59375 48.796875 
Q 56.5 57.203125 56.5 60.296875 
Q 56.5 63 50.296875 63.703125 
L 50.296875 65.296875 
z
" id="STIXGeneral-Italic-86"/>
       <path d="M 46 11.703125 
L 47.40625 10.40625 
Q 42.296875 3.40625 39.59375 1.25 
Q 36.90625 -0.90625 33.40625 -0.90625 
Q 31.40625 -0.90625 30.046875 0.4375 
Q 28.703125 1.796875 28.703125 4.5 
Q 28.703125 6.09375 30.296875 12 
L 34.703125 28.203125 
Q 36.09375 33.59375 36.09375 36.09375 
Q 36.09375 39 33.703125 39 
Q 30.796875 39 27.34375 35.546875 
Q 23.90625 32.09375 18.90625 24.796875 
Q 15.59375 19.90625 14.046875 16 
Q 12.5 12.09375 8.90625 0 
L 1.40625 0 
L 11 35 
Q 11.203125 36 11.203125 36.703125 
Q 11.203125 38.203125 9.84375 38.75 
Q 8.5 39.296875 4.703125 39.40625 
L 4.703125 41 
Q 8.59375 41.796875 13.390625 42.640625 
Q 18.203125 43.5 20.90625 44.09375 
L 21.296875 43.90625 
L 14.59375 22.09375 
Q 22 33.90625 27.390625 39 
Q 32.796875 44.09375 37.703125 44.09375 
Q 40.796875 44.09375 42.5 42.4375 
Q 44.203125 40.796875 44.203125 38 
Q 44.203125 35.5 43.203125 32 
L 37.59375 11.703125 
Q 36.203125 6.703125 36.203125 5.59375 
Q 36.203125 3.796875 37.796875 3.796875 
Q 39.703125 3.796875 43.90625 9.09375 
Q 44.59375 9.90625 46 11.703125 
z
" id="STIXGeneral-Italic-110"/>
       <path d="M 29.90625 -15.59375 
L 8.796875 -15.59375 
L 8.796875 66.203125 
L 29.90625 66.203125 
L 29.90625 63.703125 
L 21.59375 63.703125 
Q 19 63.703125 17.703125 62.59375 
Q 16.40625 61.5 16.40625 58.90625 
L 16.40625 -7.703125 
Q 16.40625 -13.09375 21.59375 -13.09375 
L 29.90625 -13.09375 
z
" id="STIXGeneral-Regular-91"/>
       <path d="M 62.09375 22 
L 6.40625 22 
L 6.40625 28.59375 
L 62.09375 28.59375 
z
" id="STIXGeneral-Regular-8722"/>
       <path d="M 24.5 -15.59375 
L 3.40625 -15.59375 
L 3.40625 -13.09375 
L 12.203125 -13.09375 
Q 14.796875 -13.09375 15.84375 -12 
Q 16.90625 -10.90625 16.90625 -8.5 
L 16.90625 58.296875 
Q 16.90625 63.703125 11.796875 63.703125 
L 3.40625 63.703125 
L 3.40625 66.203125 
L 24.5 66.203125 
z
" id="STIXGeneral-Regular-93"/>
      </defs>
      <use transform="translate(0 0.703125)" xlink:href="#STIXGeneral-Regular-78"/>
      <use transform="translate(72.199982 0.703125)" xlink:href="#STIXGeneral-Regular-111"/>
      <use transform="translate(122.199966 0.703125)" xlink:href="#STIXGeneral-Regular-114"/>
      <use transform="translate(155.499954 0.703125)" xlink:href="#STIXGeneral-Regular-109"/>
      <use transform="translate(233.299942 0.703125)" xlink:href="#STIXGeneral-Regular-97"/>
      <use transform="translate(277.699936 0.703125)" xlink:href="#STIXGeneral-Regular-108"/>
      <use transform="translate(331.432994 0.703125)" xlink:href="#STIXGeneral-Regular-86"/>
      <use transform="translate(403.632975 0.703125)" xlink:href="#STIXGeneral-Regular-101"/>
      <use transform="translate(448.032969 0.703125)" xlink:href="#STIXGeneral-Regular-108"/>
      <use transform="translate(475.832957 0.703125)" xlink:href="#STIXGeneral-Regular-111"/>
      <use transform="translate(525.832942 0.703125)" xlink:href="#STIXGeneral-Regular-99"/>
      <use transform="translate(570.232936 0.703125)" xlink:href="#STIXGeneral-Regular-105"/>
      <use transform="translate(598.032923 0.703125)" xlink:href="#STIXGeneral-Regular-116"/>
      <use transform="translate(625.832911 0.703125)" xlink:href="#STIXGeneral-Regular-121"/>
      <use transform="translate(699.899316 0.703125)" xlink:href="#STIXGeneral-Italic-86"/>
      <use transform="translate(760.999307 -12.525)scale(0.7)" xlink:href="#STIXGeneral-Italic-110"/>
      <use transform="translate(800.408671 0.703125)" xlink:href="#STIXGeneral-Regular-91"/>
      <use transform="translate(833.708659 0.703125)" xlink:href="#STIXGeneral-Regular-8722"/>
      <use transform="translate(902.208644 0.703125)" xlink:href="#STIXGeneral-Regular-93"/>
     </g>
    </g>
   </g>
   <g id="matplotlib.axis_2">
    <g id="ytick_1">
     <g id="line2d_6">
      <defs>
       <path d="M 0 0 
L -3.5 0 
" id="m5fec929879" style="stroke:#000000;stroke-width:0.8;"/>
      </defs>
      <g>
       <use style="stroke:#000000;stroke-width:0.8;" x="61.403125" xlink:href="#m5fec929879" y="289.310455"/>
      </g>
     </g>
     <g id="text_7">
      <!-- 0.0 -->
      <g transform="translate(29.403125 296.254205)scale(0.2 -0.2)">
       <defs>
        <path d="M 12.5 9.46875 
Q 14.796875 9.46875 16.359375 7.875 
Q 17.921875 6.296875 17.921875 4.046875 
Q 17.921875 1.8125 16.328125 0.21875 
Q 14.75 -1.375 12.5 -1.375 
Q 10.25 -1.375 8.65625 0.21875 
Q 7.078125 1.8125 7.078125 4.046875 
Q 7.078125 6.34375 8.65625 7.90625 
Q 10.25 9.46875 12.5 9.46875 
z
" id="TimesNewRomanPSMT-46"/>
       </defs>
       <use xlink:href="#TimesNewRomanPSMT-48"/>
       <use x="50" xlink:href="#TimesNewRomanPSMT-46"/>
       <use x="75" xlink:href="#TimesNewRomanPSMT-48"/>
      </g>
     </g>
    </g>
    <g id="ytick_2">
     <g id="line2d_7">
      <g>
       <use style="stroke:#000000;stroke-width:0.8;" x="61.403125" xlink:href="#m5fec929879" y="236.067443"/>
      </g>
     </g>
     <g id="text_8">
      <!-- 0.2 -->
      <g transform="translate(29.403125 243.011193)scale(0.2 -0.2)">
       <use xlink:href="#TimesNewRomanPSMT-48"/>
       <use x="50" xlink:href="#TimesNewRomanPSMT-46"/>
       <use x="75" xlink:href="#TimesNewRomanPSMT-50"/>
      </g>
     </g>
    </g>
    <g id="ytick_3">
     <g id="line2d_8">
      <g>
       <use style="stroke:#000000;stroke-width:0.8;" x="61.403125" xlink:href="#m5fec929879" y="182.824431"/>
      </g>
     </g>
     <g id="text_9">
      <!-- 0.4 -->
      <g transform="translate(29.403125 189.768181)scale(0.2 -0.2)">
       <use xlink:href="#TimesNewRomanPSMT-48"/>
       <use x="50" xlink:href="#TimesNewRomanPSMT-46"/>
       <use x="75" xlink:href="#TimesNewRomanPSMT-52"/>
      </g>
     </g>
    </g>
    <g id="ytick_4">
     <g id="line2d_9">
      <g>
       <use style="stroke:#000000;stroke-width:0.8;" x="61.403125" xlink:href="#m5fec929879" y="129.581419"/>
      </g>
     </g>
     <g id="text_10">
      <!-- 0.6 -->
      <g transform="translate(29.403125 136.525169)scale(0.2 -0.2)">
       <defs>
        <path d="M 44.828125 67.578125 
L 44.828125 65.765625 
Q 38.375 65.140625 34.296875 63.203125 
Q 30.21875 61.28125 26.234375 57.328125 
Q 22.265625 53.375 19.65625 48.515625 
Q 17.046875 43.65625 15.28125 36.96875 
Q 22.3125 41.796875 29.390625 41.796875 
Q 36.1875 41.796875 41.15625 36.328125 
Q 46.140625 30.859375 46.140625 22.265625 
Q 46.140625 13.96875 41.109375 7.125 
Q 35.0625 -1.171875 25.09375 -1.171875 
Q 18.3125 -1.171875 13.578125 3.328125 
Q 4.296875 12.0625 4.296875 25.984375 
Q 4.296875 34.859375 7.859375 42.859375 
Q 11.421875 50.875 18.03125 57.078125 
Q 24.65625 63.28125 30.703125 65.421875 
Q 36.765625 67.578125 42 67.578125 
z
M 14.453125 33.40625 
Q 13.578125 26.8125 13.578125 22.75 
Q 13.578125 18.0625 15.3125 12.5625 
Q 17.046875 7.078125 20.453125 3.859375 
Q 22.953125 1.5625 26.515625 1.5625 
Q 30.765625 1.5625 34.109375 5.5625 
Q 37.453125 9.578125 37.453125 17 
Q 37.453125 25.34375 34.125 31.4375 
Q 30.8125 37.546875 24.703125 37.546875 
Q 22.859375 37.546875 20.734375 36.765625 
Q 18.609375 35.984375 14.453125 33.40625 
z
" id="TimesNewRomanPSMT-54"/>
       </defs>
       <use xlink:href="#TimesNewRomanPSMT-48"/>
       <use x="50" xlink:href="#TimesNewRomanPSMT-46"/>
       <use x="75" xlink:href="#TimesNewRomanPSMT-54"/>
      </g>
     </g>
    </g>
    <g id="ytick_5">
     <g id="line2d_10">
      <g>
       <use style="stroke:#000000;stroke-width:0.8;" x="61.403125" xlink:href="#m5fec929879" y="76.338407"/>
      </g>
     </g>
     <g id="text_11">
      <!-- 0.8 -->
      <g transform="translate(29.403125 83.282157)scale(0.2 -0.2)">
       <defs>
        <path d="M 19.1875 33.34375 
Q 11.328125 39.796875 9.046875 43.703125 
Q 6.78125 47.609375 6.78125 51.8125 
Q 6.78125 58.25 11.765625 62.90625 
Q 16.75 67.578125 25 67.578125 
Q 33.015625 67.578125 37.890625 63.234375 
Q 42.78125 58.890625 42.78125 53.328125 
Q 42.78125 49.609375 40.140625 45.75 
Q 37.5 41.890625 29.15625 36.671875 
Q 37.75 30.03125 40.53125 26.21875 
Q 44.234375 21.234375 44.234375 15.71875 
Q 44.234375 8.734375 38.90625 3.78125 
Q 33.59375 -1.171875 24.953125 -1.171875 
Q 15.53125 -1.171875 10.25 4.734375 
Q 6.0625 9.46875 6.0625 15.09375 
Q 6.0625 19.484375 9.015625 23.796875 
Q 11.96875 28.125 19.1875 33.34375 
z
M 26.859375 38.578125 
Q 32.71875 43.84375 34.28125 46.890625 
Q 35.84375 49.953125 35.84375 53.8125 
Q 35.84375 58.9375 32.953125 61.84375 
Q 30.078125 64.75 25.09375 64.75 
Q 20.125 64.75 17 61.859375 
Q 13.875 58.984375 13.875 55.125 
Q 13.875 52.59375 15.15625 50.046875 
Q 16.453125 47.515625 18.84375 45.21875 
z
M 21.484375 31.5 
Q 17.4375 28.078125 15.484375 24.046875 
Q 13.53125 20.015625 13.53125 15.328125 
Q 13.53125 9.03125 16.96875 5.25 
Q 20.40625 1.46875 25.734375 1.46875 
Q 31 1.46875 34.171875 4.4375 
Q 37.359375 7.421875 37.359375 11.671875 
Q 37.359375 15.1875 35.5 17.96875 
Q 32.03125 23.140625 21.484375 31.5 
z
" id="TimesNewRomanPSMT-56"/>
       </defs>
       <use xlink:href="#TimesNewRomanPSMT-48"/>
       <use x="50" xlink:href="#TimesNewRomanPSMT-46"/>
       <use x="75" xlink:href="#TimesNewRomanPSMT-56"/>
      </g>
     </g>
    </g>
    <g id="text_12">
     <!-- Probability -->
     <g transform="translate(21.0875 210.207187)rotate(-90)scale(0.2 -0.2)">
      <defs>
       <path d="M 20.515625 31 
L 20.515625 11.71875 
Q 20.515625 5.46875 21.875 3.953125 
Q 23.734375 1.8125 27.484375 1.8125 
L 30.03125 1.8125 
L 30.03125 0 
L 1.65625 0 
L 1.65625 1.8125 
L 4.15625 1.8125 
Q 8.34375 1.8125 10.15625 4.546875 
Q 11.140625 6.0625 11.140625 11.71875 
L 11.140625 54.5 
Q 11.140625 60.75 9.8125 62.25 
Q 7.90625 64.40625 4.15625 64.40625 
L 1.65625 64.40625 
L 1.65625 66.21875 
L 25.921875 66.21875 
Q 34.8125 66.21875 39.9375 64.375 
Q 45.0625 62.546875 48.578125 58.203125 
Q 52.09375 53.859375 52.09375 47.90625 
Q 52.09375 39.796875 46.75 34.71875 
Q 41.40625 29.640625 31.640625 29.640625 
Q 29.25 29.640625 26.46875 29.984375 
Q 23.6875 30.328125 20.515625 31 
z
M 20.515625 33.796875 
Q 23.09375 33.296875 25.09375 33.046875 
Q 27.09375 32.8125 28.515625 32.8125 
Q 33.59375 32.8125 37.28125 36.734375 
Q 40.96875 40.671875 40.96875 46.921875 
Q 40.96875 51.21875 39.203125 54.90625 
Q 37.453125 58.59375 34.21875 60.421875 
Q 31 62.25 26.90625 62.25 
Q 24.421875 62.25 20.515625 61.328125 
z
" id="TimesNewRomanPSMT-80"/>
       <path d="M 16.21875 46.046875 
L 16.21875 35.984375 
Q 21.828125 46.046875 27.734375 46.046875 
Q 30.421875 46.046875 32.171875 44.40625 
Q 33.9375 42.78125 33.9375 40.625 
Q 33.9375 38.71875 32.65625 37.390625 
Q 31.390625 36.078125 29.640625 36.078125 
Q 27.9375 36.078125 25.8125 37.765625 
Q 23.6875 39.453125 22.65625 39.453125 
Q 21.78125 39.453125 20.75 38.484375 
Q 18.5625 36.46875 16.21875 31.890625 
L 16.21875 10.453125 
Q 16.21875 6.734375 17.140625 4.828125 
Q 17.78125 3.515625 19.390625 2.640625 
Q 21 1.765625 24.03125 1.765625 
L 24.03125 0 
L 1.125 0 
L 1.125 1.765625 
Q 4.546875 1.765625 6.203125 2.828125 
Q 7.421875 3.609375 7.90625 5.328125 
Q 8.15625 6.15625 8.15625 10.0625 
L 8.15625 27.390625 
Q 8.15625 35.203125 7.828125 36.6875 
Q 7.515625 38.1875 6.65625 38.859375 
Q 5.8125 39.546875 4.546875 39.546875 
Q 3.03125 39.546875 1.125 38.8125 
L 0.640625 40.578125 
L 14.15625 46.046875 
z
" id="TimesNewRomanPSMT-114"/>
       <path d="M 25 46.046875 
Q 35.15625 46.046875 41.3125 38.328125 
Q 46.53125 31.734375 46.53125 23.1875 
Q 46.53125 17.1875 43.640625 11.03125 
Q 40.765625 4.890625 35.71875 1.75 
Q 30.671875 -1.375 24.46875 -1.375 
Q 14.359375 -1.375 8.40625 6.6875 
Q 3.375 13.484375 3.375 21.921875 
Q 3.375 28.078125 6.421875 34.15625 
Q 9.46875 40.234375 14.453125 43.140625 
Q 19.4375 46.046875 25 46.046875 
z
M 23.484375 42.875 
Q 20.90625 42.875 18.28125 41.328125 
Q 15.671875 39.796875 14.0625 35.9375 
Q 12.453125 32.078125 12.453125 26.03125 
Q 12.453125 16.265625 16.328125 9.171875 
Q 20.21875 2.09375 26.5625 2.09375 
Q 31.296875 2.09375 34.375 6 
Q 37.453125 9.90625 37.453125 19.4375 
Q 37.453125 31.34375 32.328125 38.1875 
Q 28.859375 42.875 23.484375 42.875 
z
" id="TimesNewRomanPSMT-111"/>
       <path d="M 15.375 37.015625 
Q 21.875 46.046875 29.390625 46.046875 
Q 36.28125 46.046875 41.40625 40.15625 
Q 46.53125 34.28125 46.53125 24.078125 
Q 46.53125 12.15625 38.625 4.890625 
Q 31.84375 -1.375 23.484375 -1.375 
Q 19.578125 -1.375 15.546875 0.046875 
Q 11.53125 1.46875 7.328125 4.296875 
L 7.328125 50.640625 
Q 7.328125 58.25 6.953125 60 
Q 6.59375 61.765625 5.8125 62.390625 
Q 5.03125 63.03125 3.859375 63.03125 
Q 2.484375 63.03125 0.4375 62.25 
L -0.25 63.96875 
L 13.1875 69.4375 
L 15.375 69.4375 
z
M 15.375 33.890625 
L 15.375 7.125 
Q 17.875 4.6875 20.53125 3.4375 
Q 23.1875 2.203125 25.984375 2.203125 
Q 30.421875 2.203125 34.25 7.078125 
Q 38.09375 11.96875 38.09375 21.296875 
Q 38.09375 29.890625 34.25 34.5 
Q 30.421875 39.109375 25.53125 39.109375 
Q 22.953125 39.109375 20.359375 37.796875 
Q 18.40625 36.8125 15.375 33.890625 
z
" id="TimesNewRomanPSMT-98"/>
       <path d="M 28.46875 6.453125 
Q 21.578125 1.125 19.828125 0.296875 
Q 17.1875 -0.921875 14.203125 -0.921875 
Q 9.578125 -0.921875 6.5625 2.25 
Q 3.5625 5.421875 3.5625 10.59375 
Q 3.5625 13.875 5.03125 16.265625 
Q 7.03125 19.578125 11.984375 22.5 
Q 16.9375 25.4375 28.46875 29.640625 
L 28.46875 31.390625 
Q 28.46875 38.09375 26.34375 40.578125 
Q 24.21875 43.0625 20.171875 43.0625 
Q 17.09375 43.0625 15.28125 41.40625 
Q 13.421875 39.75 13.421875 37.59375 
L 13.53125 34.765625 
Q 13.53125 32.515625 12.375 31.296875 
Q 11.234375 30.078125 9.375 30.078125 
Q 7.5625 30.078125 6.421875 31.34375 
Q 5.28125 32.625 5.28125 34.8125 
Q 5.28125 39.015625 9.578125 42.53125 
Q 13.875 46.046875 21.625 46.046875 
Q 27.59375 46.046875 31.390625 44.046875 
Q 34.28125 42.53125 35.640625 39.3125 
Q 36.53125 37.203125 36.53125 30.71875 
L 36.53125 15.53125 
Q 36.53125 9.125 36.765625 7.6875 
Q 37.015625 6.25 37.578125 5.765625 
Q 38.140625 5.28125 38.875 5.28125 
Q 39.65625 5.28125 40.234375 5.609375 
Q 41.265625 6.25 44.1875 9.1875 
L 44.1875 6.453125 
Q 38.71875 -0.875 33.734375 -0.875 
Q 31.34375 -0.875 29.921875 0.78125 
Q 28.515625 2.4375 28.46875 6.453125 
z
M 28.46875 9.625 
L 28.46875 26.65625 
Q 21.09375 23.734375 18.953125 22.515625 
Q 15.09375 20.359375 13.421875 18.015625 
Q 11.765625 15.671875 11.765625 12.890625 
Q 11.765625 9.375 13.859375 7.046875 
Q 15.96875 4.734375 18.703125 4.734375 
Q 22.40625 4.734375 28.46875 9.625 
z
" id="TimesNewRomanPSMT-97"/>
       <path d="M 14.5 69.4375 
Q 16.546875 69.4375 17.984375 67.984375 
Q 19.4375 66.546875 19.4375 64.5 
Q 19.4375 62.453125 17.984375 60.984375 
Q 16.546875 59.515625 14.5 59.515625 
Q 12.453125 59.515625 10.984375 60.984375 
Q 9.515625 62.453125 9.515625 64.5 
Q 9.515625 66.546875 10.953125 67.984375 
Q 12.40625 69.4375 14.5 69.4375 
z
M 18.5625 46.046875 
L 18.5625 10.109375 
Q 18.5625 5.90625 19.171875 4.515625 
Q 19.78125 3.125 20.96875 2.4375 
Q 22.171875 1.765625 25.34375 1.765625 
L 25.34375 0 
L 3.609375 0 
L 3.609375 1.765625 
Q 6.890625 1.765625 8 2.390625 
Q 9.125 3.03125 9.78125 4.484375 
Q 10.453125 5.953125 10.453125 10.109375 
L 10.453125 27.34375 
Q 10.453125 34.625 10.015625 36.765625 
Q 9.671875 38.328125 8.9375 38.9375 
Q 8.203125 39.546875 6.9375 39.546875 
Q 5.5625 39.546875 3.609375 38.8125 
L 2.9375 40.578125 
L 16.40625 46.046875 
z
" id="TimesNewRomanPSMT-105"/>
       <path d="M 18.5 69.4375 
L 18.5 10.109375 
Q 18.5 5.90625 19.109375 4.53125 
Q 19.734375 3.171875 21 2.46875 
Q 22.265625 1.765625 25.734375 1.765625 
L 25.734375 0 
L 3.8125 0 
L 3.8125 1.765625 
Q 6.890625 1.765625 8 2.390625 
Q 9.125 3.03125 9.765625 4.484375 
Q 10.40625 5.953125 10.40625 10.109375 
L 10.40625 50.734375 
Q 10.40625 58.296875 10.0625 60.03125 
Q 9.71875 61.765625 8.953125 62.390625 
Q 8.203125 63.03125 7.03125 63.03125 
Q 5.765625 63.03125 3.8125 62.25 
L 2.984375 63.96875 
L 16.3125 69.4375 
z
" id="TimesNewRomanPSMT-108"/>
       <path d="M 16.109375 59.421875 
L 16.109375 44.734375 
L 26.5625 44.734375 
L 26.5625 41.3125 
L 16.109375 41.3125 
L 16.109375 12.3125 
Q 16.109375 7.953125 17.359375 6.4375 
Q 18.609375 4.9375 20.5625 4.9375 
Q 22.171875 4.9375 23.6875 5.9375 
Q 25.203125 6.9375 26.03125 8.890625 
L 27.9375 8.890625 
Q 26.21875 4.109375 23.09375 1.6875 
Q 19.96875 -0.734375 16.65625 -0.734375 
Q 14.40625 -0.734375 12.25 0.515625 
Q 10.109375 1.765625 9.078125 4.078125 
Q 8.0625 6.390625 8.0625 11.234375 
L 8.0625 41.3125 
L 0.984375 41.3125 
L 0.984375 42.921875 
Q 3.65625 44 6.46875 46.5625 
Q 9.28125 49.125 11.46875 52.640625 
Q 12.59375 54.5 14.59375 59.421875 
z
" id="TimesNewRomanPSMT-116"/>
       <path d="M 0.59375 44.734375 
L 21.4375 44.734375 
L 21.4375 42.921875 
L 20.40625 42.921875 
Q 18.21875 42.921875 17.109375 41.96875 
Q 16.015625 41.015625 16.015625 39.59375 
Q 16.015625 37.703125 17.625 34.328125 
L 28.515625 11.765625 
L 38.53125 36.46875 
Q 39.359375 38.484375 39.359375 40.4375 
Q 39.359375 41.3125 39.015625 41.75 
Q 38.625 42.28125 37.796875 42.59375 
Q 36.96875 42.921875 34.859375 42.921875 
L 34.859375 44.734375 
L 49.421875 44.734375 
L 49.421875 42.921875 
Q 47.609375 42.71875 46.625 42.125 
Q 45.65625 41.546875 44.484375 39.9375 
Q 44.046875 39.265625 42.828125 36.1875 
L 24.609375 -8.453125 
Q 21.96875 -14.9375 17.6875 -18.25 
Q 13.421875 -21.578125 9.46875 -21.578125 
Q 6.59375 -21.578125 4.734375 -19.921875 
Q 2.875 -18.265625 2.875 -16.109375 
Q 2.875 -14.0625 4.21875 -12.8125 
Q 5.5625 -11.578125 7.90625 -11.578125 
Q 9.515625 -11.578125 12.3125 -12.640625 
Q 14.265625 -13.375 14.75 -13.375 
Q 16.21875 -13.375 17.9375 -11.859375 
Q 19.671875 -10.359375 21.4375 -6 
L 24.609375 1.765625 
L 8.546875 35.5 
Q 7.8125 37.015625 6.203125 39.265625 
Q 4.984375 40.96875 4.203125 41.546875 
Q 3.078125 42.328125 0.59375 42.921875 
z
" id="TimesNewRomanPSMT-121"/>
      </defs>
      <use xlink:href="#TimesNewRomanPSMT-80"/>
      <use x="55.615234" xlink:href="#TimesNewRomanPSMT-114"/>
      <use x="88.916016" xlink:href="#TimesNewRomanPSMT-111"/>
      <use x="138.916016" xlink:href="#TimesNewRomanPSMT-98"/>
      <use x="188.916016" xlink:href="#TimesNewRomanPSMT-97"/>
      <use x="233.300781" xlink:href="#TimesNewRomanPSMT-98"/>
      <use x="283.300781" xlink:href="#TimesNewRomanPSMT-105"/>
      <use x="311.083984" xlink:href="#TimesNewRomanPSMT-108"/>
      <use x="338.867188" xlink:href="#TimesNewRomanPSMT-105"/>
      <use x="366.650391" xlink:href="#TimesNewRomanPSMT-116"/>
      <use x="394.433594" xlink:href="#TimesNewRomanPSMT-121"/>
     </g>
    </g>
   </g>
   <g id="line2d_11">
    <path clip-path="url(#pbe29ae7a41)" d="M 79.15767 286.265036 
L 80.502712 280.174182 
L 81.847753 266.977282 
L 83.192794 263.424374 
L 84.537836 261.393989 
L 85.882877 249.212387 
L 87.227918 236.015593 
L 88.57296 238.045801 
L 89.918001 233.985208 
L 91.263042 222.818622 
L 92.608084 213.68242 
L 93.953125 209.621828 
L 95.298166 202.008326 
L 96.643208 195.409841 
L 97.988249 194.394825 
L 99.33329 177.137438 
L 102.023373 181.197854 
L 103.368414 171.554145 
L 104.713456 157.849666 
L 106.058497 162.925451 
L 107.403538 145.16038 
L 108.74858 140.084771 
L 110.093621 140.592279 
L 111.438662 142.114979 
L 112.783704 110.13845 
L 114.128745 121.812191 
L 115.473786 116.228898 
L 116.818827 114.19869 
L 118.163869 92.373026 
L 119.50891 94.403763 
L 120.853951 106.58466 
L 122.198993 95.419131 
L 123.544034 97.448106 
L 124.889075 96.940421 
L 126.234117 87.80563 
L 127.579158 68.009469 
L 128.924199 92.88071 
L 130.269241 83.236472 
L 131.614282 76.638339 
L 132.959323 69.024838 
L 134.304365 71.055575 
L 135.649406 66.486416 
L 136.994447 62.934389 
L 138.339489 66.9941 
L 139.68453 54.305519 
L 141.029571 69.532522 
L 142.374613 71.563259 
L 143.719654 46.184334 
L 145.064695 63.442073 
L 146.409737 58.365231 
L 147.754778 50.751729 
L 149.099819 70.040206 
L 150.444861 50.751729 
L 151.789902 43.138228 
L 153.134943 66.486416 
L 154.479985 69.532522 
L 155.825026 63.442073 
L 157.170067 68.009469 
L 158.515108 50.244045 
L 159.86015 60.395968 
L 161.205191 66.9941 
L 162.550232 62.426705 
L 163.895274 58.872915 
L 165.240315 81.713419 
L 166.585356 61.411336 
L 167.930398 85.774893 
L 169.275439 93.388394 
L 170.62048 81.205735 
L 171.965522 87.80563 
L 173.310563 84.759524 
L 174.655604 105.061607 
L 176.000646 81.713419 
L 177.345687 83.744156 
L 178.690728 97.95579 
L 180.03577 104.048001 
L 181.380811 118.259107 
L 182.725852 112.169187 
L 184.070894 113.183498 
L 185.415935 113.183498 
L 186.760976 122.827384 
L 188.106018 135.008986 
L 189.451059 129.933377 
L 190.7961 127.902992 
L 192.141142 156.326966 
L 193.486183 138.562071 
L 194.831224 144.145187 
L 196.176265 145.668064 
L 197.521307 151.758865 
L 198.866348 150.743673 
L 200.211389 167.493552 
L 201.556431 169.016252 
L 202.901472 161.402751 
L 204.246513 184.243431 
L 205.591555 186.781147 
L 206.936596 185.766131 
L 208.281637 190.334232 
L 209.626679 202.008326 
L 210.97172 187.79634 
L 212.316761 206.576427 
L 213.661803 200.485626 
L 215.006844 205.561235 
L 216.351885 210.129512 
L 217.696927 220.280906 
L 219.041968 219.265714 
L 220.387009 212.15972 
L 221.732051 230.4323 
L 223.077092 232.970192 
L 224.422133 223.833814 
L 225.767175 239.060993 
L 227.112216 230.939808 
L 228.457257 236.523101 
L 229.802299 239.060993 
L 231.14734 245.659302 
L 232.492381 245.151794 
L 233.837423 249.719895 
L 235.182464 250.227579 
L 236.527505 251.242595 
L 237.872546 254.288172 
L 239.217588 259.363781 
L 240.562629 265.962266 
L 241.90767 259.363781 
L 243.252712 263.931882 
L 244.597753 264.947074 
L 245.942794 270.530367 
L 247.287836 265.962266 
L 248.632877 277.128764 
L 249.977918 271.037875 
L 251.32296 276.621186 
L 252.668001 267.992475 
L 254.013042 271.545559 
L 255.358084 272.05305 
L 256.703125 274.083328 
L 258.048166 274.590907 
L 259.393208 274.083328 
L 260.738249 283.219601 
L 262.08329 281.189322 
L 263.428332 283.727179 
L 264.773373 282.71204 
L 267.463456 283.727179 
L 268.808497 282.71204 
L 270.153538 285.757458 
L 271.49858 283.727179 
L 272.843621 284.23474 
L 274.188662 284.23474 
L 275.533704 286.772597 
L 276.878745 285.757458 
L 278.223786 284.23474 
L 279.568827 284.23474 
L 280.913869 285.757458 
L 282.25891 285.757458 
L 283.603951 286.265036 
L 284.948993 287.280176 
L 286.294034 286.772597 
L 287.639075 288.802883 
L 288.984117 286.265036 
L 290.329158 287.787742 
L 291.674199 288.295313 
L 293.019241 287.787742 
L 294.364282 289.310455 
L 295.709323 287.280176 
L 297.054365 289.310455 
L 298.399406 287.787742 
L 299.744447 287.280176 
L 301.089489 288.802883 
L 302.43453 287.787742 
L 303.779571 289.310455 
L 305.124613 288.802883 
L 306.469654 287.787742 
L 307.814695 289.310455 
L 309.159737 289.310455 
L 310.504778 288.802883 
L 311.849819 289.310455 
L 313.194861 288.802883 
L 314.539902 289.310455 
L 326.645274 289.310455 
L 327.990315 288.802883 
L 330.680398 288.802883 
L 332.025439 289.310455 
L 434.24858 289.310455 
L 434.24858 289.310455 
" style="fill:none;stroke:#0e72cc;stroke-linecap:square;stroke-width:1.5;"/>
   </g>
   <g id="line2d_12">
    <path clip-path="url(#pbe29ae7a41)" d="M 79.15767 285.733561 
L 91.263042 221.895963 
L 97.988249 187.599765 
L 103.368414 161.316037 
L 107.403538 142.539626 
L 111.438662 124.777915 
L 115.473786 108.235274 
L 118.163869 97.987901 
L 120.853951 88.437931 
L 123.544034 79.645938 
L 126.234117 71.66971 
L 128.924199 64.563006 
L 131.614282 58.374328 
L 134.304365 53.14576 
L 135.649406 50.902645 
L 136.994447 48.91189 
L 138.339489 47.176494 
L 139.68453 45.698878 
L 141.029571 44.480866 
L 142.374613 43.523667 
L 143.719654 42.827862 
L 145.064695 42.39339 
L 146.409737 42.219545 
L 147.754778 42.304971 
L 149.099819 42.647657 
L 150.444861 43.244946 
L 151.789902 44.093537 
L 153.134943 45.1895 
L 154.479985 46.52828 
L 155.825026 48.104724 
L 157.170067 49.913093 
L 158.515108 51.947086 
L 161.205191 56.664089 
L 163.895274 62.195122 
L 166.585356 68.472449 
L 169.275439 75.422334 
L 171.965522 82.966254 
L 176.000646 95.215885 
L 180.03577 108.332307 
L 185.415935 126.675873 
L 197.521307 168.448553 
L 202.901472 185.995942 
L 206.936596 198.379746 
L 210.97172 209.962474 
L 215.006844 220.659842 
L 217.696927 227.27282 
L 220.387009 233.46099 
L 223.077092 239.222007 
L 225.767175 244.558437 
L 228.457257 249.477196 
L 231.14734 253.988982 
L 233.837423 258.107691 
L 236.527505 261.84985 
L 239.217588 265.234066 
L 241.90767 268.280509 
L 244.597753 271.010422 
L 247.287836 273.445685 
L 249.977918 275.60842 
L 252.668001 277.52064 
L 255.358084 279.203958 
L 258.048166 280.679335 
L 260.738249 281.966879 
L 264.773373 283.587482 
L 268.808497 284.887803 
L 272.843621 285.92128 
L 276.878745 286.734973 
L 282.25891 287.547627 
L 287.639075 288.121707 
L 294.364282 288.599081 
L 302.43453 288.937902 
L 313.194861 289.161153 
L 332.025439 289.284326 
L 388.517175 289.310407 
L 434.24858 289.310454 
L 434.24858 289.310454 
" style="fill:none;stroke:#6ca30f;stroke-linecap:square;stroke-width:2;"/>
   </g>
   <g id="line2d_13">
    <path clip-path="url(#pbe29ae7a41)" d="M 79.15767 285.622753 
L 89.918001 227.189471 
L 95.298166 198.95051 
L 100.678332 171.882866 
L 104.713456 152.602839 
L 108.74858 134.402869 
L 112.783704 117.471572 
L 115.473786 106.981743 
L 118.163869 97.193581 
L 120.853951 88.159259 
L 123.544034 79.92797 
L 126.234117 72.545029 
L 128.924199 66.050968 
L 131.614282 60.480676 
L 132.959323 58.051102 
L 134.304365 55.862588 
L 135.649406 53.917564 
L 136.994447 52.217971 
L 138.339489 50.765246 
L 139.68453 49.560312 
L 141.029571 48.60356 
L 142.374613 47.894846 
L 143.719654 47.43348 
L 145.064695 47.218226 
L 146.409737 47.247295 
L 147.754778 47.518354 
L 149.099819 48.028521 
L 150.444861 48.77438 
L 151.789902 49.751984 
L 153.134943 50.95687 
L 154.479985 52.384072 
L 155.825026 54.02814 
L 157.170067 55.883153 
L 159.86015 60.200138 
L 162.550232 65.279188 
L 165.240315 71.058546 
L 167.930398 77.471458 
L 170.62048 84.447182 
L 173.310563 91.912039 
L 177.345687 103.860981 
L 182.725852 120.796354 
L 201.556431 181.357786 
L 205.591555 193.297184 
L 209.626679 204.553679 
L 213.661803 215.041731 
L 217.696927 224.704493 
L 220.387009 230.671847 
L 223.077092 236.255405 
L 225.767175 241.456381 
L 228.457257 246.279766 
L 231.14734 250.733848 
L 233.837423 254.829736 
L 236.527505 258.580881 
L 239.217588 262.002621 
L 241.90767 265.111747 
L 244.597753 267.926091 
L 247.287836 270.464163 
L 249.977918 272.744807 
L 252.668001 274.786911 
L 255.358084 276.609149 
L 258.048166 278.229763 
L 260.738249 279.666383 
L 264.773373 281.513014 
L 268.808497 283.036677 
L 272.843621 284.285736 
L 276.878745 285.303423 
L 280.913869 286.127825 
L 286.294034 286.98291 
L 291.674199 287.618436 
L 298.399406 288.183184 
L 306.469654 288.624673 
L 317.229985 288.961925 
L 332.025439 289.176271 
L 357.581224 289.2864 
L 434.24858 289.310392 
L 434.24858 289.310392 
" style="fill:none;stroke:#ff0000;stroke-dasharray:6.4,1.6,1,1.6;stroke-dashoffset:0;"/>
    <defs>
     <path d="M 0 -3 
L -0.673542 -0.927051 
L -2.85317 -0.927051 
L -1.089814 0.354102 
L -1.763356 2.427051 
L -0 1.145898 
L 1.763356 2.427051 
L 1.089814 0.354102 
L 2.85317 -0.927051 
L 0.673542 -0.927051 
z
" id="m9815ca2af5" style="stroke:#ff0000;stroke-linejoin:bevel;"/>
    </defs>
    <g clip-path="url(#pbe29ae7a41)">
     <use style="fill:#ff0000;stroke:#ff0000;stroke-linejoin:bevel;" x="79.15767" xlink:href="#m9815ca2af5" y="285.622753"/>
     <use style="fill:#ff0000;stroke:#ff0000;stroke-linejoin:bevel;" x="92.608084" xlink:href="#m9815ca2af5" y="212.948875"/>
     <use style="fill:#ff0000;stroke:#ff0000;stroke-linejoin:bevel;" x="106.058497" xlink:href="#m9815ca2af5" y="146.406896"/>
     <use style="fill:#ff0000;stroke:#ff0000;stroke-linejoin:bevel;" x="119.50891" xlink:href="#m9815ca2af5" y="92.579035"/>
     <use style="fill:#ff0000;stroke:#ff0000;stroke-linejoin:bevel;" x="132.959323" xlink:href="#m9815ca2af5" y="58.051102"/>
     <use style="fill:#ff0000;stroke:#ff0000;stroke-linejoin:bevel;" x="146.409737" xlink:href="#m9815ca2af5" y="47.247295"/>
     <use style="fill:#ff0000;stroke:#ff0000;stroke-linejoin:bevel;" x="159.86015" xlink:href="#m9815ca2af5" y="60.200138"/>
     <use style="fill:#ff0000;stroke:#ff0000;stroke-linejoin:bevel;" x="173.310563" xlink:href="#m9815ca2af5" y="91.912039"/>
     <use style="fill:#ff0000;stroke:#ff0000;stroke-linejoin:bevel;" x="186.760976" xlink:href="#m9815ca2af5" y="133.924573"/>
     <use style="fill:#ff0000;stroke:#ff0000;stroke-linejoin:bevel;" x="200.211389" xlink:href="#m9815ca2af5" y="177.245322"/>
     <use style="fill:#ff0000;stroke:#ff0000;stroke-linejoin:bevel;" x="213.661803" xlink:href="#m9815ca2af5" y="215.041731"/>
     <use style="fill:#ff0000;stroke:#ff0000;stroke-linejoin:bevel;" x="227.112216" xlink:href="#m9815ca2af5" y="243.914826"/>
     <use style="fill:#ff0000;stroke:#ff0000;stroke-linejoin:bevel;" x="240.562629" xlink:href="#m9815ca2af5" y="263.595166"/>
     <use style="fill:#ff0000;stroke:#ff0000;stroke-linejoin:bevel;" x="254.013042" xlink:href="#m9815ca2af5" y="275.724361"/>
     <use style="fill:#ff0000;stroke:#ff0000;stroke-linejoin:bevel;" x="267.463456" xlink:href="#m9815ca2af5" y="282.561585"/>
     <use style="fill:#ff0000;stroke:#ff0000;stroke-linejoin:bevel;" x="280.913869" xlink:href="#m9815ca2af5" y="286.127825"/>
     <use style="fill:#ff0000;stroke:#ff0000;stroke-linejoin:bevel;" x="294.364282" xlink:href="#m9815ca2af5" y="287.870775"/>
     <use style="fill:#ff0000;stroke:#ff0000;stroke-linejoin:bevel;" x="307.814695" xlink:href="#m9815ca2af5" y="288.679774"/>
     <use style="fill:#ff0000;stroke:#ff0000;stroke-linejoin:bevel;" x="321.265108" xlink:href="#m9815ca2af5" y="289.041082"/>
     <use style="fill:#ff0000;stroke:#ff0000;stroke-linejoin:bevel;" x="334.715522" xlink:href="#m9815ca2af5" y="289.197984"/>
     <use style="fill:#ff0000;stroke:#ff0000;stroke-linejoin:bevel;" x="348.165935" xlink:href="#m9815ca2af5" y="289.264615"/>
     <use style="fill:#ff0000;stroke:#ff0000;stroke-linejoin:bevel;" x="361.616348" xlink:href="#m9815ca2af5" y="289.292293"/>
     <use style="fill:#ff0000;stroke:#ff0000;stroke-linejoin:bevel;" x="375.066761" xlink:href="#m9815ca2af5" y="289.303495"/>
     <use style="fill:#ff0000;stroke:#ff0000;stroke-linejoin:bevel;" x="388.517175" xlink:href="#m9815ca2af5" y="289.307887"/>
     <use style="fill:#ff0000;stroke:#ff0000;stroke-linejoin:bevel;" x="401.967588" xlink:href="#m9815ca2af5" y="289.309546"/>
     <use style="fill:#ff0000;stroke:#ff0000;stroke-linejoin:bevel;" x="415.418001" xlink:href="#m9815ca2af5" y="289.310147"/>
     <use style="fill:#ff0000;stroke:#ff0000;stroke-linejoin:bevel;" x="428.868414" xlink:href="#m9815ca2af5" y="289.310355"/>
    </g>
   </g>
   <g id="line2d_14">
    <path clip-path="url(#pbe29ae7a41)" d="M 79.15767 285.83191 
L 85.882877 250.164219 
L 97.988249 185.427402 
L 102.023373 164.900399 
L 106.058497 145.415981 
L 110.093621 127.258066 
L 112.783704 116.017683 
L 115.473786 105.549386 
L 118.163869 95.913657 
L 120.853951 87.162992 
L 123.544034 79.341405 
L 126.234117 72.484061 
L 128.924199 66.617032 
L 130.269241 64.060514 
L 131.614282 61.757177 
L 132.959323 59.707688 
L 134.304365 57.912151 
L 135.649406 56.370104 
L 136.994447 55.080536 
L 138.339489 54.041894 
L 139.68453 53.252094 
L 141.029571 52.708537 
L 142.374613 52.408124 
L 143.719654 52.347274 
L 145.064695 52.521938 
L 146.409737 52.927623 
L 147.754778 53.55941 
L 149.099819 54.411978 
L 150.444861 55.479625 
L 151.789902 56.756291 
L 153.134943 58.235583 
L 154.479985 59.910803 
L 157.170067 63.820836 
L 159.86015 68.42761 
L 162.550232 73.669076 
L 165.240315 79.480766 
L 167.930398 85.796618 
L 171.965522 96.069466 
L 176.000646 107.101471 
L 181.380811 122.613874 
L 200.211389 177.868037 
L 204.246513 188.880494 
L 208.281637 199.352205 
L 212.316761 209.213138 
L 216.351885 218.413682 
L 220.387009 226.923044 
L 224.422133 234.727342 
L 227.112216 239.538411 
L 229.802299 244.039728 
L 232.492381 248.236942 
L 235.182464 252.137597 
L 237.872546 255.750848 
L 240.562629 259.087179 
L 243.252712 262.158152 
L 245.942794 264.976158 
L 248.632877 267.55419 
L 251.32296 269.905644 
L 254.013042 272.044121 
L 256.703125 273.983272 
L 260.738249 276.547838 
L 264.773373 278.739004 
L 268.808497 280.599514 
L 272.843621 282.169629 
L 276.878745 283.486721 
L 280.913869 284.585034 
L 284.948993 285.495576 
L 290.329158 286.465076 
L 295.709323 287.206912 
L 302.43453 287.886151 
L 310.504778 288.434267 
L 319.920067 288.825381 
L 332.025439 289.092151 
L 350.856018 289.25249 
L 391.207257 289.30804 
L 434.24858 289.310405 
L 434.24858 289.310405 
" style="fill:none;stroke:#f59311;stroke-linecap:square;stroke-width:2;"/>
   </g>
   <g id="patch_3">
    <path d="M 61.403125 301.665 
L 61.403125 29.865 
" style="fill:none;stroke:#000000;stroke-linecap:square;stroke-linejoin:miter;stroke-width:0.8;"/>
   </g>
   <g id="patch_4">
    <path d="M 452.003125 301.665 
L 452.003125 29.865 
" style="fill:none;stroke:#000000;stroke-linecap:square;stroke-linejoin:miter;stroke-width:0.8;"/>
   </g>
   <g id="patch_5">
    <path d="M 61.403125 301.665 
L 452.003125 301.665 
" style="fill:none;stroke:#000000;stroke-linecap:square;stroke-linejoin:miter;stroke-width:0.8;"/>
   </g>
   <g id="patch_6">
    <path d="M 61.403125 29.865 
L 452.003125 29.865 
" style="fill:none;stroke:#000000;stroke-linecap:square;stroke-linejoin:miter;stroke-width:0.8;"/>
   </g>
   <g id="text_13">
    <!-- Velocity Distribution -->
    <g transform="translate(155.715625 23.865)scale(0.24 -0.24)">
     <defs>
      <path d="M 71 66.21875 
L 71 64.40625 
Q 67.484375 63.765625 65.671875 62.15625 
Q 63.09375 59.765625 61.078125 54.828125 
L 37.984375 -1.515625 
L 36.1875 -1.515625 
L 11.375 55.5625 
Q 9.46875 59.96875 8.6875 60.9375 
Q 7.46875 62.453125 5.6875 63.296875 
Q 3.90625 64.15625 0.875 64.40625 
L 0.875 66.21875 
L 27.9375 66.21875 
L 27.9375 64.40625 
Q 23.34375 63.96875 21.96875 62.84375 
Q 20.609375 61.71875 20.609375 59.96875 
Q 20.609375 57.515625 22.859375 52.34375 
L 39.703125 13.53125 
L 55.328125 51.859375 
Q 57.625 57.515625 57.625 59.71875 
Q 57.625 61.140625 56.203125 62.421875 
Q 54.78125 63.71875 51.421875 64.265625 
Q 51.171875 64.3125 50.59375 64.40625 
L 50.59375 66.21875 
z
" id="TimesNewRomanPSMT-86"/>
      <path d="M 10.640625 27.875 
Q 10.59375 17.921875 15.484375 12.25 
Q 20.359375 6.59375 26.953125 6.59375 
Q 31.34375 6.59375 34.59375 9 
Q 37.84375 11.421875 40.046875 17.28125 
L 41.546875 16.3125 
Q 40.53125 9.625 35.59375 4.125 
Q 30.671875 -1.375 23.25 -1.375 
Q 15.1875 -1.375 9.453125 4.90625 
Q 3.71875 11.1875 3.71875 21.78125 
Q 3.71875 33.25 9.59375 39.671875 
Q 15.484375 46.09375 24.359375 46.09375 
Q 31.890625 46.09375 36.71875 41.140625 
Q 41.546875 36.1875 41.546875 27.875 
z
M 10.640625 30.71875 
L 31.34375 30.71875 
Q 31.109375 35.015625 30.328125 36.765625 
Q 29.109375 39.5 26.6875 41.0625 
Q 24.265625 42.625 21.625 42.625 
Q 17.578125 42.625 14.375 39.46875 
Q 11.1875 36.328125 10.640625 30.71875 
z
" id="TimesNewRomanPSMT-101"/>
      <path d="M 41.109375 17 
Q 39.3125 8.15625 34.03125 3.390625 
Q 28.765625 -1.375 22.359375 -1.375 
Q 14.75 -1.375 9.078125 5.015625 
Q 3.421875 11.421875 3.421875 22.3125 
Q 3.421875 32.859375 9.6875 39.453125 
Q 15.96875 46.046875 24.75 46.046875 
Q 31.34375 46.046875 35.59375 42.546875 
Q 39.84375 39.0625 39.84375 35.296875 
Q 39.84375 33.453125 38.640625 32.296875 
Q 37.453125 31.15625 35.296875 31.15625 
Q 32.421875 31.15625 30.953125 33.015625 
Q 30.125 34.03125 29.859375 36.90625 
Q 29.59375 39.796875 27.875 41.3125 
Q 26.171875 42.78125 23.140625 42.78125 
Q 18.265625 42.78125 15.28125 39.15625 
Q 11.328125 34.375 11.328125 26.515625 
Q 11.328125 18.5 15.25 12.375 
Q 19.1875 6.25 25.875 6.25 
Q 30.671875 6.25 34.46875 9.515625 
Q 37.15625 11.765625 39.703125 17.671875 
z
" id="TimesNewRomanPSMT-99"/>
      <path id="TimesNewRomanPSMT-32"/>
      <path d="M 1.703125 0 
L 1.703125 1.8125 
L 4.203125 1.8125 
Q 8.40625 1.8125 10.15625 4.5 
Q 11.234375 6.109375 11.234375 11.71875 
L 11.234375 54.5 
Q 11.234375 60.6875 9.859375 62.25 
Q 7.953125 64.40625 4.203125 64.40625 
L 1.703125 64.40625 
L 1.703125 66.21875 
L 28.65625 66.21875 
Q 43.5 66.21875 51.234375 62.84375 
Q 58.984375 59.46875 63.6875 51.609375 
Q 68.40625 43.75 68.40625 33.453125 
Q 68.40625 19.625 60.015625 10.359375 
Q 50.59375 0 31.296875 0 
z
M 20.609375 4.78125 
Q 26.8125 3.421875 31 3.421875 
Q 42.328125 3.421875 49.796875 11.375 
Q 57.28125 19.34375 57.28125 32.953125 
Q 57.28125 46.6875 49.796875 54.59375 
Q 42.328125 62.5 30.609375 62.5 
Q 26.21875 62.5 20.609375 61.078125 
z
" id="TimesNewRomanPSMT-68"/>
      <path d="M 32.03125 46.046875 
L 32.03125 30.8125 
L 30.421875 30.8125 
Q 28.5625 37.984375 25.65625 40.578125 
Q 22.75 43.171875 18.265625 43.171875 
Q 14.84375 43.171875 12.734375 41.359375 
Q 10.640625 39.546875 10.640625 37.359375 
Q 10.640625 34.625 12.203125 32.671875 
Q 13.71875 30.671875 18.359375 28.421875 
L 25.484375 24.953125 
Q 35.40625 20.125 35.40625 12.203125 
Q 35.40625 6.109375 30.78125 2.359375 
Q 26.171875 -1.375 20.453125 -1.375 
Q 16.359375 -1.375 11.078125 0.09375 
Q 9.46875 0.59375 8.453125 0.59375 
Q 7.328125 0.59375 6.6875 -0.6875 
L 5.078125 -0.6875 
L 5.078125 15.28125 
L 6.6875 15.28125 
Q 8.0625 8.453125 11.90625 4.984375 
Q 15.765625 1.515625 20.5625 1.515625 
Q 23.921875 1.515625 26.046875 3.484375 
Q 28.171875 5.46875 28.171875 8.25 
Q 28.171875 11.625 25.796875 13.921875 
Q 23.4375 16.21875 16.359375 19.734375 
Q 9.28125 23.25 7.078125 26.078125 
Q 4.890625 28.859375 4.890625 33.109375 
Q 4.890625 38.625 8.671875 42.328125 
Q 12.453125 46.046875 18.453125 46.046875 
Q 21.09375 46.046875 24.859375 44.921875 
Q 27.34375 44.1875 28.171875 44.1875 
Q 28.953125 44.1875 29.390625 44.53125 
Q 29.828125 44.875 30.421875 46.046875 
z
" id="TimesNewRomanPSMT-115"/>
      <path d="M 42.328125 44.734375 
L 42.328125 17.625 
Q 42.328125 9.859375 42.6875 8.125 
Q 43.0625 6.390625 43.859375 5.703125 
Q 44.671875 5.03125 45.75 5.03125 
Q 47.265625 5.03125 49.171875 5.859375 
L 49.859375 4.15625 
L 36.46875 -1.375 
L 34.28125 -1.375 
L 34.28125 8.109375 
Q 28.515625 1.859375 25.484375 0.234375 
Q 22.46875 -1.375 19.09375 -1.375 
Q 15.328125 -1.375 12.5625 0.796875 
Q 9.8125 2.984375 8.734375 6.390625 
Q 7.671875 9.8125 7.671875 16.0625 
L 7.671875 36.03125 
Q 7.671875 39.203125 6.984375 40.421875 
Q 6.296875 41.65625 4.953125 42.3125 
Q 3.609375 42.96875 0.09375 42.921875 
L 0.09375 44.734375 
L 15.765625 44.734375 
L 15.765625 14.796875 
Q 15.765625 8.546875 17.9375 6.59375 
Q 20.125 4.640625 23.1875 4.640625 
Q 25.296875 4.640625 27.953125 5.953125 
Q 30.609375 7.28125 34.28125 10.984375 
L 34.28125 36.328125 
Q 34.28125 40.140625 32.890625 41.484375 
Q 31.5 42.828125 27.09375 42.921875 
L 27.09375 44.734375 
z
" id="TimesNewRomanPSMT-117"/>
      <path d="M 16.15625 36.578125 
Q 24.03125 46.046875 31.15625 46.046875 
Q 34.8125 46.046875 37.453125 44.21875 
Q 40.09375 42.390625 41.65625 38.1875 
Q 42.71875 35.25 42.71875 29.203125 
L 42.71875 10.109375 
Q 42.71875 5.859375 43.40625 4.34375 
Q 43.953125 3.125 45.140625 2.4375 
Q 46.34375 1.765625 49.5625 1.765625 
L 49.5625 0 
L 27.4375 0 
L 27.4375 1.765625 
L 28.375 1.765625 
Q 31.5 1.765625 32.734375 2.703125 
Q 33.984375 3.65625 34.46875 5.515625 
Q 34.671875 6.25 34.671875 10.109375 
L 34.671875 28.421875 
Q 34.671875 34.515625 33.078125 37.28125 
Q 31.5 40.046875 27.734375 40.046875 
Q 21.921875 40.046875 16.15625 33.6875 
L 16.15625 10.109375 
Q 16.15625 5.5625 16.703125 4.5 
Q 17.390625 3.078125 18.578125 2.421875 
Q 19.78125 1.765625 23.4375 1.765625 
L 23.4375 0 
L 1.3125 0 
L 1.3125 1.765625 
L 2.296875 1.765625 
Q 5.71875 1.765625 6.90625 3.484375 
Q 8.109375 5.21875 8.109375 10.109375 
L 8.109375 26.703125 
Q 8.109375 34.765625 7.734375 36.515625 
Q 7.375 38.28125 6.609375 38.90625 
Q 5.859375 39.546875 4.59375 39.546875 
Q 3.21875 39.546875 1.3125 38.8125 
L 0.59375 40.578125 
L 14.0625 46.046875 
L 16.15625 46.046875 
z
" id="TimesNewRomanPSMT-110"/>
     </defs>
     <use xlink:href="#TimesNewRomanPSMT-86"/>
     <use x="61.091797" xlink:href="#TimesNewRomanPSMT-101"/>
     <use x="105.476562" xlink:href="#TimesNewRomanPSMT-108"/>
     <use x="133.259766" xlink:href="#TimesNewRomanPSMT-111"/>
     <use x="183.259766" xlink:href="#TimesNewRomanPSMT-99"/>
     <use x="227.644531" xlink:href="#TimesNewRomanPSMT-105"/>
     <use x="255.427734" xlink:href="#TimesNewRomanPSMT-116"/>
     <use x="283.210938" xlink:href="#TimesNewRomanPSMT-121"/>
     <use x="333.210938" xlink:href="#TimesNewRomanPSMT-32"/>
     <use x="358.210938" xlink:href="#TimesNewRomanPSMT-68"/>
     <use x="430.427734" xlink:href="#TimesNewRomanPSMT-105"/>
     <use x="458.210938" xlink:href="#TimesNewRomanPSMT-115"/>
     <use x="497.126953" xlink:href="#TimesNewRomanPSMT-116"/>
     <use x="524.910156" xlink:href="#TimesNewRomanPSMT-114"/>
     <use x="558.210938" xlink:href="#TimesNewRomanPSMT-105"/>
     <use x="585.994141" xlink:href="#TimesNewRomanPSMT-98"/>
     <use x="635.994141" xlink:href="#TimesNewRomanPSMT-117"/>
     <use x="685.994141" xlink:href="#TimesNewRomanPSMT-116"/>
     <use x="713.777344" xlink:href="#TimesNewRomanPSMT-105"/>
     <use x="741.560547" xlink:href="#TimesNewRomanPSMT-111"/>
     <use x="791.560547" xlink:href="#TimesNewRomanPSMT-110"/>
    </g>
   </g>
   <g id="legend_1">
    <g id="patch_7">
     <path d="M 254.146563 146.13375 
L 439.403125 146.13375 
Q 443.003125 146.13375 443.003125 142.53375 
L 443.003125 42.465 
Q 443.003125 38.865 439.403125 38.865 
L 254.146563 38.865 
Q 250.546563 38.865 250.546563 42.465 
L 250.546563 142.53375 
Q 250.546563 146.13375 254.146563 146.13375 
z
" style="fill:#ffffff;opacity:0.8;stroke:#cccccc;stroke-linejoin:miter;"/>
    </g>
    <g id="line2d_15">
     <path d="M 257.746563 52.365 
L 293.746563 52.365 
" style="fill:none;stroke:#0e72cc;stroke-linecap:square;stroke-width:1.5;"/>
    </g>
    <g id="line2d_16"/>
    <g id="text_14">
     <!-- Training set -->
     <g transform="translate(308.146563 58.665)scale(0.18 -0.18)">
      <defs>
       <path d="M 57.859375 66.21875 
L 58.59375 50.6875 
L 56.734375 50.6875 
Q 56.203125 54.78125 55.28125 56.546875 
Q 53.765625 59.375 51.25 60.71875 
Q 48.734375 62.0625 44.625 62.0625 
L 35.296875 62.0625 
L 35.296875 11.46875 
Q 35.296875 5.375 36.625 3.859375 
Q 38.484375 1.8125 42.328125 1.8125 
L 44.625 1.8125 
L 44.625 0 
L 16.546875 0 
L 16.546875 1.8125 
L 18.890625 1.8125 
Q 23.09375 1.8125 24.859375 4.34375 
Q 25.921875 5.90625 25.921875 11.46875 
L 25.921875 62.0625 
L 17.96875 62.0625 
Q 13.328125 62.0625 11.375 61.375 
Q 8.84375 60.453125 7.03125 57.8125 
Q 5.21875 55.171875 4.890625 50.6875 
L 3.03125 50.6875 
L 3.8125 66.21875 
z
" id="TimesNewRomanPSMT-84"/>
       <path d="M 15.09375 16.3125 
Q 10.984375 18.3125 8.78125 21.890625 
Q 6.59375 25.484375 6.59375 29.828125 
Q 6.59375 36.46875 11.59375 41.25 
Q 16.609375 46.046875 24.421875 46.046875 
Q 30.8125 46.046875 35.5 42.921875 
L 44.96875 42.921875 
Q 47.078125 42.921875 47.40625 42.796875 
Q 47.75 42.671875 47.90625 42.390625 
Q 48.1875 41.9375 48.1875 40.828125 
Q 48.1875 39.546875 47.953125 39.0625 
Q 47.796875 38.8125 47.4375 38.671875 
Q 47.078125 38.53125 44.96875 38.53125 
L 39.15625 38.53125 
Q 41.890625 35.015625 41.890625 29.546875 
Q 41.890625 23.296875 37.109375 18.84375 
Q 32.328125 14.40625 24.265625 14.40625 
Q 20.953125 14.40625 17.484375 15.375 
Q 15.328125 13.53125 14.5625 12.140625 
Q 13.8125 10.75 13.8125 9.765625 
Q 13.8125 8.9375 14.625 8.15625 
Q 15.4375 7.375 17.78125 7.03125 
Q 19.140625 6.84375 24.609375 6.6875 
Q 34.671875 6.453125 37.640625 6 
Q 42.1875 5.375 44.890625 2.640625 
Q 47.609375 -0.09375 47.609375 -4.109375 
Q 47.609375 -9.625 42.4375 -14.453125 
Q 34.8125 -21.578125 22.5625 -21.578125 
Q 13.140625 -21.578125 6.640625 -17.328125 
Q 2.984375 -14.890625 2.984375 -12.25 
Q 2.984375 -11.078125 3.515625 -9.90625 
Q 4.34375 -8.109375 6.9375 -4.890625 
Q 7.28125 -4.4375 11.921875 0.390625 
Q 9.375 1.90625 8.328125 3.09375 
Q 7.28125 4.296875 7.28125 5.8125 
Q 7.28125 7.515625 8.671875 9.8125 
Q 10.0625 12.109375 15.09375 16.3125 
z
M 23.578125 43.703125 
Q 19.96875 43.703125 17.53125 40.8125 
Q 15.09375 37.9375 15.09375 31.984375 
Q 15.09375 24.265625 18.40625 20.015625 
Q 20.953125 16.796875 24.859375 16.796875 
Q 28.5625 16.796875 30.953125 19.578125 
Q 33.34375 22.359375 33.34375 28.328125 
Q 33.34375 36.078125 29.984375 40.484375 
Q 27.484375 43.703125 23.578125 43.703125 
z
M 14.59375 0 
Q 12.3125 -2.484375 11.140625 -4.625 
Q 9.96875 -6.78125 9.96875 -8.59375 
Q 9.96875 -10.9375 12.796875 -12.703125 
Q 17.671875 -15.71875 26.90625 -15.71875 
Q 35.6875 -15.71875 39.859375 -12.609375 
Q 44.046875 -9.515625 44.046875 -6 
Q 44.046875 -3.46875 41.546875 -2.390625 
Q 39.015625 -1.3125 31.5 -1.125 
Q 20.515625 -0.828125 14.59375 0 
z
" id="TimesNewRomanPSMT-103"/>
      </defs>
      <use xlink:href="#TimesNewRomanPSMT-84"/>
      <use x="57.583984" xlink:href="#TimesNewRomanPSMT-114"/>
      <use x="90.884766" xlink:href="#TimesNewRomanPSMT-97"/>
      <use x="135.269531" xlink:href="#TimesNewRomanPSMT-105"/>
      <use x="163.052734" xlink:href="#TimesNewRomanPSMT-110"/>
      <use x="213.052734" xlink:href="#TimesNewRomanPSMT-105"/>
      <use x="240.835938" xlink:href="#TimesNewRomanPSMT-110"/>
      <use x="290.835938" xlink:href="#TimesNewRomanPSMT-103"/>
      <use x="340.835938" xlink:href="#TimesNewRomanPSMT-32"/>
      <use x="365.835938" xlink:href="#TimesNewRomanPSMT-115"/>
      <use x="404.751953" xlink:href="#TimesNewRomanPSMT-101"/>
      <use x="449.136719" xlink:href="#TimesNewRomanPSMT-116"/>
     </g>
    </g>
    <g id="line2d_17">
     <path d="M 257.746563 77.849062 
L 293.746563 77.849062 
" style="fill:none;stroke:#6ca30f;stroke-linecap:square;stroke-width:2;"/>
    </g>
    <g id="line2d_18"/>
    <g id="text_15">
     <!-- Theoretical data -->
     <g transform="translate(308.146563 84.149062)scale(0.18 -0.18)">
      <defs>
       <path d="M 16.265625 69.4375 
L 16.265625 36.71875 
Q 21.6875 42.671875 24.859375 44.359375 
Q 28.03125 46.046875 31.203125 46.046875 
Q 35.015625 46.046875 37.75 43.9375 
Q 40.484375 41.84375 41.796875 37.359375 
Q 42.71875 34.234375 42.71875 25.921875 
L 42.71875 10.109375 
Q 42.71875 5.859375 43.40625 4.296875 
Q 43.890625 3.125 45.0625 2.4375 
Q 46.234375 1.765625 49.359375 1.765625 
L 49.359375 0 
L 27.390625 0 
L 27.390625 1.765625 
L 28.421875 1.765625 
Q 31.546875 1.765625 32.765625 2.703125 
Q 33.984375 3.65625 34.46875 5.515625 
Q 34.625 6.296875 34.625 10.109375 
L 34.625 25.921875 
Q 34.625 33.25 33.859375 35.546875 
Q 33.109375 37.84375 31.4375 38.984375 
Q 29.78125 40.140625 27.4375 40.140625 
Q 25.046875 40.140625 22.453125 38.859375 
Q 19.875 37.59375 16.265625 33.734375 
L 16.265625 10.109375 
Q 16.265625 5.515625 16.765625 4.390625 
Q 17.28125 3.265625 18.671875 2.515625 
Q 20.0625 1.765625 23.484375 1.765625 
L 23.484375 0 
L 1.3125 0 
L 1.3125 1.765625 
Q 4.296875 1.765625 6 2.6875 
Q 6.984375 3.171875 7.5625 4.53125 
Q 8.15625 5.90625 8.15625 10.109375 
L 8.15625 50.59375 
Q 8.15625 58.25 7.78125 60 
Q 7.421875 61.765625 6.65625 62.390625 
Q 5.90625 63.03125 4.640625 63.03125 
Q 3.609375 63.03125 1.3125 62.25 
L 0.640625 63.96875 
L 14.015625 69.4375 
z
" id="TimesNewRomanPSMT-104"/>
       <path d="M 34.71875 5.03125 
Q 31.453125 1.609375 28.328125 0.109375 
Q 25.203125 -1.375 21.578125 -1.375 
Q 14.265625 -1.375 8.796875 4.75 
Q 3.328125 10.890625 3.328125 20.515625 
Q 3.328125 30.125 9.375 38.109375 
Q 15.4375 46.09375 24.953125 46.09375 
Q 30.859375 46.09375 34.71875 42.328125 
L 34.71875 50.59375 
Q 34.71875 58.25 34.34375 60 
Q 33.984375 61.765625 33.203125 62.390625 
Q 32.421875 63.03125 31.25 63.03125 
Q 29.984375 63.03125 27.875 62.25 
L 27.25 63.96875 
L 40.578125 69.4375 
L 42.78125 69.4375 
L 42.78125 17.71875 
Q 42.78125 9.859375 43.140625 8.125 
Q 43.5 6.390625 44.3125 5.703125 
Q 45.125 5.03125 46.1875 5.03125 
Q 47.515625 5.03125 49.703125 5.859375 
L 50.25 4.15625 
L 36.96875 -1.375 
L 34.71875 -1.375 
z
M 34.71875 8.453125 
L 34.71875 31.5 
Q 34.421875 34.8125 32.953125 37.546875 
Q 31.5 40.28125 29.078125 41.671875 
Q 26.65625 43.0625 24.359375 43.0625 
Q 20.0625 43.0625 16.703125 39.203125 
Q 12.25 34.125 12.25 24.359375 
Q 12.25 14.5 16.546875 9.25 
Q 20.84375 4 26.125 4 
Q 30.5625 4 34.71875 8.453125 
z
" id="TimesNewRomanPSMT-100"/>
      </defs>
      <use xlink:href="#TimesNewRomanPSMT-84"/>
      <use x="61.083984" xlink:href="#TimesNewRomanPSMT-104"/>
      <use x="111.083984" xlink:href="#TimesNewRomanPSMT-101"/>
      <use x="155.46875" xlink:href="#TimesNewRomanPSMT-111"/>
      <use x="205.46875" xlink:href="#TimesNewRomanPSMT-114"/>
      <use x="238.769531" xlink:href="#TimesNewRomanPSMT-101"/>
      <use x="283.154297" xlink:href="#TimesNewRomanPSMT-116"/>
      <use x="310.9375" xlink:href="#TimesNewRomanPSMT-105"/>
      <use x="338.720703" xlink:href="#TimesNewRomanPSMT-99"/>
      <use x="383.105469" xlink:href="#TimesNewRomanPSMT-97"/>
      <use x="427.490234" xlink:href="#TimesNewRomanPSMT-108"/>
      <use x="455.273438" xlink:href="#TimesNewRomanPSMT-32"/>
      <use x="480.273438" xlink:href="#TimesNewRomanPSMT-100"/>
      <use x="530.273438" xlink:href="#TimesNewRomanPSMT-97"/>
      <use x="574.658203" xlink:href="#TimesNewRomanPSMT-116"/>
      <use x="602.441406" xlink:href="#TimesNewRomanPSMT-97"/>
     </g>
    </g>
    <g id="line2d_19">
     <path d="M 257.746563 103.299375 
L 293.746563 103.299375 
" style="fill:none;stroke:#ff0000;stroke-dasharray:6.4,1.6,1,1.6;stroke-dashoffset:0;"/>
    </g>
    <g id="line2d_20">
     <g>
      <use style="fill:#ff0000;stroke:#ff0000;stroke-linejoin:bevel;" x="275.746563" xlink:href="#m9815ca2af5" y="103.299375"/>
     </g>
    </g>
    <g id="text_16">
     <!-- Yamamoto kernel -->
     <g transform="translate(308.146563 109.599375)scale(0.18 -0.18)">
      <defs>
       <path d="M 47.65625 66.21875 
L 70.75 66.21875 
L 70.75 64.40625 
L 69.484375 64.40625 
Q 68.21875 64.40625 65.765625 63.28125 
Q 63.328125 62.15625 61.328125 60.046875 
Q 59.328125 57.953125 56.390625 53.21875 
L 40.4375 28.078125 
L 40.4375 11.46875 
Q 40.4375 5.375 41.796875 3.859375 
Q 43.65625 1.8125 47.65625 1.8125 
L 49.8125 1.8125 
L 49.8125 0 
L 21.6875 0 
L 21.6875 1.8125 
L 24.03125 1.8125 
Q 28.21875 1.8125 29.984375 4.34375 
Q 31.0625 5.90625 31.0625 11.46875 
L 31.0625 27.15625 
L 12.890625 54.890625 
Q 9.671875 59.765625 8.515625 60.984375 
Q 7.375 62.203125 3.765625 63.921875 
Q 2.78125 64.40625 0.921875 64.40625 
L 0.921875 66.21875 
L 29.25 66.21875 
L 29.25 64.40625 
L 27.78125 64.40625 
Q 25.484375 64.40625 23.546875 63.328125 
Q 21.625 62.25 21.625 60.109375 
Q 21.625 58.34375 24.609375 53.765625 
L 38.421875 32.421875 
L 51.421875 52.828125 
Q 54.34375 57.421875 54.34375 59.671875 
Q 54.34375 61.03125 53.640625 62.109375 
Q 52.9375 63.1875 51.609375 63.796875 
Q 50.296875 64.40625 47.65625 64.40625 
z
" id="TimesNewRomanPSMT-89"/>
       <path d="M 16.40625 36.53125 
Q 21.296875 41.40625 22.171875 42.140625 
Q 24.359375 44 26.890625 45.015625 
Q 29.4375 46.046875 31.9375 46.046875 
Q 36.140625 46.046875 39.15625 43.59375 
Q 42.1875 41.15625 43.21875 36.53125 
Q 48.25 42.390625 51.703125 44.21875 
Q 55.171875 46.046875 58.84375 46.046875 
Q 62.40625 46.046875 65.15625 44.21875 
Q 67.921875 42.390625 69.53125 38.234375 
Q 70.609375 35.40625 70.609375 29.34375 
L 70.609375 10.109375 
Q 70.609375 5.90625 71.234375 4.34375 
Q 71.734375 3.265625 73.046875 2.515625 
Q 74.359375 1.765625 77.34375 1.765625 
L 77.34375 0 
L 55.28125 0 
L 55.28125 1.765625 
L 56.203125 1.765625 
Q 59.078125 1.765625 60.6875 2.875 
Q 61.8125 3.65625 62.3125 5.375 
Q 62.5 6.203125 62.5 10.109375 
L 62.5 29.34375 
Q 62.5 34.8125 61.1875 37.0625 
Q 59.28125 40.1875 55.078125 40.1875 
Q 52.484375 40.1875 49.875 38.890625 
Q 47.265625 37.59375 43.5625 34.078125 
L 43.453125 33.546875 
L 43.5625 31.453125 
L 43.5625 10.109375 
Q 43.5625 5.515625 44.0625 4.390625 
Q 44.578125 3.265625 45.984375 2.515625 
Q 47.40625 1.765625 50.828125 1.765625 
L 50.828125 0 
L 28.21875 0 
L 28.21875 1.765625 
Q 31.9375 1.765625 33.328125 2.640625 
Q 34.71875 3.515625 35.25 5.28125 
Q 35.5 6.109375 35.5 10.109375 
L 35.5 29.34375 
Q 35.5 34.8125 33.890625 37.203125 
Q 31.734375 40.328125 27.875 40.328125 
Q 25.25 40.328125 22.65625 38.921875 
Q 18.609375 36.765625 16.40625 34.078125 
L 16.40625 10.109375 
Q 16.40625 5.71875 17.015625 4.390625 
Q 17.625 3.078125 18.8125 2.421875 
Q 20.015625 1.765625 23.6875 1.765625 
L 23.6875 0 
L 1.5625 0 
L 1.5625 1.765625 
Q 4.640625 1.765625 5.859375 2.421875 
Q 7.078125 3.078125 7.703125 4.515625 
Q 8.34375 5.953125 8.34375 10.109375 
L 8.34375 27.203125 
Q 8.34375 34.578125 7.90625 36.71875 
Q 7.5625 38.328125 6.828125 38.9375 
Q 6.109375 39.546875 4.828125 39.546875 
Q 3.46875 39.546875 1.5625 38.8125 
L 0.828125 40.578125 
L 14.3125 46.046875 
L 16.40625 46.046875 
z
" id="TimesNewRomanPSMT-109"/>
       <path d="M 16.359375 69.4375 
L 16.359375 24.953125 
L 27.734375 35.296875 
Q 31.34375 38.625 31.9375 39.5 
Q 32.328125 40.09375 32.328125 40.671875 
Q 32.328125 41.65625 31.515625 42.359375 
Q 30.71875 43.0625 28.859375 43.171875 
L 28.859375 44.734375 
L 48.296875 44.734375 
L 48.296875 43.171875 
Q 44.28125 43.0625 41.625 41.9375 
Q 38.96875 40.828125 35.796875 37.9375 
L 24.3125 27.34375 
L 35.796875 12.84375 
Q 40.578125 6.84375 42.234375 5.21875 
Q 44.578125 2.9375 46.34375 2.25 
Q 47.5625 1.765625 50.59375 1.765625 
L 50.59375 0 
L 28.859375 0 
L 28.859375 1.765625 
Q 30.71875 1.8125 31.375 2.3125 
Q 32.03125 2.828125 32.03125 3.765625 
Q 32.03125 4.890625 30.078125 7.375 
L 16.359375 24.90625 
L 16.359375 10.0625 
Q 16.359375 5.71875 16.96875 4.34375 
Q 17.578125 2.984375 18.703125 2.390625 
Q 19.828125 1.8125 23.578125 1.765625 
L 23.578125 0 
L 0.828125 0 
L 0.828125 1.765625 
Q 4.25 1.765625 5.953125 2.59375 
Q 6.984375 3.125 7.515625 4.25 
Q 8.25 5.859375 8.25 9.8125 
L 8.25 50.53125 
Q 8.25 58.296875 7.90625 60.03125 
Q 7.5625 61.765625 6.78125 62.421875 
Q 6 63.09375 4.734375 63.09375 
Q 3.71875 63.09375 1.65625 62.25 
L 0.828125 63.96875 
L 14.109375 69.4375 
z
" id="TimesNewRomanPSMT-107"/>
      </defs>
      <use xlink:href="#TimesNewRomanPSMT-89"/>
      <use x="62.216797" xlink:href="#TimesNewRomanPSMT-97"/>
      <use x="106.601562" xlink:href="#TimesNewRomanPSMT-109"/>
      <use x="184.384766" xlink:href="#TimesNewRomanPSMT-97"/>
      <use x="228.769531" xlink:href="#TimesNewRomanPSMT-109"/>
      <use x="306.552734" xlink:href="#TimesNewRomanPSMT-111"/>
      <use x="356.552734" xlink:href="#TimesNewRomanPSMT-116"/>
      <use x="384.335938" xlink:href="#TimesNewRomanPSMT-111"/>
      <use x="434.335938" xlink:href="#TimesNewRomanPSMT-32"/>
      <use x="459.335938" xlink:href="#TimesNewRomanPSMT-107"/>
      <use x="509.335938" xlink:href="#TimesNewRomanPSMT-101"/>
      <use x="553.720703" xlink:href="#TimesNewRomanPSMT-114"/>
      <use x="587.021484" xlink:href="#TimesNewRomanPSMT-110"/>
      <use x="637.021484" xlink:href="#TimesNewRomanPSMT-101"/>
      <use x="681.40625" xlink:href="#TimesNewRomanPSMT-108"/>
     </g>
    </g>
    <g id="line2d_21">
     <path d="M 257.746563 128.749687 
L 293.746563 128.749687 
" style="fill:none;stroke:#f59311;stroke-linecap:square;stroke-width:2;"/>
    </g>
    <g id="line2d_22"/>
    <g id="text_17">
     <!-- Symbolic data -->
     <g transform="translate(308.146563 135.049687)scale(0.18 -0.18)">
      <defs>
       <path d="M 45.84375 67.71875 
L 45.84375 44.828125 
L 44.046875 44.828125 
Q 43.171875 51.421875 40.890625 55.328125 
Q 38.625 59.234375 34.421875 61.515625 
Q 30.21875 63.8125 25.734375 63.8125 
Q 20.65625 63.8125 17.328125 60.71875 
Q 14.015625 57.625 14.015625 53.65625 
Q 14.015625 50.640625 16.109375 48.140625 
Q 19.140625 44.484375 30.515625 38.375 
Q 39.796875 33.40625 43.1875 30.734375 
Q 46.578125 28.078125 48.40625 24.453125 
Q 50.25 20.84375 50.25 16.890625 
Q 50.25 9.375 44.40625 3.921875 
Q 38.578125 -1.515625 29.390625 -1.515625 
Q 26.515625 -1.515625 23.96875 -1.078125 
Q 22.46875 -0.828125 17.703125 0.703125 
Q 12.9375 2.25 11.671875 2.25 
Q 10.453125 2.25 9.734375 1.515625 
Q 9.03125 0.78125 8.6875 -1.515625 
L 6.890625 -1.515625 
L 6.890625 21.1875 
L 8.6875 21.1875 
Q 9.96875 14.0625 12.109375 10.515625 
Q 14.265625 6.984375 18.671875 4.640625 
Q 23.09375 2.296875 28.375 2.296875 
Q 34.46875 2.296875 38 5.515625 
Q 41.546875 8.734375 41.546875 13.140625 
Q 41.546875 15.578125 40.203125 18.0625 
Q 38.875 20.5625 36.03125 22.703125 
Q 34.125 24.171875 25.625 28.921875 
Q 17.140625 33.6875 13.546875 36.515625 
Q 9.96875 39.359375 8.109375 42.765625 
Q 6.25 46.1875 6.25 50.296875 
Q 6.25 57.421875 11.71875 62.5625 
Q 17.1875 67.71875 25.640625 67.71875 
Q 30.90625 67.71875 36.8125 65.140625 
Q 39.546875 63.921875 40.671875 63.921875 
Q 41.9375 63.921875 42.75 64.671875 
Q 43.5625 65.4375 44.046875 67.71875 
z
" id="TimesNewRomanPSMT-83"/>
      </defs>
      <use xlink:href="#TimesNewRomanPSMT-83"/>
      <use x="55.615234" xlink:href="#TimesNewRomanPSMT-121"/>
      <use x="105.615234" xlink:href="#TimesNewRomanPSMT-109"/>
      <use x="183.398438" xlink:href="#TimesNewRomanPSMT-98"/>
      <use x="233.398438" xlink:href="#TimesNewRomanPSMT-111"/>
      <use x="283.398438" xlink:href="#TimesNewRomanPSMT-108"/>
      <use x="311.181641" xlink:href="#TimesNewRomanPSMT-105"/>
      <use x="338.964844" xlink:href="#TimesNewRomanPSMT-99"/>
      <use x="383.349609" xlink:href="#TimesNewRomanPSMT-32"/>
      <use x="408.349609" xlink:href="#TimesNewRomanPSMT-100"/>
      <use x="458.349609" xlink:href="#TimesNewRomanPSMT-97"/>
      <use x="502.734375" xlink:href="#TimesNewRomanPSMT-116"/>
      <use x="530.517578" xlink:href="#TimesNewRomanPSMT-97"/>
     </g>
    </g>
   </g>
  </g>
 </g>
 <defs>
  <clipPath id="pbe29ae7a41">
   <rect height="271.8" width="390.6" x="61.403125" y="29.865"/>
  </clipPath>
 </defs>
</svg>
