<?xml version="1.0" encoding="utf-8" standalone="no"?>
<!DOCTYPE svg PUBLIC "-//W3C//DTD SVG 1.1//EN"
  "http://www.w3.org/Graphics/SVG/1.1/DTD/svg11.dtd">
<!-- Created with matplotlib (https://matplotlib.org/) -->
<svg height="356.230625pt" version="1.1" viewBox="0 0 469.203125 356.230625" width="469.203125pt" xmlns="http://www.w3.org/2000/svg" xmlns:xlink="http://www.w3.org/1999/xlink">
 <metadata>
  <rdf:RDF xmlns:cc="http://creativecommons.org/ns#" xmlns:dc="http://purl.org/dc/elements/1.1/" xmlns:rdf="http://www.w3.org/1999/02/22-rdf-syntax-ns#">
   <cc:Work>
    <dc:type rdf:resource="http://purl.org/dc/dcmitype/StillImage"/>
    <dc:date>2021-04-07T13:48:49.504955</dc:date>
    <dc:format>image/svg+xml</dc:format>
    <dc:creator>
     <cc:Agent>
      <dc:title>Matplotlib v3.3.2, https://matplotlib.org/</dc:title>
     </cc:Agent>
    </dc:creator>
   </cc:Work>
  </rdf:RDF>
 </metadata>
 <defs>
  <style type="text/css">*{stroke-linecap:butt;stroke-linejoin:round;}</style>
 </defs>
 <g id="figure_1">
  <g id="patch_1">
   <path d="M -0 356.230625 
L 469.203125 356.230625 
L 469.203125 0 
L -0 0 
z
" style="fill:none;"/>
  </g>
  <g id="axes_1">
   <g id="patch_2">
    <path d="M 71.403125 301.665 
L 462.003125 301.665 
L 462.003125 29.865 
L 71.403125 29.865 
z
" style="fill:#ffffff;"/>
   </g>
   <g id="PathCollection_1">
    <defs>
     <path d="M 0 3 
C 0.795609 3 1.55874 2.683901 2.12132 2.12132 
C 2.683901 1.55874 3 0.795609 3 0 
C 3 -0.795609 2.683901 -1.55874 2.12132 -2.12132 
C 1.55874 -2.683901 0.795609 -3 0 -3 
C -0.795609 -3 -1.55874 -2.683901 -2.12132 -2.12132 
C -2.683901 -1.55874 -3 -0.795609 -3 0 
C -3 0.795609 -2.683901 1.55874 -2.12132 2.12132 
C -1.55874 2.683901 -0.795609 3 0 3 
z
" id="m72b9be34ca" style="stroke:#1f77b4;"/>
    </defs>
    <g clip-path="url(#p2c0e931803)">
     <use style="fill:#1f77b4;stroke:#1f77b4;" x="89.15767" xlink:href="#m72b9be34ca" y="289.310455"/>
     <use style="fill:#1f77b4;stroke:#1f77b4;" x="92.744447" xlink:href="#m72b9be34ca" y="259.763357"/>
     <use style="fill:#1f77b4;stroke:#1f77b4;" x="96.331224" xlink:href="#m72b9be34ca" y="230.682873"/>
     <use style="fill:#1f77b4;stroke:#1f77b4;" x="99.918001" xlink:href="#m72b9be34ca" y="202.523357"/>
     <use style="fill:#1f77b4;stroke:#1f77b4;" x="103.504778" xlink:href="#m72b9be34ca" y="175.715095"/>
     <use style="fill:#1f77b4;stroke:#1f77b4;" x="107.091555" xlink:href="#m72b9be34ca" y="150.653372"/>
     <use style="fill:#1f77b4;stroke:#1f77b4;" x="110.678332" xlink:href="#m72b9be34ca" y="127.688812"/>
     <use style="fill:#1f77b4;stroke:#1f77b4;" x="114.265108" xlink:href="#m72b9be34ca" y="107.119304"/>
     <use style="fill:#1f77b4;stroke:#1f77b4;" x="117.851885" xlink:href="#m72b9be34ca" y="89.183795"/>
     <use style="fill:#1f77b4;stroke:#1f77b4;" x="121.438662" xlink:href="#m72b9be34ca" y="74.058086"/>
     <use style="fill:#1f77b4;stroke:#1f77b4;" x="125.025439" xlink:href="#m72b9be34ca" y="61.852757"/>
     <use style="fill:#1f77b4;stroke:#1f77b4;" x="128.612216" xlink:href="#m72b9be34ca" y="52.613175"/>
     <use style="fill:#1f77b4;stroke:#1f77b4;" x="132.198993" xlink:href="#m72b9be34ca" y="46.32152"/>
     <use style="fill:#1f77b4;stroke:#1f77b4;" x="135.78577" xlink:href="#m72b9be34ca" y="42.900647"/>
     <use style="fill:#1f77b4;stroke:#1f77b4;" x="139.372546" xlink:href="#m72b9be34ca" y="42.219545"/>
     <use style="fill:#1f77b4;stroke:#1f77b4;" x="142.959323" xlink:href="#m72b9be34ca" y="44.100112"/>
     <use style="fill:#1f77b4;stroke:#1f77b4;" x="146.5461" xlink:href="#m72b9be34ca" y="48.324912"/>
     <use style="fill:#1f77b4;stroke:#1f77b4;" x="150.132877" xlink:href="#m72b9be34ca" y="54.645581"/>
     <use style="fill:#1f77b4;stroke:#1f77b4;" x="153.719654" xlink:href="#m72b9be34ca" y="62.791529"/>
     <use style="fill:#1f77b4;stroke:#1f77b4;" x="157.306431" xlink:href="#m72b9be34ca" y="72.478609"/>
     <use style="fill:#1f77b4;stroke:#1f77b4;" x="160.893208" xlink:href="#m72b9be34ca" y="83.417457"/>
     <use style="fill:#1f77b4;stroke:#1f77b4;" x="164.479985" xlink:href="#m72b9be34ca" y="95.321227"/>
     <use style="fill:#1f77b4;stroke:#1f77b4;" x="168.066761" xlink:href="#m72b9be34ca" y="107.912514"/>
     <use style="fill:#1f77b4;stroke:#1f77b4;" x="171.653538" xlink:href="#m72b9be34ca" y="120.929312"/>
     <use style="fill:#1f77b4;stroke:#1f77b4;" x="175.240315" xlink:href="#m72b9be34ca" y="134.12987"/>
     <use style="fill:#1f77b4;stroke:#1f77b4;" x="178.827092" xlink:href="#m72b9be34ca" y="147.296429"/>
     <use style="fill:#1f77b4;stroke:#1f77b4;" x="182.413869" xlink:href="#m72b9be34ca" y="160.23781"/>
     <use style="fill:#1f77b4;stroke:#1f77b4;" x="186.000646" xlink:href="#m72b9be34ca" y="172.790909"/>
     <use style="fill:#1f77b4;stroke:#1f77b4;" x="189.587423" xlink:href="#m72b9be34ca" y="184.82118"/>
     <use style="fill:#1f77b4;stroke:#1f77b4;" x="193.174199" xlink:href="#m72b9be34ca" y="196.222211"/>
     <use style="fill:#1f77b4;stroke:#1f77b4;" x="196.760976" xlink:href="#m72b9be34ca" y="206.914533"/>
     <use style="fill:#1f77b4;stroke:#1f77b4;" x="200.347753" xlink:href="#m72b9be34ca" y="216.843798"/>
     <use style="fill:#1f77b4;stroke:#1f77b4;" x="203.93453" xlink:href="#m72b9be34ca" y="225.978484"/>
     <use style="fill:#1f77b4;stroke:#1f77b4;" x="207.521307" xlink:href="#m72b9be34ca" y="234.307267"/>
     <use style="fill:#1f77b4;stroke:#1f77b4;" x="211.108084" xlink:href="#m72b9be34ca" y="241.836204"/>
     <use style="fill:#1f77b4;stroke:#1f77b4;" x="214.694861" xlink:href="#m72b9be34ca" y="248.585849"/>
     <use style="fill:#1f77b4;stroke:#1f77b4;" x="218.281637" xlink:href="#m72b9be34ca" y="254.588408"/>
     <use style="fill:#1f77b4;stroke:#1f77b4;" x="221.868414" xlink:href="#m72b9be34ca" y="259.885025"/>
     <use style="fill:#1f77b4;stroke:#1f77b4;" x="225.455191" xlink:href="#m72b9be34ca" y="264.523267"/>
     <use style="fill:#1f77b4;stroke:#1f77b4;" x="229.041968" xlink:href="#m72b9be34ca" y="268.554865"/>
     <use style="fill:#1f77b4;stroke:#1f77b4;" x="232.628745" xlink:href="#m72b9be34ca" y="272.033726"/>
     <use style="fill:#1f77b4;stroke:#1f77b4;" x="236.215522" xlink:href="#m72b9be34ca" y="275.014254"/>
     <use style="fill:#1f77b4;stroke:#1f77b4;" x="239.802299" xlink:href="#m72b9be34ca" y="277.549962"/>
     <use style="fill:#1f77b4;stroke:#1f77b4;" x="243.389075" xlink:href="#m72b9be34ca" y="279.692378"/>
     <use style="fill:#1f77b4;stroke:#1f77b4;" x="246.975852" xlink:href="#m72b9be34ca" y="281.490213"/>
     <use style="fill:#1f77b4;stroke:#1f77b4;" x="250.562629" xlink:href="#m72b9be34ca" y="282.988785"/>
     <use style="fill:#1f77b4;stroke:#1f77b4;" x="254.149406" xlink:href="#m72b9be34ca" y="284.229645"/>
     <use style="fill:#1f77b4;stroke:#1f77b4;" x="257.736183" xlink:href="#m72b9be34ca" y="285.250391"/>
     <use style="fill:#1f77b4;stroke:#1f77b4;" x="261.32296" xlink:href="#m72b9be34ca" y="286.084635"/>
     <use style="fill:#1f77b4;stroke:#1f77b4;" x="264.909737" xlink:href="#m72b9be34ca" y="286.762083"/>
     <use style="fill:#1f77b4;stroke:#1f77b4;" x="268.496513" xlink:href="#m72b9be34ca" y="287.308711"/>
     <use style="fill:#1f77b4;stroke:#1f77b4;" x="272.08329" xlink:href="#m72b9be34ca" y="287.747004"/>
     <use style="fill:#1f77b4;stroke:#1f77b4;" x="275.670067" xlink:href="#m72b9be34ca" y="288.096236"/>
     <use style="fill:#1f77b4;stroke:#1f77b4;" x="279.256844" xlink:href="#m72b9be34ca" y="288.372778"/>
     <use style="fill:#1f77b4;stroke:#1f77b4;" x="282.843621" xlink:href="#m72b9be34ca" y="288.590412"/>
     <use style="fill:#1f77b4;stroke:#1f77b4;" x="286.430398" xlink:href="#m72b9be34ca" y="288.760638"/>
     <use style="fill:#1f77b4;stroke:#1f77b4;" x="290.017175" xlink:href="#m72b9be34ca" y="288.892973"/>
     <use style="fill:#1f77b4;stroke:#1f77b4;" x="293.603951" xlink:href="#m72b9be34ca" y="288.995228"/>
     <use style="fill:#1f77b4;stroke:#1f77b4;" x="297.190728" xlink:href="#m72b9be34ca" y="289.073766"/>
     <use style="fill:#1f77b4;stroke:#1f77b4;" x="300.777505" xlink:href="#m72b9be34ca" y="289.133726"/>
     <use style="fill:#1f77b4;stroke:#1f77b4;" x="304.364282" xlink:href="#m72b9be34ca" y="289.17923"/>
     <use style="fill:#1f77b4;stroke:#1f77b4;" x="307.951059" xlink:href="#m72b9be34ca" y="289.213558"/>
     <use style="fill:#1f77b4;stroke:#1f77b4;" x="311.537836" xlink:href="#m72b9be34ca" y="289.239303"/>
     <use style="fill:#1f77b4;stroke:#1f77b4;" x="315.124613" xlink:href="#m72b9be34ca" y="289.258496"/>
     <use style="fill:#1f77b4;stroke:#1f77b4;" x="318.711389" xlink:href="#m72b9be34ca" y="289.272722"/>
     <use style="fill:#1f77b4;stroke:#1f77b4;" x="322.298166" xlink:href="#m72b9be34ca" y="289.283204"/>
     <use style="fill:#1f77b4;stroke:#1f77b4;" x="325.884943" xlink:href="#m72b9be34ca" y="289.290882"/>
     <use style="fill:#1f77b4;stroke:#1f77b4;" x="329.47172" xlink:href="#m72b9be34ca" y="289.296475"/>
     <use style="fill:#1f77b4;stroke:#1f77b4;" x="333.058497" xlink:href="#m72b9be34ca" y="289.300524"/>
     <use style="fill:#1f77b4;stroke:#1f77b4;" x="336.645274" xlink:href="#m72b9be34ca" y="289.303439"/>
     <use style="fill:#1f77b4;stroke:#1f77b4;" x="340.232051" xlink:href="#m72b9be34ca" y="289.305526"/>
     <use style="fill:#1f77b4;stroke:#1f77b4;" x="343.818827" xlink:href="#m72b9be34ca" y="289.307011"/>
     <use style="fill:#1f77b4;stroke:#1f77b4;" x="347.405604" xlink:href="#m72b9be34ca" y="289.308061"/>
     <use style="fill:#1f77b4;stroke:#1f77b4;" x="350.992381" xlink:href="#m72b9be34ca" y="289.308801"/>
     <use style="fill:#1f77b4;stroke:#1f77b4;" x="354.579158" xlink:href="#m72b9be34ca" y="289.309318"/>
     <use style="fill:#1f77b4;stroke:#1f77b4;" x="358.165935" xlink:href="#m72b9be34ca" y="289.309677"/>
     <use style="fill:#1f77b4;stroke:#1f77b4;" x="361.752712" xlink:href="#m72b9be34ca" y="289.309926"/>
     <use style="fill:#1f77b4;stroke:#1f77b4;" x="365.339489" xlink:href="#m72b9be34ca" y="289.310097"/>
     <use style="fill:#1f77b4;stroke:#1f77b4;" x="368.926265" xlink:href="#m72b9be34ca" y="289.310214"/>
     <use style="fill:#1f77b4;stroke:#1f77b4;" x="372.513042" xlink:href="#m72b9be34ca" y="289.310294"/>
     <use style="fill:#1f77b4;stroke:#1f77b4;" x="376.099819" xlink:href="#m72b9be34ca" y="289.310348"/>
     <use style="fill:#1f77b4;stroke:#1f77b4;" x="379.686596" xlink:href="#m72b9be34ca" y="289.310384"/>
     <use style="fill:#1f77b4;stroke:#1f77b4;" x="383.273373" xlink:href="#m72b9be34ca" y="289.310408"/>
     <use style="fill:#1f77b4;stroke:#1f77b4;" x="386.86015" xlink:href="#m72b9be34ca" y="289.310424"/>
     <use style="fill:#1f77b4;stroke:#1f77b4;" x="390.446927" xlink:href="#m72b9be34ca" y="289.310435"/>
     <use style="fill:#1f77b4;stroke:#1f77b4;" x="394.033704" xlink:href="#m72b9be34ca" y="289.310442"/>
     <use style="fill:#1f77b4;stroke:#1f77b4;" x="397.62048" xlink:href="#m72b9be34ca" y="289.310446"/>
     <use style="fill:#1f77b4;stroke:#1f77b4;" x="401.207257" xlink:href="#m72b9be34ca" y="289.310449"/>
     <use style="fill:#1f77b4;stroke:#1f77b4;" x="404.794034" xlink:href="#m72b9be34ca" y="289.310451"/>
     <use style="fill:#1f77b4;stroke:#1f77b4;" x="408.380811" xlink:href="#m72b9be34ca" y="289.310452"/>
     <use style="fill:#1f77b4;stroke:#1f77b4;" x="411.967588" xlink:href="#m72b9be34ca" y="289.310453"/>
     <use style="fill:#1f77b4;stroke:#1f77b4;" x="415.554365" xlink:href="#m72b9be34ca" y="289.310454"/>
     <use style="fill:#1f77b4;stroke:#1f77b4;" x="419.141142" xlink:href="#m72b9be34ca" y="289.310454"/>
     <use style="fill:#1f77b4;stroke:#1f77b4;" x="422.727918" xlink:href="#m72b9be34ca" y="289.310454"/>
     <use style="fill:#1f77b4;stroke:#1f77b4;" x="426.314695" xlink:href="#m72b9be34ca" y="289.310454"/>
     <use style="fill:#1f77b4;stroke:#1f77b4;" x="429.901472" xlink:href="#m72b9be34ca" y="289.310454"/>
     <use style="fill:#1f77b4;stroke:#1f77b4;" x="433.488249" xlink:href="#m72b9be34ca" y="289.310454"/>
     <use style="fill:#1f77b4;stroke:#1f77b4;" x="437.075026" xlink:href="#m72b9be34ca" y="289.310454"/>
     <use style="fill:#1f77b4;stroke:#1f77b4;" x="440.661803" xlink:href="#m72b9be34ca" y="289.310455"/>
     <use style="fill:#1f77b4;stroke:#1f77b4;" x="444.24858" xlink:href="#m72b9be34ca" y="289.310455"/>
    </g>
   </g>
   <g id="matplotlib.axis_1">
    <g id="xtick_1">
     <g id="line2d_1">
      <defs>
       <path d="M 0 0 
L 0 3.5 
" id="m91817c96fc" style="stroke:#000000;stroke-width:0.8;"/>
      </defs>
      <g>
       <use style="stroke:#000000;stroke-width:0.8;" x="89.15767" xlink:href="#m91817c96fc" y="301.665"/>
      </g>
     </g>
     <g id="text_1">
      <!-- 0 -->
      <g transform="translate(84.15767 322.5525)scale(0.2 -0.2)">
       <defs>
        <path d="M 3.609375 32.71875 
Q 3.609375 44.046875 7.03125 52.21875 
Q 10.453125 60.40625 16.109375 64.40625 
Q 20.515625 67.578125 25.203125 67.578125 
Q 32.8125 67.578125 38.875 59.8125 
Q 46.4375 50.203125 46.4375 33.734375 
Q 46.4375 22.21875 43.109375 14.15625 
Q 39.796875 6.109375 34.640625 2.46875 
Q 29.5 -1.171875 24.703125 -1.171875 
Q 15.234375 -1.171875 8.9375 10.015625 
Q 3.609375 19.4375 3.609375 32.71875 
z
M 13.1875 31.5 
Q 13.1875 17.828125 16.546875 9.1875 
Q 19.34375 1.90625 24.859375 1.90625 
Q 27.484375 1.90625 30.3125 4.265625 
Q 33.15625 6.640625 34.625 12.203125 
Q 36.859375 20.609375 36.859375 35.890625 
Q 36.859375 47.21875 34.515625 54.78125 
Q 32.765625 60.40625 29.984375 62.75 
Q 27.984375 64.359375 25.140625 64.359375 
Q 21.828125 64.359375 19.234375 61.375 
Q 15.71875 57.328125 14.453125 48.625 
Q 13.1875 39.9375 13.1875 31.5 
z
" id="TimesNewRomanPSMT-48"/>
       </defs>
       <use xlink:href="#TimesNewRomanPSMT-48"/>
      </g>
     </g>
    </g>
    <g id="xtick_2">
     <g id="line2d_2">
      <g>
       <use style="stroke:#000000;stroke-width:0.8;" x="177.930398" xlink:href="#m91817c96fc" y="301.665"/>
      </g>
     </g>
     <g id="text_2">
      <!-- 1 -->
      <g transform="translate(172.930398 322.5525)scale(0.2 -0.2)">
       <defs>
        <path d="M 11.71875 59.71875 
L 27.828125 67.578125 
L 29.4375 67.578125 
L 29.4375 11.671875 
Q 29.4375 6.109375 29.90625 4.734375 
Q 30.375 3.375 31.828125 2.640625 
Q 33.296875 1.90625 37.796875 1.8125 
L 37.796875 0 
L 12.890625 0 
L 12.890625 1.8125 
Q 17.578125 1.90625 18.9375 2.609375 
Q 20.3125 3.328125 20.84375 4.515625 
Q 21.390625 5.71875 21.390625 11.671875 
L 21.390625 47.40625 
Q 21.390625 54.640625 20.90625 56.6875 
Q 20.5625 58.25 19.65625 58.984375 
Q 18.75 59.71875 17.484375 59.71875 
Q 15.671875 59.71875 12.453125 58.203125 
z
" id="TimesNewRomanPSMT-49"/>
       </defs>
       <use xlink:href="#TimesNewRomanPSMT-49"/>
      </g>
     </g>
    </g>
    <g id="xtick_3">
     <g id="line2d_3">
      <g>
       <use style="stroke:#000000;stroke-width:0.8;" x="266.703125" xlink:href="#m91817c96fc" y="301.665"/>
      </g>
     </g>
     <g id="text_3">
      <!-- 2 -->
      <g transform="translate(261.703125 322.5525)scale(0.2 -0.2)">
       <defs>
        <path d="M 45.84375 12.75 
L 41.21875 0 
L 2.15625 0 
L 2.15625 1.8125 
Q 19.390625 17.53125 26.421875 27.484375 
Q 33.453125 37.453125 33.453125 45.703125 
Q 33.453125 52 29.59375 56.046875 
Q 25.734375 60.109375 20.359375 60.109375 
Q 15.484375 60.109375 11.59375 57.25 
Q 7.71875 54.390625 5.859375 48.875 
L 4.046875 48.875 
Q 5.28125 57.90625 10.328125 62.734375 
Q 15.375 67.578125 22.953125 67.578125 
Q 31 67.578125 36.390625 62.40625 
Q 41.796875 57.234375 41.796875 50.203125 
Q 41.796875 45.171875 39.453125 40.140625 
Q 35.84375 32.234375 27.734375 23.390625 
Q 15.578125 10.109375 12.546875 7.375 
L 29.828125 7.375 
Q 35.109375 7.375 37.234375 7.765625 
Q 39.359375 8.15625 41.0625 9.34375 
Q 42.78125 10.546875 44.046875 12.75 
z
" id="TimesNewRomanPSMT-50"/>
       </defs>
       <use xlink:href="#TimesNewRomanPSMT-50"/>
      </g>
     </g>
    </g>
    <g id="xtick_4">
     <g id="line2d_4">
      <g>
       <use style="stroke:#000000;stroke-width:0.8;" x="355.475852" xlink:href="#m91817c96fc" y="301.665"/>
      </g>
     </g>
     <g id="text_4">
      <!-- 3 -->
      <g transform="translate(350.475852 322.5525)scale(0.2 -0.2)">
       <defs>
        <path d="M 5.078125 53.609375 
Q 7.90625 60.296875 12.21875 63.9375 
Q 16.546875 67.578125 23 67.578125 
Q 30.953125 67.578125 35.203125 62.40625 
Q 38.421875 58.546875 38.421875 54.15625 
Q 38.421875 46.921875 29.34375 39.203125 
Q 35.453125 36.8125 38.578125 32.375 
Q 41.703125 27.9375 41.703125 21.921875 
Q 41.703125 13.328125 36.234375 7.03125 
Q 29.109375 -1.171875 15.578125 -1.171875 
Q 8.890625 -1.171875 6.46875 0.484375 
Q 4.046875 2.15625 4.046875 4.046875 
Q 4.046875 5.46875 5.1875 6.546875 
Q 6.34375 7.625 7.953125 7.625 
Q 9.1875 7.625 10.453125 7.234375 
Q 11.28125 6.984375 14.203125 5.4375 
Q 17.140625 3.90625 18.265625 3.609375 
Q 20.0625 3.078125 22.125 3.078125 
Q 27.09375 3.078125 30.78125 6.9375 
Q 34.46875 10.796875 34.46875 16.0625 
Q 34.46875 19.921875 32.765625 23.578125 
Q 31.5 26.3125 29.984375 27.734375 
Q 27.875 29.6875 24.21875 31.265625 
Q 20.5625 32.859375 16.75 32.859375 
L 15.1875 32.859375 
L 15.1875 34.328125 
Q 19.046875 34.8125 22.921875 37.109375 
Q 26.8125 39.40625 28.5625 42.625 
Q 30.328125 45.84375 30.328125 49.703125 
Q 30.328125 54.734375 27.171875 57.828125 
Q 24.03125 60.9375 19.34375 60.9375 
Q 11.765625 60.9375 6.6875 52.828125 
z
" id="TimesNewRomanPSMT-51"/>
       </defs>
       <use xlink:href="#TimesNewRomanPSMT-51"/>
      </g>
     </g>
    </g>
    <g id="xtick_5">
     <g id="line2d_5">
      <g>
       <use style="stroke:#000000;stroke-width:0.8;" x="444.24858" xlink:href="#m91817c96fc" y="301.665"/>
      </g>
     </g>
     <g id="text_5">
      <!-- 4 -->
      <g transform="translate(439.24858 322.5525)scale(0.2 -0.2)">
       <defs>
        <path d="M 46.53125 24.421875 
L 46.53125 17.484375 
L 37.640625 17.484375 
L 37.640625 0 
L 29.59375 0 
L 29.59375 17.484375 
L 1.5625 17.484375 
L 1.5625 23.734375 
L 32.28125 67.578125 
L 37.640625 67.578125 
L 37.640625 24.421875 
z
M 29.59375 24.421875 
L 29.59375 57.28125 
L 6.34375 24.421875 
z
" id="TimesNewRomanPSMT-52"/>
       </defs>
       <use xlink:href="#TimesNewRomanPSMT-52"/>
      </g>
     </g>
    </g>
    <g id="text_6">
     <!-- $\mathrm{Normal\ Velocity}\ V_n [-]$ -->
     <g transform="translate(173.103125 344.630625)scale(0.2 -0.2)">
      <defs>
       <path d="M 70.703125 66.203125 
L 70.703125 64.296875 
Q 65.59375 63.796875 64.09375 62.5 
Q 62.5 61.09375 61.84375 58.6875 
Q 61.203125 56.296875 61.203125 50.703125 
L 61.203125 -1.09375 
L 59.40625 -1.09375 
L 15.296875 53.796875 
L 15.296875 15 
Q 15.296875 7.40625 17 5.046875 
Q 18.703125 2.703125 24.59375 1.90625 
L 24.59375 0 
L 1.203125 0 
L 1.203125 1.90625 
Q 7.40625 2.59375 9.15625 4.84375 
Q 10.90625 7.09375 10.90625 15 
L 10.90625 59 
Q 8.296875 62.203125 6.5 63.25 
Q 4.703125 64.296875 1.203125 64.296875 
L 1.203125 66.203125 
L 18.203125 66.203125 
L 56.796875 17.90625 
L 56.796875 51.90625 
Q 56.796875 59.5 54.90625 61.703125 
Q 53.703125 63 52.25 63.453125 
Q 50.796875 63.90625 47 64.296875 
L 47 66.203125 
z
" id="STIXGeneral-Regular-78"/>
       <path d="M 47 23.09375 
Q 47 12.59375 40.75 5.796875 
Q 34.5 -1 24.5 -1 
Q 15.296875 -1 9.09375 5.75 
Q 2.90625 12.5 2.90625 22.796875 
Q 2.90625 33.203125 9.09375 39.59375 
Q 15.296875 46 25.40625 46 
Q 34.703125 46 40.84375 39.640625 
Q 47 33.296875 47 23.09375 
z
M 38 20.40625 
Q 38 31.796875 33 38.203125 
Q 29 43.203125 23.5 43.203125 
Q 18.296875 43.203125 15.09375 38.953125 
Q 11.90625 34.703125 11.90625 27.296875 
Q 11.90625 14.5 17.203125 6.796875 
Q 20.59375 1.796875 26.203125 1.796875 
Q 31.703125 1.796875 34.84375 6.75 
Q 38 11.703125 38 20.40625 
z
" id="STIXGeneral-Regular-111"/>
       <path d="M 16 45.796875 
L 16 36.59375 
Q 19.796875 42 22.34375 44 
Q 24.90625 46 28 46 
Q 30.59375 46 32.046875 44.59375 
Q 33.5 43.203125 33.5 40.703125 
Q 33.5 38.59375 32.453125 37.390625 
Q 31.40625 36.203125 29.59375 36.203125 
Q 27.703125 36.203125 25.59375 38.203125 
Q 24 39.703125 23 39.703125 
Q 20.90625 39.703125 18.453125 36.796875 
Q 16 33.90625 16 31.5 
L 16 9 
Q 16 4.703125 17.703125 3.203125 
Q 19.40625 1.703125 24.5 1.5 
L 24.5 0 
L 0.5 0 
L 0.5 1.5 
Q 5.296875 2.40625 6.4375 3.5 
Q 7.59375 4.59375 7.59375 8.40625 
L 7.59375 33.40625 
Q 7.59375 36.703125 6.84375 38.046875 
Q 6.09375 39.40625 4.203125 39.40625 
Q 2.59375 39.40625 0.703125 39 
L 0.703125 40.59375 
Q 7 42.59375 15.5 46 
z
" id="STIXGeneral-Regular-114"/>
       <path d="M 77.5 0 
L 55.703125 0 
L 55.703125 1.5 
Q 59.90625 1.90625 61.046875 3.25 
Q 62.203125 4.59375 62.203125 9 
L 62.203125 29.59375 
Q 62.203125 35.59375 60.453125 38.1875 
Q 58.703125 40.796875 54.5 40.796875 
Q 51 40.796875 48.546875 39.390625 
Q 46.09375 38 43.796875 34.703125 
L 43.796875 9.5 
Q 43.796875 4.703125 45.25 3.140625 
Q 46.703125 1.59375 51 1.5 
L 51 0 
L 28.59375 0 
L 28.59375 1.5 
Q 33 1.796875 34.203125 2.9375 
Q 35.40625 4.09375 35.40625 8.59375 
L 35.40625 29.703125 
Q 35.40625 40.796875 28.90625 40.796875 
Q 26.09375 40.796875 22.9375 39.546875 
Q 19.796875 38.296875 18.296875 36.5 
Q 17 35 17 34.796875 
L 17 7 
Q 17 3.796875 18.390625 2.75 
Q 19.796875 1.703125 23.796875 1.5 
L 23.796875 0 
L 1.59375 0 
L 1.59375 1.5 
Q 5.796875 1.59375 7.1875 3.046875 
Q 8.59375 4.5 8.59375 8.796875 
L 8.59375 33.59375 
Q 8.59375 37.296875 7.796875 38.75 
Q 7 40.203125 5.09375 40.203125 
Q 3.59375 40.203125 1.90625 39.796875 
L 1.90625 41.5 
Q 8.703125 43.40625 15.796875 46 
L 16.59375 45.703125 
L 16.59375 38.296875 
L 16.796875 38.296875 
Q 21.296875 43 24.75 44.5 
Q 28.203125 46 32.09375 46 
Q 40 46 42.703125 37.59375 
Q 50.5 46 59 46 
Q 70.59375 46 70.59375 28 
L 70.59375 7.703125 
Q 70.59375 4.40625 71.59375 3.15625 
Q 72.59375 1.90625 74.90625 1.703125 
L 77.5 1.5 
z
" id="STIXGeneral-Regular-109"/>
       <path d="M 44.203125 6.59375 
L 44.203125 3.796875 
Q 40.40625 -1 35.203125 -1 
Q 29.5 -1 28.796875 6.296875 
L 28.703125 6.296875 
Q 22.296875 -1 14.203125 -1 
Q 9.5 -1 6.59375 1.75 
Q 3.703125 4.5 3.703125 9.40625 
Q 3.703125 16.40625 10.703125 21.09375 
Q 15.5 24.296875 28.703125 29.203125 
L 28.703125 34.59375 
Q 28.703125 39.09375 26.546875 41.34375 
Q 24.40625 43.59375 20.90625 43.59375 
Q 17.90625 43.59375 15.90625 42.140625 
Q 13.90625 40.703125 13.90625 38.703125 
Q 13.90625 37.796875 14.203125 36.6875 
Q 14.5 35.59375 14.5 34.5 
Q 14.5 33 13.140625 31.703125 
Q 11.796875 30.40625 9.90625 30.40625 
Q 8.203125 30.40625 6.890625 31.703125 
Q 5.59375 33 5.59375 35 
Q 5.59375 39.796875 10.703125 43 
Q 15.40625 46 22.203125 46 
Q 30.296875 46 34 41.5 
Q 35.796875 39.40625 36.296875 37.25 
Q 36.796875 35.09375 36.796875 30.40625 
L 36.796875 11.296875 
Q 36.796875 4.703125 39.90625 4.703125 
Q 41.90625 4.703125 44.203125 6.59375 
z
M 28.703125 12.703125 
L 28.703125 26.796875 
Q 19.5 23.59375 15.90625 20.203125 
Q 12.5 17.09375 12.5 12.5 
Q 12.5 8.703125 14.390625 6.75 
Q 16.296875 4.796875 19.40625 4.796875 
Q 22.703125 4.796875 25.203125 6.40625 
Q 27.296875 7.90625 28 9.203125 
Q 28.703125 10.5 28.703125 12.703125 
z
" id="STIXGeneral-Regular-97"/>
       <path d="M 25.703125 0 
L 2.09375 0 
L 2.09375 1.5 
Q 6.796875 1.90625 8.296875 3.453125 
Q 9.796875 5 9.796875 9.203125 
L 9.796875 56.09375 
Q 9.796875 59.703125 8.890625 61.09375 
Q 8 62.5 5.59375 62.5 
Q 3.5 62.5 1.90625 62.296875 
L 1.90625 63.90625 
Q 11.40625 66.203125 17.703125 68.296875 
L 18.203125 67.90625 
L 18.203125 8.703125 
Q 18.203125 4.5 19.59375 3.140625 
Q 21 1.796875 25.703125 1.5 
z
" id="STIXGeneral-Regular-108"/>
       <path d="M 69.703125 66.203125 
L 69.703125 64.296875 
Q 66.59375 64.203125 64.59375 62.34375 
Q 62.59375 60.5 60.5 55.203125 
L 38.296875 -1.09375 
L 36.796875 -1.09375 
L 12.40625 53.296875 
Q 9.203125 60.40625 7.296875 62.296875 
Q 5.40625 64.203125 1.59375 64.296875 
L 1.59375 66.203125 
L 28.09375 66.203125 
L 28.09375 64.296875 
L 25.296875 64.09375 
Q 20.796875 63.796875 20.796875 61 
Q 20.796875 59 24.703125 50.296875 
L 39.90625 16.09375 
L 54.59375 53 
Q 56.5 57.796875 56.5 60.203125 
Q 56.5 60.90625 56.34375 61.453125 
Q 56.203125 62 56 62.390625 
Q 55.796875 62.796875 55.25 63.09375 
Q 54.703125 63.40625 54.390625 63.546875 
Q 54.09375 63.703125 53.296875 63.84375 
Q 52.5 64 52.140625 64.046875 
Q 51.796875 64.09375 50.75 64.1875 
Q 49.703125 64.296875 49.296875 64.296875 
L 49.296875 66.203125 
z
" id="STIXGeneral-Regular-86"/>
       <path d="M 40.796875 16.40625 
L 42.40625 15.703125 
Q 36.40625 -1 21.5 -1 
Q 12.703125 -1 7.59375 5.140625 
Q 2.5 11.296875 2.5 21.703125 
Q 2.5 32.40625 8.203125 39.203125 
Q 13.90625 46 23.203125 46 
Q 32.203125 46 37.09375 39.09375 
Q 40 35.09375 40.5 27.703125 
L 9.703125 27.703125 
Q 10.09375 21.40625 10.9375 18.09375 
Q 11.796875 14.796875 14.296875 11.40625 
Q 18.5 5.90625 25.40625 5.90625 
Q 30.296875 5.90625 33.640625 8.296875 
Q 37 10.703125 40.796875 16.40625 
z
M 9.90625 30.90625 
L 30.296875 30.90625 
Q 29.40625 37.203125 27.34375 39.796875 
Q 25.296875 42.40625 20.5 42.40625 
Q 16.296875 42.40625 13.5 39.453125 
Q 10.703125 36.5 9.90625 30.90625 
z
" id="STIXGeneral-Regular-101"/>
       <path d="M 39.796875 15.59375 
L 41.203125 14.703125 
Q 36.90625 6.296875 33 3.203125 
Q 27.90625 -1 21.5 -1 
Q 13.203125 -1 7.84375 5.25 
Q 2.5 11.5 2.5 21.203125 
Q 2.5 33.90625 10.90625 40.90625 
Q 17.09375 46 24.40625 46 
Q 30.703125 46 35.25 42.953125 
Q 39.796875 39.90625 39.796875 35.703125 
Q 39.796875 34 38.390625 32.75 
Q 37 31.5 35.09375 31.5 
Q 31.59375 31.5 30.296875 36.09375 
L 29.703125 38.296875 
Q 28.90625 41.09375 27.703125 42.09375 
Q 26.5 43.09375 23.796875 43.09375 
Q 17.703125 43.09375 13.953125 38.296875 
Q 10.203125 33.5 10.203125 25.703125 
Q 10.203125 17.09375 14.5 11.640625 
Q 18.796875 6.203125 25.703125 6.203125 
Q 30 6.203125 33.09375 8.25 
Q 36.203125 10.296875 39.796875 15.59375 
z
" id="STIXGeneral-Regular-99"/>
       <path d="M 18 63.203125 
Q 18 61 16.5 59.546875 
Q 15 58.09375 12.796875 58.09375 
Q 10.703125 58.09375 9.25 59.546875 
Q 7.796875 61 7.796875 63.203125 
Q 7.796875 65.296875 9.296875 66.796875 
Q 10.796875 68.296875 12.90625 68.296875 
Q 15.09375 68.296875 16.546875 66.796875 
Q 18 65.296875 18 63.203125 
z
M 25.296875 0 
L 1.59375 0 
L 1.59375 1.5 
Q 6.796875 1.796875 8.140625 3.296875 
Q 9.5 4.796875 9.5 10.40625 
L 9.5 33.09375 
Q 9.5 36.59375 8.796875 38 
Q 8.09375 39.40625 6.203125 39.40625 
Q 3.796875 39.40625 2 38.90625 
L 2 40.5 
L 17.5 46 
L 17.90625 45.59375 
L 17.90625 10.5 
Q 17.90625 4.90625 19.15625 3.40625 
Q 20.40625 1.90625 25.296875 1.5 
z
" id="STIXGeneral-Regular-105"/>
       <path d="M 26.59375 7.703125 
L 27.90625 6.59375 
Q 23.09375 -1 15.796875 -1 
Q 7 -1 7 11.703125 
L 7 41.796875 
L 1.703125 41.796875 
Q 1.296875 42.09375 1.296875 42.5 
Q 1.296875 43.296875 3 44.40625 
Q 6.796875 46.59375 12.703125 55.09375 
Q 12.90625 55.40625 13.65625 56.34375 
Q 14.40625 57.296875 14.703125 57.90625 
Q 15.40625 57.90625 15.40625 56.59375 
L 15.40625 45 
L 25.5 45 
L 25.5 41.796875 
L 15.40625 41.796875 
L 15.40625 13.203125 
Q 15.40625 8.40625 16.59375 6.296875 
Q 17.796875 4.203125 20.59375 4.203125 
Q 23.59375 4.203125 26.59375 7.703125 
z
" id="STIXGeneral-Regular-116"/>
       <path d="M 47.5 45 
L 47.5 43.5 
Q 45.703125 43.296875 44.59375 42.1875 
Q 43.5 41.09375 42.5 38.40625 
L 27.5 -2.5 
Q 23.59375 -13.09375 19.640625 -17.4375 
Q 15.703125 -21.796875 10 -21.796875 
Q 6.796875 -21.796875 4.890625 -20.140625 
Q 3 -18.5 3 -16 
Q 3 -14.09375 4.25 -12.75 
Q 5.5 -11.40625 7.296875 -11.40625 
Q 10.203125 -11.40625 12.5 -12.703125 
Q 13.796875 -13.40625 15.09375 -13.40625 
Q 17.203125 -13.40625 20.09375 -9 
Q 21.5 -7 22.796875 -3.296875 
Q 24.09375 0.40625 24.09375 1.796875 
Q 24.09375 3.09375 19.90625 11.90625 
L 6.703125 40.09375 
Q 5.40625 43 1.40625 43.59375 
L 1.40625 45 
L 21.90625 45 
L 21.90625 43.5 
Q 18.703125 43.40625 17.453125 42.796875 
Q 16.203125 42.203125 16.203125 40.796875 
Q 16.203125 39.703125 17.5 36.703125 
L 28.703125 11.703125 
L 38.40625 39.296875 
Q 38.796875 40.203125 38.796875 41.09375 
Q 38.796875 43.5 34.203125 43.5 
L 34.203125 45 
z
" id="STIXGeneral-Regular-121"/>
       <path d="M 68.796875 65.296875 
L 68.796875 63.703125 
Q 65.59375 63.59375 63.203125 59.703125 
L 25.90625 -1.796875 
L 24 -1.796875 
L 15.796875 48.5 
Q 14.09375 59 12.9375 61.09375 
Q 11.796875 63.203125 7.59375 63.703125 
L 7.59375 65.296875 
L 31.59375 65.296875 
L 31.59375 63.703125 
Q 26.90625 63.203125 25.453125 62.203125 
Q 24 61.203125 24 58.59375 
Q 24 57.59375 24.09375 57.09375 
L 30.59375 12.796875 
L 51.59375 48.796875 
Q 56.5 57.203125 56.5 60.296875 
Q 56.5 63 50.296875 63.703125 
L 50.296875 65.296875 
z
" id="STIXGeneral-Italic-86"/>
       <path d="M 46 11.703125 
L 47.40625 10.40625 
Q 42.296875 3.40625 39.59375 1.25 
Q 36.90625 -0.90625 33.40625 -0.90625 
Q 31.40625 -0.90625 30.046875 0.4375 
Q 28.703125 1.796875 28.703125 4.5 
Q 28.703125 6.09375 30.296875 12 
L 34.703125 28.203125 
Q 36.09375 33.59375 36.09375 36.09375 
Q 36.09375 39 33.703125 39 
Q 30.796875 39 27.34375 35.546875 
Q 23.90625 32.09375 18.90625 24.796875 
Q 15.59375 19.90625 14.046875 16 
Q 12.5 12.09375 8.90625 0 
L 1.40625 0 
L 11 35 
Q 11.203125 36 11.203125 36.703125 
Q 11.203125 38.203125 9.84375 38.75 
Q 8.5 39.296875 4.703125 39.40625 
L 4.703125 41 
Q 8.59375 41.796875 13.390625 42.640625 
Q 18.203125 43.5 20.90625 44.09375 
L 21.296875 43.90625 
L 14.59375 22.09375 
Q 22 33.90625 27.390625 39 
Q 32.796875 44.09375 37.703125 44.09375 
Q 40.796875 44.09375 42.5 42.4375 
Q 44.203125 40.796875 44.203125 38 
Q 44.203125 35.5 43.203125 32 
L 37.59375 11.703125 
Q 36.203125 6.703125 36.203125 5.59375 
Q 36.203125 3.796875 37.796875 3.796875 
Q 39.703125 3.796875 43.90625 9.09375 
Q 44.59375 9.90625 46 11.703125 
z
" id="STIXGeneral-Italic-110"/>
       <path d="M 29.90625 -15.59375 
L 8.796875 -15.59375 
L 8.796875 66.203125 
L 29.90625 66.203125 
L 29.90625 63.703125 
L 21.59375 63.703125 
Q 19 63.703125 17.703125 62.59375 
Q 16.40625 61.5 16.40625 58.90625 
L 16.40625 -7.703125 
Q 16.40625 -13.09375 21.59375 -13.09375 
L 29.90625 -13.09375 
z
" id="STIXGeneral-Regular-91"/>
       <path d="M 62.09375 22 
L 6.40625 22 
L 6.40625 28.59375 
L 62.09375 28.59375 
z
" id="STIXGeneral-Regular-8722"/>
       <path d="M 24.5 -15.59375 
L 3.40625 -15.59375 
L 3.40625 -13.09375 
L 12.203125 -13.09375 
Q 14.796875 -13.09375 15.84375 -12 
Q 16.90625 -10.90625 16.90625 -8.5 
L 16.90625 58.296875 
Q 16.90625 63.703125 11.796875 63.703125 
L 3.40625 63.703125 
L 3.40625 66.203125 
L 24.5 66.203125 
z
" id="STIXGeneral-Regular-93"/>
      </defs>
      <use transform="translate(0 0.703125)" xlink:href="#STIXGeneral-Regular-78"/>
      <use transform="translate(72.199982 0.703125)" xlink:href="#STIXGeneral-Regular-111"/>
      <use transform="translate(122.199966 0.703125)" xlink:href="#STIXGeneral-Regular-114"/>
      <use transform="translate(155.499954 0.703125)" xlink:href="#STIXGeneral-Regular-109"/>
      <use transform="translate(233.299942 0.703125)" xlink:href="#STIXGeneral-Regular-97"/>
      <use transform="translate(277.699936 0.703125)" xlink:href="#STIXGeneral-Regular-108"/>
      <use transform="translate(331.432994 0.703125)" xlink:href="#STIXGeneral-Regular-86"/>
      <use transform="translate(403.632975 0.703125)" xlink:href="#STIXGeneral-Regular-101"/>
      <use transform="translate(448.032969 0.703125)" xlink:href="#STIXGeneral-Regular-108"/>
      <use transform="translate(475.832957 0.703125)" xlink:href="#STIXGeneral-Regular-111"/>
      <use transform="translate(525.832942 0.703125)" xlink:href="#STIXGeneral-Regular-99"/>
      <use transform="translate(570.232936 0.703125)" xlink:href="#STIXGeneral-Regular-105"/>
      <use transform="translate(598.032923 0.703125)" xlink:href="#STIXGeneral-Regular-116"/>
      <use transform="translate(625.832911 0.703125)" xlink:href="#STIXGeneral-Regular-121"/>
      <use transform="translate(699.899316 0.703125)" xlink:href="#STIXGeneral-Italic-86"/>
      <use transform="translate(760.999307 -12.525)scale(0.7)" xlink:href="#STIXGeneral-Italic-110"/>
      <use transform="translate(800.408671 0.703125)" xlink:href="#STIXGeneral-Regular-91"/>
      <use transform="translate(833.708659 0.703125)" xlink:href="#STIXGeneral-Regular-8722"/>
      <use transform="translate(902.208644 0.703125)" xlink:href="#STIXGeneral-Regular-93"/>
     </g>
    </g>
   </g>
   <g id="matplotlib.axis_2">
    <g id="ytick_1">
     <g id="line2d_6">
      <defs>
       <path d="M 0 0 
L -3.5 0 
" id="me46313daba" style="stroke:#000000;stroke-width:0.8;"/>
      </defs>
      <g>
       <use style="stroke:#000000;stroke-width:0.8;" x="71.403125" xlink:href="#me46313daba" y="289.310455"/>
      </g>
     </g>
     <g id="text_7">
      <!-- 0.00 -->
      <g transform="translate(29.403125 296.254205)scale(0.2 -0.2)">
       <defs>
        <path d="M 12.5 9.46875 
Q 14.796875 9.46875 16.359375 7.875 
Q 17.921875 6.296875 17.921875 4.046875 
Q 17.921875 1.8125 16.328125 0.21875 
Q 14.75 -1.375 12.5 -1.375 
Q 10.25 -1.375 8.65625 0.21875 
Q 7.078125 1.8125 7.078125 4.046875 
Q 7.078125 6.34375 8.65625 7.90625 
Q 10.25 9.46875 12.5 9.46875 
z
" id="TimesNewRomanPSMT-46"/>
       </defs>
       <use xlink:href="#TimesNewRomanPSMT-48"/>
       <use x="50" xlink:href="#TimesNewRomanPSMT-46"/>
       <use x="75" xlink:href="#TimesNewRomanPSMT-48"/>
       <use x="125" xlink:href="#TimesNewRomanPSMT-48"/>
      </g>
     </g>
    </g>
    <g id="ytick_2">
     <g id="line2d_7">
      <g>
       <use style="stroke:#000000;stroke-width:0.8;" x="71.403125" xlink:href="#me46313daba" y="243.558502"/>
      </g>
     </g>
     <g id="text_8">
      <!-- 0.02 -->
      <g transform="translate(29.403125 250.502252)scale(0.2 -0.2)">
       <use xlink:href="#TimesNewRomanPSMT-48"/>
       <use x="50" xlink:href="#TimesNewRomanPSMT-46"/>
       <use x="75" xlink:href="#TimesNewRomanPSMT-48"/>
       <use x="125" xlink:href="#TimesNewRomanPSMT-50"/>
      </g>
     </g>
    </g>
    <g id="ytick_3">
     <g id="line2d_8">
      <g>
       <use style="stroke:#000000;stroke-width:0.8;" x="71.403125" xlink:href="#me46313daba" y="197.806549"/>
      </g>
     </g>
     <g id="text_9">
      <!-- 0.04 -->
      <g transform="translate(29.403125 204.750299)scale(0.2 -0.2)">
       <use xlink:href="#TimesNewRomanPSMT-48"/>
       <use x="50" xlink:href="#TimesNewRomanPSMT-46"/>
       <use x="75" xlink:href="#TimesNewRomanPSMT-48"/>
       <use x="125" xlink:href="#TimesNewRomanPSMT-52"/>
      </g>
     </g>
    </g>
    <g id="ytick_4">
     <g id="line2d_9">
      <g>
       <use style="stroke:#000000;stroke-width:0.8;" x="71.403125" xlink:href="#me46313daba" y="152.054596"/>
      </g>
     </g>
     <g id="text_10">
      <!-- 0.06 -->
      <g transform="translate(29.403125 158.998346)scale(0.2 -0.2)">
       <defs>
        <path d="M 44.828125 67.578125 
L 44.828125 65.765625 
Q 38.375 65.140625 34.296875 63.203125 
Q 30.21875 61.28125 26.234375 57.328125 
Q 22.265625 53.375 19.65625 48.515625 
Q 17.046875 43.65625 15.28125 36.96875 
Q 22.3125 41.796875 29.390625 41.796875 
Q 36.1875 41.796875 41.15625 36.328125 
Q 46.140625 30.859375 46.140625 22.265625 
Q 46.140625 13.96875 41.109375 7.125 
Q 35.0625 -1.171875 25.09375 -1.171875 
Q 18.3125 -1.171875 13.578125 3.328125 
Q 4.296875 12.0625 4.296875 25.984375 
Q 4.296875 34.859375 7.859375 42.859375 
Q 11.421875 50.875 18.03125 57.078125 
Q 24.65625 63.28125 30.703125 65.421875 
Q 36.765625 67.578125 42 67.578125 
z
M 14.453125 33.40625 
Q 13.578125 26.8125 13.578125 22.75 
Q 13.578125 18.0625 15.3125 12.5625 
Q 17.046875 7.078125 20.453125 3.859375 
Q 22.953125 1.5625 26.515625 1.5625 
Q 30.765625 1.5625 34.109375 5.5625 
Q 37.453125 9.578125 37.453125 17 
Q 37.453125 25.34375 34.125 31.4375 
Q 30.8125 37.546875 24.703125 37.546875 
Q 22.859375 37.546875 20.734375 36.765625 
Q 18.609375 35.984375 14.453125 33.40625 
z
" id="TimesNewRomanPSMT-54"/>
       </defs>
       <use xlink:href="#TimesNewRomanPSMT-48"/>
       <use x="50" xlink:href="#TimesNewRomanPSMT-46"/>
       <use x="75" xlink:href="#TimesNewRomanPSMT-48"/>
       <use x="125" xlink:href="#TimesNewRomanPSMT-54"/>
      </g>
     </g>
    </g>
    <g id="ytick_5">
     <g id="line2d_10">
      <g>
       <use style="stroke:#000000;stroke-width:0.8;" x="71.403125" xlink:href="#me46313daba" y="106.302643"/>
      </g>
     </g>
     <g id="text_11">
      <!-- 0.08 -->
      <g transform="translate(29.403125 113.246393)scale(0.2 -0.2)">
       <defs>
        <path d="M 19.1875 33.34375 
Q 11.328125 39.796875 9.046875 43.703125 
Q 6.78125 47.609375 6.78125 51.8125 
Q 6.78125 58.25 11.765625 62.90625 
Q 16.75 67.578125 25 67.578125 
Q 33.015625 67.578125 37.890625 63.234375 
Q 42.78125 58.890625 42.78125 53.328125 
Q 42.78125 49.609375 40.140625 45.75 
Q 37.5 41.890625 29.15625 36.671875 
Q 37.75 30.03125 40.53125 26.21875 
Q 44.234375 21.234375 44.234375 15.71875 
Q 44.234375 8.734375 38.90625 3.78125 
Q 33.59375 -1.171875 24.953125 -1.171875 
Q 15.53125 -1.171875 10.25 4.734375 
Q 6.0625 9.46875 6.0625 15.09375 
Q 6.0625 19.484375 9.015625 23.796875 
Q 11.96875 28.125 19.1875 33.34375 
z
M 26.859375 38.578125 
Q 32.71875 43.84375 34.28125 46.890625 
Q 35.84375 49.953125 35.84375 53.8125 
Q 35.84375 58.9375 32.953125 61.84375 
Q 30.078125 64.75 25.09375 64.75 
Q 20.125 64.75 17 61.859375 
Q 13.875 58.984375 13.875 55.125 
Q 13.875 52.59375 15.15625 50.046875 
Q 16.453125 47.515625 18.84375 45.21875 
z
M 21.484375 31.5 
Q 17.4375 28.078125 15.484375 24.046875 
Q 13.53125 20.015625 13.53125 15.328125 
Q 13.53125 9.03125 16.96875 5.25 
Q 20.40625 1.46875 25.734375 1.46875 
Q 31 1.46875 34.171875 4.4375 
Q 37.359375 7.421875 37.359375 11.671875 
Q 37.359375 15.1875 35.5 17.96875 
Q 32.03125 23.140625 21.484375 31.5 
z
" id="TimesNewRomanPSMT-56"/>
       </defs>
       <use xlink:href="#TimesNewRomanPSMT-48"/>
       <use x="50" xlink:href="#TimesNewRomanPSMT-46"/>
       <use x="75" xlink:href="#TimesNewRomanPSMT-48"/>
       <use x="125" xlink:href="#TimesNewRomanPSMT-56"/>
      </g>
     </g>
    </g>
    <g id="ytick_6">
     <g id="line2d_11">
      <g>
       <use style="stroke:#000000;stroke-width:0.8;" x="71.403125" xlink:href="#me46313daba" y="60.55069"/>
      </g>
     </g>
     <g id="text_12">
      <!-- 0.10 -->
      <g transform="translate(29.403125 67.49444)scale(0.2 -0.2)">
       <use xlink:href="#TimesNewRomanPSMT-48"/>
       <use x="50" xlink:href="#TimesNewRomanPSMT-46"/>
       <use x="75" xlink:href="#TimesNewRomanPSMT-49"/>
       <use x="125" xlink:href="#TimesNewRomanPSMT-48"/>
      </g>
     </g>
    </g>
    <g id="text_13">
     <!-- Probability -->
     <g transform="translate(21.0875 210.207187)rotate(-90)scale(0.2 -0.2)">
      <defs>
       <path d="M 20.515625 31 
L 20.515625 11.71875 
Q 20.515625 5.46875 21.875 3.953125 
Q 23.734375 1.8125 27.484375 1.8125 
L 30.03125 1.8125 
L 30.03125 0 
L 1.65625 0 
L 1.65625 1.8125 
L 4.15625 1.8125 
Q 8.34375 1.8125 10.15625 4.546875 
Q 11.140625 6.0625 11.140625 11.71875 
L 11.140625 54.5 
Q 11.140625 60.75 9.8125 62.25 
Q 7.90625 64.40625 4.15625 64.40625 
L 1.65625 64.40625 
L 1.65625 66.21875 
L 25.921875 66.21875 
Q 34.8125 66.21875 39.9375 64.375 
Q 45.0625 62.546875 48.578125 58.203125 
Q 52.09375 53.859375 52.09375 47.90625 
Q 52.09375 39.796875 46.75 34.71875 
Q 41.40625 29.640625 31.640625 29.640625 
Q 29.25 29.640625 26.46875 29.984375 
Q 23.6875 30.328125 20.515625 31 
z
M 20.515625 33.796875 
Q 23.09375 33.296875 25.09375 33.046875 
Q 27.09375 32.8125 28.515625 32.8125 
Q 33.59375 32.8125 37.28125 36.734375 
Q 40.96875 40.671875 40.96875 46.921875 
Q 40.96875 51.21875 39.203125 54.90625 
Q 37.453125 58.59375 34.21875 60.421875 
Q 31 62.25 26.90625 62.25 
Q 24.421875 62.25 20.515625 61.328125 
z
" id="TimesNewRomanPSMT-80"/>
       <path d="M 16.21875 46.046875 
L 16.21875 35.984375 
Q 21.828125 46.046875 27.734375 46.046875 
Q 30.421875 46.046875 32.171875 44.40625 
Q 33.9375 42.78125 33.9375 40.625 
Q 33.9375 38.71875 32.65625 37.390625 
Q 31.390625 36.078125 29.640625 36.078125 
Q 27.9375 36.078125 25.8125 37.765625 
Q 23.6875 39.453125 22.65625 39.453125 
Q 21.78125 39.453125 20.75 38.484375 
Q 18.5625 36.46875 16.21875 31.890625 
L 16.21875 10.453125 
Q 16.21875 6.734375 17.140625 4.828125 
Q 17.78125 3.515625 19.390625 2.640625 
Q 21 1.765625 24.03125 1.765625 
L 24.03125 0 
L 1.125 0 
L 1.125 1.765625 
Q 4.546875 1.765625 6.203125 2.828125 
Q 7.421875 3.609375 7.90625 5.328125 
Q 8.15625 6.15625 8.15625 10.0625 
L 8.15625 27.390625 
Q 8.15625 35.203125 7.828125 36.6875 
Q 7.515625 38.1875 6.65625 38.859375 
Q 5.8125 39.546875 4.546875 39.546875 
Q 3.03125 39.546875 1.125 38.8125 
L 0.640625 40.578125 
L 14.15625 46.046875 
z
" id="TimesNewRomanPSMT-114"/>
       <path d="M 25 46.046875 
Q 35.15625 46.046875 41.3125 38.328125 
Q 46.53125 31.734375 46.53125 23.1875 
Q 46.53125 17.1875 43.640625 11.03125 
Q 40.765625 4.890625 35.71875 1.75 
Q 30.671875 -1.375 24.46875 -1.375 
Q 14.359375 -1.375 8.40625 6.6875 
Q 3.375 13.484375 3.375 21.921875 
Q 3.375 28.078125 6.421875 34.15625 
Q 9.46875 40.234375 14.453125 43.140625 
Q 19.4375 46.046875 25 46.046875 
z
M 23.484375 42.875 
Q 20.90625 42.875 18.28125 41.328125 
Q 15.671875 39.796875 14.0625 35.9375 
Q 12.453125 32.078125 12.453125 26.03125 
Q 12.453125 16.265625 16.328125 9.171875 
Q 20.21875 2.09375 26.5625 2.09375 
Q 31.296875 2.09375 34.375 6 
Q 37.453125 9.90625 37.453125 19.4375 
Q 37.453125 31.34375 32.328125 38.1875 
Q 28.859375 42.875 23.484375 42.875 
z
" id="TimesNewRomanPSMT-111"/>
       <path d="M 15.375 37.015625 
Q 21.875 46.046875 29.390625 46.046875 
Q 36.28125 46.046875 41.40625 40.15625 
Q 46.53125 34.28125 46.53125 24.078125 
Q 46.53125 12.15625 38.625 4.890625 
Q 31.84375 -1.375 23.484375 -1.375 
Q 19.578125 -1.375 15.546875 0.046875 
Q 11.53125 1.46875 7.328125 4.296875 
L 7.328125 50.640625 
Q 7.328125 58.25 6.953125 60 
Q 6.59375 61.765625 5.8125 62.390625 
Q 5.03125 63.03125 3.859375 63.03125 
Q 2.484375 63.03125 0.4375 62.25 
L -0.25 63.96875 
L 13.1875 69.4375 
L 15.375 69.4375 
z
M 15.375 33.890625 
L 15.375 7.125 
Q 17.875 4.6875 20.53125 3.4375 
Q 23.1875 2.203125 25.984375 2.203125 
Q 30.421875 2.203125 34.25 7.078125 
Q 38.09375 11.96875 38.09375 21.296875 
Q 38.09375 29.890625 34.25 34.5 
Q 30.421875 39.109375 25.53125 39.109375 
Q 22.953125 39.109375 20.359375 37.796875 
Q 18.40625 36.8125 15.375 33.890625 
z
" id="TimesNewRomanPSMT-98"/>
       <path d="M 28.46875 6.453125 
Q 21.578125 1.125 19.828125 0.296875 
Q 17.1875 -0.921875 14.203125 -0.921875 
Q 9.578125 -0.921875 6.5625 2.25 
Q 3.5625 5.421875 3.5625 10.59375 
Q 3.5625 13.875 5.03125 16.265625 
Q 7.03125 19.578125 11.984375 22.5 
Q 16.9375 25.4375 28.46875 29.640625 
L 28.46875 31.390625 
Q 28.46875 38.09375 26.34375 40.578125 
Q 24.21875 43.0625 20.171875 43.0625 
Q 17.09375 43.0625 15.28125 41.40625 
Q 13.421875 39.75 13.421875 37.59375 
L 13.53125 34.765625 
Q 13.53125 32.515625 12.375 31.296875 
Q 11.234375 30.078125 9.375 30.078125 
Q 7.5625 30.078125 6.421875 31.34375 
Q 5.28125 32.625 5.28125 34.8125 
Q 5.28125 39.015625 9.578125 42.53125 
Q 13.875 46.046875 21.625 46.046875 
Q 27.59375 46.046875 31.390625 44.046875 
Q 34.28125 42.53125 35.640625 39.3125 
Q 36.53125 37.203125 36.53125 30.71875 
L 36.53125 15.53125 
Q 36.53125 9.125 36.765625 7.6875 
Q 37.015625 6.25 37.578125 5.765625 
Q 38.140625 5.28125 38.875 5.28125 
Q 39.65625 5.28125 40.234375 5.609375 
Q 41.265625 6.25 44.1875 9.1875 
L 44.1875 6.453125 
Q 38.71875 -0.875 33.734375 -0.875 
Q 31.34375 -0.875 29.921875 0.78125 
Q 28.515625 2.4375 28.46875 6.453125 
z
M 28.46875 9.625 
L 28.46875 26.65625 
Q 21.09375 23.734375 18.953125 22.515625 
Q 15.09375 20.359375 13.421875 18.015625 
Q 11.765625 15.671875 11.765625 12.890625 
Q 11.765625 9.375 13.859375 7.046875 
Q 15.96875 4.734375 18.703125 4.734375 
Q 22.40625 4.734375 28.46875 9.625 
z
" id="TimesNewRomanPSMT-97"/>
       <path d="M 14.5 69.4375 
Q 16.546875 69.4375 17.984375 67.984375 
Q 19.4375 66.546875 19.4375 64.5 
Q 19.4375 62.453125 17.984375 60.984375 
Q 16.546875 59.515625 14.5 59.515625 
Q 12.453125 59.515625 10.984375 60.984375 
Q 9.515625 62.453125 9.515625 64.5 
Q 9.515625 66.546875 10.953125 67.984375 
Q 12.40625 69.4375 14.5 69.4375 
z
M 18.5625 46.046875 
L 18.5625 10.109375 
Q 18.5625 5.90625 19.171875 4.515625 
Q 19.78125 3.125 20.96875 2.4375 
Q 22.171875 1.765625 25.34375 1.765625 
L 25.34375 0 
L 3.609375 0 
L 3.609375 1.765625 
Q 6.890625 1.765625 8 2.390625 
Q 9.125 3.03125 9.78125 4.484375 
Q 10.453125 5.953125 10.453125 10.109375 
L 10.453125 27.34375 
Q 10.453125 34.625 10.015625 36.765625 
Q 9.671875 38.328125 8.9375 38.9375 
Q 8.203125 39.546875 6.9375 39.546875 
Q 5.5625 39.546875 3.609375 38.8125 
L 2.9375 40.578125 
L 16.40625 46.046875 
z
" id="TimesNewRomanPSMT-105"/>
       <path d="M 18.5 69.4375 
L 18.5 10.109375 
Q 18.5 5.90625 19.109375 4.53125 
Q 19.734375 3.171875 21 2.46875 
Q 22.265625 1.765625 25.734375 1.765625 
L 25.734375 0 
L 3.8125 0 
L 3.8125 1.765625 
Q 6.890625 1.765625 8 2.390625 
Q 9.125 3.03125 9.765625 4.484375 
Q 10.40625 5.953125 10.40625 10.109375 
L 10.40625 50.734375 
Q 10.40625 58.296875 10.0625 60.03125 
Q 9.71875 61.765625 8.953125 62.390625 
Q 8.203125 63.03125 7.03125 63.03125 
Q 5.765625 63.03125 3.8125 62.25 
L 2.984375 63.96875 
L 16.3125 69.4375 
z
" id="TimesNewRomanPSMT-108"/>
       <path d="M 16.109375 59.421875 
L 16.109375 44.734375 
L 26.5625 44.734375 
L 26.5625 41.3125 
L 16.109375 41.3125 
L 16.109375 12.3125 
Q 16.109375 7.953125 17.359375 6.4375 
Q 18.609375 4.9375 20.5625 4.9375 
Q 22.171875 4.9375 23.6875 5.9375 
Q 25.203125 6.9375 26.03125 8.890625 
L 27.9375 8.890625 
Q 26.21875 4.109375 23.09375 1.6875 
Q 19.96875 -0.734375 16.65625 -0.734375 
Q 14.40625 -0.734375 12.25 0.515625 
Q 10.109375 1.765625 9.078125 4.078125 
Q 8.0625 6.390625 8.0625 11.234375 
L 8.0625 41.3125 
L 0.984375 41.3125 
L 0.984375 42.921875 
Q 3.65625 44 6.46875 46.5625 
Q 9.28125 49.125 11.46875 52.640625 
Q 12.59375 54.5 14.59375 59.421875 
z
" id="TimesNewRomanPSMT-116"/>
       <path d="M 0.59375 44.734375 
L 21.4375 44.734375 
L 21.4375 42.921875 
L 20.40625 42.921875 
Q 18.21875 42.921875 17.109375 41.96875 
Q 16.015625 41.015625 16.015625 39.59375 
Q 16.015625 37.703125 17.625 34.328125 
L 28.515625 11.765625 
L 38.53125 36.46875 
Q 39.359375 38.484375 39.359375 40.4375 
Q 39.359375 41.3125 39.015625 41.75 
Q 38.625 42.28125 37.796875 42.59375 
Q 36.96875 42.921875 34.859375 42.921875 
L 34.859375 44.734375 
L 49.421875 44.734375 
L 49.421875 42.921875 
Q 47.609375 42.71875 46.625 42.125 
Q 45.65625 41.546875 44.484375 39.9375 
Q 44.046875 39.265625 42.828125 36.1875 
L 24.609375 -8.453125 
Q 21.96875 -14.9375 17.6875 -18.25 
Q 13.421875 -21.578125 9.46875 -21.578125 
Q 6.59375 -21.578125 4.734375 -19.921875 
Q 2.875 -18.265625 2.875 -16.109375 
Q 2.875 -14.0625 4.21875 -12.8125 
Q 5.5625 -11.578125 7.90625 -11.578125 
Q 9.515625 -11.578125 12.3125 -12.640625 
Q 14.265625 -13.375 14.75 -13.375 
Q 16.21875 -13.375 17.9375 -11.859375 
Q 19.671875 -10.359375 21.4375 -6 
L 24.609375 1.765625 
L 8.546875 35.5 
Q 7.8125 37.015625 6.203125 39.265625 
Q 4.984375 40.96875 4.203125 41.546875 
Q 3.078125 42.328125 0.59375 42.921875 
z
" id="TimesNewRomanPSMT-121"/>
      </defs>
      <use xlink:href="#TimesNewRomanPSMT-80"/>
      <use x="55.615234" xlink:href="#TimesNewRomanPSMT-114"/>
      <use x="88.916016" xlink:href="#TimesNewRomanPSMT-111"/>
      <use x="138.916016" xlink:href="#TimesNewRomanPSMT-98"/>
      <use x="188.916016" xlink:href="#TimesNewRomanPSMT-97"/>
      <use x="233.300781" xlink:href="#TimesNewRomanPSMT-98"/>
      <use x="283.300781" xlink:href="#TimesNewRomanPSMT-105"/>
      <use x="311.083984" xlink:href="#TimesNewRomanPSMT-108"/>
      <use x="338.867188" xlink:href="#TimesNewRomanPSMT-105"/>
      <use x="366.650391" xlink:href="#TimesNewRomanPSMT-116"/>
      <use x="394.433594" xlink:href="#TimesNewRomanPSMT-121"/>
     </g>
    </g>
   </g>
   <g id="line2d_12">
    <path clip-path="url(#p2c0e931803)" d="M 89.15767 289.310455 
L 92.744447 259.763357 
L 96.331224 230.682873 
L 99.918001 202.523357 
L 103.504778 175.715095 
L 107.091555 150.653372 
L 110.678332 127.688812 
L 114.265108 107.119304 
L 117.851885 89.183795 
L 121.438662 74.058086 
L 125.025439 61.852757 
L 128.612216 52.613175 
L 132.198993 46.32152 
L 135.78577 42.900647 
L 139.372546 42.219545 
L 142.959323 44.100112 
L 146.5461 48.324912 
L 150.132877 54.645581 
L 153.719654 62.791529 
L 157.306431 72.478609 
L 160.893208 83.417457 
L 164.479985 95.321227 
L 168.066761 107.912514 
L 171.653538 120.929312 
L 175.240315 134.12987 
L 178.827092 147.296429 
L 182.413869 160.23781 
L 186.000646 172.790909 
L 189.587423 184.82118 
L 193.174199 196.222211 
L 196.760976 206.914533 
L 200.347753 216.843798 
L 203.93453 225.978484 
L 207.521307 234.307267 
L 211.108084 241.836204 
L 214.694861 248.585849 
L 218.281637 254.588408 
L 221.868414 259.885025 
L 225.455191 264.523267 
L 229.041968 268.554865 
L 232.628745 272.033726 
L 236.215522 275.014254 
L 239.802299 277.549962 
L 243.389075 279.692378 
L 246.975852 281.490213 
L 250.562629 282.988785 
L 254.149406 284.229645 
L 257.736183 285.250391 
L 261.32296 286.084635 
L 264.909737 286.762083 
L 268.496513 287.308711 
L 272.08329 287.747004 
L 275.670067 288.096236 
L 279.256844 288.372778 
L 282.843621 288.590412 
L 286.430398 288.760638 
L 290.017175 288.892973 
L 293.603951 288.995228 
L 297.190728 289.073766 
L 300.777505 289.133726 
L 304.364282 289.17923 
L 307.951059 289.213558 
L 311.537836 289.239303 
L 315.124613 289.258496 
L 318.711389 289.272722 
L 322.298166 289.283204 
L 325.884943 289.290882 
L 329.47172 289.296475 
L 333.058497 289.300524 
L 336.645274 289.303439 
L 340.232051 289.305526 
L 343.818827 289.307011 
L 347.405604 289.308061 
L 350.992381 289.308801 
L 354.579158 289.309318 
L 358.165935 289.309677 
L 361.752712 289.309926 
L 365.339489 289.310097 
L 368.926265 289.310214 
L 372.513042 289.310294 
L 376.099819 289.310348 
L 379.686596 289.310384 
L 383.273373 289.310408 
L 386.86015 289.310424 
L 390.446927 289.310435 
L 394.033704 289.310442 
L 397.62048 289.310446 
L 401.207257 289.310449 
L 404.794034 289.310451 
L 408.380811 289.310452 
L 411.967588 289.310453 
L 415.554365 289.310454 
L 419.141142 289.310454 
L 422.727918 289.310454 
L 426.314695 289.310454 
L 429.901472 289.310454 
L 433.488249 289.310454 
L 437.075026 289.310454 
L 440.661803 289.310455 
L 444.24858 289.310455 
" style="fill:none;stroke:#ff0000;stroke-linecap:square;stroke-width:1.5;"/>
   </g>
   <g id="patch_3">
    <path d="M 71.403125 301.665 
L 71.403125 29.865 
" style="fill:none;stroke:#000000;stroke-linecap:square;stroke-linejoin:miter;stroke-width:0.8;"/>
   </g>
   <g id="patch_4">
    <path d="M 462.003125 301.665 
L 462.003125 29.865 
" style="fill:none;stroke:#000000;stroke-linecap:square;stroke-linejoin:miter;stroke-width:0.8;"/>
   </g>
   <g id="patch_5">
    <path d="M 71.403125 301.665 
L 462.003125 301.665 
" style="fill:none;stroke:#000000;stroke-linecap:square;stroke-linejoin:miter;stroke-width:0.8;"/>
   </g>
   <g id="patch_6">
    <path d="M 71.403125 29.865 
L 462.003125 29.865 
" style="fill:none;stroke:#000000;stroke-linecap:square;stroke-linejoin:miter;stroke-width:0.8;"/>
   </g>
   <g id="text_14">
    <!-- Reciprocity Relation -->
    <g transform="translate(167.061875 23.865)scale(0.24 -0.24)">
     <defs>
      <path d="M 67.578125 0 
L 49.90625 0 
L 27.484375 30.953125 
Q 25 30.859375 23.4375 30.859375 
Q 22.796875 30.859375 22.0625 30.875 
Q 21.34375 30.90625 20.5625 30.953125 
L 20.5625 11.71875 
Q 20.5625 5.46875 21.921875 3.953125 
Q 23.78125 1.8125 27.484375 1.8125 
L 30.078125 1.8125 
L 30.078125 0 
L 1.703125 0 
L 1.703125 1.8125 
L 4.203125 1.8125 
Q 8.40625 1.8125 10.203125 4.546875 
Q 11.234375 6.0625 11.234375 11.71875 
L 11.234375 54.5 
Q 11.234375 60.75 9.859375 62.25 
Q 7.953125 64.40625 4.203125 64.40625 
L 1.703125 64.40625 
L 1.703125 66.21875 
L 25.828125 66.21875 
Q 36.375 66.21875 41.375 64.671875 
Q 46.390625 63.140625 49.875 59.015625 
Q 53.375 54.890625 53.375 49.171875 
Q 53.375 43.0625 49.390625 38.5625 
Q 45.40625 34.078125 37.0625 32.234375 
L 50.734375 13.234375 
Q 55.421875 6.6875 58.78125 4.53125 
Q 62.15625 2.390625 67.578125 1.8125 
z
M 20.5625 34.03125 
Q 21.484375 34.03125 22.171875 34 
Q 22.859375 33.984375 23.296875 33.984375 
Q 32.765625 33.984375 37.578125 38.078125 
Q 42.390625 42.1875 42.390625 48.53125 
Q 42.390625 54.734375 38.5 58.609375 
Q 34.625 62.5 28.21875 62.5 
Q 25.390625 62.5 20.5625 61.578125 
z
" id="TimesNewRomanPSMT-82"/>
      <path d="M 10.640625 27.875 
Q 10.59375 17.921875 15.484375 12.25 
Q 20.359375 6.59375 26.953125 6.59375 
Q 31.34375 6.59375 34.59375 9 
Q 37.84375 11.421875 40.046875 17.28125 
L 41.546875 16.3125 
Q 40.53125 9.625 35.59375 4.125 
Q 30.671875 -1.375 23.25 -1.375 
Q 15.1875 -1.375 9.453125 4.90625 
Q 3.71875 11.1875 3.71875 21.78125 
Q 3.71875 33.25 9.59375 39.671875 
Q 15.484375 46.09375 24.359375 46.09375 
Q 31.890625 46.09375 36.71875 41.140625 
Q 41.546875 36.1875 41.546875 27.875 
z
M 10.640625 30.71875 
L 31.34375 30.71875 
Q 31.109375 35.015625 30.328125 36.765625 
Q 29.109375 39.5 26.6875 41.0625 
Q 24.265625 42.625 21.625 42.625 
Q 17.578125 42.625 14.375 39.46875 
Q 11.1875 36.328125 10.640625 30.71875 
z
" id="TimesNewRomanPSMT-101"/>
      <path d="M 41.109375 17 
Q 39.3125 8.15625 34.03125 3.390625 
Q 28.765625 -1.375 22.359375 -1.375 
Q 14.75 -1.375 9.078125 5.015625 
Q 3.421875 11.421875 3.421875 22.3125 
Q 3.421875 32.859375 9.6875 39.453125 
Q 15.96875 46.046875 24.75 46.046875 
Q 31.34375 46.046875 35.59375 42.546875 
Q 39.84375 39.0625 39.84375 35.296875 
Q 39.84375 33.453125 38.640625 32.296875 
Q 37.453125 31.15625 35.296875 31.15625 
Q 32.421875 31.15625 30.953125 33.015625 
Q 30.125 34.03125 29.859375 36.90625 
Q 29.59375 39.796875 27.875 41.3125 
Q 26.171875 42.78125 23.140625 42.78125 
Q 18.265625 42.78125 15.28125 39.15625 
Q 11.328125 34.375 11.328125 26.515625 
Q 11.328125 18.5 15.25 12.375 
Q 19.1875 6.25 25.875 6.25 
Q 30.671875 6.25 34.46875 9.515625 
Q 37.15625 11.765625 39.703125 17.671875 
z
" id="TimesNewRomanPSMT-99"/>
      <path d="M -0.09375 40.28125 
L 13.671875 45.84375 
L 15.53125 45.84375 
L 15.53125 35.40625 
Q 19 41.3125 22.484375 43.671875 
Q 25.984375 46.046875 29.828125 46.046875 
Q 36.578125 46.046875 41.0625 40.765625 
Q 46.578125 34.328125 46.578125 23.96875 
Q 46.578125 12.40625 39.9375 4.828125 
Q 34.46875 -1.375 26.171875 -1.375 
Q 22.5625 -1.375 19.921875 -0.34375 
Q 17.96875 0.390625 15.53125 2.59375 
L 15.53125 -11.03125 
Q 15.53125 -15.625 16.09375 -16.859375 
Q 16.65625 -18.109375 18.046875 -18.84375 
Q 19.4375 -19.578125 23.09375 -19.578125 
L 23.09375 -21.390625 
L -0.34375 -21.390625 
L -0.34375 -19.578125 
L 0.875 -19.578125 
Q 3.5625 -19.625 5.46875 -18.5625 
Q 6.390625 -18.015625 6.90625 -16.8125 
Q 7.421875 -15.625 7.421875 -10.75 
L 7.421875 31.546875 
Q 7.421875 35.890625 7.03125 37.0625 
Q 6.640625 38.234375 5.78125 38.8125 
Q 4.9375 39.40625 3.46875 39.40625 
Q 2.296875 39.40625 0.484375 38.71875 
z
M 15.53125 32.515625 
L 15.53125 15.828125 
Q 15.53125 10.40625 15.96875 8.6875 
Q 16.65625 5.859375 19.3125 3.703125 
Q 21.96875 1.5625 26.03125 1.5625 
Q 30.90625 1.5625 33.9375 5.375 
Q 37.890625 10.359375 37.890625 19.390625 
Q 37.890625 29.640625 33.40625 35.15625 
Q 30.28125 38.96875 25.984375 38.96875 
Q 23.640625 38.96875 21.34375 37.796875 
Q 19.578125 36.921875 15.53125 32.515625 
z
" id="TimesNewRomanPSMT-112"/>
      <path id="TimesNewRomanPSMT-32"/>
      <path d="M 16.15625 36.578125 
Q 24.03125 46.046875 31.15625 46.046875 
Q 34.8125 46.046875 37.453125 44.21875 
Q 40.09375 42.390625 41.65625 38.1875 
Q 42.71875 35.25 42.71875 29.203125 
L 42.71875 10.109375 
Q 42.71875 5.859375 43.40625 4.34375 
Q 43.953125 3.125 45.140625 2.4375 
Q 46.34375 1.765625 49.5625 1.765625 
L 49.5625 0 
L 27.4375 0 
L 27.4375 1.765625 
L 28.375 1.765625 
Q 31.5 1.765625 32.734375 2.703125 
Q 33.984375 3.65625 34.46875 5.515625 
Q 34.671875 6.25 34.671875 10.109375 
L 34.671875 28.421875 
Q 34.671875 34.515625 33.078125 37.28125 
Q 31.5 40.046875 27.734375 40.046875 
Q 21.921875 40.046875 16.15625 33.6875 
L 16.15625 10.109375 
Q 16.15625 5.5625 16.703125 4.5 
Q 17.390625 3.078125 18.578125 2.421875 
Q 19.78125 1.765625 23.4375 1.765625 
L 23.4375 0 
L 1.3125 0 
L 1.3125 1.765625 
L 2.296875 1.765625 
Q 5.71875 1.765625 6.90625 3.484375 
Q 8.109375 5.21875 8.109375 10.109375 
L 8.109375 26.703125 
Q 8.109375 34.765625 7.734375 36.515625 
Q 7.375 38.28125 6.609375 38.90625 
Q 5.859375 39.546875 4.59375 39.546875 
Q 3.21875 39.546875 1.3125 38.8125 
L 0.59375 40.578125 
L 14.0625 46.046875 
L 16.15625 46.046875 
z
" id="TimesNewRomanPSMT-110"/>
     </defs>
     <use xlink:href="#TimesNewRomanPSMT-82"/>
     <use x="66.699219" xlink:href="#TimesNewRomanPSMT-101"/>
     <use x="111.083984" xlink:href="#TimesNewRomanPSMT-99"/>
     <use x="155.46875" xlink:href="#TimesNewRomanPSMT-105"/>
     <use x="183.251953" xlink:href="#TimesNewRomanPSMT-112"/>
     <use x="233.251953" xlink:href="#TimesNewRomanPSMT-114"/>
     <use x="266.552734" xlink:href="#TimesNewRomanPSMT-111"/>
     <use x="316.552734" xlink:href="#TimesNewRomanPSMT-99"/>
     <use x="360.9375" xlink:href="#TimesNewRomanPSMT-105"/>
     <use x="388.720703" xlink:href="#TimesNewRomanPSMT-116"/>
     <use x="416.503906" xlink:href="#TimesNewRomanPSMT-121"/>
     <use x="466.503906" xlink:href="#TimesNewRomanPSMT-32"/>
     <use x="491.503906" xlink:href="#TimesNewRomanPSMT-82"/>
     <use x="558.203125" xlink:href="#TimesNewRomanPSMT-101"/>
     <use x="602.587891" xlink:href="#TimesNewRomanPSMT-108"/>
     <use x="630.371094" xlink:href="#TimesNewRomanPSMT-97"/>
     <use x="674.755859" xlink:href="#TimesNewRomanPSMT-116"/>
     <use x="702.539062" xlink:href="#TimesNewRomanPSMT-105"/>
     <use x="730.322266" xlink:href="#TimesNewRomanPSMT-111"/>
     <use x="780.322266" xlink:href="#TimesNewRomanPSMT-110"/>
    </g>
   </g>
   <g id="legend_1">
    <g id="patch_7">
     <path d="M 334.283125 87.94 
L 450.803125 87.94 
Q 454.003125 87.94 454.003125 84.74 
L 454.003125 41.065 
Q 454.003125 37.865 450.803125 37.865 
L 334.283125 37.865 
Q 331.083125 37.865 331.083125 41.065 
L 331.083125 84.74 
Q 331.083125 87.94 334.283125 87.94 
z
" style="fill:#ffffff;opacity:0.8;stroke:#cccccc;stroke-linejoin:miter;"/>
    </g>
    <g id="line2d_13">
     <path d="M 337.483125 49.865 
L 369.483125 49.865 
" style="fill:none;stroke:#ff0000;stroke-linecap:square;stroke-width:1.5;"/>
    </g>
    <g id="line2d_14"/>
    <g id="text_15">
     <!-- left hand -->
     <g transform="translate(382.283125 55.465)scale(0.16 -0.16)">
      <defs>
       <path d="M 20.609375 41.21875 
L 20.609375 11.8125 
Q 20.609375 5.5625 21.96875 3.90625 
Q 23.78125 1.765625 26.8125 1.765625 
L 30.859375 1.765625 
L 30.859375 0 
L 4.15625 0 
L 4.15625 1.765625 
L 6.15625 1.765625 
Q 8.109375 1.765625 9.71875 2.734375 
Q 11.328125 3.71875 11.9375 5.375 
Q 12.546875 7.03125 12.546875 11.8125 
L 12.546875 41.21875 
L 3.859375 41.21875 
L 3.859375 44.734375 
L 12.546875 44.734375 
L 12.546875 47.65625 
Q 12.546875 54.34375 14.6875 58.984375 
Q 16.84375 63.625 21.265625 66.484375 
Q 25.6875 69.34375 31.203125 69.34375 
Q 36.328125 69.34375 40.625 66.015625 
Q 43.453125 63.8125 43.453125 61.078125 
Q 43.453125 59.625 42.1875 58.328125 
Q 40.921875 57.03125 39.453125 57.03125 
Q 38.328125 57.03125 37.078125 57.828125 
Q 35.84375 58.640625 34.03125 61.296875 
Q 32.234375 63.96875 30.71875 64.890625 
Q 29.203125 65.828125 27.34375 65.828125 
Q 25.09375 65.828125 23.53125 64.625 
Q 21.96875 63.421875 21.28125 60.90625 
Q 20.609375 58.40625 20.609375 47.953125 
L 20.609375 44.734375 
L 32.125 44.734375 
L 32.125 41.21875 
z
" id="TimesNewRomanPSMT-102"/>
       <path d="M 16.265625 69.4375 
L 16.265625 36.71875 
Q 21.6875 42.671875 24.859375 44.359375 
Q 28.03125 46.046875 31.203125 46.046875 
Q 35.015625 46.046875 37.75 43.9375 
Q 40.484375 41.84375 41.796875 37.359375 
Q 42.71875 34.234375 42.71875 25.921875 
L 42.71875 10.109375 
Q 42.71875 5.859375 43.40625 4.296875 
Q 43.890625 3.125 45.0625 2.4375 
Q 46.234375 1.765625 49.359375 1.765625 
L 49.359375 0 
L 27.390625 0 
L 27.390625 1.765625 
L 28.421875 1.765625 
Q 31.546875 1.765625 32.765625 2.703125 
Q 33.984375 3.65625 34.46875 5.515625 
Q 34.625 6.296875 34.625 10.109375 
L 34.625 25.921875 
Q 34.625 33.25 33.859375 35.546875 
Q 33.109375 37.84375 31.4375 38.984375 
Q 29.78125 40.140625 27.4375 40.140625 
Q 25.046875 40.140625 22.453125 38.859375 
Q 19.875 37.59375 16.265625 33.734375 
L 16.265625 10.109375 
Q 16.265625 5.515625 16.765625 4.390625 
Q 17.28125 3.265625 18.671875 2.515625 
Q 20.0625 1.765625 23.484375 1.765625 
L 23.484375 0 
L 1.3125 0 
L 1.3125 1.765625 
Q 4.296875 1.765625 6 2.6875 
Q 6.984375 3.171875 7.5625 4.53125 
Q 8.15625 5.90625 8.15625 10.109375 
L 8.15625 50.59375 
Q 8.15625 58.25 7.78125 60 
Q 7.421875 61.765625 6.65625 62.390625 
Q 5.90625 63.03125 4.640625 63.03125 
Q 3.609375 63.03125 1.3125 62.25 
L 0.640625 63.96875 
L 14.015625 69.4375 
z
" id="TimesNewRomanPSMT-104"/>
       <path d="M 34.71875 5.03125 
Q 31.453125 1.609375 28.328125 0.109375 
Q 25.203125 -1.375 21.578125 -1.375 
Q 14.265625 -1.375 8.796875 4.75 
Q 3.328125 10.890625 3.328125 20.515625 
Q 3.328125 30.125 9.375 38.109375 
Q 15.4375 46.09375 24.953125 46.09375 
Q 30.859375 46.09375 34.71875 42.328125 
L 34.71875 50.59375 
Q 34.71875 58.25 34.34375 60 
Q 33.984375 61.765625 33.203125 62.390625 
Q 32.421875 63.03125 31.25 63.03125 
Q 29.984375 63.03125 27.875 62.25 
L 27.25 63.96875 
L 40.578125 69.4375 
L 42.78125 69.4375 
L 42.78125 17.71875 
Q 42.78125 9.859375 43.140625 8.125 
Q 43.5 6.390625 44.3125 5.703125 
Q 45.125 5.03125 46.1875 5.03125 
Q 47.515625 5.03125 49.703125 5.859375 
L 50.25 4.15625 
L 36.96875 -1.375 
L 34.71875 -1.375 
z
M 34.71875 8.453125 
L 34.71875 31.5 
Q 34.421875 34.8125 32.953125 37.546875 
Q 31.5 40.28125 29.078125 41.671875 
Q 26.65625 43.0625 24.359375 43.0625 
Q 20.0625 43.0625 16.703125 39.203125 
Q 12.25 34.125 12.25 24.359375 
Q 12.25 14.5 16.546875 9.25 
Q 20.84375 4 26.125 4 
Q 30.5625 4 34.71875 8.453125 
z
" id="TimesNewRomanPSMT-100"/>
      </defs>
      <use xlink:href="#TimesNewRomanPSMT-108"/>
      <use x="27.783203" xlink:href="#TimesNewRomanPSMT-101"/>
      <use x="72.167969" xlink:href="#TimesNewRomanPSMT-102"/>
      <use x="105.46875" xlink:href="#TimesNewRomanPSMT-116"/>
      <use x="133.251953" xlink:href="#TimesNewRomanPSMT-32"/>
      <use x="158.251953" xlink:href="#TimesNewRomanPSMT-104"/>
      <use x="208.251953" xlink:href="#TimesNewRomanPSMT-97"/>
      <use x="252.636719" xlink:href="#TimesNewRomanPSMT-110"/>
      <use x="302.636719" xlink:href="#TimesNewRomanPSMT-100"/>
     </g>
    </g>
    <g id="PathCollection_2">
     <g>
      <use style="fill:#1f77b4;stroke:#1f77b4;" x="353.483125" xlink:href="#m72b9be34ca" y="73.8875"/>
     </g>
    </g>
    <g id="text_16">
     <!-- right hand -->
     <g transform="translate(382.283125 78.0875)scale(0.16 -0.16)">
      <defs>
       <path d="M 15.09375 16.3125 
Q 10.984375 18.3125 8.78125 21.890625 
Q 6.59375 25.484375 6.59375 29.828125 
Q 6.59375 36.46875 11.59375 41.25 
Q 16.609375 46.046875 24.421875 46.046875 
Q 30.8125 46.046875 35.5 42.921875 
L 44.96875 42.921875 
Q 47.078125 42.921875 47.40625 42.796875 
Q 47.75 42.671875 47.90625 42.390625 
Q 48.1875 41.9375 48.1875 40.828125 
Q 48.1875 39.546875 47.953125 39.0625 
Q 47.796875 38.8125 47.4375 38.671875 
Q 47.078125 38.53125 44.96875 38.53125 
L 39.15625 38.53125 
Q 41.890625 35.015625 41.890625 29.546875 
Q 41.890625 23.296875 37.109375 18.84375 
Q 32.328125 14.40625 24.265625 14.40625 
Q 20.953125 14.40625 17.484375 15.375 
Q 15.328125 13.53125 14.5625 12.140625 
Q 13.8125 10.75 13.8125 9.765625 
Q 13.8125 8.9375 14.625 8.15625 
Q 15.4375 7.375 17.78125 7.03125 
Q 19.140625 6.84375 24.609375 6.6875 
Q 34.671875 6.453125 37.640625 6 
Q 42.1875 5.375 44.890625 2.640625 
Q 47.609375 -0.09375 47.609375 -4.109375 
Q 47.609375 -9.625 42.4375 -14.453125 
Q 34.8125 -21.578125 22.5625 -21.578125 
Q 13.140625 -21.578125 6.640625 -17.328125 
Q 2.984375 -14.890625 2.984375 -12.25 
Q 2.984375 -11.078125 3.515625 -9.90625 
Q 4.34375 -8.109375 6.9375 -4.890625 
Q 7.28125 -4.4375 11.921875 0.390625 
Q 9.375 1.90625 8.328125 3.09375 
Q 7.28125 4.296875 7.28125 5.8125 
Q 7.28125 7.515625 8.671875 9.8125 
Q 10.0625 12.109375 15.09375 16.3125 
z
M 23.578125 43.703125 
Q 19.96875 43.703125 17.53125 40.8125 
Q 15.09375 37.9375 15.09375 31.984375 
Q 15.09375 24.265625 18.40625 20.015625 
Q 20.953125 16.796875 24.859375 16.796875 
Q 28.5625 16.796875 30.953125 19.578125 
Q 33.34375 22.359375 33.34375 28.328125 
Q 33.34375 36.078125 29.984375 40.484375 
Q 27.484375 43.703125 23.578125 43.703125 
z
M 14.59375 0 
Q 12.3125 -2.484375 11.140625 -4.625 
Q 9.96875 -6.78125 9.96875 -8.59375 
Q 9.96875 -10.9375 12.796875 -12.703125 
Q 17.671875 -15.71875 26.90625 -15.71875 
Q 35.6875 -15.71875 39.859375 -12.609375 
Q 44.046875 -9.515625 44.046875 -6 
Q 44.046875 -3.46875 41.546875 -2.390625 
Q 39.015625 -1.3125 31.5 -1.125 
Q 20.515625 -0.828125 14.59375 0 
z
" id="TimesNewRomanPSMT-103"/>
      </defs>
      <use xlink:href="#TimesNewRomanPSMT-114"/>
      <use x="33.300781" xlink:href="#TimesNewRomanPSMT-105"/>
      <use x="61.083984" xlink:href="#TimesNewRomanPSMT-103"/>
      <use x="111.083984" xlink:href="#TimesNewRomanPSMT-104"/>
      <use x="161.083984" xlink:href="#TimesNewRomanPSMT-116"/>
      <use x="188.867188" xlink:href="#TimesNewRomanPSMT-32"/>
      <use x="213.867188" xlink:href="#TimesNewRomanPSMT-104"/>
      <use x="263.867188" xlink:href="#TimesNewRomanPSMT-97"/>
      <use x="308.251953" xlink:href="#TimesNewRomanPSMT-110"/>
      <use x="358.251953" xlink:href="#TimesNewRomanPSMT-100"/>
     </g>
    </g>
   </g>
  </g>
 </g>
 <defs>
  <clipPath id="p2c0e931803">
   <rect height="271.8" width="390.6" x="71.403125" y="29.865"/>
  </clipPath>
 </defs>
</svg>
